<svg width="135" height="48" viewBox="0 0 135 48" fill="none" xmlns="http://www.w3.org/2000/svg">
<path d="M43.829 33.3025H52.8335V37H39.595V15.54H52.6885V19.2375H43.829V24.182H51.2385V27.8795H43.829V33.3025ZM60.9662 37.3045C58.6752 37.3045 56.9352 36.6375 55.7462 35.3035C54.5572 33.9695 53.9627 31.896 53.9627 29.083C53.9627 26.2313 54.6152 24.153 55.9202 22.848C57.2252 21.543 59.0957 20.8905 61.5317 20.8905C62.5274 20.8905 63.4699 20.9823 64.3592 21.166V24.646C63.6632 24.501 62.9865 24.4285 62.3292 24.4285C61.3915 24.4285 60.6375 24.5735 60.0672 24.8635C59.4969 25.1535 59.0715 25.632 58.7912 26.299C58.5205 26.966 58.3852 27.8698 58.3852 29.0105C58.3852 30.2092 58.5109 31.1565 58.7622 31.8525C59.0232 32.5388 59.405 33.027 59.9077 33.317C60.42 33.607 61.0822 33.752 61.8942 33.752C62.5805 33.752 63.4022 33.5973 64.3592 33.288V36.768C63.2765 37.1257 62.1455 37.3045 60.9662 37.3045ZM72.0872 37.3045C69.9412 37.3045 68.2979 36.6423 67.1572 35.318C66.0262 33.984 65.4607 31.9298 65.4607 29.1555C65.4607 23.6455 67.6696 20.8905 72.0872 20.8905C74.2236 20.8905 75.8621 21.572 77.0027 22.935C78.1434 24.2883 78.7137 26.3473 78.7137 29.112C78.7137 34.5737 76.5049 37.3045 72.0872 37.3045ZM72.0872 34.1145C72.6092 34.1145 73.0346 33.9792 73.3632 33.7085C73.6919 33.4378 73.9432 32.9448 74.1172 32.2295C74.2912 31.5045 74.3782 30.4847 74.3782 29.17C74.3782 27.8263 74.2864 26.7823 74.1027 26.038C73.9287 25.2937 73.6774 24.7813 73.3487 24.501C73.0201 24.211 72.5996 24.066 72.0872 24.066C71.5749 24.066 71.1544 24.2062 70.8257 24.4865C70.4971 24.7668 70.2409 25.2743 70.0572 26.009C69.8832 26.7437 69.7962 27.7732 69.7962 29.0975C69.7962 30.4315 69.8832 31.4658 70.0572 32.2005C70.2312 32.9255 70.4826 33.4282 70.8112 33.7085C71.1399 33.9792 71.5652 34.1145 72.0872 34.1145ZM84.5289 33.665H90.7929V37H79.8164V34.3755L85.9354 24.472H79.9614V21.137H90.6479V23.7615L84.5289 33.665ZM98.3402 37.3045C96.1942 37.3045 94.5508 36.6423 93.4102 35.318C92.2792 33.984 91.7137 31.9298 91.7137 29.1555C91.7137 23.6455 93.9225 20.8905 98.3402 20.8905C100.476 20.8905 102.115 21.572 103.256 22.935C104.396 24.2883 104.967 26.3473 104.967 29.112C104.967 34.5737 102.758 37.3045 98.3402 37.3045ZM98.3402 34.1145C98.8622 34.1145 99.2875 33.9792 99.6162 33.7085C99.9448 33.4378 100.196 32.9448 100.37 32.2295C100.544 31.5045 100.631 30.4847 100.631 29.17C100.631 27.8263 100.539 26.7823 100.356 26.038C100.182 25.2937 99.9303 24.7813 99.6017 24.501C99.273 24.211 98.8525 24.066 98.3402 24.066C97.8278 24.066 97.4073 24.2062 97.0787 24.4865C96.75 24.7668 96.4938 25.2743 96.3102 26.009C96.1362 26.7437 96.0492 27.7732 96.0492 29.0975C96.0492 30.4315 96.1362 31.4658 96.3102 32.2005C96.4842 32.9255 96.7355 33.4282 97.0642 33.7085C97.3928 33.9792 97.8182 34.1145 98.3402 34.1145ZM107.163 21.137H110.687L110.991 22.8045H111.194C112.19 21.5285 113.509 20.8905 115.153 20.8905C116.516 20.8905 117.598 21.3303 118.401 22.21C119.213 23.0897 119.619 24.501 119.619 26.444V37H115.385V26.763C115.385 25.9993 115.23 25.458 114.921 25.139C114.621 24.82 114.196 24.6605 113.645 24.6605C113.219 24.6605 112.799 24.762 112.383 24.965C111.977 25.1583 111.649 25.4483 111.397 25.835V37H107.163V21.137ZM134.145 30.388H126.04C126.078 31.2773 126.223 31.9782 126.475 32.4905C126.736 32.9932 127.137 33.3557 127.678 33.578C128.22 33.7907 128.954 33.897 129.882 33.897C130.868 33.897 132.038 33.7182 133.391 33.3605V36.768C132.637 36.9517 131.941 37.087 131.303 37.174C130.665 37.261 130.013 37.3045 129.346 37.3045C127.557 37.3045 126.107 37.0242 124.996 36.4635C123.884 35.8932 123.062 35.0038 122.531 33.7955C121.999 32.5775 121.733 30.9825 121.733 29.0105C121.733 26.3425 122.289 24.3222 123.401 22.9495C124.522 21.5768 126.117 20.8905 128.186 20.8905C130.138 20.8905 131.617 21.5768 132.623 22.9495C133.638 24.3222 134.145 26.3812 134.145 29.1265V30.388ZM128.157 23.7035C127.693 23.7035 127.306 23.8195 126.997 24.0515C126.697 24.2835 126.46 24.6992 126.286 25.2985C126.122 25.8882 126.035 26.7098 126.025 27.7635H130.187C130.177 26.7002 130.095 25.8737 129.94 25.284C129.786 24.6943 129.563 24.2835 129.273 24.0515C128.983 23.8195 128.611 23.7035 128.157 23.7035Z" fill="white"/>
<g clip-path="url(#clip0_289_157)">
<path d="M5.27427 33.3561C6.07682 32.0472 6.87937 30.7765 7.63096 29.4804C7.97491 28.8958 8.3316 28.6925 9.05771 28.756C10.8794 28.9085 12.7138 28.9848 14.5354 28.9594C17.9367 28.9085 21.287 28.5019 24.5227 27.3583C25.1851 27.1295 25.4271 26.6212 25.1341 26.1257C24.9176 25.7572 24.5354 25.6936 24.0004 25.8334C22.4462 26.2273 20.9048 26.6467 19.3252 26.9389C17.045 27.3583 14.7392 27.4091 12.4335 27.3583C11.4017 27.3328 10.3826 27.282 9.2488 27.2439C9.56727 26.8246 9.82204 26.4815 10.0896 26.1511C11.9749 23.7494 14.0386 21.5002 16.2552 19.3909C16.408 19.2384 16.701 19.1621 16.9303 19.1621C21.1978 19.2002 25.4017 18.819 29.5291 17.65C29.8985 17.5483 30.2552 17.4339 30.6119 17.3069C31.0959 17.129 31.3125 16.7223 31.1724 16.303C31.0195 15.8455 30.6119 15.6168 30.115 15.782C28.0004 16.4555 25.8603 16.9384 23.6564 17.1798C21.8985 17.3704 20.1405 17.4721 18.3826 17.6118C18.3316 17.5356 18.2806 17.4467 18.2424 17.3704C18.3698 17.3069 18.5099 17.2688 18.6119 17.1798C23.3507 13.0246 28.4335 9.36489 33.9112 6.22621C34.1915 6.07372 34.4717 5.78146 34.5609 5.48919C34.6246 5.27317 34.459 4.86654 34.2679 4.72676C34.0768 4.58698 33.6819 4.56157 33.4399 4.65052C33.0068 4.80301 32.6246 5.06986 32.2297 5.31129C28.408 7.57317 24.752 10.0892 21.2743 12.8594C21.1469 12.961 21.0195 13.05 20.7902 13.2152C20.8794 12.5671 20.9303 12.008 21.0322 11.4616C21.4271 9.51737 22.166 7.76378 23.7711 6.48035C24.1533 6.17538 24.1787 5.66709 23.9112 5.33671C23.6182 4.98091 23.1724 4.93008 22.7647 5.24776C21.4271 6.26433 20.5736 7.61129 20.0131 9.16157C19.4271 10.7754 19.1978 12.44 19.1469 14.1555C19.1469 14.3715 19.045 14.6638 18.8921 14.8036C16.2552 17.0654 13.7584 19.4671 11.4399 22.0467C11.3889 22.1102 11.3507 22.1864 11.2615 22.3135C11.1978 22.161 11.1724 22.1102 11.1724 22.0594C11.1341 19.0859 11.3889 16.1505 12.4208 13.3549C12.8284 12.2494 13.4526 11.2201 14.0259 10.1909C14.3443 9.61903 14.2552 9.07262 13.7201 8.88201C13.2743 8.72953 12.9558 8.92013 12.701 9.27594C11.6182 10.75 10.9176 12.4146 10.4462 14.1682C9.60548 17.2815 9.43988 20.4583 9.58001 23.6605C9.59274 23.94 9.4781 24.2831 9.29975 24.5118C7.38892 26.9135 5.6437 29.4295 4.17873 32.1362C4.11504 32.2378 4.05134 32.3395 3.96217 32.492C2.94306 31.2339 2.12778 29.9251 1.49083 28.5019C-0.636556 23.7748 -0.165218 19.1621 2.40803 14.7781C5.45262 9.54279 9.82205 5.79417 15.6437 3.81185C19.9112 2.35052 24.2679 1.32124 28.7265 0.647757C31.9749 0.164884 35.2361 -0.114674 38.5099 0.0378121C40.1405 0.114055 41.7584 0.393613 43.3762 0.622343C43.5928 0.647757 43.7966 0.863779 44.0004 0.978144C43.873 1.18146 43.7966 1.4229 43.6182 1.58809C41.0322 3.98975 39.0705 6.83616 37.4526 9.94942C35.4654 13.7743 34.1915 17.8406 33.338 22.0594C32.6246 25.6047 31.4017 28.9594 29.1724 31.8693C26.9558 34.7665 24.0768 36.6218 20.4462 37.1936C18.1915 37.5494 15.9494 37.3715 13.7201 36.8505C10.752 36.1389 8.00039 34.9063 5.27427 33.3561Z" fill="url(#paint0_linear_289_157)"/>
<path d="M3.52829 33.585C3.60472 33.6104 3.64294 33.6104 3.66841 33.6231C4.76396 34.2076 4.76396 34.2076 4.2544 35.3258C2.81491 38.4899 1.84676 41.7938 1.46459 45.2502C1.4009 45.7839 1.08243 46.0507 0.61109 45.9872C0.203447 45.9363 -0.0513306 45.5805 -0.00037516 45.1104C0.432746 41.133 1.61746 37.3717 3.4009 33.7883C3.43912 33.7374 3.47733 33.6739 3.52829 33.585Z" fill="url(#paint1_linear_289_157)"/>
</g>
<defs>
<linearGradient id="paint0_linear_289_157" x1="22.0744" y1="-0.00390625" x2="22.0744" y2="37.3793" gradientUnits="userSpaceOnUse">
<stop stop-color="#4BAF47"/>
<stop offset="1" stop-color="#026B39"/>
</linearGradient>
<linearGradient id="paint1_linear_289_157" x1="2.2885" y1="33.585" x2="2.2885" y2="45.9964" gradientUnits="userSpaceOnUse">
<stop stop-color="#4BAF47"/>
<stop offset="1" stop-color="#026B39"/>
</linearGradient>
<clipPath id="clip0_289_157">
<rect width="44" height="46" fill="white"/>
</clipPath>
</defs>
</svg>
