<svg width="135" height="48" viewBox="0 0 135 48" fill="none" xmlns="http://www.w3.org/2000/svg">
<path d="M43.829 33.3025H52.8335V37H39.595V15.54H52.6885V19.2375H43.829V24.182H51.2385V27.8795H43.829V33.3025ZM60.9662 37.3045C58.6752 37.3045 56.9352 36.6375 55.7462 35.3035C54.5572 33.9695 53.9627 31.896 53.9627 29.083C53.9627 26.2313 54.6152 24.153 55.9202 22.848C57.2252 21.543 59.0957 20.8905 61.5317 20.8905C62.5274 20.8905 63.4699 20.9823 64.3592 21.166V24.646C63.6632 24.501 62.9865 24.4285 62.3292 24.4285C61.3915 24.4285 60.6375 24.5735 60.0672 24.8635C59.4969 25.1535 59.0715 25.632 58.7912 26.299C58.5205 26.966 58.3852 27.8698 58.3852 29.0105C58.3852 30.2092 58.5109 31.1565 58.7622 31.8525C59.0232 32.5388 59.405 33.027 59.9077 33.317C60.42 33.607 61.0822 33.752 61.8942 33.752C62.5805 33.752 63.4022 33.5973 64.3592 33.288V36.768C63.2765 37.1257 62.1455 37.3045 60.9662 37.3045ZM72.0872 37.3045C69.9412 37.3045 68.2979 36.6423 67.1572 35.318C66.0262 33.984 65.4607 31.9298 65.4607 29.1555C65.4607 23.6455 67.6696 20.8905 72.0872 20.8905C74.2236 20.8905 75.8621 21.572 77.0027 22.935C78.1434 24.2883 78.7137 26.3473 78.7137 29.112C78.7137 34.5737 76.5049 37.3045 72.0872 37.3045ZM72.0872 34.1145C72.6092 34.1145 73.0346 33.9792 73.3632 33.7085C73.6919 33.4378 73.9432 32.9448 74.1172 32.2295C74.2912 31.5045 74.3782 30.4847 74.3782 29.17C74.3782 27.8263 74.2864 26.7823 74.1027 26.038C73.9287 25.2937 73.6774 24.7813 73.3487 24.501C73.0201 24.211 72.5996 24.066 72.0872 24.066C71.5749 24.066 71.1544 24.2062 70.8257 24.4865C70.4971 24.7668 70.2409 25.2743 70.0572 26.009C69.8832 26.7437 69.7962 27.7732 69.7962 29.0975C69.7962 30.4315 69.8832 31.4658 70.0572 32.2005C70.2312 32.9255 70.4826 33.4282 70.8112 33.7085C71.1399 33.9792 71.5652 34.1145 72.0872 34.1145ZM84.5289 33.665H90.7929V37H79.8164V34.3755L85.9354 24.472H79.9614V21.137H90.6479V23.7615L84.5289 33.665ZM98.3402 37.3045C96.1942 37.3045 94.5508 36.6423 93.4102 35.318C92.2792 33.984 91.7137 31.9298 91.7137 29.1555C91.7137 23.6455 93.9225 20.8905 98.3402 20.8905C100.476 20.8905 102.115 21.572 103.256 22.935C104.396 24.2883 104.967 26.3473 104.967 29.112C104.967 34.5737 102.758 37.3045 98.3402 37.3045ZM98.3402 34.1145C98.8622 34.1145 99.2875 33.9792 99.6162 33.7085C99.9448 33.4378 100.196 32.9448 100.37 32.2295C100.544 31.5045 100.631 30.4847 100.631 29.17C100.631 27.8263 100.539 26.7823 100.356 26.038C100.182 25.2937 99.9303 24.7813 99.6017 24.501C99.273 24.211 98.8525 24.066 98.3402 24.066C97.8278 24.066 97.4073 24.2062 97.0787 24.4865C96.75 24.7668 96.4938 25.2743 96.3102 26.009C96.1362 26.7437 96.0492 27.7732 96.0492 29.0975C96.0492 30.4315 96.1362 31.4658 96.3102 32.2005C96.4842 32.9255 96.7355 33.4282 97.0642 33.7085C97.3928 33.9792 97.8182 34.1145 98.3402 34.1145ZM107.163 21.137H110.687L110.991 22.8045H111.194C112.19 21.5285 113.509 20.8905 115.153 20.8905C116.516 20.8905 117.598 21.3303 118.401 22.21C119.213 23.0897 119.619 24.501 119.619 26.444V37H115.385V26.763C115.385 25.9993 115.23 25.458 114.921 25.139C114.621 24.82 114.196 24.6605 113.645 24.6605C113.219 24.6605 112.799 24.762 112.383 24.965C111.977 25.1583 111.649 25.4483 111.397 25.835V37H107.163V21.137ZM134.145 30.388H126.04C126.078 31.2773 126.223 31.9782 126.475 32.4905C126.736 32.9932 127.137 33.3557 127.678 33.578C128.22 33.7907 128.954 33.897 129.882 33.897C130.868 33.897 132.038 33.7182 133.391 33.3605V36.768C132.637 36.9517 131.941 37.087 131.303 37.174C130.665 37.261 130.013 37.3045 129.346 37.3045C127.557 37.3045 126.107 37.0242 124.996 36.4635C123.884 35.8932 123.062 35.0038 122.531 33.7955C121.999 32.5775 121.733 30.9825 121.733 29.0105C121.733 26.3425 122.289 24.3222 123.401 22.9495C124.522 21.5768 126.117 20.8905 128.186 20.8905C130.138 20.8905 131.617 21.5768 132.623 22.9495C133.638 24.3222 134.145 26.3812 134.145 29.1265V30.388ZM128.157 23.7035C127.693 23.7035 127.306 23.8195 126.997 24.0515C126.697 24.2835 126.46 24.6992 126.286 25.2985C126.122 25.8882 126.035 26.7098 126.025 27.7635H130.187C130.177 26.7002 130.095 25.8737 129.94 25.284C129.786 24.6943 129.563 24.2835 129.273 24.0515C128.983 23.8195 128.611 23.7035 128.157 23.7035Z" fill="#191919"/>
<g clip-path="url(#clip0_825_361)">
<path d="M5.27378 33.3564C6.07633 32.0475 6.87888 30.7768 7.63047 29.4807C7.97442 28.8961 8.33111 28.6928 9.05723 28.7564C10.8789 28.9088 12.7133 28.9851 14.5349 28.9597C17.9362 28.9088 21.2865 28.5022 24.5222 27.3586C25.1846 27.1298 25.4267 26.6216 25.1337 26.126C24.9171 25.7575 24.5349 25.6939 23.9999 25.8337C22.4458 26.2276 20.9044 26.647 19.3247 26.9392C17.0445 27.3586 14.7388 27.4094 12.433 27.3586C11.4012 27.3332 10.3821 27.2823 9.24831 27.2442C9.56678 26.8249 9.82156 26.4818 10.0891 26.1514C11.9744 23.7497 14.0381 21.5006 16.2547 19.3912C16.4075 19.2387 16.7005 19.1624 16.9298 19.1624C21.1974 19.2006 25.4012 18.8193 29.5286 17.6503C29.898 17.5486 30.2547 17.4343 30.6114 17.3072C31.0954 17.1293 31.312 16.7227 31.1719 16.3033C31.019 15.8459 30.6114 15.6171 30.1146 15.7823C27.9999 16.4558 25.8598 16.9387 23.656 17.1801C21.898 17.3707 20.14 17.4724 18.3821 17.6122C18.3311 17.5359 18.2802 17.447 18.2419 17.3707C18.3693 17.3072 18.5095 17.2691 18.6114 17.1801C23.3502 13.0249 28.433 9.36519 33.9107 6.22652C34.191 6.07403 34.4712 5.78177 34.5604 5.4895C34.6241 5.27348 34.4585 4.86685 34.2674 4.72707C34.0763 4.58729 33.6814 4.56188 33.4394 4.65083C33.0063 4.80332 32.6241 5.07017 32.2292 5.3116C28.4075 7.57348 24.7515 10.0895 21.2738 12.8597C21.1464 12.9613 21.019 13.0503 20.7897 13.2155C20.8789 12.5674 20.9298 12.0083 21.0317 11.4619C21.4267 9.51768 22.1655 7.76409 23.7706 6.48066C24.1528 6.17569 24.1782 5.6674 23.9107 5.33702C23.6177 4.98122 23.1719 4.93039 22.7642 5.24807C21.4267 6.26464 20.5732 7.6116 20.0126 9.16188C19.4267 10.7757 19.1974 12.4403 19.1464 14.1558C19.1464 14.3718 19.0445 14.6641 18.8916 14.8039C16.2547 17.0657 13.7579 19.4674 11.4394 22.047C11.3884 22.1105 11.3502 22.1867 11.261 22.3138C11.1974 22.1613 11.1719 22.1105 11.1719 22.0597C11.1337 19.0862 11.3884 16.1508 12.4203 13.3553C12.8279 12.2497 13.4521 11.2204 14.0254 10.1912C14.3439 9.61934 14.2547 9.07293 13.7196 8.88232C13.2738 8.72984 12.9553 8.92044 12.7005 9.27624C11.6177 10.7503 10.9171 12.4149 10.4458 14.1685C9.605 17.2818 9.43939 20.4586 9.57952 23.6608C9.59226 23.9403 9.47761 24.2834 9.29926 24.5122C7.38843 26.9138 5.64321 29.4298 4.17824 32.1365C4.11455 32.2381 4.05085 32.3398 3.96168 32.4923C2.94257 31.2343 2.12729 29.9254 1.49034 28.5022C-0.637044 23.7751 -0.165707 19.1624 2.40754 14.7785C5.45213 9.5431 9.82156 5.79448 15.6432 3.81215C19.9107 2.35083 24.2674 1.32155 28.726 0.648066C31.9744 0.165193 35.2356 -0.114365 38.5095 0.0381211C40.14 0.114364 41.7579 0.393922 43.3757 0.622652C43.5923 0.648066 43.7961 0.864088 43.9999 0.978453C43.8725 1.18177 43.7961 1.4232 43.6177 1.5884C41.0317 3.99006 39.07 6.83646 37.4521 9.94973C35.4649 13.7746 34.191 17.8409 33.3375 22.0597C32.6241 25.605 31.4012 28.9597 29.1719 31.8696C26.9553 34.7669 24.0763 36.6221 20.4458 37.1939C18.191 37.5497 15.9489 37.3718 13.7196 36.8508C10.7515 36.1392 7.9999 34.9066 5.27378 33.3564Z" fill="url(#paint0_linear_825_361)"/>
<path d="M3.52878 33.5851C3.60521 33.6105 3.64343 33.6105 3.6689 33.6232C4.76444 34.2077 4.76444 34.2077 4.25489 35.326C2.8154 38.4901 1.84725 41.7939 1.46508 45.2503C1.40139 45.784 1.08292 46.0508 0.611578 45.9873C0.203935 45.9365 -0.0508423 45.5807 0.000113121 45.1105C0.433234 41.1331 1.61795 37.3718 3.40139 33.7884C3.4396 33.7376 3.47782 33.674 3.52878 33.5851Z" fill="url(#paint1_linear_825_361)"/>
</g>
<defs>
<linearGradient id="paint0_linear_825_361" x1="22.0739" y1="-0.00359726" x2="22.0739" y2="37.3796" gradientUnits="userSpaceOnUse">
<stop stop-color="#4BAF47"/>
<stop offset="1" stop-color="#026B39"/>
</linearGradient>
<linearGradient id="paint1_linear_825_361" x1="2.28899" y1="33.5851" x2="2.28899" y2="45.9965" gradientUnits="userSpaceOnUse">
<stop stop-color="#4BAF47"/>
<stop offset="1" stop-color="#026B39"/>
</linearGradient>
<clipPath id="clip0_825_361">
<rect width="44" height="46" fill="white"/>
</clipPath>
</defs>
</svg>
