<svg width="224" height="48" viewBox="0 0 224 48" fill="none" xmlns="http://www.w3.org/2000/svg">
<path fill-rule="evenodd" clip-rule="evenodd" d="M133.101 41.1349L129.582 28.6383C136.377 27.8501 139.044 21.9699 139.044 17.5442C139.044 12.5689 135.767 6.38282 127.095 6.38282H105.688L104.233 12.8126H108.296L105.443 25.1391H110.954L109.782 30.037H104.346L101.746 41.1349H97.6804L96.1637 47.5647H116.541L118.12 41.1349H112.173L114.905 29.2488H120.666L125.215 47.5659H137.862L139.379 41.1361L133.101 41.1349ZM120.545 23.9702H116.118L118.726 12.8126H123.459C126.307 12.8126 128.37 14.389 128.37 17.4833C128.37 22.3342 124.732 23.9702 120.545 23.9702ZM92.6214 25.1404H96.8745C96.2983 16.3346 89.819 11.8277 81.837 11.8277C74.4096 11.8277 67.4353 15.9615 66.8426 25.1505H72.3928L71.2188 30.0484H67.1459C68.5979 37.3336 74.487 41.8431 81.837 41.8431C89.5525 41.8431 95.1458 37.0239 96.5686 30.0357H91.4385L92.6214 25.1404ZM81.8357 34.7521C78.3149 34.7521 76.1928 31.8418 76.1928 26.9909C76.1928 21.8341 78.1956 18.9238 81.8357 18.9238C85.472 18.9238 87.5344 21.8341 87.5344 26.8068C87.5344 31.8418 85.4732 34.7521 81.8357 34.7521ZM23.3127 0H1.74388L0 6.97681H5.43727V25.2013H10.6156L9.47206 30.0801H9.44922L9.44541 30.0979H5.43727V34.205H1.64996L0.00126851 41.1831H20.7083L22.3519 34.205H15.794V26.2027H22.4636C32.7734 26.2027 36.6571 19.302 36.6571 13.1007C36.6571 6.57955 31.9243 0 23.3127 0ZM18.7664 19.2272H15.7952V6.97553H19.9201C23.3775 6.97553 25.9235 9.34006 25.9235 13.1616C25.9235 17.2231 23.6783 19.2272 18.7664 19.2272ZM63.4069 12.1196C58.6765 12.1196 55.0987 14.8471 53.4017 19.8199H53.2786V12.5435H41.8609L40.2147 19.1548H44.9704V25.2076H50.2934L49.1334 30.0788H49.1296L49.1232 30.1042H44.9704V34.6213H41.291L39.6448 41.2301H58.8606L60.4115 34.6213H54.2496V31.5892C54.2496 25.7686 57.3693 20.7921 61.6262 20.7921H62.5248L64.9375 12.1196H63.4069ZM169.593 25.195C168.27 20.3885 164.182 18.2219 156.631 18.2219C153.359 18.2219 150.681 18.6636 148.506 19.5762L149.515 23.8153L150.06 26.0479C151.785 24.7787 153.239 24.0425 155.361 24.0425C158.638 24.0425 160.819 26.105 160.819 29.0774L160.757 30.0243C157.876 29.2881 157.235 29.1587 154.322 29.2881C147.475 29.5851 143.475 34.3573 143.475 39.938C143.475 45.0922 147.051 48 153.056 48C155.844 48 158.153 47.2118 160.819 45.3321V47.5786H174.424L175.974 40.9673H170.096V30.174H164.67L165.905 25.1962L169.593 25.195ZM160.818 39.3275C158.394 41.5093 156.938 42.2975 155.119 42.2975C152.601 42.2975 150.786 40.6615 150.786 38.4797C150.786 36.4173 152.601 34.9006 155.541 34.9006C156.94 34.9006 158.576 35.0326 160.818 36.4896V39.3275ZM188.949 15.6899C189.61 15.6909 190.265 15.5613 190.876 15.3085C191.487 15.0558 192.041 14.6848 192.509 14.217C192.976 13.7491 193.346 13.1936 193.598 12.5824C193.85 11.9711 193.978 11.3161 193.976 10.655C193.976 7.86779 191.735 5.68349 188.949 5.68349C186.155 5.68349 183.974 7.86652 183.974 10.655C183.974 13.4447 186.155 15.6899 188.949 15.6899ZM193.495 40.9191V18.8426H181.678L180.223 25.195H189.978L188.805 30.1283H184.215V40.9191H181.678L180.127 47.5304H198.059L199.516 40.9191H193.495ZM217.474 40.9661V6.67855H205.414L203.865 13.0055H208.195V25.228H213.667L212.489 30.1728H208.195V40.9661H205.319L203.865 47.5774H221.512L223.061 40.9661H217.474Z" fill="#C23147"/>
</svg>
