<svg width="123" height="48" viewBox="0 0 123 48" fill="none" xmlns="http://www.w3.org/2000/svg">
<path fill-rule="evenodd" clip-rule="evenodd" d="M114.599 12.2275C116.983 12.8548 119.493 11.3485 120.121 8.96404C120.749 6.45408 119.242 4.06893 116.733 3.44095C114.347 2.81362 111.837 4.31986 111.209 6.70436C110.583 9.21498 112.088 11.6001 114.599 12.2275Z" fill="#CC2229"/>
<path fill-rule="evenodd" clip-rule="evenodd" d="M16.1923 34.8216C15.6898 34.57 15.1879 34.57 14.686 34.57H12.8034V37.4571H14.9376C15.4395 37.4571 15.942 37.4571 16.3184 37.2055C16.6948 36.9552 16.9457 36.4527 16.9457 36.0756C16.9457 35.5744 16.5687 35.0713 16.1923 34.8216ZM35.1454 42.4776C35.8989 42.6024 36.6516 42.6024 37.4051 42.6024C38.0324 42.6024 39.7896 42.7273 39.7896 41.7242C39.7896 40.9714 39.0368 40.9714 38.4088 40.9714L36.1491 40.8453H35.3963C34.769 40.8453 34.141 40.8453 34.141 41.5981C34.1417 42.1012 34.6435 42.3515 35.1454 42.4776ZM16.1923 30.9296C16.4432 30.678 16.5687 30.3016 16.5687 29.9252C16.5687 28.7954 15.6898 28.5444 14.686 28.5444H12.8034V31.3066H14.8115C15.314 31.3066 15.8159 31.3066 16.1923 30.9296ZM37.1542 34.1936C37.907 34.1936 38.4088 33.5657 38.4088 32.8129C38.4088 31.8085 37.907 31.3066 37.028 31.3066C36.1491 31.3066 35.6473 31.9346 35.6473 32.6874C35.6479 33.6918 36.1498 34.1936 37.1542 34.1936Z" fill="#464551"/>
<path fill-rule="evenodd" clip-rule="evenodd" d="M107.193 10.5956L98.0303 19.884L90.4991 6.82966L83.8469 24.1511C81.7126 20.3858 73.0516 9.08935 60.7514 6.45327C55.9818 5.44889 51.2121 5.95076 46.9443 7.33153V0.930176H0V48H46.9437V14.6124C35.2715 17.2479 26.2334 24.5281 26.1086 24.6543L25.6061 23.9008C28.2421 21.6411 43.8064 8.71295 60.375 12.1018C73.9312 14.8634 83.973 26.6617 83.973 26.6617L91.3781 15.6162L97.7787 22.143L110.331 15.1137L107.193 10.5956ZM19.9575 40.0924C18.7022 40.9719 17.0705 40.9719 15.5643 40.9719H8.41011V25.1555H16.0668C17.3221 25.1555 18.5767 25.2803 19.4563 26.0337C19.994 26.3923 20.4354 26.8773 20.7418 27.4463C21.0481 28.0153 21.2101 28.6509 21.2135 29.2971C21.2135 31.0543 20.0836 32.4357 18.5774 32.8121C20.3346 33.1885 21.5899 34.5693 21.5899 36.4519C21.5899 37.7079 21.0873 39.3396 19.9575 40.0924ZM31.0037 37.9582C31.0037 36.5774 32.1335 35.8239 33.2634 35.4476C32.0081 34.9457 31.3807 34.0681 31.3807 32.6867C31.3807 29.6748 34.6441 29.0469 37.0293 29.0469C37.7821 29.0469 38.5355 29.0469 39.2883 29.2971C39.5399 27.5406 40.4182 26.5362 42.1753 26.5362H43.807L43.6816 29.6748H42.5511C42.1747 29.6748 41.5467 29.6748 41.2958 30.0512C42.0486 30.804 42.5511 31.6823 42.5511 32.8121C42.5511 35.6991 39.5386 36.3271 37.2796 36.3271H36.1497C35.7733 36.3271 35.0199 36.3271 35.0199 36.829C35.0199 37.457 35.8988 37.457 36.2752 37.457L39.5386 37.5818C40.543 37.5818 41.6722 37.7079 42.4256 38.3346C43.3039 39.0874 43.8064 40.2185 43.8064 41.2216C43.8064 42.9787 42.6765 43.9838 41.1703 44.485C39.915 44.9881 38.1578 44.9881 36.7771 44.9881C34.769 44.9881 30.3757 44.862 30.3757 42.1011C30.3757 40.9713 31.003 40.2185 32.0074 39.8408C31.3801 39.3396 31.0037 38.8377 31.0037 37.9582ZM23.9744 29.2971H28.4931V40.9713H23.9744V29.2971Z" fill="#464551"/>
<path fill-rule="evenodd" clip-rule="evenodd" d="M63.3875 35.198C63.1359 38.8378 60.5005 41.2223 56.86 41.2223C52.0904 41.2223 49.5798 37.8335 49.5798 33.3154C49.5798 28.796 51.8395 25.0308 56.7339 25.0308C60.7508 25.0308 63.0105 27.4146 63.3869 31.3066L58.8675 31.5582C58.9929 30.1775 58.365 28.5451 56.7333 28.5451C54.5997 28.5451 54.5997 31.8085 54.5997 33.3161C54.5997 34.9471 54.5997 37.5825 56.8587 37.5825C58.365 37.5825 58.8668 36.3279 58.9929 34.9471L63.3875 35.198ZM72.1734 40.9721V33.6918C72.1734 32.9377 71.9218 32.1843 71.0435 32.1843C70.5403 32.1843 70.1653 32.4358 69.9137 32.8122C69.6621 33.0638 69.6621 33.565 69.6621 33.9421V40.9721H65.144V25.1556H69.6621V30.5532C70.5403 29.5488 71.6708 29.047 73.051 29.047C74.1808 29.047 75.3113 29.2972 76.0641 30.3016C76.6908 31.306 76.6908 32.4358 76.6908 33.565V40.9714L72.1734 40.9721ZM86.1059 40.9721C85.9811 40.4689 85.9811 39.8416 85.9811 39.3397C85.1028 40.7205 83.7221 41.2223 82.0897 41.2223C79.9555 41.2223 78.0735 39.9677 78.0735 37.7087C78.0735 35.8247 79.4543 34.5701 81.0853 34.0688C82.5929 33.5657 84.2239 33.4409 85.7295 33.3161V33.1899C85.7295 32.1856 85.4792 31.8092 84.3487 31.8092C83.4705 31.8092 82.7177 32.0607 82.5922 33.0651L78.3244 32.6887C79.0772 29.8017 81.8394 29.0489 84.4748 29.0489C85.8556 29.0489 87.6121 29.1737 88.7426 30.0533C90.3737 31.0564 90.1221 32.5626 90.1221 34.3198V38.4628C90.1221 39.341 90.1221 40.0938 90.4985 40.9734H86.1059V40.9721ZM85.7288 35.4477C84.599 35.5738 82.8418 35.9508 82.8418 37.3316C82.8418 38.0844 83.2182 38.4614 83.9723 38.4614C85.7289 38.4614 85.7288 36.9552 85.7288 35.6992V35.4477ZM95.7713 31.683C96.1477 30.052 97.026 28.9208 98.7831 29.0476H99.4111V33.1893C99.1595 33.0645 98.9093 33.0645 98.5316 33.0645C97.7788 33.0645 97.0253 33.1893 96.6489 33.8173C96.3986 34.4452 96.3986 35.198 96.3986 35.8247V40.9721H91.8793V29.2979H95.6459V31.683H95.7713ZM100.792 32.1843V29.2972H102.799L103.051 25.532L107.067 25.4072V29.2972H109.452V32.1843H107.067V36.3272C107.067 37.08 107.067 37.8335 108.072 37.8335C108.573 37.8335 108.95 37.7087 109.452 37.5819V40.8453L106.69 41.2217C105.434 41.3478 104.305 40.9714 103.427 39.967C102.548 39.0875 102.548 37.9583 102.548 36.7036V32.1843H100.792ZM113.971 37.2055C114.223 38.3353 115.477 38.4614 116.482 38.4614C116.983 38.4614 118.239 38.3353 118.239 37.7087C118.239 37.0807 116.733 36.9559 116.23 36.9559C113.846 36.5782 110.832 36.0763 110.832 32.9384C110.832 31.6837 111.585 30.5545 112.716 29.9265C113.846 29.1737 115.226 29.0483 116.482 29.0483C118.741 29.0483 121 29.8011 121.752 32.0601L118.364 32.6881C117.987 31.9353 117.109 31.6837 116.229 31.6837C115.853 31.6837 114.849 31.8085 114.849 32.3117C114.849 32.6881 115.225 32.8135 115.477 32.9384C115.978 33.0645 116.857 33.0645 117.485 33.1899C118.488 33.3161 119.744 33.4415 120.623 34.0695C121.752 34.6962 122.255 35.826 122.255 37.0813C122.255 40.3447 118.865 41.223 116.229 41.223C113.594 41.223 111.208 40.3447 110.331 37.7093L113.971 37.2055Z" fill="#464551"/>
<path fill-rule="evenodd" clip-rule="evenodd" d="M114.223 13.3575C115.729 13.7339 117.234 13.4823 118.616 12.7295C119.87 11.9767 120.75 10.7214 121.126 9.21516C121.879 6.20268 120.122 3.06474 117.11 2.31195C113.972 1.55915 110.96 3.44179 110.207 6.45427C109.831 7.96051 109.955 9.46609 110.834 10.7214C111.586 11.9767 112.842 12.9811 114.223 13.3575ZM112.339 6.95613C112.716 5.07349 114.599 3.94365 116.482 4.44617C118.364 4.94803 119.493 6.83067 118.992 8.7133C118.741 9.59221 118.239 10.345 117.486 10.8475C116.606 11.2239 115.729 11.3494 114.849 11.2239C113.971 10.973 113.218 10.345 112.716 9.59221C112.214 8.83877 112.088 7.83439 112.339 6.95613Z" fill="#6E6872"/>
<path fill-rule="evenodd" clip-rule="evenodd" d="M115.101 16.3696C115.854 16.3696 116.607 16.3696 117.36 16.1187C117.611 16.1187 117.736 15.8678 117.611 15.7423C117.611 15.4914 117.36 15.3653 117.235 15.4914C116.482 15.6169 115.854 15.6169 115.226 15.6169C114.976 15.6169 114.85 15.7423 114.724 15.9933C114.724 16.1187 114.975 16.3696 115.101 16.3696ZM110.206 0.051953C108.314 1.44708 106.944 3.43573 106.314 5.70051C106.314 5.95144 106.439 6.07756 106.691 6.07756C106.816 6.20237 107.067 6.07756 107.067 5.82663C107.569 3.69241 108.824 1.93524 110.707 0.680588C110.832 0.555123 110.832 0.304191 110.832 0.178072C110.708 0.0519535 110.456 -0.0735125 110.206 0.051953ZM112.842 18.2523C115.226 19.0051 117.863 18.7541 120.122 17.625C120.247 17.4995 120.374 17.2486 120.247 17.1231C120.122 16.9976 119.87 16.8722 119.745 16.9976C117.611 18.1275 115.226 18.2529 112.967 17.625C112.842 17.4995 112.59 17.625 112.59 17.8759C112.465 18.0014 112.59 18.2523 112.842 18.2523Z" fill="#464551"/>
</svg>
