<svg width="213" height="49" viewBox="0 0 213 49" fill="none" xmlns="http://www.w3.org/2000/svg">
<path fill-rule="evenodd" clip-rule="evenodd" d="M0 16.2456H10.1856V30.9645C10.1856 34.1071 11.7251 36.0885 15.0142 36.0885C18.008 36.0885 19.7395 33.5344 19.7395 30.7452V16.2456H29.6751V33.0925C29.6751 36.585 28.0891 40.0332 25.1839 42.0601C22.2345 44.0995 18.4477 44.5983 14.9404 44.5983C7.26569 44.5983 0.00113607 41.8977 0.00113607 33.0925L0 16.2456ZM32.5507 43.7768V16.2456H42.5739V19.4598C45.1427 16.7887 48.0183 15.2776 51.8051 15.2776C57.8074 15.2776 62.1657 18.7406 62.1657 24.9338V43.778H52.1278V29.4102C52.1278 26.2131 51.1143 23.5556 47.4457 23.5556C43.8055 23.5556 42.5727 26.6675 42.5727 29.8522V43.7791H32.5507V43.7768ZM65.2628 43.7768V16.2456H75.4473V43.7768H65.2628ZM100.102 34.34V42.735C97.7829 44.0552 95.0686 44.5415 92.4123 44.5415C84.4729 44.5415 77.9718 38.2302 77.9718 30.2464C77.9718 21.9696 84.4297 15.2345 92.794 15.2345C95.3924 15.2345 97.8726 15.8071 100.103 17.1125V25.4485C98.5327 24.5236 96.8149 23.7011 94.9516 23.7011C91.3716 23.7011 88.7437 26.3131 88.7437 29.8953C88.7437 33.2993 91.2091 35.8954 94.6721 35.8954C96.6092 35.8954 98.3998 35.1921 100.102 34.34ZM111.651 32.4619C111.651 35.3671 112.913 37.7007 116.171 37.7007C118.182 37.7007 119.517 36.8486 120.412 35.133H129.892C128.953 38.0222 127.706 40.5922 125.11 42.3521C122.423 44.2029 119.194 44.8335 115.981 44.8335C111.021 44.8335 106.178 42.6475 103.742 38.1847C102.421 35.7477 101.599 32.8721 101.599 30.0851C101.599 26.0336 103.082 21.4549 106.105 18.6815C108.907 16.1127 112.915 15.0129 116.671 15.0129C125.842 15.0129 130.538 20.8243 130.538 29.5545C130.538 30.5248 130.422 31.4916 130.289 32.4619H111.651ZM132.373 43.7768V17.1705C132.373 13.0905 132.592 8.49708 135.662 5.43061C138.2 2.89244 142.148 2.20166 145.597 2.20166H148.209V9.43668H146.637C142.896 9.43668 142.514 11.7408 142.514 14.9993V16.6126H147.855V24.1566H142.514V43.778L132.373 43.7768ZM176.662 48.3998L175.768 47.5341C177.324 45.6549 179.57 44.3211 181.771 43.3065C180.537 42.7941 179.261 42.368 177.912 42.3385L177.559 42.7486C176.178 44.4063 174.432 44.905 172.304 44.905C170.793 44.905 169.047 44.7585 167.608 44.2745L166.069 43.7757L165.496 43.394V43.3213C165.496 42.8668 167.536 42.5419 167.857 42.485L170.236 42.0147C172.177 41.6117 174.152 41.405 176.134 41.3977C178.558 41.3977 180.949 41.884 183.224 42.6895C185.601 41.9124 188.081 41.3977 190.588 41.3977C193.289 41.3977 195.945 41.7511 198.544 42.4248C198.823 42.4975 200.745 42.8372 200.745 43.3497C200.745 44.2597 194.86 44.9346 194.068 44.9346C192.189 44.9346 189.65 44.304 188.874 42.3828C188.741 42.3828 188.594 42.3669 188.448 42.3669C187.214 42.3669 185.821 42.8213 184.691 43.2917C186.746 44.2438 188.756 45.5061 190.341 47.1353L190.648 47.4591L189.783 48.2953L189.312 47.8977L188.447 47.1205C187.743 46.4752 184.177 43.9654 183.31 43.9052C182.533 43.8473 179.597 45.8287 178.923 46.3423C178.116 46.9751 177.384 47.6807 176.662 48.3998ZM166.801 32.8289L167.697 33.7253C168.754 34.7819 173.068 39.5061 173.068 40.9592C173.068 41.283 172.495 41.2671 172.276 41.2671C170.281 41.2671 168.49 39.798 167.536 38.1404C166.63 36.5807 166.154 34.8087 166.155 33.005C166.155 32.8584 166.155 32.5346 166.362 32.5346C166.537 32.5358 166.7 32.7266 166.801 32.8289ZM158.479 37.0406C158.51 36.8656 158.715 36.8054 158.861 36.8054C160.286 36.8054 169.855 40.3298 169.855 41.3705C169.855 42.134 167.285 42.0158 166.919 42.0158C164.819 42.0158 162.882 41.0774 161.24 39.814C160.903 39.5504 158.422 37.5553 158.479 37.0406ZM162.693 31.9495C162.693 31.4791 162.987 27.4583 163.559 27.4583C164.132 27.4583 165.201 31.9915 165.334 32.5199C165.774 34.3547 166.068 36.1453 166.068 38.0381C166.068 38.2006 166.037 38.5085 165.817 38.5085C165.083 38.5085 163.749 36.1737 163.469 35.6306C162.882 34.5013 162.693 33.2106 162.693 31.9495ZM155.164 29.2784C155.164 29.1762 155.193 29.0432 155.311 29.0432C156.705 29.0432 163.969 36.0442 163.969 37.511C163.969 37.6859 163.867 37.7462 163.706 37.7462C161.591 37.7462 158.95 35.4716 157.659 33.9889C156.94 33.1527 155.164 30.4521 155.164 29.2784ZM162.237 30.9065L161.813 32.5642C161.769 32.7266 161.666 33.1652 161.445 33.1652C160.609 33.1652 160.197 29.4079 160.197 28.6899C160.197 27.3981 160.551 26.0779 161.021 24.8883C161.152 24.5668 161.944 22.3945 162.444 22.3945C162.928 22.3945 162.87 23.4216 162.87 23.6999C162.87 26.0779 162.824 28.6035 162.237 30.9065ZM156.074 23.041L157.35 25.0792C158.13 26.3415 160.006 29.8499 160.006 31.3746C160.006 31.4928 159.962 31.67 159.816 31.67C159.478 31.67 159.17 31.4507 158.921 31.2281L157.806 30.2316C155.811 28.4411 154.593 24.802 154.593 22.1445C154.593 21.9832 154.651 21.6742 154.856 21.6742C155.369 21.6753 155.855 22.6876 156.074 23.041ZM162.458 17.9771C162.561 17.9771 162.576 18.0657 162.576 18.1532C162.576 19.4587 160.197 27.2811 159.157 27.2811C158.658 27.2811 158.702 25.8745 158.702 25.5791C158.702 23.3193 159.538 21.3822 160.872 19.6064C161.078 19.3428 162.032 17.9771 162.458 17.9771ZM155.531 17.8158C155.531 17.3897 155.706 14.4255 156.164 14.4255C156.618 14.4255 157.277 17.1705 157.367 17.5227C157.94 19.6359 158.335 21.9253 158.335 24.126C158.335 24.36 158.395 25.1962 157.984 25.1962C157.498 25.1962 156.588 23.1864 156.426 22.7455C155.823 21.2061 155.531 19.4746 155.531 17.8158ZM159.844 20.3846L159.258 21.0163C159.14 21.1333 158.95 21.3538 158.759 21.3538C158.568 21.3538 158.568 21.1186 158.568 20.9868C158.568 19.1224 159.404 17.4499 160.563 16.0411C161.034 15.4685 162.882 13.4143 163.646 13.4143C163.75 13.4143 163.808 13.4734 163.808 13.5609C163.808 15.0856 160.945 19.1803 159.844 20.3846ZM158.789 8.98108C159.39 9.01062 159.405 13.0019 159.405 13.3837C159.405 13.8972 159.068 18.9894 158.362 18.9894C157.557 18.9894 157.338 14.8947 157.338 14.3517C157.338 13.1485 157.529 11.9885 157.894 10.8444C157.983 10.5808 158.362 8.95267 158.789 8.98108ZM164.145 9.08446L164.629 8.7618C164.674 8.74703 164.718 8.70272 164.762 8.70272C164.865 8.71749 164.909 8.84928 164.909 8.9379C164.909 9.96498 163.105 12.6213 162.517 13.4132C162.18 13.854 160.58 15.8491 159.95 15.8491C159.803 15.8491 159.699 15.7173 159.699 15.5844C159.699 13.2814 162.325 10.2876 164.145 9.08446ZM164.234 5.89984L163.792 7.13256C163.206 8.80611 162.134 10.5955 160.903 11.8726L160.505 12.2839C160.403 12.402 160.27 12.5475 160.11 12.5475C159.859 12.5475 159.814 12.2248 159.814 12.0339C159.814 10.332 160.797 8.64364 161.87 7.38137C162.207 6.97009 163.616 5.26813 164.189 5.26813C164.291 5.26813 164.307 5.42946 164.307 5.50331C164.307 5.63624 164.278 5.76804 164.234 5.89984ZM194.04 41.3114C193.818 41.3114 193.598 41.2228 193.598 40.974C193.598 39.8287 199.674 32.4767 200.497 32.4767C200.672 32.4767 200.688 32.7255 200.688 32.8425C200.689 36.5725 198.236 41.3114 194.04 41.3114ZM197.429 40.724L198.752 40.0344C200.393 39.1845 206.132 36.8372 207.996 36.8372C208.099 36.8372 208.29 36.8815 208.29 37.0122C208.29 37.6575 205.105 40.0503 204.606 40.3741C203.006 41.4307 201.174 42.076 199.249 42.076C198.87 42.076 196.742 42.0897 196.742 41.3864C196.741 41.0614 197.18 40.841 197.429 40.724ZM201.7 37.7905L201.111 38.3472C201.025 38.4358 200.907 38.554 200.774 38.5665C200.539 38.5824 200.583 38.0825 200.583 37.9654V37.7462C200.583 35.1921 201.375 32.596 202.168 30.1885C202.243 29.9374 202.976 27.5038 203.402 27.5038C203.681 27.5038 203.755 28.2366 203.784 28.4263L204.032 29.909C204.121 30.468 204.151 31.0383 204.151 31.6109C204.151 33.9162 203.373 36.1589 201.7 37.7905ZM211.122 29.367L211.532 29.1762C211.576 29.1603 211.634 29.116 211.707 29.116C211.796 29.116 211.87 29.2182 211.87 29.3068C211.864 29.3832 211.844 29.4578 211.809 29.5261L211.341 30.5827C210.387 32.7107 208.552 35.016 206.541 36.2635C205.838 36.6895 203.84 37.803 203.004 37.803C202.844 37.803 202.741 37.7143 202.741 37.5541C202.741 36.6884 205.558 33.9287 206.191 33.2981C207.423 32.0518 209.522 30.143 211.122 29.367ZM204.283 23.9499L204.341 22.9671C204.357 22.8501 204.402 22.3797 204.605 22.3956C204.767 22.4104 204.884 22.6444 204.958 22.7626L205.575 23.8772C206.367 25.3303 206.763 27.0766 206.763 28.7342C206.763 29.2489 206.176 33.2834 205.473 33.2834C204.605 33.2834 204.211 26.6664 204.211 26.1665C204.21 25.4325 204.239 24.685 204.283 23.9499ZM208.288 26.2244L208.17 26.8857C208.142 27.0163 208.112 27.2515 207.937 27.2515C207.129 27.2515 205.176 21.1027 204.957 20.1938C204.941 20.1494 204.312 18.0214 204.811 18.0214C205.574 18.0214 207.202 20.9561 207.495 21.6321C208.01 22.7626 208.376 23.9658 208.376 25.2292C208.377 25.5655 208.349 25.9029 208.288 26.2244ZM211.664 15.6878L211.752 16.9932C211.781 17.2284 211.781 17.4488 211.781 17.6681C211.781 19.1065 211.488 20.7493 211.033 22.115C210.871 22.5547 209.684 25.2269 209.038 25.2269C208.787 25.2269 208.759 24.7724 208.759 24.61C208.759 22.1582 209.345 19.8688 210.051 17.5511C210.139 17.2716 210.872 14.6016 211.254 14.6016C211.578 14.6028 211.65 15.4969 211.664 15.6878ZM207.878 31.2735L207.189 31.6712C207.115 31.7213 207.029 31.7511 206.94 31.7575C206.838 31.7575 206.822 31.5973 206.822 31.5246C206.822 30.1601 211.443 21.6469 212.456 21.6469C212.56 21.6469 212.56 21.823 212.56 21.8968C212.56 23.5409 212.09 25.2576 211.489 26.7846C210.858 28.3968 209.389 30.4077 207.878 31.2735ZM208.584 20.5164V21.0152C208.584 21.147 208.584 21.3379 208.421 21.3379C208.186 21.3379 207.995 21.03 207.865 20.8823L206.88 19.7086C206.058 18.7258 203.52 15.0277 203.52 13.6927C203.52 13.6041 203.564 13.4871 203.667 13.4871C203.873 13.4871 204.077 13.6336 204.223 13.7506L205.208 14.5141C206.88 15.8059 208.626 18.3146 208.584 20.5164ZM202.829 9.95021L202.654 9.36282C202.626 9.26057 202.581 9.14241 202.581 9.04016C202.581 8.96631 202.639 8.922 202.712 8.922C203.682 8.922 205.737 11.3136 206.293 12.1066C206.91 13.0019 207.629 14.2199 207.629 15.3344C207.629 15.4662 207.658 15.9366 207.439 15.9366C206.176 15.9377 203.167 11.1091 202.829 9.95021ZM203.755 5.54763L204.782 6.48723C206.147 7.73472 207.671 9.83319 207.671 11.7851C207.671 11.976 207.732 12.6508 207.452 12.6508C206.339 12.6508 204.21 8.36642 203.857 7.49954C203.841 7.47 202.992 5.31244 203.418 5.35675C203.548 5.35675 203.667 5.45901 203.755 5.54763ZM209.345 18.3441L209.096 18.8872C209.052 18.9758 209.008 19.0781 208.889 19.0781C208.317 19.0781 207.995 14.7482 207.995 14.221C207.995 13.7506 208.349 9.04016 208.743 9.04016C208.934 9.04016 209.08 9.67072 209.125 9.80252L209.551 10.9909C209.961 12.1214 210.065 13.5291 210.065 14.7334C210.066 15.9525 209.831 17.2295 209.345 18.3441Z" fill="black"/>
<path fill-rule="evenodd" clip-rule="evenodd" d="M163.941 20.4291C163.941 14.6757 166.273 8.9381 170.618 5.10813C174.169 1.95304 178.909 0 183.679 0C194.538 0 203.183 9.01081 203.183 19.7827C203.183 30.6999 194.231 39.9028 183.267 39.9028C172.597 39.9028 163.941 31.0249 163.941 20.4291ZM70.3403 1.86442C73.5397 1.86442 76.1812 4.55028 76.1812 7.73492C76.1812 10.9195 73.5545 13.6338 70.3403 13.6338C67.142 13.6338 64.4993 10.9343 64.4993 7.73492C64.4993 4.55028 67.1409 1.86442 70.3403 1.86442Z" fill="black"/>
<path fill-rule="evenodd" clip-rule="evenodd" d="M111.797 26.5619H121.029C120.882 23.8772 119.679 21.6321 116.684 21.6321C113.499 21.6321 112.209 23.6715 111.797 26.5619ZM189.034 2.53911C189.342 2.24599 189.651 1.95172 189.975 1.6586L189.374 1.49726C188.2 1.1746 187.055 0.924641 185.837 0.807617L186.188 0.99849L186.909 1.32115C187.656 1.64382 188.345 2.11306 189.034 2.53911ZM184.266 8.60048C185.646 8.49709 186.966 8.33576 188.286 7.91083C187.847 6.88375 187.364 5.89985 186.717 4.97616C185.923 5.16703 185.146 5.29882 184.326 5.32836L184.266 8.60048ZM184.25 13.2666C185.735 13.2507 187.172 12.9292 188.655 12.8701C189.034 12.8406 189.798 12.7815 189.798 12.2543C189.798 12.1521 189.769 12.0635 189.755 11.976L189.549 11.1398C189.358 10.3036 189.02 9.52531 188.683 8.74818C187.23 9.18787 185.747 9.36398 184.236 9.48214L184.25 13.2666ZM189.094 7.70519C190.151 7.35995 191.158 6.8763 192.088 6.26683C191.194 5.26815 190.239 4.31491 189.094 3.6105C188.606 4.00671 188.068 4.33749 187.495 4.59441L187.802 5.13749L188.403 6.16457C188.683 6.64857 188.887 7.17688 189.094 7.70519ZM192.866 5.87031C193.57 5.4175 194.224 4.89115 194.817 4.30014C193.672 3.25829 192.19 2.55388 190.738 2.0108C190.43 2.37778 190.077 2.68567 189.74 3.00834C190.913 3.77183 191.956 4.82846 192.866 5.87031ZM193.439 6.55995C194.435 7.71996 195.332 8.99699 196.035 10.3615C197.034 9.78889 198.016 9.1572 198.882 8.39484C197.972 7.08826 196.856 5.79645 195.551 4.87276C195.141 5.26928 194.699 5.62149 194.231 5.97369L193.439 6.55995Z" fill="white"/>
<path fill-rule="evenodd" clip-rule="evenodd" d="M176.898 1.92247C169.634 4.75489 164.482 12.3137 164.482 20.0907C164.482 30.5694 172.863 39.228 183.399 39.228C194.45 39.228 202.653 30.0547 202.653 19.2692C202.653 15.6154 201.361 12.1512 199.438 9.0984L198.661 9.65626C197.927 10.1698 197.178 10.6538 196.386 11.0799C196.549 11.4173 196.724 11.799 196.724 12.1808C196.724 12.3273 196.679 12.65 196.472 12.65C196.077 12.65 195.711 11.799 195.578 11.5059C195.034 11.682 194.449 11.9763 193.86 11.9763C193.73 11.9763 193.465 11.8729 193.465 11.6968C193.465 11.2264 194.843 10.8163 195.195 10.6549C194.521 9.30518 193.757 8.102 192.716 7.00106C191.673 7.58846 190.617 8.102 189.487 8.51215C189.72 9.08477 189.955 9.64262 190.146 10.23L190.512 11.3446C190.585 11.5945 190.675 11.8581 190.675 12.1228C190.675 13.1942 189.752 13.5907 188.855 13.693L186.727 13.9566C185.905 14.0588 185.069 14.1031 184.233 14.1179L184.246 15.4234C184.246 15.7017 184.246 16.1721 183.836 16.1721C183.454 16.1721 183.352 15.8494 183.337 15.512L183.309 14.2645C182.914 14.2645 181.724 14.3088 181.724 13.693C181.724 13.3851 182.061 13.2965 182.313 13.2965C182.545 13.2965 182.781 13.3113 183.032 13.3113H183.398L183.369 9.59831L182.135 9.53923C181.966 9.1595 181.755 8.80009 181.505 8.46784L183.442 8.60077V5.31274C182.634 5.26843 181.887 5.10824 181.107 4.88669C180.858 5.22412 180.111 6.75111 179.729 6.75111C179.538 6.75111 179.421 6.54547 179.421 6.36936C179.421 5.7388 179.933 5.00485 180.271 4.50494C179.668 4.24773 179.101 3.91235 178.585 3.5074C178.07 3.83007 176.177 5.42977 175.942 5.42977C175.751 5.42977 175.665 5.17982 175.665 5.01849C175.665 4.38792 177.395 3.36084 177.879 3.03817C177.531 2.68596 177.207 2.30421 176.898 1.92247ZM181.565 0.910156H181.447C180.215 0.910156 179.1 1.21806 177.941 1.64411C178.176 1.95201 178.425 2.21673 178.718 2.45078C179.628 1.83499 180.569 1.36575 181.565 0.910156Z" fill="white"/>
<path fill-rule="evenodd" clip-rule="evenodd" d="M182.652 1.37939C181.434 1.7316 180.391 2.27469 179.306 2.94956C179.79 3.25746 180.289 3.52218 180.801 3.75623L181.39 2.94956L182.138 2.0395L182.652 1.37939ZM181.638 4.08002C182.226 4.26976 182.811 4.41746 183.428 4.53449L183.488 1.92134C183.34 1.84976 181.784 3.87438 181.638 4.08002ZM184.383 1.98155L184.367 4.50495C184.975 4.43024 185.579 4.31754 186.173 4.16751C185.645 3.36085 185.102 2.62802 184.383 1.98155ZM187.112 3.80167C187.516 3.57912 187.908 3.33408 188.285 3.06772C187.375 2.42238 186.511 1.95315 185.454 1.58504C185.908 2.15766 186.348 2.73028 186.758 3.31653L187.112 3.80167Z" fill="white"/>
<path fill-rule="evenodd" clip-rule="evenodd" d="M166.801 17.3027C166.552 17.4492 166.302 17.5958 166.053 17.7571C166.26 15.1303 167.536 10.8005 169.692 9.17236C169.546 9.62682 169.443 10.0676 169.399 10.5369C168.035 12.5626 167.227 14.9111 166.801 17.3027ZM195.536 32.9179L195.332 32.3453C196.741 31.0251 197.914 29.4095 198.675 27.6212L199.747 26.7248C198.853 29.0721 197.635 31.4353 195.536 32.9179Z" fill="black"/>
<path fill-rule="evenodd" clip-rule="evenodd" d="M194.906 33.6652C191.616 36.2773 187.802 37.9951 183.562 37.9951C173.202 37.9951 165.73 29.8069 165.73 19.6508C165.73 16.9797 170.34 16.965 170.34 14.4847C170.34 13.2225 169.841 12.0193 169.841 10.7718C169.841 7.93937 172.423 5.69434 175.154 5.69434C177.971 5.69434 181.904 8.15979 181.904 11.2717C181.904 13.135 180.453 14.0007 180.453 15.1017C180.453 15.4539 180.511 15.8061 180.511 16.1583C180.511 16.54 179.954 16.6128 179.91 17.024L179.881 17.2445L179.63 17.6262L179.411 18.0227C179.309 18.1841 178.708 18.6396 178.517 18.8453C178.179 19.2123 177.693 19.2861 177.21 19.2861C176.902 19.2861 176.58 19.2713 176.285 19.1975L175.48 18.9782C175.345 18.9482 175.208 18.9333 175.07 18.9339C174.628 18.9339 174.115 19.2418 174.115 19.7269C174.115 20.5188 174.555 21.2971 174.525 22.1038L174.481 24.2329L174.509 24.3795L174.745 25.0828L174.92 25.6861C175.185 26.6688 176.726 26.5961 177.737 26.9904L178.603 27.3142C178.721 27.3562 178.867 27.4448 179.001 27.4448C179.529 27.4448 180.146 26.4461 181.026 26.4461C181.364 26.4461 181.377 26.9608 181.672 26.9324L182.508 26.8597C182.683 26.829 182.815 27.5346 182.815 27.6811C182.815 28.9127 181.965 30.4988 180.584 30.4988C180.012 30.4988 179.572 30.0443 179.045 30.0443C178.826 30.0443 177.194 30.4988 176.742 30.5726C176.097 30.6749 175.45 30.7772 174.805 30.7772C174.306 30.7772 173.571 30.7931 173.145 30.5283L172.807 30.3091C172.75 30.2807 172.689 30.2363 172.617 30.2363C172.088 30.2363 171.825 31.5725 171.825 31.9224C171.825 33.538 173.88 34.139 175.142 34.139C175.948 34.139 176.784 34.0209 177.534 33.6971L179.808 32.7007C181.45 31.9815 184.239 31.6736 184.71 31.4225C185.12 31.2032 185.443 30.8215 185.443 30.3375C185.441 30.135 185.417 29.9334 185.37 29.7364L185.165 28.9286L185.003 27.9459L184.87 26.8745C184.577 24.292 181.51 24.1602 181.51 22.2367C181.51 21.4448 182.347 20.9892 182.376 20.2405C182.392 19.9326 182.434 19.7269 182.73 19.5804L183.023 19.4486C183.433 19.2577 183.023 18.3477 183.551 18.1568L183.83 18.0545C184.461 17.8341 183.888 16.5287 184.785 16.4105L185.504 16.3083L186.37 16.1322C187.426 15.9117 187.368 14.8551 188.616 14.3121L189.92 13.7394L190.406 13.4315L190.977 12.8305C191.492 12.317 192.357 12.2136 193.047 12.2136C197.876 12.2136 201.412 15.9708 201.412 20.6961C201.412 24.3795 198.432 29.0616 194.382 29.0616C194.118 29.0616 193.854 29.0309 193.59 29.0309C192.929 29.0309 192.884 29.7648 192.884 30.2807C192.884 31.9826 194.94 33.1563 194.94 33.1858C194.94 33.3324 194.911 33.4789 194.911 33.6255V33.6652H194.906Z" fill="black"/>
</svg>
