<svg width="169" height="48" viewBox="0 0 169 48" fill="none" xmlns="http://www.w3.org/2000/svg">
<path fill-rule="evenodd" clip-rule="evenodd" d="M0 0V4.61499H160.924V0H0ZM151.691 21.8725C151.691 17.0665 155.589 13.5225 160.197 13.5225C164.759 13.5225 168.657 17.0656 168.657 21.8725C168.657 26.7226 164.759 30.2666 160.197 30.2666C155.59 30.2666 151.691 26.7226 151.691 21.8725Z" fill="black"/>
<path fill-rule="evenodd" clip-rule="evenodd" d="M160.198 28.8724C163.985 28.8724 166.975 25.9032 166.975 21.8726C166.975 17.9083 163.985 14.918 160.198 14.918C156.367 14.918 153.375 17.9083 153.375 21.8726C153.374 25.9032 156.366 28.8724 160.198 28.8724Z" fill="white"/>
<path fill-rule="evenodd" clip-rule="evenodd" d="M158.426 26.7225H156.964V17.0664H160.64C162.923 17.0664 164.052 17.908 164.052 19.8129C164.052 21.5403 162.966 22.2937 161.55 22.4712L164.295 26.7225H162.657L160.11 22.5374H158.427V26.7225H158.426Z" fill="black"/>
<path fill-rule="evenodd" clip-rule="evenodd" d="M160.175 21.2964C161.415 21.2964 162.523 21.2082 162.523 19.7236C162.523 18.5278 161.437 18.3062 160.418 18.3062H158.426V21.2964H160.175Z" fill="white"/>
<path fill-rule="evenodd" clip-rule="evenodd" d="M1.50763 48.0002V13.3882H10.323C13.2769 13.3882 16.8295 13.4803 19.4599 15.0033C22.599 16.8487 23.1057 20.2181 23.1057 23.5404V38.9093C23.0596 42.3689 21.9982 44.9091 19.6442 46.386C17.5214 47.7689 14.9371 48.0002 12.4448 48.0002H1.50763Z" fill="black"/>
<path fill-rule="evenodd" clip-rule="evenodd" d="M9.63016 41.7699C15.0762 42.1394 15.1223 39.9236 14.9841 35.3095V24.0028C14.938 19.9416 13.5993 19.7103 9.63016 19.6182V41.7699Z" fill="white"/>
<path fill-rule="evenodd" clip-rule="evenodd" d="M35.1033 48.0002H26.9808V13.3882H38.8412C45.4868 13.3882 48.8101 16.0647 48.8101 22.9416C48.8101 26.6334 47.933 29.2648 44.5176 30.8338V30.9259C46.7785 31.4336 48.3946 33.0026 48.5328 35.4018C48.7631 38.1723 48.8101 44.1251 49.2707 46.3399C49.456 46.8006 49.6863 47.2171 50.0557 47.5395V48.0002H41.1952C40.9649 47.3553 40.7797 46.7085 40.7336 46.0175C40.5945 42.9696 40.7797 40.1098 40.5494 37.9861C40.3191 35.8643 39.6722 34.4795 37.7808 34.3404H35.1033V48.0002Z" fill="black"/>
<path fill-rule="evenodd" clip-rule="evenodd" d="M35.1033 28.109H37.8719C40.226 28.109 40.7797 25.9402 40.7797 23.8165C40.7797 19.7101 39.0724 19.5249 35.1033 19.618V28.109Z" fill="white"/>
<path fill-rule="evenodd" clip-rule="evenodd" d="M51.9002 48.0002V13.3882H70.4993V20.3102H60.0227V26.6794H70.1759V33.6015H60.0227V41.0781H71.053V48.0002H51.9002ZM74.194 48.0002V13.3882H85.6379L89.8383 33.8318H89.9305L94.2691 13.3882H105.622V48.0002H97.8678L98.7008 20.8639H98.6067L92.8843 48.0002H86.8394L81.2542 20.8639H81.1621L81.901 48.0002H74.194ZM109.495 48.0002V13.3882H128.093V20.3102H117.616V26.6794H127.77V33.6015H117.616V41.0781H128.647V48.0002H109.495ZM132.311 48.0002V13.3882H140.434V41.0781H150.355V48.0002H132.311Z" fill="black"/>
</svg>
