<svg width="92" height="48" viewBox="0 0 92 48" fill="none" xmlns="http://www.w3.org/2000/svg">
<path d="M0 48H47.7456V41.9483H44.7358V44.9742H3.01667V3.02585H44.7358V27.6462H47.7456V0H0V48Z" fill="#EB1678"/>
<path d="M13.5064 40.4594V29.1349H10.4966V40.4594H13.5064ZM21.1989 34.3733L18.1617 29.1349H14.9942V40.4594H17.8532V34.5732H17.9012L21.3566 40.4594H24.1196V29.1349H21.2469V34.3733H21.1989ZM25.6211 29.1349V40.4594H29.4056C32.9776 40.4594 34.6642 39.5565 34.6642 34.7868C34.6642 30.1068 32.9434 29.128 29.3576 29.128H25.6211M31.6133 34.8006C31.6133 37.6611 30.8043 37.8403 29.6799 37.8403H28.6309V31.8782H29.5565C30.8385 31.8851 31.6133 31.9609 31.6133 34.8006ZM38.7573 40.4594V29.1349H35.7475V40.4594H38.7573ZM63.6379 28.9971C59.442 28.9971 58.6947 31.761 58.6947 34.8075C58.6947 37.8334 59.442 40.6042 63.6379 40.6042C67.8201 40.6042 68.5674 37.8403 68.5674 34.8075C68.5606 31.761 67.8338 28.9971 63.6379 28.9971ZM63.6379 37.923C61.9788 37.923 61.7525 36.7788 61.7525 34.9109C61.7525 33.0637 61.9788 31.9126 63.6379 31.9126C65.2834 31.9126 65.5096 33.0568 65.5096 34.9109C65.5096 36.7788 65.2765 37.923 63.6379 37.923ZM84.7409 28.9971C80.545 28.9971 79.7977 31.761 79.7977 34.8075C79.7977 37.8334 80.545 40.6042 84.7409 40.6042C88.9231 40.6042 89.6635 37.8403 89.6635 34.8075C89.6704 31.761 88.9368 28.9971 84.7409 28.9971ZM84.7409 37.923C83.0817 37.923 82.8555 36.7788 82.8555 34.9109C82.8555 33.0637 83.0817 31.9126 84.7409 31.9126C86.3795 31.9126 86.6126 33.0568 86.6126 34.9109C86.6126 36.7788 86.3795 37.923 84.7409 37.923ZM90.6371 38.6674C90.0886 38.6674 89.9515 39.0396 89.9515 39.5289C89.9515 40.0183 90.0886 40.3836 90.6371 40.3836C91.1856 40.3836 91.3227 40.0114 91.3227 39.5289C91.3227 39.0396 91.1856 38.6674 90.6371 38.6674ZM90.6371 40.2665C90.1846 40.2665 90.0818 39.9494 90.0818 39.5289C90.0818 39.1085 90.1846 38.7914 90.6371 38.7914C91.0896 38.7914 91.1924 39.1085 91.1924 39.5289C91.1924 39.9425 91.0896 40.2665 90.6371 40.2665Z" fill="#EB1678"/>
<path d="M91.0142 39.336C91.0142 39.1292 90.9456 39.0121 90.6851 39.0121H90.2943V40.0391H90.5068V39.6737H90.6371L90.7948 40.0391H91.0073L90.8359 39.66C90.9799 39.6117 91.0142 39.4945 91.0142 39.336ZM90.6782 39.5083H90.5068V39.1982H90.6782C90.7811 39.1982 90.8153 39.2395 90.8153 39.3567C90.8153 39.4601 90.7811 39.5083 90.6782 39.5083ZM52.9219 36.0896H54.8622V36.2895C54.8622 37.5439 54.9033 38.0953 53.4155 38.0953C52.0306 38.0953 51.5576 37.4543 51.5576 34.8972C51.5576 32.2366 52.346 31.9127 53.5321 31.9127C54.4165 31.9127 55.0404 32.1401 55.5546 32.4296L57.1658 29.9069C56.3157 29.3555 55.0679 28.9902 53.6692 28.9902C49.775 28.9902 48.5272 30.8719 48.5272 34.8007C48.5272 38.2263 49.439 40.5974 53.1344 40.5974C53.7858 40.5974 54.3548 40.5491 54.8348 40.4595H57.6046V33.6221H53.2441L52.9219 36.0896ZM74.0249 36.0896H75.9651V36.2895C75.9651 37.5439 76.0063 38.0953 74.5185 38.0953C73.1336 38.0953 72.6605 37.4543 72.6605 34.8972C72.6605 32.2366 73.449 31.9127 74.635 31.9127C75.5195 31.9127 76.1434 32.1401 76.6576 32.4296L78.2688 29.9069C77.4186 29.3555 76.1708 28.9902 74.7722 28.9902C70.8779 28.9902 69.6301 30.8719 69.6301 34.8007C69.6301 38.2263 70.542 40.5974 74.2374 40.5974C74.8956 40.5974 75.4578 40.5491 75.9377 40.4595H78.7076V33.6221H74.3471L74.0249 36.0896ZM47.7456 31.8989V29.135H40.2656V40.4595H47.7456V37.7714H43.2137V36.0758H46.1893L46.5526 33.3808H43.2137V31.8989H47.7456Z" fill="#EB1678"/>
</svg>
