<svg width="162" height="181" viewBox="0 0 162 181" fill="none" xmlns="http://www.w3.org/2000/svg">
<path d="M156.834 178.436C156.834 177.055 157.954 175.934 159.335 175.934C160.716 175.934 161.837 177.055 161.837 178.436C161.837 179.816 160.716 180.937 159.335 180.937C157.954 180.937 156.834 179.816 156.834 178.436Z" fill="#4BAF47"/>
<path d="M117.65 178.436C117.65 177.055 118.771 175.934 120.152 175.934C121.533 175.934 122.653 177.055 122.653 178.436C122.653 179.816 121.533 180.937 120.152 180.937C118.771 180.937 117.65 179.816 117.65 178.436Z" fill="#4BAF47"/>
<path d="M78.4695 178.436C78.4695 177.055 79.5904 175.934 80.9711 175.934C82.3519 175.934 83.4727 177.055 83.4727 178.436C83.4727 179.816 82.3519 180.937 80.9711 180.937C79.5877 180.937 78.4695 179.816 78.4695 178.436Z" fill="#4BAF47"/>
<path d="M39.2861 178.436C39.2861 177.055 40.407 175.934 41.7878 175.934C43.1685 175.934 44.2894 177.055 44.2894 178.436C44.2894 179.816 43.1685 180.937 41.7878 180.937C40.407 180.937 39.2861 179.816 39.2861 178.436Z" fill="#4BAF47"/>
<path d="M0.102753 178.436C0.102753 177.055 1.22363 175.934 2.60438 175.934C3.98513 175.934 5.106 177.055 5.106 178.436C5.106 179.816 3.98513 180.937 2.60438 180.937C1.221 180.937 0.102753 179.816 0.102753 178.436Z" fill="#4BAF47"/>
<path d="M156.834 143.421C156.834 142.04 157.954 140.919 159.335 140.919C160.716 140.919 161.837 142.04 161.837 143.421C161.837 144.801 160.716 145.922 159.335 145.922C157.954 145.922 156.834 144.801 156.834 143.421Z" fill="#4BAF47"/>
<path d="M117.65 143.421C117.65 142.04 118.771 140.919 120.152 140.919C121.533 140.919 122.653 142.04 122.653 143.421C122.653 144.801 121.533 145.922 120.152 145.922C118.771 145.922 117.65 144.801 117.65 143.421Z" fill="#4BAF47"/>
<path d="M78.4695 143.421C78.4695 142.04 79.5904 140.919 80.9711 140.919C82.3519 140.919 83.4727 142.04 83.4727 143.421C83.4727 144.801 82.3519 145.922 80.9711 145.922C79.5877 145.922 78.4695 144.801 78.4695 143.421Z" fill="#4BAF47"/>
<path d="M39.2861 143.421C39.2861 142.04 40.407 140.919 41.7878 140.919C43.1685 140.919 44.2894 142.04 44.2894 143.421C44.2894 144.801 43.1685 145.922 41.7878 145.922C40.407 145.922 39.2861 144.801 39.2861 143.421Z" fill="#4BAF47"/>
<path d="M0.102753 143.421C0.102753 142.04 1.22363 140.919 2.60438 140.919C3.98513 140.919 5.106 142.04 5.106 143.421C5.106 144.801 3.98513 145.922 2.60438 145.922C1.221 145.922 0.102753 144.801 0.102753 143.421Z" fill="#4BAF47"/>
<path d="M156.834 108.406C156.834 107.025 157.954 105.904 159.335 105.904C160.716 105.904 161.837 107.025 161.837 108.406C161.837 109.787 160.716 110.908 159.335 110.908C157.954 110.908 156.834 109.789 156.834 108.406Z" fill="#4BAF47"/>
<path d="M120.152 110.908C121.533 110.908 122.653 109.788 122.653 108.406C122.653 107.024 121.533 105.904 120.152 105.904C118.77 105.904 117.65 107.024 117.65 108.406C117.65 109.788 118.77 110.908 120.152 110.908Z" fill="#4BAF47"/>
<path d="M80.9685 110.908C82.3501 110.908 83.4701 109.788 83.4701 108.406C83.4701 107.024 82.3501 105.904 80.9685 105.904C79.5869 105.904 78.4669 107.024 78.4669 108.406C78.4669 109.788 79.5869 110.908 80.9685 110.908Z" fill="#4BAF47"/>
<path d="M39.2861 108.406C39.2861 107.025 40.407 105.904 41.7878 105.904C43.1685 105.904 44.2894 107.025 44.2894 108.406C44.2894 109.787 43.1685 110.908 41.7878 110.908C40.407 110.908 39.2861 109.789 39.2861 108.406Z" fill="#4BAF47"/>
<path d="M0.102753 108.406C0.102753 107.025 1.22363 105.904 2.60438 105.904C3.98513 105.904 5.106 107.025 5.106 108.406C5.106 109.787 3.98513 110.908 2.60438 110.908C1.221 110.908 0.102753 109.789 0.102753 108.406Z" fill="#4BAF47"/>
<path d="M156.834 73.3937C156.834 72.013 157.954 70.8921 159.335 70.8921C160.716 70.8921 161.837 72.013 161.837 73.3937C161.837 74.7745 160.716 75.8953 159.335 75.8953C157.954 75.8927 156.834 74.7745 156.834 73.3937Z" fill="#4BAF47"/>
<path d="M120.152 75.8953C121.533 75.8953 122.653 74.7753 122.653 73.3937C122.653 72.0121 121.533 70.8921 120.152 70.8921C118.77 70.8921 117.65 72.0121 117.65 73.3937C117.65 74.7753 118.77 75.8953 120.152 75.8953Z" fill="#4BAF47"/>
<path d="M80.9685 75.8953C82.3501 75.8953 83.4701 74.7753 83.4701 73.3937C83.4701 72.0121 82.3501 70.8921 80.9685 70.8921C79.5869 70.8921 78.4669 72.0121 78.4669 73.3937C78.4669 74.7753 79.5869 75.8953 80.9685 75.8953Z" fill="#4BAF47"/>
<path d="M39.2861 73.3937C39.2861 72.013 40.407 70.8921 41.7878 70.8921C43.1685 70.8921 44.2894 72.013 44.2894 73.3937C44.2894 74.7745 43.1685 75.8953 41.7878 75.8953C40.407 75.8953 39.2861 74.7745 39.2861 73.3937Z" fill="#4BAF47"/>
<path d="M0.102753 73.3937C0.102753 72.013 1.22363 70.8921 2.60438 70.8921C3.98513 70.8921 5.106 72.013 5.106 73.3937C5.106 74.7745 3.98513 75.8953 2.60438 75.8953C1.221 75.8927 0.102753 74.7745 0.102753 73.3937Z" fill="#4BAF47"/>
<path d="M156.834 38.3786C156.834 36.9978 157.954 35.877 159.335 35.877C160.716 35.877 161.837 36.9978 161.837 38.3786C161.837 39.7593 160.716 40.8802 159.335 40.8802C157.954 40.8776 156.834 39.7593 156.834 38.3786Z" fill="#4BAF47"/>
<path d="M120.152 40.8802C121.533 40.8802 122.653 39.7602 122.653 38.3786C122.653 36.997 121.533 35.877 120.152 35.877C118.77 35.877 117.65 36.997 117.65 38.3786C117.65 39.7602 118.77 40.8802 120.152 40.8802Z" fill="#4BAF47"/>
<path d="M80.9685 40.8802C82.3501 40.8802 83.4701 39.7602 83.4701 38.3786C83.4701 36.997 82.3501 35.877 80.9685 35.877C79.5869 35.877 78.4669 36.997 78.4669 38.3786C78.4669 39.7602 79.5869 40.8802 80.9685 40.8802Z" fill="#4BAF47"/>
<path d="M39.2861 38.3786C39.2861 36.9978 40.407 35.877 41.7878 35.877C43.1685 35.877 44.2894 36.9978 44.2894 38.3786C44.2894 39.7593 43.1685 40.8802 41.7878 40.8802C40.407 40.8802 39.2861 39.7593 39.2861 38.3786Z" fill="#4BAF47"/>
<path d="M0.102753 38.3786C0.102753 36.9978 1.22363 35.877 2.60438 35.877C3.98513 35.877 5.106 36.9978 5.106 38.3786C5.106 39.7593 3.98513 40.8802 2.60438 40.8802C1.221 40.8776 0.102753 39.7593 0.102753 38.3786Z" fill="#4BAF47"/>
<path d="M156.834 3.36393C156.834 1.98318 157.954 0.862305 159.335 0.862305C160.716 0.862305 161.837 1.98318 161.837 3.36393C161.837 4.74468 160.716 5.86555 159.335 5.86555C157.954 5.86555 156.834 4.74468 156.834 3.36393Z" fill="#4BAF47"/>
<path d="M117.65 3.36393C117.65 1.98318 118.771 0.862305 120.152 0.862305C121.533 0.862305 122.653 1.98318 122.653 3.36393C122.653 4.74468 121.533 5.86555 120.152 5.86555C118.771 5.86555 117.65 4.74468 117.65 3.36393Z" fill="#4BAF47"/>
<path d="M78.4695 3.36393C78.4695 1.98318 79.5904 0.862305 80.9711 0.862305C82.3519 0.862305 83.4727 1.98318 83.4727 3.36393C83.4727 4.74468 82.3519 5.86555 80.9711 5.86555C79.5877 5.86555 78.4695 4.74468 78.4695 3.36393Z" fill="#4BAF47"/>
<path d="M39.2861 3.36393C39.2861 1.98318 40.407 0.862305 41.7878 0.862305C43.1685 0.862305 44.2894 1.98318 44.2894 3.36393C44.2894 4.74468 43.1685 5.86555 41.7878 5.86555C40.407 5.86555 39.2861 4.74468 39.2861 3.36393Z" fill="#4BAF47"/>
<path d="M0.102753 3.36393C0.102753 1.98318 1.22363 0.862305 2.60438 0.862305C3.98513 0.862305 5.106 1.98318 5.106 3.36393C5.106 4.74468 3.98513 5.86555 2.60438 5.86555C1.221 5.86555 0.102753 4.74468 0.102753 3.36393Z" fill="#4BAF47"/>
</svg>
