<svg width="56" height="60" viewBox="0 0 56 60" fill="none" xmlns="http://www.w3.org/2000/svg">
<g clip-path="url(#clip0_961_498)">
<path d="M20.2742 60C19.7904 59.6875 19.6968 59.2344 19.6968 58.6875C19.7124 55.3282 19.6968 51.9688 19.7124 48.6094C19.7124 48.1563 19.5563 47.9844 19.1661 47.7969C11.2375 44.2344 6.602 38.125 5.33779 29.5157C5.08807 27.8594 5.27536 26.125 5.25975 24.4375C5.25975 23.0313 5.30657 21.625 5.25975 20.2188C5.22854 19.2813 4.38573 18.5313 3.46488 18.5625C2.52842 18.5938 1.76365 19.3438 1.76365 20.2969C1.74804 22.5157 1.76365 24.75 1.74804 26.9688C1.74804 27.1563 1.76365 27.3594 1.71683 27.5469C1.59197 28.0313 1.27982 28.2813 0.780375 28.2344C0.312147 28.1875 0.0312108 27.9063 0.0156032 27.4219C-0.0156119 26.6875 -4.3544e-06 25.9219 -4.3544e-06 25.1563C-4.3544e-06 23.6563 -4.3544e-06 22.1563 -4.3544e-06 20.6407C-4.3544e-06 18.4063 1.17056 17.0938 3.40245 16.7969C3.48049 16.7813 3.55852 16.7657 3.66778 16.75C3.68338 16.6563 3.73021 16.5625 3.7146 16.4688C3.55852 15.0938 3.99554 13.8594 4.47937 12.6094C5.41583 10.2188 6.30546 7.79692 7.2107 5.39067C8.19398 2.81255 10.2074 2.01567 12.689 3.23443C12.7202 3.25005 12.767 3.25005 12.845 3.25005C12.9699 2.92192 13.0948 2.57817 13.2352 2.25005C14.2497 -0.234325 17.3712 -0.7812 19.1817 1.20317C19.4002 1.43755 19.5407 1.54692 19.9153 1.43755C21.6477 0.921925 24.0513 1.42192 24.7848 3.85943C24.8004 3.9063 24.8473 3.95318 24.8317 3.93755C26.9699 3.93755 29.0457 3.93755 31.1683 3.93755C31.1683 3.92192 31.2308 3.8438 31.262 3.75005C31.9643 1.7813 33.8684 0.796925 35.8974 1.4063C36.3344 1.5313 36.5686 1.4688 36.8807 1.12505C38.6444 -0.7812 41.7191 -0.203075 42.7179 2.18755C42.874 2.54692 42.9989 2.9063 43.155 3.31255C44.0914 2.75005 45.0591 2.50005 46.1048 2.7813C47.2754 3.07817 48.1494 3.7813 48.5708 4.9063C49.757 8.00005 50.9588 11.0938 52.0513 14.2188C52.3166 14.9844 52.2542 15.8751 52.3478 16.7657C52.5195 16.7969 52.7536 16.8282 52.9721 16.8594C54.6421 17.0938 55.9532 18.5 55.9532 20.1719C55.9844 24.0313 56.0312 27.9063 55.922 31.7657C55.8595 34.4219 54.8763 36.8125 53.0814 38.7813C52.1293 39.8125 51.7391 40.9219 51.7547 42.3282C51.8016 47.8125 51.7703 53.2969 51.7859 58.7969C51.7859 59.3282 51.6611 59.75 51.1616 60C50.9587 60 50.7715 60 50.5686 60C50.1003 59.6875 50.0067 59.2188 50.0067 58.6875C50.0223 53.2032 50.0535 47.7188 49.9911 42.2344C49.9755 40.4375 50.5217 38.9844 51.7235 37.6719C53.2687 35.9844 54.1115 33.9375 54.1583 31.6719C54.2519 27.8907 54.2051 24.0938 54.1895 20.3125C54.1895 19.3282 53.3779 18.5625 52.4259 18.5625C51.4738 18.5625 50.6778 19.3438 50.6778 20.3282C50.6778 21.8438 50.6466 23.375 50.7402 24.8907C51.427 34.875 45.9175 43.9219 36.709 47.8282C36.3501 47.9844 36.2252 48.1563 36.2252 48.5625C36.2408 51.9375 36.2252 55.3125 36.2408 58.6875C36.2408 59.2344 36.1472 59.6875 35.6633 60C35.476 60 35.2731 60 35.0702 60C34.5864 59.7344 34.4459 59.3282 34.4615 58.7813C34.4771 55.625 34.4771 52.4532 34.4771 49.2969C34.4771 49.0938 34.4771 48.8907 34.4771 48.7344C33.0725 48.9844 31.7458 49.2657 30.4192 49.4375C29.3891 49.5782 28.8116 48.8125 29.0925 47.8125C29.1393 47.6719 29.155 47.5313 29.2018 47.3125C28.6087 47.6094 28.078 47.8594 27.5786 48.1407C27.0635 48.4375 26.5641 48.4375 26.0178 48.2188C25.2843 47.9063 24.5351 47.6563 23.7547 47.375C23.3177 48.4219 22.7402 49.2188 21.4136 48.6407C21.4136 48.9375 21.4136 49.1563 21.4136 49.3594C21.4136 52.5 21.398 55.6407 21.4292 58.7813C21.4292 59.3125 21.3043 59.7344 20.8205 60C20.6644 60 20.4615 60 20.2742 60ZM31.0903 47.5313C39.175 46.6563 48.524 39.3594 49.039 27.6407C49.5541 16.0469 40.5953 6.20318 29.1862 5.62505C17.621 5.04692 7.71014 13.7032 6.96098 25.375C6.19621 37.2032 14.874 45.2032 22.0847 46.9063C22.1784 46.75 22.272 46.5782 22.3657 46.4063C22.8963 45.4532 23.3021 45.3125 24.3322 45.6875C24.9877 45.9375 25.6433 46.2032 26.3144 46.4063C26.5953 46.4844 26.9699 46.4844 27.2352 46.3594C28.078 45.9844 28.874 45.5469 29.7012 45.1407C30.1695 44.9063 30.6065 44.9532 31.0123 45.2657C31.4337 45.6094 31.5585 46.0625 31.4181 46.5782C31.2932 46.8907 31.1996 47.2032 31.0903 47.5313ZM6.71126 18.375C6.68004 18.4375 6.72686 18.3594 6.75808 18.2657C7.64771 16.0313 8.84949 14.0001 10.379 12.1563C10.5039 12.0001 10.6132 11.7969 10.6912 11.5938C11.2531 10.0625 11.8149 8.5313 12.3612 6.98443C12.4705 6.64068 12.5485 6.25005 12.4861 5.9063C12.3612 5.07817 11.7057 4.51568 10.8785 4.45317C10.0201 4.39067 9.30211 4.8438 8.97436 5.70317C7.85061 8.67192 6.68004 11.625 5.64994 14.625C5.369 15.4375 5.52508 16.3907 5.47826 17.2813C5.47826 17.3438 5.52508 17.4375 5.58751 17.4688C5.9777 17.7813 6.35228 18.0782 6.71126 18.375ZM49.2731 18.375C49.6165 18.1094 49.9755 17.8282 50.3188 17.5469C50.3969 17.4844 50.4905 17.3594 50.4905 17.2657C50.4437 16.3125 50.5373 15.3125 50.2564 14.4375C49.5541 12.25 48.6644 10.125 47.8528 7.9688C47.5407 7.14067 47.2598 6.31255 46.9164 5.51567C46.5262 4.62505 45.4961 4.2188 44.6065 4.56255C43.7324 4.9063 43.233 5.82818 43.5451 6.75005C44.107 8.43755 44.7313 10.0938 45.34 11.7657C45.3712 11.8751 45.4493 11.9688 45.5273 12.0625C47.1661 14 48.4303 16.1563 49.2731 18.375ZM13.563 8.85942C14.796 8.07817 15.9978 7.31255 17.1839 6.54693C17.2932 6.4688 17.3712 6.31255 17.4337 6.17192C17.6834 5.51568 17.9487 4.87505 18.1828 4.20317C18.5262 3.20317 18.0736 2.2188 17.1215 1.85942C16.2007 1.51567 15.2486 1.9688 14.8428 2.93755C14.6087 3.50005 14.3902 4.06255 14.2029 4.62505C14.1249 4.8438 14.1092 5.12505 14.1561 5.3438C14.3278 6.10943 14.2497 6.8438 13.9844 7.57817C13.8595 8.01567 13.7191 8.43755 13.563 8.85942ZM42.3902 8.81255C42.359 8.70318 42.3278 8.57817 42.2809 8.45317C41.8751 7.37505 41.4537 6.29693 41.8751 5.10943C41.9063 5.04693 41.8751 4.95317 41.8439 4.89067C41.563 4.1563 41.3289 3.42192 41.0011 2.7188C40.689 2.0313 39.9242 1.67192 39.2062 1.7813C38.5195 1.87505 37.8328 2.42192 37.7235 3.10942C37.5362 4.39067 38.2854 5.4063 38.7224 6.51568C38.7224 6.5313 38.7536 6.5313 38.7692 6.54693C39.9866 7.29693 41.1884 8.06255 42.3902 8.81255ZM36.272 5.3438C36.1628 4.79693 35.9599 4.29692 35.9599 3.79692C35.9599 3.29692 35.7101 3.10942 35.3043 2.98442C34.2899 2.6563 33.1973 3.29692 32.9632 4.35942C34.0713 4.67192 35.1639 5.00005 36.272 5.3438ZM23.0524 4.3438C22.7246 3.2813 21.3043 2.68755 20.3367 3.17192C20.2274 3.2188 20.1026 3.3438 20.087 3.43755C19.9621 4.07817 19.8684 4.7188 19.7592 5.3438C20.8361 5.01568 21.913 4.68755 23.0524 4.3438Z" fill="black"/>
<path d="M4.82273 60C4.32329 59.75 4.19843 59.3281 4.19843 58.7969C4.21403 53.1719 4.19843 47.5469 4.21403 41.9375C4.21403 40.8125 3.90188 39.8906 3.1215 39.0781C1.29542 37.125 0.327746 34.7812 0.0468096 32.1406C0.0312021 31.9687 0.0155945 31.7969 0.0155945 31.6094C0.0155945 31.0312 0.358961 30.625 0.858404 30.6094C1.35785 30.5937 1.70121 30.9687 1.77925 31.5469C1.8729 32.2656 1.95093 32.9844 2.12262 33.6719C2.51281 35.2344 3.24636 36.625 4.3545 37.7969C5.49386 38.9687 5.97769 40.3437 5.96208 41.9844C5.93087 47.5469 5.94648 53.1094 5.96208 58.6719C5.96208 59.2187 5.86844 59.6719 5.40021 59.9844C5.21292 60 5.01002 60 4.82273 60Z" fill="black"/>
<path d="M26.8138 19.125C26.6421 19.7344 26.4861 20.25 26.3456 20.7657C26.1427 21.4688 25.7057 21.7969 25.1906 21.6407C24.6288 21.4844 24.4415 21 24.66 20.25C25.0658 18.8282 25.4716 17.4063 25.893 15.9532C25.3155 15.6094 24.7848 15.2657 24.2074 14.9688C23.3489 14.5157 22.9587 13.8282 23.0212 12.875C23.0368 12.5157 23.0212 12.1407 23.0212 11.7657C18.3389 12.6407 13.4381 18.3125 12.4548 23.9532C11.3311 30.375 14.3278 36.875 19.9153 40.2188C25.5496 43.5938 32.3701 42.9219 36.9275 39.625C36.4281 38.9844 35.9599 38.2969 35.4292 37.7032C34.6644 36.8594 34.4615 35.9532 34.8986 34.9063C34.961 34.7657 34.9766 34.6094 35.039 34.375C33.9621 33.8282 32.8696 33.2813 31.777 32.75C31.6522 32.6875 31.4337 32.7657 31.2776 32.8282C30.7313 33.0313 30.2007 33.2657 29.6388 33.4688C29.0769 33.6719 28.6243 33.4844 28.437 32.9844C28.2497 32.5157 28.4526 32.0782 28.9833 31.8594C29.67 31.5625 30.3567 31.2969 31.0435 31.0313C31.6054 30.8125 32.1516 30.9375 32.6823 31.2032C33.6187 31.6875 34.5552 32.1407 35.4916 32.625C35.8194 32.0313 35.8974 31.5469 35.398 31.0157C34.8829 30.4844 34.4771 29.8594 34.0089 29.2813C33.6499 28.8282 33.5251 28.2969 33.6343 27.7344C33.806 26.875 33.9933 26.0157 34.1806 25.1563C34.3211 24.5469 34.7581 24.25 35.2731 24.3907C35.757 24.5157 35.9911 24.9532 35.8818 25.5469C35.7414 26.25 35.5697 26.9532 35.4604 27.6719C35.4292 27.9375 35.5072 28.2813 35.6477 28.5C36.0691 29.125 36.553 29.7188 37.0368 30.3125C37.5831 30.9532 37.6923 31.6407 37.427 32.4375C37.0992 33.4844 36.7871 34.5313 36.5061 35.5782C36.4437 35.8282 36.5061 36.2032 36.6466 36.4063C37.1617 37.1407 37.7235 37.8282 38.2854 38.5625C40.9699 36.1563 42.7023 33.2657 43.3891 29.7813C44.1851 25.7032 43.4827 21.875 41.3289 18.2969C41.1572 18 41.0635 17.5313 41.1728 17.2188C41.4381 16.5157 42.3122 16.5938 42.7804 17.3282C44.6689 20.3594 45.5897 23.6563 45.4337 27.2344C45.1059 35.3282 39.612 41.9375 31.7458 43.7813C22.5686 45.9375 13.0011 39.9063 10.9097 30.6094C8.66221 20.5469 15.2642 10.8125 25.4872 9.31254C30.8406 8.53129 35.6009 10.0313 39.6745 13.6094C40.2363 14.0938 40.3144 14.6094 39.9242 15.0157C39.534 15.4375 39.0502 15.3907 38.4883 14.8907C34.6644 11.5625 30.2475 10.3125 25.2375 11.0938C24.8629 11.1563 24.7692 11.2969 24.7536 11.6563C24.738 13.2032 24.7224 13.2032 26.0491 14C26.1895 14.0782 26.3144 14.1563 26.4548 14.2344C27.5318 14.875 27.8127 15.5469 27.4537 16.7344C27.3289 17.1407 27.4225 17.3438 27.7347 17.625C28.4682 18.2813 29.2486 18.6719 30.2631 18.5625C30.6845 18.5157 31.1215 18.5782 31.5429 18.6094C32.058 18.6407 32.3545 18.9375 32.3857 19.4219C32.4169 19.9063 32.136 20.3125 31.6522 20.3282C30.5909 20.3438 29.5139 20.2969 28.437 20.2032C28.1561 20.1875 27.8907 19.9375 27.6254 19.7657C27.3757 19.5938 27.126 19.375 26.8138 19.125Z" fill="black"/>
</g>
<defs>
<clipPath id="clip0_961_498">
<rect width="56" height="60" fill="white"/>
</clipPath>
</defs>
</svg>
