<svg width="48" height="60" viewBox="0 0 48 60" fill="none" xmlns="http://www.w3.org/2000/svg">
<g clip-path="url(#clip0_961_481)">
<path d="M24.5795 53.3985C23.7586 54.4554 23.0664 55.5773 22.165 56.4554C18.7042 59.8212 14.5835 60.8456 10.0443 59.2684C5.48894 57.6912 2.8652 54.309 2.14085 49.4798C2.12475 49.3985 2.10866 49.3172 2.10866 49.2359C2.15695 48.0651 1.99598 47.057 0.853123 46.3253C0.20926 45.9188 0.0321973 45.0407 0.0161008 44.244C4.17605e-06 38.7155 4.17605e-06 33.1708 0.0161008 27.6261C0.0161008 27.3172 0.144873 26.992 0.289743 26.7155C1.35212 24.6017 2.41449 22.4716 3.52515 20.3903C3.94367 19.6099 3.7827 18.8131 3.7988 18.0164C3.7988 17.9188 3.58954 17.7562 3.44467 17.7074C2.47888 17.3497 2.01208 16.6505 1.97988 15.6261C1.96379 14.992 1.96379 14.3741 1.97988 13.7399C2.01208 12.2603 2.80081 11.4473 4.28169 11.4473C9.06238 11.4473 13.8592 11.431 18.6398 11.4473C19.1066 11.4473 19.3964 11.3172 19.6539 10.8944C21.0865 8.5692 22.5674 6.27652 24 3.93506C24.2254 3.57733 24.3219 3.12205 24.3702 2.69928C24.4346 2.0814 24.3863 1.44725 24.3863 0.813105C24.4024 0.29278 24.6761 0.0163574 25.1751 0.0163574C28.6197 0.0163574 32.0483 0.0163574 35.493 0.0163574C36.0081 0.0163574 36.2656 0.30904 36.2817 0.813105C36.2817 0.878146 36.2978 0.943187 36.2817 0.991967C36.008 2.69928 36.6519 4.09766 37.6016 5.49603C39.4688 8.29278 41.2233 11.1546 43.0101 14.0164C43.1388 14.2277 43.171 14.5529 43.1871 14.8131C43.2032 20.8456 43.2032 26.8781 43.1871 32.9269C43.1871 33.431 43.2998 33.7237 43.7505 34.0001C45.4245 35.0733 46.4547 36.6668 47.0342 38.5204C48.6761 43.6424 48.2736 48.6505 45.8913 53.4635C45.666 53.9188 45.3924 54.3416 45.0865 54.7481C42.7364 58.0164 39.4366 58.8456 35.8471 57.057C35.4608 56.8619 35.171 56.8619 34.8008 57.057C31.7907 58.5529 29.0543 58.309 26.8491 56.244C26.1087 55.5611 25.5453 54.6668 24.9014 53.8538C24.7404 53.7074 24.66 53.5286 24.5795 53.3985ZM46.5996 44.1952C46.5674 43.7562 46.5352 43.0407 46.4547 42.3416C46.2294 40.3416 45.7304 38.4229 44.5553 36.7643C43.3803 35.0895 41.7545 34.1627 39.7103 34.3741C38.5191 34.5042 37.328 34.8781 36.1851 35.2847C35.5413 35.5123 35.0262 35.5773 34.4145 35.2847C33.8511 35.0082 33.2555 34.8294 32.6439 34.683C29.328 33.8212 26.7203 35.057 25.2233 38.1627C25.1107 38.3741 25.0302 38.6017 24.9336 38.8294C23.8551 41.6261 23.7425 44.5204 24.161 47.4635C24.5151 49.8538 25.2233 52.1302 26.6881 54.0977C28.5553 56.6017 31.1147 57.3009 33.8833 55.9025C34.9135 55.3822 35.67 55.3985 36.7002 55.9025C39.3883 57.2521 41.9155 56.5855 43.7505 54.1627C44.2334 53.5286 44.6519 52.8131 44.9899 52.0814C46.1328 49.6749 46.5513 47.1058 46.5996 44.1952ZM31.0503 15.2359C31.0342 15.496 31.0181 15.7074 31.0181 15.9025C31.0181 21.366 31.0181 26.8294 31.0181 32.309C31.0181 32.4554 30.9859 32.6017 31.0342 32.7318C31.0664 32.8456 31.1791 32.992 31.2757 33.0082C32.3541 33.2359 33.4165 33.431 34.5433 33.6586C34.5594 33.2521 34.5755 32.8131 34.6237 32.3741C34.7686 30.6993 35.0262 29.057 35.8954 27.5936C36.6197 26.3578 37.6821 25.6261 39.1469 25.6099C39.5815 25.6099 39.9034 25.7887 39.9356 26.2603C39.9678 26.7643 39.662 27.0245 39.1952 27.0245C38.1972 27.0245 37.5211 27.5448 37.0704 28.3741C36.169 30.0164 36.0402 31.8375 35.9598 33.6912C36.9417 33.4473 37.8592 33.122 38.8089 33.0082C39.7586 32.8944 40.7243 32.9757 41.7062 32.9757C41.7062 27.0895 41.7062 21.1708 41.7062 15.2196C38.1489 15.2359 34.6237 15.2359 31.0503 15.2359ZM11.8632 40.9432C11.7505 41.2034 11.6539 41.3985 11.5734 41.6099C10.1891 44.8131 7.88733 47.0245 4.63582 48.244C3.36419 48.7155 3.34809 48.6993 3.62173 50.0326C4.53924 54.6342 8.19316 57.9838 12.8612 58.5204C17.159 59.0082 21.4406 56.5042 23.3239 52.3903C23.5976 51.8212 23.7264 51.2847 23.4527 50.6505C23.2435 50.1464 23.1469 49.6099 23.0342 49.0733C22.9537 48.6993 22.825 48.5529 22.4064 48.5204C17.9155 48.2603 14.6318 46.0651 12.4266 42.1627C12.2334 41.7725 12.0724 41.3822 11.8632 40.9432ZM1.46479 31.6749C1.46479 34.992 1.46479 38.2603 1.46479 41.5773C2.14085 41.5773 2.75252 41.5448 3.38029 41.5936C3.7666 41.6099 3.99196 41.4635 4.21731 41.1546C8.64387 34.9107 17.3843 34.3416 22.5674 39.9676C22.6801 40.0977 22.7284 40.2928 22.8089 40.4716C23.2274 39.5448 23.4205 38.7481 23.7747 38.0651C24.1932 37.2359 24.3058 36.3903 24.2736 35.4798C24.2415 34.2277 24.2575 32.9757 24.2575 31.6912C16.6278 31.6749 9.04628 31.6749 1.46479 31.6749ZM23.8068 26.683C22.7928 24.7155 21.8592 22.8294 20.8612 20.9757C20.7807 20.8131 20.4427 20.6993 20.2173 20.6993C15.2918 20.683 10.3662 20.6993 5.44065 20.683C5.02214 20.683 4.84507 20.8456 4.66801 21.1871C3.84709 22.8294 2.99397 24.4716 2.15695 26.1139C2.07646 26.2928 1.99598 26.4716 1.8994 26.683C9.22334 26.683 16.4668 26.683 23.8068 26.683ZM29.6338 15.2521C27.6056 15.2521 25.674 15.2521 23.7425 15.2521C23.7586 16.4879 23.3078 17.3822 22.0845 17.7399C22.004 17.7562 21.8914 17.87 21.8914 17.9351C21.9557 18.7155 21.8431 19.5773 22.1489 20.244C23.1469 22.4391 24.3219 24.5529 25.3843 26.6993C25.5614 27.0407 25.6579 27.4635 25.6579 27.8538C25.6901 29.9838 25.674 32.1139 25.674 34.2603C25.674 34.4716 25.674 34.6668 25.674 35.0245C26.7203 34.0651 27.7666 33.4147 28.9899 33.1871C29.5372 33.0895 29.6338 32.8456 29.6338 32.3416C29.6177 26.8781 29.6177 21.4147 29.6177 15.9351C29.6338 15.7237 29.6338 15.5123 29.6338 15.2521ZM26.2374 4.244C26.3662 4.53668 26.4306 4.71554 26.5272 4.89441C27.8632 7.67489 29.1992 10.4391 30.503 13.2196C30.6962 13.6261 30.9215 13.7725 31.3722 13.7562C34.4145 13.7399 37.4406 13.7399 40.4829 13.7399C40.6761 13.7399 40.8531 13.7237 41.0624 13.7074C41.0302 13.5936 41.0302 13.5286 40.998 13.4798C39.1308 10.5042 37.2475 7.51229 35.3481 4.55294C35.2354 4.37408 34.9296 4.26026 34.7042 4.244C33.2716 4.21148 31.8551 4.22774 30.4225 4.22774C29.0704 4.244 27.7022 4.244 26.2374 4.244ZM12.7646 16.3578C15.5976 16.3578 18.4306 16.3578 21.2636 16.3578C22.1489 16.3578 22.3099 16.179 22.3099 15.2847C22.3099 14.8781 22.3099 14.4716 22.3099 14.0651C22.3099 12.9594 22.1811 12.8131 21.0543 12.8131C15.6298 12.8131 10.2052 12.8131 4.76459 12.8131C4.57143 12.8131 4.36218 12.8131 4.16902 12.8131C3.63783 12.8294 3.36419 13.122 3.36419 13.6586C3.36419 14.2115 3.36419 14.7481 3.36419 15.3009C3.36419 16.1464 3.55735 16.3416 4.39437 16.3416C7.17908 16.3578 9.97988 16.3578 12.7646 16.3578ZM22.5996 47.0407C22.5996 45.6424 22.6157 44.2765 22.5835 42.9269C22.5835 42.6017 22.5191 42.2277 22.3421 41.9838C20.5392 39.3985 18.0443 37.9351 14.9537 37.5773C14.1811 37.4798 13.3763 37.5611 12.5875 37.5611C12.9738 43.2684 18.2213 47.2684 22.5996 47.0407ZM24.2254 28.179C16.5956 28.179 9.01409 28.179 1.4487 28.179C1.4487 28.8619 1.4487 29.5123 1.4487 30.179C9.06238 30.179 16.6278 30.179 24.2254 30.179C24.2254 29.496 24.2254 28.8619 24.2254 28.179ZM24.998 5.00823C23.6298 7.17083 22.3421 9.23587 21.006 11.3497C23.1469 11.6749 23.3561 11.87 23.8068 13.7399C25.5614 13.7399 27.3159 13.7399 29.1831 13.7399C27.7827 10.8131 26.4145 7.96758 24.998 5.00823ZM3.54125 47.0407C7.30785 46.3253 11.3481 41.366 10.9618 37.9676C7.21127 38.7155 3.62173 43.0733 3.54125 47.0407ZM20.4427 19.2359C20.4588 19.0082 20.4749 18.8456 20.4749 18.6993C20.4749 17.6261 20.5392 17.7887 19.5734 17.7887C15.0342 17.7887 10.495 17.7887 5.95574 17.7887C5.73039 17.7887 5.48894 17.7887 5.26359 17.7887C5.26359 18.3416 5.26359 18.7806 5.26359 19.2359C10.3501 19.2359 15.3722 19.2359 20.4427 19.2359ZM34.8169 2.79685C34.8169 2.3253 34.8169 1.88628 34.8169 1.46351C31.7907 1.46351 28.7968 1.46351 25.8189 1.46351C25.8189 1.93506 25.8189 2.34156 25.8189 2.79685C28.829 2.79685 31.7907 2.79685 34.8169 2.79685ZM1.4326 43.0245C1.4165 44.0326 1.22334 45.0245 2.18914 45.7237C2.47888 44.8131 2.75252 43.9351 3.04226 43.0245C2.51107 43.0245 2.01208 43.0245 1.4326 43.0245Z" fill="#191919"/>
<path d="M43.5252 42.4391C43.5252 42.5529 43.5252 42.683 43.5252 42.7968C43.5091 43.1871 43.332 43.4472 42.9135 43.496C42.495 43.5285 42.2696 43.3009 42.2052 42.9107C42.1248 42.3253 42.0926 41.7399 42.0121 41.1546C41.9638 40.8619 41.8833 40.5692 41.7706 40.2765C41.2555 38.8294 40.1932 38.2277 38.6962 38.5367C38.3743 38.6017 38.0684 38.7643 37.7626 38.7155C37.5211 38.683 37.1348 38.4716 37.1026 38.2765C37.0704 38.0326 37.2475 37.5611 37.4407 37.496C39.4688 36.7318 41.7706 36.9107 42.833 39.3659C43.2515 40.309 43.3803 41.3822 43.6539 42.3903C43.6056 42.4066 43.5734 42.4229 43.5252 42.4391Z" fill="#191919"/>
<path d="M13.6982 55.4635C12.7485 55.4797 11.992 55.0732 11.4286 54.309C11.171 53.9675 11.0906 53.5773 11.4608 53.2846C11.8149 53.0082 12.1529 53.0895 12.4588 53.4472C13.2475 54.3253 14.2133 54.374 15.0986 53.5936C15.163 53.5448 15.2113 53.4797 15.2757 53.431C15.5815 53.1057 15.9517 53.0244 16.2898 53.3334C16.66 53.6749 16.5312 54.0488 16.2254 54.4066C15.6137 55.0732 14.6801 55.4635 13.6982 55.4635Z" fill="#191919"/>
<path d="M9.80281 51.2521C8.98189 50.9594 8.19315 50.7318 7.45271 50.4228C7.06639 50.2602 6.85714 49.9188 7.09858 49.4797C7.34003 49.057 7.71025 49.057 8.09657 49.2521C9.25553 49.8862 10.3823 49.9025 11.5412 49.2684C11.9115 49.057 12.3139 49.0407 12.5392 49.4635C12.7807 49.9025 12.5875 50.2927 12.1529 50.4553C11.4125 50.748 10.6237 50.9757 9.80281 51.2521Z" fill="#191919"/>
<path d="M17.8511 51.2521C17.0302 50.9757 16.2736 50.7481 15.5332 50.4554C15.0986 50.2765 14.9215 49.8863 15.163 49.4635C15.3883 49.0407 15.7907 49.0733 16.1609 49.2847C17.2877 49.9025 18.4145 49.9188 19.5573 49.3009C19.9436 49.0895 20.3461 49.057 20.6036 49.5123C20.8611 49.9838 20.5875 50.3253 20.1851 50.4879C19.4286 50.7481 18.6559 50.9757 17.8511 51.2521Z" fill="#191919"/>
</g>
<defs>
<clipPath id="clip0_961_481">
<rect width="48" height="60" fill="white"/>
</clipPath>
</defs>
</svg>
