<svg width="60" height="60" viewBox="0 0 60 60" fill="none" xmlns="http://www.w3.org/2000/svg">
<g clip-path="url(#clip0_961_472)">
<path d="M1.22171e-05 21.2189C0.390943 20.1251 0.781873 19.0314 1.15717 17.922C1.39172 17.2657 1.59501 16.5939 1.82957 15.922C2.0954 15.1564 2.29868 14.9376 3.09618 15.0157C3.81549 15.0782 4.12824 14.8439 4.31588 14.1564C4.55044 13.2501 4.87882 12.3751 5.19157 11.4845C5.67632 10.0782 6.64583 9.37511 8.147 9.37511C12.0094 9.37511 15.8874 9.37511 19.7498 9.37511C19.9687 9.37511 20.172 9.37511 20.4379 9.37511C20.6255 8.29698 20.8131 7.25011 20.9852 6.18761C21.1884 4.93761 21.3917 3.68761 21.595 2.43761C21.8452 0.968859 22.9711 0.0157335 24.4566 0.000108508C28.1157 -0.0155165 31.7592 0.000108508 35.4183 0.000108508C36.2627 0.000108508 36.5911 0.328234 36.5911 1.17198C36.5911 2.26573 36.5911 3.35948 36.5911 4.45323C36.5911 5.29698 36.2627 5.62511 35.4183 5.62511C32.76 5.62511 30.1017 5.62511 27.4433 5.62511C27.24 5.62511 27.0211 5.62511 26.7709 5.62511C26.5676 6.87511 26.3644 8.07823 26.1454 9.37511C27.1619 9.37511 28.147 9.37511 29.1321 9.37511C30.9773 9.37511 31.8217 9.98448 32.416 11.7501C32.7287 12.672 33.0415 13.5939 33.3386 14.5314C33.448 14.8751 33.6044 15.0626 33.9953 15.0157C34.1986 14.9845 34.4175 15.0157 34.6364 15.0157C35.1212 15.0157 35.4652 15.2501 35.6216 15.7032C36.2471 17.547 36.8726 19.3907 37.4668 21.2501C37.6857 21.9532 37.2635 22.4845 36.5129 22.5001C35.6216 22.5157 34.7146 22.5001 33.7451 22.5001C33.6826 23.5939 33.62 24.6564 33.5575 25.7189C33.4324 28.3282 33.3073 30.9376 33.1822 33.5626C33.1509 34.2814 32.76 34.7189 32.1814 34.6876C31.6028 34.6564 31.2744 34.2345 31.3057 33.4845C31.3839 31.7345 31.4777 29.9845 31.5559 28.172C23.0336 28.172 14.5426 28.172 5.95779 28.172C6.27054 34.3907 6.58328 40.6095 6.89602 46.8751C8.17828 46.8751 9.41362 46.8751 10.6333 46.8751C10.821 46.8751 11.0242 46.8595 11.2119 46.8751C11.8061 46.9064 12.197 47.297 12.1814 47.8282C12.1658 48.3282 11.7905 48.7189 11.2275 48.7345C10.0547 48.7501 8.88195 48.7345 7.70916 48.7345C7.49024 48.7345 7.28695 48.7345 6.98985 48.7345C7.14622 51.8751 7.30259 54.9689 7.45896 58.1095C7.7248 58.1095 7.92808 58.1095 8.147 58.1095C10.6333 58.1095 13.104 58.1095 15.5903 58.1095C16.1376 58.1095 16.6224 58.172 16.8257 58.7501C17.0289 59.3126 16.6693 59.6564 16.294 59.9845C12.932 59.9845 9.56999 59.9845 6.20799 59.9845C5.75451 59.672 5.61377 59.2345 5.59813 58.6876C5.4574 55.4532 5.28539 52.2189 5.12902 48.9689C4.70681 40.422 4.26897 31.8907 3.84677 23.3439C3.83113 23.0626 3.78422 22.7814 3.75294 22.4845C2.90853 22.4845 2.12667 22.4532 1.34481 22.5001C0.766236 22.5314 0.312757 22.3751 -0.015625 21.9064C1.22171e-05 21.6876 1.22171e-05 21.4532 1.22171e-05 21.2189ZM35.2776 20.6095C34.9179 19.5157 34.5583 18.5157 34.2455 17.4845C34.1048 17.0157 33.9015 16.8595 33.4011 16.8595C23.6435 16.8751 13.8859 16.8751 4.1126 16.8751C3.97186 16.8751 3.83113 16.8595 3.70603 16.8907C3.61221 16.9064 3.47147 16.9845 3.4402 17.0626C3.03363 18.2345 2.65834 19.4064 2.25177 20.6251C13.2916 20.6095 24.2377 20.6095 35.2776 20.6095ZM31.853 22.547C23.0962 22.547 14.4019 22.547 5.69196 22.547C5.75451 23.8126 5.81706 25.0157 5.8796 26.2189C14.5113 26.2189 23.0649 26.2189 31.6654 26.2189C31.7279 24.9845 31.7905 23.7814 31.853 22.547ZM31.5246 14.9845C31.1963 14.0001 30.8835 13.0626 30.5864 12.1251C30.3988 11.5157 30.0235 11.2501 29.3823 11.2501C22.2987 11.2501 15.2307 11.2501 8.16264 11.2501C7.52151 11.2501 7.13058 11.5001 6.94294 12.1095C6.69274 12.922 6.39563 13.7345 6.1298 14.547C6.08289 14.6876 6.06725 14.8282 6.05161 14.9689C14.5583 14.9845 23.018 14.9845 31.5246 14.9845ZM34.699 1.92198C34.5895 1.90636 34.5426 1.87511 34.4801 1.87511C31.1337 1.87511 27.803 1.87511 24.4566 1.87511C23.878 1.87511 23.5497 2.17198 23.4558 2.73448C23.3151 3.57823 23.1587 4.42198 23.018 5.26573C22.7991 6.60948 22.5802 7.95323 22.3456 9.32823C23.0024 9.32823 23.6278 9.32823 24.2377 9.32823C24.4879 7.81261 24.7381 6.32823 24.9726 4.84386C25.1134 3.98448 25.3949 3.75011 26.2549 3.75011C28.8507 3.75011 31.4465 3.75011 34.0579 3.75011C34.2612 3.75011 34.4644 3.75011 34.6834 3.75011C34.699 3.09386 34.699 2.53136 34.699 1.92198Z" fill="#191919"/>
<path d="M19.3589 60C19.14 59.7188 18.8741 59.4531 18.7021 59.1406C16.9351 55.6406 15.1994 52.125 13.4167 48.6406C13.1196 48.0625 13.1196 47.5781 13.4167 47C15.1837 43.5156 16.9195 40.0313 18.6552 36.5313C18.968 35.8906 19.3902 35.625 20.1095 35.625C31.0868 35.6406 42.0798 35.6406 53.0571 35.625C53.792 35.625 54.1986 35.875 54.5113 36.5313C56.2471 40.0469 57.9984 43.5469 59.7655 47.0469C60.0469 47.5938 60.0469 48.0469 59.7655 48.5938C57.9828 52.1094 56.2314 55.6406 54.4644 59.1562C54.3081 59.4688 54.0266 59.7344 53.8077 60.0156C42.3456 60 30.8522 60 19.3589 60ZM15.6216 46.875C15.9343 46.875 16.1533 46.875 16.3722 46.875C21.7514 46.875 27.1149 46.875 32.4941 46.875C33.448 46.875 33.7138 47.1094 33.792 48.0469C33.9328 49.5 35.1212 50.6094 36.5755 50.625C38.0141 50.6406 39.2494 49.5469 39.4058 48.0937C39.5153 47.0625 39.7342 46.875 40.7662 46.875C46.1454 46.875 51.509 46.875 56.8882 46.875C57.0915 46.875 57.2948 46.875 57.5762 46.875C57.5137 46.7188 57.4824 46.625 57.4511 46.5469C55.9969 43.6562 54.5426 40.7656 53.1196 37.8594C52.9476 37.5156 52.7287 37.5 52.416 37.5C41.8921 37.5 31.3526 37.5 20.8288 37.5C20.4378 37.5 20.2502 37.6094 20.0782 37.9688C18.7021 40.7656 17.2948 43.5469 15.9031 46.3438C15.7936 46.4844 15.731 46.6406 15.6216 46.875ZM57.5606 48.7813C52.0876 48.7813 46.6615 48.7813 41.2354 48.7813C40.2033 51.3594 38.749 52.5156 36.5598 52.5C34.4019 52.4844 32.932 51.3125 31.9468 48.7813C26.5207 48.7813 21.1102 48.7813 15.6372 48.7813C15.6841 48.9063 15.7154 49 15.7623 49.0781C17.2166 51.9688 18.6708 54.8594 20.0938 57.7656C20.2658 58.1094 20.5004 58.125 20.7975 58.125C31.3214 58.125 41.8608 58.125 52.3847 58.125C52.7756 58.125 52.9633 58 53.1353 57.6562C54.5113 54.8594 55.9187 52.0781 57.3104 49.2812C57.4042 49.1406 57.4668 48.9844 57.5606 48.7813Z" fill="#191919"/>
<path d="M11.2588 37.875C11.2901 34.2188 13.3542 31.375 16.4347 30.3594C19.484 29.3594 22.8616 30.4219 24.7537 32.9688C25.0039 33.3125 25.2072 33.6563 25.0195 34.0938C24.7068 34.8125 23.8624 34.875 23.3307 34.1875C22.4081 33 21.2353 32.2031 19.7342 31.9688C17.4355 31.6094 15.5434 32.3594 14.1986 34.2344C12.8538 36.1094 12.7756 38.1406 13.8389 40.2031C13.9328 40.375 14.0422 40.5313 14.136 40.7031C14.4331 41.2344 14.3237 41.75 13.8702 42.0313C13.4167 42.3125 12.9007 42.1875 12.5567 41.6875C11.681 40.4375 11.2744 39.0313 11.2588 37.875Z" fill="#191919"/>
<path d="M42.2361 39.375C43.4089 39.375 44.5817 39.375 45.7545 39.375C46.4895 39.375 46.9117 39.7344 46.9117 40.3281C46.9117 40.9063 46.4738 41.25 45.7389 41.25C43.3933 41.25 41.0477 41.25 38.7021 41.25C37.9672 41.25 37.545 40.8906 37.545 40.2969C37.545 39.7187 37.9828 39.375 38.7178 39.375C39.8906 39.375 41.0634 39.375 42.2361 39.375Z" fill="#191919"/>
<path d="M50.6177 41.25C50.3049 41.25 49.9922 41.2656 49.6795 41.25C49.1634 41.2031 48.7881 40.8281 48.7881 40.3438C48.7725 39.8281 49.1478 39.4219 49.6951 39.3906C50.3362 39.3594 50.993 39.3594 51.6341 39.3906C52.1501 39.4062 52.5254 39.8125 52.5254 40.2969C52.5411 40.8125 52.1658 41.2031 51.6185 41.25C51.2901 41.2656 50.9617 41.25 50.6177 41.25Z" fill="#191919"/>
</g>
<defs>
<clipPath id="clip0_961_472">
<rect width="60" height="60" fill="white"/>
</clipPath>
</defs>
</svg>
