<svg width="60" height="60" viewBox="0 0 60 60" fill="none" xmlns="http://www.w3.org/2000/svg">
<g clip-path="url(#clip0_961_491)">
<path d="M1.43233 60.0001C0.299064 59.6408 -0.0629509 58.8285 0.015748 57.7038C0.236105 54.6265 0.362023 51.5491 0.629599 48.4718C0.834216 46.2224 1.98322 44.3791 3.60442 42.8483C5.82372 40.7394 8.53096 39.4429 11.3956 38.4744C13.6306 37.7246 15.8972 37.1154 18.1637 36.4906C18.6202 36.3656 18.6989 36.1781 18.7461 35.7407C18.872 34.6629 18.51 33.9287 17.6758 33.1789C15.6296 31.3669 14.213 29.1175 13.4575 26.4619C13.3946 26.2588 13.127 26.0558 12.9066 25.962C11.0336 25.1498 9.75867 23.8532 9.39665 21.8069C9.20777 20.7759 9.41239 19.7918 9.83736 18.8389C9.90032 18.6827 9.97902 18.5265 10.042 18.3859C9.33369 17.9797 8.57818 17.6829 7.99581 17.1987C7.319 16.6363 6.64219 15.9803 6.20148 15.2305C5.43023 13.9495 6.10704 12.7936 7.6338 12.6842C8.6254 12.6061 9.63275 12.6374 10.6401 12.6218C12.2141 12.6061 12.2141 12.6218 12.639 11.1222C13.2686 8.90398 13.851 6.68581 14.5593 4.49888C14.8583 3.57725 15.3305 2.65561 15.8972 1.85894C16.8101 0.609269 18.1322 5.27892e-05 19.7219 0.0156737C23.7356 0.0312947 27.7492 0.0469156 31.7629 0.0156737C33.7461 5.27892e-05 35.2099 0.843583 36.233 2.46816C36.6579 3.13986 36.957 3.90529 37.1931 4.65509C37.9329 7.1232 38.6411 9.59131 39.318 12.075C39.4439 12.528 39.6485 12.6374 40.0892 12.6374C41.2067 12.6061 42.3242 12.6374 43.4575 12.653C43.6936 12.653 43.9297 12.6686 44.1658 12.6999C45.6139 12.8873 46.1805 13.9339 45.5194 15.2305C44.8741 16.4958 43.788 17.2768 42.5603 17.9016C42.2613 18.0578 41.9622 18.1828 41.6002 18.3546C42.1196 19.3231 42.4187 20.3385 42.3242 21.432C42.1039 23.6345 40.829 25.0716 38.8615 25.9152C38.4365 26.1026 38.2476 26.3369 38.1217 26.7743C37.3033 29.5549 35.6663 31.8199 33.4942 33.6944C33.1165 34.0224 32.9119 34.3192 32.9591 34.8347C33.0063 35.319 32.9748 35.8032 32.9748 36.225C35.6506 37.0529 38.2949 37.8183 40.8762 38.7087C43.489 39.6147 45.8972 40.8957 48.085 42.8327C48.085 42.3796 48.0693 42.0516 48.085 41.7392C48.1322 40.9425 48.6674 40.3802 49.4701 40.3333C50.1154 40.3021 50.7608 40.3333 51.4533 40.3333C51.4533 38.1464 51.4533 36.0219 51.4533 33.8194C50.6191 33.8194 49.7692 33.835 48.9349 33.8194C46.9675 33.7725 45.3305 32.4916 44.8583 30.6171C44.7482 30.2109 44.7167 29.7735 44.7167 29.3362C44.701 26.3838 44.701 23.4471 44.7167 20.4947C44.7167 20.276 44.6852 19.9948 44.8111 19.8699C45.0472 19.6199 45.362 19.3544 45.6611 19.3075C46.0861 19.245 46.3851 19.5575 46.4638 20.0105C46.4953 20.1979 46.4795 20.401 46.4795 20.5884C46.4795 23.4627 46.4795 26.3213 46.4795 29.1956C46.4795 31.0701 47.4712 32.0542 49.3442 32.0542C50.0367 32.0542 50.7135 32.0542 51.5005 32.0542C51.5005 31.7886 51.5005 31.57 51.5005 31.3356C51.5005 27.7584 51.5005 24.1969 51.5005 20.6197C51.5005 20.401 51.4376 20.1354 51.532 19.9948C51.7209 19.7137 52.0042 19.3544 52.2875 19.3231C52.5708 19.2919 52.9329 19.5887 53.1532 19.823C53.2949 19.9792 53.2634 20.3073 53.2634 20.5572C53.2634 24.1344 53.2634 27.696 53.2634 31.2732C53.2634 31.5075 53.2634 31.7418 53.2634 31.9917C54.318 31.9917 55.341 32.1011 56.3326 31.9605C57.4974 31.7887 58.2372 30.7264 58.2372 29.4767C58.2529 26.5088 58.2372 23.5408 58.2372 20.5728C58.2372 20.401 58.2214 20.2135 58.2529 20.0417C58.3473 19.5575 58.6306 19.2607 59.1343 19.2763C59.638 19.2919 59.937 19.5731 59.9843 20.073C60.0157 20.4791 60 20.8852 60 21.307C60 23.9782 60 26.6494 60 29.3362C60 32.0073 58.1899 33.8037 55.4827 33.8194C54.7587 33.8194 54.0346 33.8194 53.2949 33.8194C53.2791 34.0068 53.2476 34.1474 53.2476 34.2724C53.2476 36.2562 53.2476 38.2557 53.2476 40.3177C53.8458 40.3177 54.3809 40.3177 54.9318 40.3177C56.0808 40.3333 56.6317 40.8644 56.6317 42.0204C56.6317 47.4408 56.6317 52.8769 56.6474 58.2974C56.6474 59.1565 56.2854 59.7033 55.5142 60.0313C37.4764 60.0001 19.4544 60.0001 1.43233 60.0001ZM10.8447 58.2036C20.8709 58.2036 30.8342 58.2036 40.8447 58.2036C40.8447 58.0006 40.8447 57.8287 40.8447 57.6569C40.8447 55.3606 40.8447 53.0487 40.8447 50.7525C40.8447 49.9089 40.6716 49.7371 39.8059 49.7527C36.0126 49.7683 32.2193 49.784 28.426 49.7996C28.1427 49.7996 27.7807 49.8152 27.5761 49.659C27.3242 49.4872 27.0252 49.1279 27.0409 48.8623C27.0567 48.5812 27.3872 48.2844 27.639 48.05C27.7492 47.9407 28.0168 47.9876 28.2057 47.9876C30.4092 47.9876 32.6128 48.0032 34.8164 48.0032C34.9423 48.0032 35.0682 47.9719 35.2414 47.9407C35.2414 44.9415 35.2414 41.9735 35.2256 39.0211C35.2256 38.9118 35.1154 38.7087 35.0053 38.6775C34.2655 38.4588 33.51 38.2713 32.7545 38.0839C31.6527 41.2549 29.5121 43.1763 26.1752 43.3013C22.5079 43.4419 20.1469 41.4736 18.9192 38.0839C18.085 38.3026 17.2823 38.5056 16.4795 38.7243C16.4795 41.8329 16.4795 44.879 16.4795 47.9719C18.6516 47.9719 20.7608 47.9719 22.8856 47.9719C23.1375 47.9719 23.405 47.9719 23.6411 48.0344C24.0819 48.1438 24.2865 48.4718 24.255 48.9092C24.2235 49.3466 23.9874 49.6278 23.531 49.7059C23.3421 49.7371 23.1375 49.7215 22.9486 49.7215C19.8793 49.7215 16.8101 49.7215 13.7408 49.7215C13.0325 49.7215 12.3242 49.7215 11.616 49.7215C11.1595 49.7215 10.8447 49.9089 10.8447 50.4088C10.8447 52.9863 10.8447 55.5637 10.8447 58.2036ZM36.7681 19.6043C29.4334 20.6665 22.2403 20.6822 15.063 19.6199C15.063 21.5413 15.063 23.4471 15.063 25.3528C15.063 25.5559 15.1259 25.7746 15.1889 25.9777C16.4795 30.1641 19.234 33.0383 23.2791 34.6941C25.1679 35.4596 27.0567 35.3346 28.8825 34.4911C29.7324 34.1005 30.5824 33.6475 31.3221 33.0852C33.9035 31.1794 35.9182 28.7894 36.4848 25.5871C36.8468 23.6814 36.6894 21.6819 36.7681 19.6043ZM36.595 9.02895C33.9664 9.02895 31.3694 9.02895 28.7723 9.02895C28.5362 9.02895 28.3001 9.04457 28.064 9.01333C27.5918 8.95085 27.3085 8.65405 27.2928 8.20104C27.2613 7.73241 27.5289 7.42 27.9853 7.31065C28.1742 7.26379 28.3788 7.27941 28.5677 7.27941C30.85 7.27941 33.1322 7.27941 35.4145 7.27941C35.6191 7.27941 35.8237 7.27941 36.1857 7.27941C35.6821 5.93601 35.3358 4.65509 34.7692 3.49914C34.1868 2.32757 33.1322 1.73398 31.7314 1.7496C27.7335 1.78084 23.7513 1.78084 19.7534 1.7496C18.6831 1.7496 17.8489 2.17136 17.2036 2.96803C16.1805 4.20208 16.0546 5.76418 15.5352 7.26379C18.3054 7.26379 20.9496 7.26379 23.6097 7.26379C23.7985 7.26379 24.0032 7.24817 24.192 7.27941C24.68 7.38875 24.9475 7.68555 24.9161 8.20104C24.8846 8.66967 24.6013 8.95085 24.1291 9.01333C23.9559 9.04457 23.7828 9.02895 23.5939 9.02895C20.9024 9.02895 18.2109 9.02895 15.5037 9.04457C15.3148 9.04457 15.0157 9.16954 14.9685 9.29451C14.6223 10.3567 14.3232 11.4502 14.0241 12.5437C21.894 12.5437 29.701 12.5437 37.5708 12.5437C37.256 11.3409 36.9412 10.2005 36.595 9.02895ZM7.85415 14.4182C7.80693 14.4807 7.75971 14.5588 7.72823 14.6212C8.24765 15.0586 8.71984 15.6522 9.31795 15.9178C10.6558 16.5114 12.0252 17.0894 13.4418 17.4486C16.4008 18.1984 19.4544 18.4171 22.4921 18.5577C27.639 18.8077 32.7545 18.5733 37.8069 17.558C39.5383 17.2143 41.2539 16.7301 42.7177 15.6835C43.1585 15.3711 43.5205 14.9337 43.914 14.5431C43.8825 14.4963 43.851 14.4494 43.8038 14.4026C31.8258 14.4182 19.8479 14.4182 7.85415 14.4182ZM9.06612 58.2036C9.06612 57.9537 9.06612 57.7506 9.06612 57.5476C9.06612 55.2044 9.08185 52.8613 9.06612 50.5181C9.06612 49.6121 9.38091 48.8623 10.1679 48.3781C10.5142 48.175 10.5771 47.9407 10.5771 47.5658C10.5614 45.457 10.5771 43.3481 10.5614 41.2393C10.5614 41.0519 10.5299 40.88 10.5142 40.6457C8.37357 41.5361 6.42183 42.5515 4.7849 44.0979C3.35258 45.457 2.43967 47.0659 2.31375 49.0654C2.15636 51.3773 2.03044 53.7048 1.88878 56.0167C1.84156 56.7353 1.81008 57.4382 1.76286 58.188C4.23401 58.2036 6.62645 58.2036 9.06612 58.2036ZM48.0063 58.2036C48.022 58.1099 48.0535 58.0474 48.0535 58.0006C48.0535 53.9235 48.0535 49.8464 48.0535 45.7694C48.0535 45.5976 47.9748 45.3789 47.8646 45.2383C46.1175 43.0045 43.7093 41.7548 41.0965 40.6301C41.0965 43.1138 41.0965 45.5038 41.1123 47.8938C41.1123 48.0188 41.2697 48.1906 41.3956 48.2687C42.2455 48.7842 42.6233 49.5496 42.6233 50.5181C42.6233 52.502 42.6233 54.5015 42.6233 56.4853C42.6233 57.0477 42.6233 57.6101 42.6233 58.188C44.4334 58.2036 46.1962 58.2036 48.0063 58.2036ZM20.5404 35.3815C20.3515 37.5684 20.9811 39.3492 22.7597 40.5832C24.617 41.8798 26.616 41.9579 28.5677 40.8019C30.5981 39.5991 31.3064 37.7246 31.149 35.3658C29.4649 36.2719 27.765 36.9592 25.8762 36.9748C23.9717 36.9904 22.2403 36.3031 20.5404 35.3815ZM54.8059 48.3781C54.8059 46.2536 54.8059 44.176 54.8059 42.0828C53.1375 42.0828 51.5005 42.0828 49.8636 42.0828C49.8636 44.2073 49.8636 46.2849 49.8636 48.3781C51.5163 48.3781 53.1375 48.3781 54.8059 48.3781ZM39.2393 47.9563C39.2707 47.8782 39.3022 47.847 39.3022 47.8157C39.3022 45.3008 39.318 42.7858 39.3022 40.2552C39.3022 40.1302 39.192 39.9428 39.0976 39.8959C38.4208 39.6616 37.744 39.4429 37.0357 39.2242C37.0357 42.1922 37.0357 45.0664 37.0357 47.9563C37.8227 47.9563 38.5467 47.9563 39.2393 47.9563ZM14.6223 47.9407C14.6223 45.0352 14.6223 42.1609 14.6223 39.2398C14.0084 39.4429 13.426 39.646 12.8437 39.8022C12.4502 39.8959 12.3242 40.0834 12.3242 40.4895C12.34 42.7858 12.34 45.0821 12.34 47.3783C12.34 47.5658 12.3715 47.7532 12.3715 47.9407C13.1585 47.9407 13.8825 47.9407 14.6223 47.9407ZM54.7901 58.2036C54.7901 57.0321 54.7901 55.9074 54.7901 54.7514C53.1217 54.7514 51.5005 54.7514 49.8636 54.7514C49.8636 55.923 49.8636 57.0633 49.8636 58.2036C51.532 58.2036 53.1532 58.2036 54.7901 58.2036ZM49.8479 52.9238C51.532 52.9238 53.1689 52.9238 54.7901 52.9238C54.7901 51.9865 54.7901 51.0961 54.7901 50.1901C53.1217 50.1901 51.5005 50.1901 49.8479 50.1901C49.8479 51.1117 49.8479 52.0021 49.8479 52.9238ZM13.1585 24.0719C13.1585 22.463 13.1585 20.8696 13.1585 19.2607C12.8909 19.1982 12.6076 19.1513 12.3557 19.042C11.8993 18.8545 11.6947 19.042 11.49 19.4325C10.6086 21.1508 11.3012 23.1971 13.1585 24.0719ZM38.4995 24.0407C40.0735 23.4002 40.9077 21.6194 40.404 20.0261C40.0577 18.917 39.9475 18.8545 38.8458 19.1669C38.7356 19.1982 38.6254 19.2294 38.4995 19.2763C38.4995 20.854 38.4995 22.4161 38.4995 24.0407Z" fill="#191919"/>
<path d="M15.0472 54.845C14.7009 54.845 14.3389 54.8606 13.9926 54.845C13.489 54.8138 13.1899 54.517 13.1584 54.0327C13.127 53.5485 13.4103 53.1736 13.8982 53.1423C14.6695 53.0798 15.4722 53.0798 16.2434 53.1423C16.7314 53.1736 16.9989 53.5328 16.9989 54.0327C16.9989 54.5013 16.6212 54.8294 16.1018 54.8606C16.0703 54.8606 16.0231 54.8606 15.9916 54.8606C15.6611 54.8606 15.3463 54.8606 15.0472 54.845Z" fill="#191919"/>
<path d="M36.5478 54.8452C36.2172 54.8452 35.8709 54.8608 35.5404 54.8452C35.0367 54.814 34.7377 54.5484 34.6905 54.0485C34.6432 53.5643 34.958 53.1425 35.4617 53.1113C36.233 53.0644 37.0042 53.0644 37.7597 53.1269C38.2476 53.1581 38.531 53.5174 38.4995 54.0173C38.468 54.5172 38.1689 54.7983 37.6653 54.8296C37.3033 54.8765 36.9255 54.8452 36.5478 54.8452Z" fill="#191919"/>
<path d="M25.7503 31.3356C24.7901 31.32 23.9559 30.9763 23.2634 30.3202C22.8541 29.9297 22.8227 29.4455 23.1689 29.0706C23.4995 28.6957 23.9874 28.68 24.4281 29.0081C25.4827 29.7891 26.2067 29.7891 27.2455 29.0237C27.702 28.6957 28.1899 28.7113 28.5205 29.0549C28.851 29.4298 28.8195 29.961 28.3945 30.3515C27.639 31.0388 26.7576 31.3512 25.7503 31.3356Z" fill="#191919"/>
<path d="M31.936 22.041C32.5498 22.3378 33.2109 22.5877 33.7775 22.947C34.234 23.2438 34.234 23.8062 33.9192 24.1811C33.6044 24.5404 33.1322 24.6185 32.7072 24.3061C32.1249 23.853 31.5897 23.853 30.9916 24.3061C30.5666 24.6341 30.0787 24.556 29.7796 24.1967C29.4648 23.8218 29.5121 23.3219 29.9056 22.947C30.3778 22.494 31.1333 22.1972 31.8416 22.2128C31.873 22.1504 31.9045 22.0879 31.936 22.041Z" fill="#191919"/>
<path d="M19.9108 22.041C20.5089 22.3222 21.1543 22.5721 21.7052 22.9314C22.1616 23.2282 22.1931 23.7749 21.894 24.1655C21.595 24.556 21.0913 24.6341 20.6349 24.3061C20.0682 23.8843 19.5488 23.8687 18.9664 24.2904C18.51 24.6341 18.022 24.556 17.7073 24.1811C17.4082 23.8062 17.4712 23.3063 17.8804 22.9314C18.4313 22.4315 19.0924 22.2285 19.8164 22.2128C19.8636 22.1504 19.8951 22.1035 19.9108 22.041Z" fill="#191919"/>
</g>
<defs>
<clipPath id="clip0_961_491">
<rect width="60" height="60" fill="white"/>
</clipPath>
</defs>
</svg>
