<svg width="61" height="60" viewBox="0 0 61 60" fill="none" xmlns="http://www.w3.org/2000/svg">
<g clip-path="url(#clip0_961_487)">
<path d="M10.4037 42.3197C11.2307 42.3197 11.9751 42.3197 12.7194 42.3197C14.1584 42.3197 15.6139 42.3527 17.0529 42.3197C18.0287 42.3032 18.7565 42.7155 19.4512 43.3917C20.1293 44.0679 20.9398 44.6122 21.7172 45.1894C21.9488 45.3544 22.2796 45.3873 22.6269 45.3873C22.4946 45.2389 22.3623 45.0905 22.2299 44.9585C18.7565 41.4951 15.3492 37.9327 11.7766 34.5682C6.07023 29.2081 6.79799 20.0218 12.157 15.1235C12.2893 14.9915 12.4216 14.8761 12.6367 14.6782C12.4051 14.6122 12.2397 14.5627 12.0743 14.5297C10.4203 14.1669 9.04745 13.3423 8.0385 11.9569C7.44306 11.1323 7.5423 10.7694 8.46855 10.3571C14.9854 7.37195 21.4856 4.40329 27.9859 1.41813C29.2595 0.824399 30.5165 0.230666 31.939 0.0657403C33.5103 -0.115678 35.032 0.148203 36.5371 0.544025C40.9864 1.715 45.4192 2.91896 49.8685 4.10642C50.067 4.1559 50.2655 4.20538 50.5466 4.27135C50.5632 3.87553 50.5797 3.51269 50.5963 3.16635C50.6293 2.12731 51.2413 1.46761 52.2503 1.4841C54.599 1.51709 56.9642 1.56656 59.3129 1.64903C60.4376 1.68201 61 2.32522 60.9835 3.44672C60.8677 8.80681 60.7519 14.1669 60.6196 19.527C60.603 20.5165 59.958 21.1433 58.949 21.1268C57.0138 21.1103 55.0621 21.0443 53.1269 21.0113C52.8623 21.0113 52.5976 21.0113 52.2668 21.0113C52.3826 21.4566 52.4984 21.8195 52.5811 22.1988C53.6727 26.8497 52.6307 30.9398 49.24 34.3538C44.8734 38.7408 40.4737 43.1114 36.0906 47.4654C35.9252 47.6303 35.6936 47.7458 35.4786 47.8942C35.5282 47.9602 35.5944 48.0427 35.644 48.1086C35.8921 48.0097 36.1402 47.9107 36.3883 47.8118C39.0843 46.6408 41.7969 45.5523 44.708 45.074C46.4447 44.7771 48.1649 44.7771 49.8354 45.3873C51.0759 45.8326 52.0683 46.6078 52.8457 47.6798C53.3088 48.3395 53.2261 48.7188 52.5315 49.0652C45.6673 52.3967 38.7866 55.7282 31.939 59.0762C29.6234 60.2142 27.2416 60.2307 24.8102 59.6534C20.2617 58.5649 15.7131 57.4434 11.1646 56.3384C10.9496 56.2889 10.718 56.2395 10.3872 56.157C10.3872 56.5858 10.3872 56.9651 10.3872 57.3445C10.3707 58.3505 9.75868 58.9772 8.76627 58.9772C6.38449 58.9937 4.01925 58.9937 1.63747 58.9772C0.645065 58.9772 0 58.3505 0 57.3445C0 51.9184 0 46.5088 0 41.1158C0 40.1592 0.595445 39.483 1.57131 39.483C3.98617 39.45 6.40103 39.45 8.83243 39.483C9.8083 39.4995 10.3707 40.1592 10.3872 41.1323C10.4037 41.4786 10.4037 41.8579 10.4037 42.3197ZM30.2684 19.3785C30.1196 19.1641 30.0038 18.9333 29.8384 18.7683C27.8536 16.8387 25.7034 15.1564 23.0404 14.2659C21.5353 13.7546 20.0301 13.5237 18.4422 14.0844C17.5987 14.3813 16.6725 14.4473 15.7793 14.6452C15.4319 14.7276 15.035 14.7936 14.7373 14.975C8.61741 18.7683 7.22804 28.0701 12.4713 33.2323C16.5236 37.207 20.5098 41.2477 24.5456 45.2389C24.744 45.4368 25.1079 45.5853 25.4056 45.6017C27.2251 45.6347 29.0445 45.6182 30.8639 45.6182C32.0879 45.6182 33.0472 46.1295 33.7584 47.1356C33.8411 47.251 33.9238 47.35 34.1058 47.5644C34.2546 47.35 34.3704 47.1685 34.5193 47.0201C39.0843 42.4517 43.6659 37.8997 48.2476 33.3313C52.2834 29.2906 52.7299 23.2213 49.3558 18.6034C49.058 18.1911 48.7438 18.0097 48.231 18.0097C46.6763 18.0097 45.138 17.9272 43.5832 17.9107C42.6405 17.9107 41.9458 17.5149 41.3172 16.8387C40.7549 16.2285 40.1264 15.6182 39.4317 15.1729C38.34 14.4638 37.1326 14.2494 35.9086 14.942C35.1312 15.3709 34.3208 15.7832 33.6426 16.3274C32.5179 17.2345 31.4924 18.2571 30.2684 19.3785ZM51.2744 48.0262C50.5963 47.251 49.8023 46.8222 48.9092 46.5748C47.2717 46.113 45.6342 46.2944 43.9967 46.6408C40.5399 47.3994 37.3807 48.9168 34.1719 50.3351C34.0231 50.4011 33.8907 50.566 33.7915 50.7144C33.0968 51.7535 32.1209 52.3142 30.8804 52.2977C27.3408 52.2483 23.8178 52.2318 20.2782 52.0998C18.1776 52.0174 17.0694 50.9289 16.9867 49.1312C16.9702 48.6859 17.119 48.356 17.5987 48.29C18.0784 48.2241 18.3926 48.5044 18.4092 48.9333C18.4588 50.3186 19.2527 50.6155 20.3774 50.665C23.8674 50.7639 27.3574 50.8464 30.8473 50.8794C32.0382 50.8959 32.8983 49.9723 32.8487 48.8838C32.8156 47.8118 31.9555 47.0531 30.7646 47.0366C28.5317 47.0366 26.2988 47.0036 24.0659 47.0531C21.8991 47.1026 20.0963 46.3439 18.6903 44.7276C18.0453 43.9855 17.2514 43.7381 16.3251 43.7381C14.8034 43.7381 13.2652 43.7381 11.7435 43.7381C11.3134 43.7381 10.8834 43.7381 10.4534 43.7381C10.4203 43.8865 10.3872 43.969 10.3872 44.0514C10.3872 47.4489 10.3872 50.8464 10.3707 54.2604C10.3707 54.6397 10.6022 54.6892 10.8669 54.7551C15.5312 55.8931 20.212 57.0476 24.8764 58.1856C27.2747 58.7793 29.5572 58.6639 31.8398 57.5094C36.901 54.9366 42.0119 52.4956 47.1228 50.0053C48.4957 49.3456 49.852 48.7024 51.2744 48.0262ZM9.51058 11.4786C10.2549 12.3362 11.1315 12.798 12.1405 13.0619C13.6787 13.4577 15.2169 13.3258 16.7552 13.0124C20.2286 12.3197 23.4374 10.8849 26.6627 9.53248C26.8446 9.45002 26.9935 9.23561 27.1258 9.07069C27.7709 8.19658 28.6144 7.63583 29.6895 7.65233C32.9149 7.7018 36.1402 7.80076 39.349 7.94919C40.2256 7.98218 41.1188 8.1471 41.9623 8.39449C43.1863 8.75733 43.9637 10.0273 43.7817 11.2972C43.7486 11.5446 43.4344 11.8414 43.1863 11.9404C42.8059 12.0723 42.5247 11.8249 42.4254 11.4126C42.3924 11.2477 42.3758 11.0828 42.3427 10.9179C42.2104 10.0932 41.8962 9.76338 41.0857 9.59845C40.7383 9.53248 40.391 9.46651 40.0437 9.45002C36.7026 9.31808 33.3614 9.20263 30.0038 9.07069C29.7888 9.07069 29.5407 9.08718 29.3257 9.15315C28.3994 9.41703 27.8536 10.2746 27.9694 11.2477C28.0851 12.2043 28.8791 12.8805 29.9707 12.9135C32.2036 12.9794 34.4366 13.0619 36.6695 13.0454C38.8362 13.0289 40.5895 13.8205 41.9458 15.4368C42.6074 16.2285 43.4178 16.5088 44.3937 16.5253C46.0312 16.5583 47.6521 16.5913 49.2896 16.6243C49.5873 16.6243 49.9016 16.6243 50.2158 16.6243C50.2489 16.4264 50.282 16.2944 50.2985 16.146C50.3647 12.831 50.4309 9.51599 50.5136 6.20098C50.5301 5.80516 50.3316 5.7062 50.0339 5.62374C45.3365 4.3703 40.6226 3.10037 35.9252 1.86343C33.8246 1.30268 31.7571 1.22022 29.7061 2.17679C24.7937 4.48575 19.8647 6.74523 14.9357 9.02121C13.1659 9.84584 11.3796 10.6375 9.51058 11.4786ZM59.1806 19.5765C59.2964 14.1009 59.4287 8.6089 59.5445 3.01791C56.9808 3.01791 54.5328 3.01791 52.0353 3.01791C51.9195 8.49345 51.7871 13.9855 51.6714 19.5765C54.2185 19.5765 56.6499 19.5765 59.1806 19.5765ZM8.91513 57.4764C8.93167 57.328 8.94821 57.2455 8.94821 57.163C8.94821 51.9019 8.94821 46.6573 8.96475 41.3961C8.96475 40.9838 8.81589 40.8684 8.41893 40.8684C6.26871 40.8849 4.11849 40.8684 1.96828 40.8849C1.81941 40.8849 1.65401 40.9179 1.50515 40.9508C1.50515 46.4923 1.50515 51.9844 1.50515 57.4764C4.00271 57.4764 6.43411 57.4764 8.91513 57.4764ZM23.0239 12.6001C25.8853 13.6061 28.234 15.2884 30.3677 17.251C31.4428 16.2944 32.4683 15.3873 33.6095 14.3813C32.8322 14.3813 32.2036 14.3978 31.5586 14.3813C30.897 14.3648 30.2354 14.3483 29.5738 14.2988C28.1513 14.1834 27.0266 13.2433 26.6296 11.8579C26.5634 11.6435 26.5138 11.4291 26.4477 11.1982C25.2899 11.6765 24.1486 12.1383 23.0239 12.6001Z" fill="#191919"/>
<path d="M23.0239 12.6004C24.1651 12.1386 25.3064 11.6768 26.4808 11.1985C26.5469 11.4459 26.5965 11.6603 26.6627 11.8582C27.0431 13.2436 28.1678 14.1836 29.6068 14.2991C30.2684 14.3486 30.93 14.3651 31.5917 14.3816C32.2367 14.398 32.8652 14.3816 33.6426 14.3816C32.5014 15.3876 31.4759 16.2947 30.4008 17.2513C28.2175 15.3051 25.8853 13.6064 23.0239 12.6004Z" fill="white"/>
<path d="M30.3842 40.1264C29.6234 40.1264 28.8625 40.1264 28.0851 40.1264C26.9604 40.1264 26.8612 40.0274 26.8612 38.8894C26.8612 37.6525 26.8446 36.4155 26.8612 35.1786C26.8777 34.7003 26.6958 34.5354 26.2161 34.5519C24.8764 34.5849 23.5366 34.5684 22.1803 34.5519C21.4856 34.5519 21.2375 34.321 21.2375 33.6283C21.221 31.8966 21.221 30.1649 21.2375 28.4331C21.2375 27.724 21.4691 27.5096 22.1638 27.5096C23.4705 27.4931 24.7606 27.4766 26.0673 27.526C26.7123 27.559 26.8777 27.3116 26.8612 26.7179C26.8281 25.4645 26.8446 24.211 26.8446 22.9411C26.8446 22.0835 26.9935 21.9351 27.8701 21.9351C29.5407 21.9351 31.2112 21.9351 32.8818 21.9351C33.7584 21.9351 33.9073 22.1 33.9073 23.0071C33.9073 24.277 33.9404 25.5634 33.8907 26.8334C33.8742 27.3941 34.0727 27.526 34.602 27.526C35.9086 27.4931 37.1988 27.5095 38.5054 27.526C39.3324 27.526 39.4813 27.691 39.4813 28.4991C39.4813 30.2143 39.4813 31.9131 39.4813 33.6283C39.4813 34.3375 39.2828 34.5519 38.5716 34.5519C37.2649 34.5519 35.9748 34.5849 34.6681 34.5354C34.0065 34.5024 33.8742 34.7333 33.8907 35.3435C33.9404 36.6135 33.9073 37.8999 33.9073 39.1698C33.9073 39.9285 33.7088 40.1099 32.9479 40.1099C32.1209 40.1264 31.2609 40.1264 30.3842 40.1264ZM32.5675 23.3039C31.1782 23.3039 29.8715 23.2874 28.5814 23.3204C28.4656 23.3204 28.2671 23.6503 28.2505 23.8317C28.2175 25.1841 28.234 26.553 28.234 27.9054C28.234 28.664 28.0355 28.8619 27.2912 28.8619C25.968 28.8619 24.6448 28.8784 23.3216 28.8619C22.8254 28.8454 22.6269 28.9774 22.6434 29.5052C22.6765 30.5112 22.6931 31.5337 22.6434 32.5398C22.6104 33.117 22.8419 33.2325 23.3547 33.216C24.6779 33.183 26.0011 33.1995 27.3243 33.216C28.0521 33.216 28.234 33.4139 28.234 34.1396C28.234 35.492 28.2505 36.8608 28.234 38.2132C28.234 38.642 28.3829 38.7905 28.8129 38.7905C29.8715 38.774 30.9135 38.774 31.9721 38.7905C32.4352 38.807 32.5841 38.6255 32.5841 38.1802C32.5675 36.8608 32.5675 35.5414 32.5841 34.222C32.5841 33.3479 32.7329 33.216 33.593 33.1995C34.9162 33.1995 36.2394 33.183 37.5626 33.1995C38.0092 33.1995 38.2077 33.0675 38.1912 32.6058C38.1746 31.5502 38.1746 30.5112 38.1912 29.4557C38.1912 29.0104 38.0588 28.8454 37.5792 28.8454C36.2229 28.8784 34.8501 28.8619 33.4938 28.8454C32.7991 28.8454 32.6006 28.664 32.6006 27.9713C32.5841 27.1467 32.6006 26.3221 32.6006 25.4975C32.5675 24.8048 32.5675 24.0791 32.5675 23.3039Z" fill="#191919"/>
</g>
<defs>
<clipPath id="clip0_961_487">
<rect width="61" height="60" fill="white"/>
</clipPath>
</defs>
</svg>
