<svg width="59" height="60" viewBox="0 0 59 60" fill="none" xmlns="http://www.w3.org/2000/svg">
<g clip-path="url(#clip0_961_478)">
<path d="M0 45.2382C0.363807 43.7855 1.50268 42.8951 2.51501 41.9266C2.79973 41.6454 2.94209 41.3642 2.92627 40.9581C2.89464 40.2708 2.91046 39.5834 2.92627 38.9117C2.97373 37.4278 3.92279 36.4749 5.42547 36.428C6.13727 36.4124 6.84906 36.3811 7.48177 36.8185C7.57668 36.881 7.75067 36.881 7.84558 36.8498C8.14611 36.7248 8.44665 36.553 8.73137 36.4124C8.73137 28.4457 8.73137 20.4947 8.73137 12.4499C8.27266 12.4499 7.84558 12.4499 7.4185 12.4499C6.75416 12.4343 6.27962 12.1375 6.02654 11.5439C5.78928 10.9659 5.9 10.4192 6.3429 9.98178C7.13378 9.18511 7.92467 8.38844 8.73137 7.62301C9.14263 7.23249 9.63298 7.23249 9.99678 7.59177C10.3448 7.93543 10.3606 8.45092 9.98097 8.85707C9.39571 9.43504 8.79464 9.98178 8.19357 10.5441C8.20938 10.591 8.24102 10.6535 8.25684 10.7003C8.60483 10.7003 8.937 10.6847 9.28499 10.7003C10.0284 10.7316 10.4871 11.169 10.5346 11.9188C10.5504 12.1062 10.5346 12.3093 10.5346 12.4967C10.5346 20.2603 10.5346 28.0396 10.5346 35.8032C10.5346 36.6155 11.2464 37.006 12.0056 36.6936C13.4134 36.1156 15.6912 36.1781 16.2922 38.3338C16.7826 38.3338 17.2729 38.3181 17.7633 38.3338C19.1078 38.365 20.1676 39.3491 20.1676 40.6613C20.1992 43.3793 20.2308 46.0974 20.1359 48.7998C20.0568 50.9086 19.1394 52.7206 17.6209 54.2046C17.1622 54.6576 16.9408 55.1419 16.9724 55.7667C17.004 56.5634 16.9724 57.3601 16.9724 58.2036C18.8705 58.2036 20.737 58.2036 22.6509 58.2036C22.6509 56.829 22.6509 55.4699 22.6509 54.1109C22.6509 53.8922 22.6351 53.6735 22.6668 53.4704C22.73 52.9706 23.1255 52.6269 23.5842 52.6425C24.0587 52.6582 24.4225 53.0174 24.4225 53.5329C24.4383 54.8139 24.4225 56.1104 24.4383 57.3913C24.4383 57.6412 24.4383 57.8912 24.4383 58.2036C27.4753 58.2036 30.4807 58.2036 33.5493 58.2036C33.5493 57.9693 33.5493 57.735 33.5493 57.5007C33.5493 51.4085 33.5652 45.3163 33.5335 39.2242C33.5335 37.9901 33.929 37.006 34.8306 36.1468C36.5072 34.5379 37.3456 32.5384 37.3614 30.2109C37.3614 27.3679 37.3614 24.5092 37.3614 21.6662C37.3614 20.7134 37.0292 20.4322 35.922 20.4322C34.8464 20.4322 34.5142 20.729 34.5142 21.6975C34.5142 22.8222 34.5142 23.9625 34.5142 25.0872C34.5142 25.7433 34.1979 26.1182 33.6601 26.1338C33.1064 26.1494 32.7426 25.7589 32.7426 25.0872C32.7426 23.1971 32.7426 21.307 32.7426 19.4012C32.7426 18.4483 32.4421 18.1515 31.4614 18.1515C31.319 18.1515 31.1767 18.1515 31.0501 18.1515C30.2434 18.1671 29.8954 18.4952 29.8954 19.2919C29.8954 21.2288 29.8954 23.1502 29.8954 25.0872C29.8954 25.8214 29.4051 26.2744 28.7882 26.1026C28.2662 25.962 28.108 25.5715 28.108 25.0716C28.108 23.2127 28.108 21.3694 28.108 19.5105C28.108 18.4327 27.8391 18.1515 26.7477 18.1515C25.4981 18.1515 25.245 18.3858 25.245 19.6043C25.245 21.4632 25.245 23.3064 25.245 25.1653C25.245 25.7589 24.8812 26.1338 24.3593 26.1338C23.8373 26.1338 23.4893 25.7589 23.4735 25.1809C23.4735 25.0404 23.4735 24.9154 23.4735 24.7748C23.4735 22.9784 23.4735 21.182 23.4735 19.3856C23.4735 18.4796 23.1571 18.1671 22.2239 18.1515C22.0815 18.1515 21.9391 18.1515 21.8126 18.1515C20.9584 18.1671 20.6263 18.4796 20.6263 19.3231C20.6263 22.1661 20.6263 25.0247 20.6263 27.8677C20.6263 28.1177 20.6421 28.3832 20.6263 28.6332C20.5946 29.2111 20.2308 29.5704 19.693 29.5548C19.1869 29.5392 18.8547 29.1799 18.8547 28.6175C18.8389 27.4304 18.8547 26.2432 18.8547 24.931C18.0005 25.6808 17.178 26.3056 17.178 27.4772C17.178 28.4301 17.1938 29.3986 17.1622 30.3515C17.1464 31.1638 17.4627 31.8198 18.048 32.3822C19.7721 34.0693 21.4804 35.7876 23.2204 37.4746C24.0745 38.3025 24.4858 39.2554 24.47 40.4582C24.4383 43.3637 24.4542 46.2692 24.47 49.1903C24.47 49.7058 24.3434 50.1276 23.7898 50.2682C23.1729 50.4244 22.6984 49.9714 22.6984 49.2372C22.6826 47.7688 22.6984 46.3161 22.6984 44.8477C22.6984 43.3637 22.6826 41.8797 22.6984 40.3957C22.7142 39.7397 22.4928 39.2398 22.0182 38.7868C20.2941 37.0997 18.5858 35.3814 16.8458 33.6944C15.8651 32.7415 15.359 31.6168 15.3906 30.2421C15.4223 29.3517 15.3906 28.4457 15.4064 27.5553C15.4064 26.4306 15.8177 25.4621 16.6086 24.6498C17.2097 24.0406 17.8265 23.4158 18.4593 22.8222C18.7598 22.541 18.8863 22.2598 18.8705 21.8537C18.8389 20.9633 18.8547 20.0573 18.8705 19.1669C18.8863 17.5892 20.041 16.4488 21.6544 16.4176C22.2397 16.402 22.8249 16.4176 23.5051 16.4176C23.5051 15.9958 23.5051 15.4491 23.5051 14.918C23.5051 13.9651 23.5051 13.0122 23.5051 12.0437C23.5051 11.1533 23.9638 10.716 24.8496 10.7003C25.1501 10.7003 25.4665 10.7003 25.767 10.7003C22.8091 7.79485 19.8987 4.90497 16.9408 1.99948C16.8617 2.07758 16.7035 2.21817 16.5453 2.35876C15.3115 3.57719 14.0936 4.79563 12.844 5.99844C12.4011 6.43582 11.9107 6.43582 11.5311 6.07654C11.1515 5.71726 11.1515 5.20177 11.5786 4.78001C13.018 3.34288 14.4732 1.89013 15.9442 0.468628C16.5928 -0.156209 17.4153 -0.156209 18.0638 0.468628C21.2748 3.62406 24.47 6.77948 27.6651 9.95053C28.1239 10.4035 28.2504 10.9659 27.9657 11.5751C27.7126 12.1375 27.2381 12.4343 26.6054 12.4499C26.1783 12.4499 25.7512 12.4499 25.2925 12.4499C25.2925 13.8401 25.2925 15.1835 25.2925 16.5113C26.6054 16.402 27.8866 16.1677 29.0097 17.1049C30.1169 16.152 31.4139 16.402 32.7268 16.4957C32.7268 15.1835 32.7268 13.8558 32.7268 12.4499C32.2997 12.4499 31.8727 12.4499 31.4456 12.4499C30.7812 12.4499 30.3067 12.1531 30.0378 11.5595C29.7689 10.9503 29.9113 10.4035 30.37 9.95053C33.5652 6.77948 36.7603 3.62406 39.9713 0.468628C40.6357 -0.187451 41.4582 -0.124967 42.17 0.577974C43.8308 2.20255 45.4759 3.82713 47.1209 5.46733C48.5761 6.90445 50.0156 8.34158 51.4866 9.76308C52.0086 10.2786 52.2775 10.8409 51.9928 11.5439C51.708 12.2624 51.107 12.4811 50.3635 12.4499C50.0314 12.4343 49.6992 12.4499 49.2563 12.4499C49.2563 12.7154 49.2563 12.9341 49.2563 13.1684C49.2563 15.7303 49.2563 18.2765 49.2563 20.8383C49.2563 21.1039 49.2563 21.4475 49.1139 21.6194C48.9241 21.8381 48.5603 22.0411 48.2914 22.0255C48.0383 22.0099 47.7536 21.7443 47.5954 21.51C47.4689 21.3226 47.5005 21.0258 47.5005 20.7758C47.5005 18.0109 47.5005 15.2304 47.5005 12.4655C47.5005 11.0596 47.8327 10.7316 49.2405 10.716C49.4145 10.716 49.5885 10.716 49.6676 10.716C46.7729 7.85733 43.8625 4.96746 40.9678 2.12445C38.1206 4.85811 35.2102 7.74798 32.2681 10.6535C32.4421 10.6691 32.6319 10.6847 32.8059 10.6847C34.2295 10.6847 34.53 10.9971 34.53 12.4186C34.53 14.3244 34.53 16.2458 34.53 18.1515C34.53 18.339 34.53 18.542 34.53 18.7451C35.1311 18.7139 35.6847 18.667 36.2542 18.667C38.0099 18.6826 39.1646 19.8073 39.1646 21.5256C39.1646 24.4311 39.1804 27.3366 39.1646 30.2577C39.1488 33.0539 38.1048 35.4283 36.1118 37.3965C35.574 37.912 35.3526 38.4744 35.3526 39.2085C35.3684 45.3319 35.3684 51.471 35.3684 57.5944C35.3684 57.7818 35.3684 57.9693 35.3684 58.2036C38.5635 58.2036 41.7271 58.2036 44.9223 58.2036C44.9381 58.0005 44.9539 57.7974 44.9539 57.61C44.9539 55.1888 44.9381 52.7675 44.9697 50.3463C44.9697 49.6746 44.7483 49.1591 44.2579 48.6904C42.8501 47.347 41.4898 45.9568 40.0979 44.5978C39.2279 43.7542 38.8008 42.7545 38.8324 41.5517C38.8483 40.8331 38.8324 40.1146 38.8324 39.3804C38.8483 38.3963 39.1804 37.5527 39.8764 36.8342C39.9397 36.7561 40.003 36.6779 40.082 36.6311C41.4898 35.647 41.9327 34.3504 41.7745 32.6634C41.5215 29.836 44.4635 29.3986 46.1402 30.1953C46.7413 30.4764 47.5164 30.0547 47.5164 29.4142C47.5164 28.0864 47.5164 26.7587 47.5164 25.4309C47.5164 24.931 47.7062 24.5405 48.2123 24.3999C48.766 24.2437 49.2721 24.6655 49.2879 25.3215C49.3038 26.5712 49.3196 27.8209 49.2879 29.0706C49.2721 29.6017 49.2879 30.0391 49.9523 30.1484C50.0946 30.1796 50.2212 30.3046 50.3635 30.3827C52.3091 29.3049 54.6818 29.8516 55.1247 31.7886C55.5834 31.7886 56.0263 31.773 56.4692 31.7886C58.0351 31.8198 59.0158 32.804 59.0158 34.3504C59.0316 36.7873 59.0316 39.2242 59.0158 41.6766C59 44.0354 58.1142 46.0505 56.4217 47.7063C55.9788 48.1437 55.8048 48.628 55.8048 49.2216C55.8206 52.1895 55.789 55.1575 55.8206 58.1255C55.8365 59.0159 55.5359 59.6251 54.7134 60C38.8957 60 23.078 60 7.26032 60C6.39035 59.6407 6.05818 58.9846 6.13727 58.0942C6.1689 57.7037 6.12145 57.3132 6.15308 56.9227C6.20054 56.2354 5.96327 55.6886 5.45711 55.2044C4.22332 54.0328 3.037 52.7988 1.80322 51.6272C1.01233 50.8774 0.332172 50.0651 0.0474531 48.9872C0 47.7376 0 46.4879 0 45.2382ZM54.0174 58.2192C54.0174 57.9537 54.0174 57.7506 54.0174 57.5319C54.0174 54.767 54.0332 51.9865 54.0174 49.2216C54.0174 48.1437 54.3496 47.2533 55.1405 46.5035C56.5324 45.1757 57.2126 43.5355 57.2284 41.6298C57.2284 39.271 57.2284 36.9123 57.2284 34.5379C57.2284 33.7412 57.0386 33.585 56.1845 33.585C55.3461 33.585 55.1563 33.7568 55.1563 34.5691C55.1563 35.5064 55.1563 36.4436 55.1563 37.3809C55.1563 37.8808 54.9507 38.2557 54.4129 38.365C53.8118 38.4744 53.4005 38.0682 53.3847 37.3809C53.3689 35.8032 53.4005 34.2255 53.3689 32.6321C53.3689 32.3353 53.2265 31.9292 53.0051 31.7886C52.1668 31.2419 51.281 31.773 51.281 32.7571C51.281 34.3036 51.2968 35.8344 51.281 37.3809C51.281 38.0838 50.7273 38.5368 50.1263 38.3338C49.6517 38.1776 49.4936 37.8027 49.5094 37.3184C49.5252 35.7407 49.5094 34.163 49.5094 32.5696C49.5094 32.1635 49.4145 31.7574 48.9716 31.7105C47.9434 31.6011 47.2949 31.5543 47.3898 32.8821C47.4056 33.1945 47.3898 33.5069 47.3898 33.8193C47.3898 35.0534 47.3898 36.2718 47.374 37.5059C47.374 38.0057 47.0893 38.3025 46.5831 38.365C46.0928 38.4119 45.7131 38.1151 45.6341 37.5996C45.6024 37.4278 45.6182 37.2559 45.6182 37.0685C45.6182 35.5689 45.6341 34.0693 45.6024 32.554C45.6024 32.2885 45.4601 31.8667 45.3019 31.8198C44.8748 31.7105 44.3686 31.6792 43.9257 31.773C43.4828 31.8667 43.5303 32.3509 43.5303 32.7102C43.5303 34.7566 43.5303 36.8029 43.5303 38.8649C43.5303 39.6147 43.2139 40.0052 42.6287 39.9896C42.0434 39.9896 41.7587 39.6147 41.7587 38.8493C41.7587 38.4587 41.7587 38.0682 41.7587 37.584C40.9362 38.1932 40.5724 38.8493 40.6198 39.724C40.6515 40.3489 40.6515 40.9737 40.6198 41.5985C40.5882 42.3015 40.8413 42.8795 41.3633 43.3793C42.7869 44.754 44.1788 46.1755 45.6024 47.5501C46.4091 48.3155 46.7729 49.2216 46.7571 50.3306C46.7413 52.7519 46.7571 55.1731 46.7571 57.5944C46.7571 57.7975 46.7571 58.0161 46.7571 58.2505C49.1614 58.2192 51.5341 58.2192 54.0174 58.2192ZM15.2166 58.2192C15.2166 57.3757 15.2324 56.5946 15.2166 55.8136C15.1692 54.6733 15.5646 53.736 16.403 52.9393C17.7158 51.674 18.396 50.0963 18.4118 48.2687C18.4276 45.8318 18.4276 43.395 18.4118 40.9425C18.4118 40.2395 18.2062 40.0833 17.3995 40.0833C16.5453 40.0833 16.3397 40.2395 16.3397 40.9581C16.3239 41.8172 16.3397 42.6764 16.3397 43.5355C16.3397 43.6917 16.3397 43.848 16.3239 44.0042C16.2606 44.5197 15.8968 44.8633 15.4381 44.8633C14.9477 44.8633 14.5681 44.504 14.5681 43.9573C14.5523 42.3327 14.5681 40.7238 14.5523 39.0992C14.5523 38.3338 14.3308 38.1619 13.4609 38.1776C12.6383 38.1776 12.4485 38.3494 12.4485 39.0992C12.4485 40.6457 12.4485 42.1765 12.4485 43.723C12.4485 44.4416 12.1164 44.8633 11.5469 44.8633C10.9933 44.8633 10.6611 44.4416 10.6611 43.7074C10.6611 42.1453 10.6769 40.5832 10.6453 39.0211C10.6453 38.7555 10.4713 38.365 10.2657 38.24C9.37989 37.7402 8.54156 38.2713 8.54156 39.2554C8.54156 40.8175 8.54156 42.3796 8.54156 43.9417C8.54156 44.4884 8.14611 44.8633 7.65577 44.8477C7.19705 44.8477 6.83324 44.4884 6.76997 43.9885C6.75416 43.8323 6.75416 43.6761 6.75416 43.5199C6.75416 42.0203 6.76997 40.5207 6.73834 39.0055C6.73834 38.7555 6.58016 38.3025 6.42198 38.2713C5.96327 38.1776 5.44129 38.1463 4.99839 38.2869C4.80858 38.3494 4.68204 38.8805 4.68204 39.1929C4.6504 41.2861 4.68204 43.3637 4.66622 45.4569C4.66622 46.0817 4.27078 46.4879 3.74879 46.4566C3.24263 46.441 2.91046 46.0505 2.89464 45.4569C2.87882 45.0195 2.89464 44.5821 2.89464 44.0354C2.15121 44.5821 1.72413 45.1757 1.75576 46.0193C1.77158 46.7066 1.7874 47.3939 1.75576 48.0656C1.72413 48.7842 1.99303 49.3465 2.4992 49.8464C3.93861 51.2367 5.34638 52.6738 6.78579 54.064C7.54504 54.7982 7.90885 55.6418 7.87721 56.6727C7.86139 57.1726 7.87721 57.6725 7.87721 58.1723C10.3764 58.2192 12.7649 58.2192 15.2166 58.2192Z" fill="#191919"/>
<path d="M29.0097 38.1619C28.456 38.1619 27.9024 38.1775 27.3488 38.1619C26.7003 38.1463 26.3207 37.787 26.3365 37.2559C26.3523 36.756 26.7161 36.428 27.3488 36.4124C28.4877 36.3967 29.6424 36.3967 30.7812 36.4124C31.3981 36.4124 31.7778 36.756 31.7936 37.2559C31.8094 37.787 31.4298 38.1463 30.7812 38.1619C30.196 38.1775 29.5949 38.1619 29.0097 38.1619Z" fill="#191919"/>
</g>
<defs>
<clipPath id="clip0_961_478">
<rect width="59" height="60" fill="white"/>
</clipPath>
</defs>
</svg>
