<svg width="39" height="39" viewBox="0 0 39 39" fill="none" xmlns="http://www.w3.org/2000/svg">
<g clip-path="url(#clip0_1037_665)">
<path d="M29.2683 38.9876C25.9878 38.9876 22.7805 38.9876 19.5 38.9876C19.5 38.8158 19.5 38.6562 19.5 38.4966C19.5 36.7657 19.5 35.0348 19.5 33.2917C19.5 31.9782 18.6951 31.168 17.4025 31.1557C16.1951 31.1557 15 31.1557 13.7927 31.1557C12.5122 31.1557 11.7195 31.9536 11.7195 33.2548C11.7073 34.9857 11.7195 36.7166 11.7195 38.4598C11.7195 38.6193 11.7195 38.7912 11.7195 38.9631C11.561 38.9753 11.4634 38.9999 11.3537 38.9999C7.93905 38.9999 4.52441 38.9999 1.10978 38.9999C0.475633 38.9999 0.0853895 38.693 0.0244139 38.1774C-0.0487569 37.5759 0.341487 37.0849 0.951243 37.048C1.26832 37.0235 1.58539 37.048 1.95124 37.048C1.95124 36.8271 1.95124 36.6552 1.95124 36.4711C1.95124 26.8837 1.95124 17.2964 1.95124 7.70905C1.95124 6.35872 2.46344 5.69583 3.75612 5.40121C11.3781 3.62123 19.0244 1.85353 26.6586 0.0735448C28.1708 -0.282451 29.2683 0.589125 29.2683 2.14814C29.2683 14.2888 29.2683 26.4173 29.2683 38.558C29.2683 38.6807 29.2683 38.8035 29.2683 38.9876ZM9.71953 11.5268C9.41466 11.5268 9.10978 11.5145 8.8049 11.5268C8.18295 11.5391 7.8049 11.9073 7.79271 12.5211C7.78051 13.1472 7.78051 13.7733 7.79271 14.4116C7.8049 15.0377 8.18295 15.4059 8.79271 15.4182C9.41466 15.4305 10.0366 15.4305 10.6708 15.4182C11.2683 15.4059 11.6586 15.0622 11.683 14.4607C11.7195 13.7978 11.7073 13.1349 11.683 12.4843C11.6586 11.8828 11.2805 11.5391 10.683 11.5145C10.3659 11.5145 10.0488 11.5268 9.71953 11.5268ZM15.6098 15.4305C15.9147 15.4305 16.2195 15.4428 16.5244 15.4305C17.1464 15.4059 17.5244 15.0622 17.5488 14.4362C17.5732 13.7978 17.5732 13.1472 17.5488 12.5089C17.5244 11.9073 17.1464 11.5514 16.5488 11.5391C15.9147 11.5268 15.2683 11.5268 14.6342 11.5391C14.061 11.5514 13.6708 11.9196 13.6586 12.4843C13.6342 13.1595 13.6342 13.8346 13.6586 14.5098C13.683 15.0499 14.061 15.4059 14.5976 15.4428C14.939 15.4428 15.2683 15.4305 15.6098 15.4305ZM21.4634 15.4305C21.7683 15.4305 22.0732 15.4428 22.3781 15.4305C22.9878 15.4059 23.3659 15.0745 23.3903 14.473C23.4269 13.7978 23.4269 13.1226 23.3903 12.4475C23.3659 11.8828 22.9878 11.5391 22.439 11.5268C21.7683 11.5145 21.0976 11.5023 20.4269 11.5268C19.9025 11.5391 19.5244 11.9073 19.5122 12.4229C19.4878 13.1104 19.4878 13.8101 19.5122 14.4975C19.5366 15.0377 19.9147 15.3937 20.4634 15.4182C20.7927 15.4428 21.1342 15.4305 21.4634 15.4305ZM9.75612 21.3228C10.061 21.3228 10.3659 21.3351 10.6708 21.3228C11.2805 21.2983 11.6586 20.9668 11.6951 20.3776C11.7317 19.7024 11.7317 19.0273 11.6951 18.3521C11.6708 17.7874 11.2927 17.4437 10.7439 17.4314C10.0732 17.4069 9.40246 17.4069 8.73173 17.4314C8.19515 17.4437 7.8171 17.8243 7.8049 18.3767C7.78051 19.0395 7.78051 19.6902 7.8049 20.3531C7.8171 20.93 8.19515 21.2983 8.75612 21.3228C9.08539 21.3351 9.41466 21.3228 9.75612 21.3228ZM15.5732 21.3228C15.8903 21.3228 16.2195 21.3351 16.5366 21.3228C17.1342 21.2983 17.5244 20.9668 17.5488 20.3653C17.5854 19.7024 17.5732 19.0395 17.5488 18.3889C17.5244 17.7874 17.1464 17.4437 16.5366 17.4192C15.9025 17.4069 15.2561 17.4069 14.622 17.4192C14.0488 17.4314 13.6708 17.812 13.6586 18.3767C13.6342 19.0395 13.6342 19.7024 13.6586 20.3531C13.6708 20.9177 14.0488 21.286 14.622 21.3106C14.9269 21.3351 15.2561 21.3228 15.5732 21.3228ZM21.439 21.3228C21.7561 21.3228 22.0854 21.3351 22.4025 21.3228C22.9878 21.2983 23.3659 20.9668 23.3903 20.3899C23.4269 19.7024 23.4269 19.0027 23.3903 18.3153C23.3537 17.7629 22.9756 17.4314 22.4269 17.4192C21.7683 17.4069 21.1098 17.4069 20.4634 17.4192C19.9025 17.4314 19.5244 17.812 19.5122 18.3889C19.5 19.0518 19.4878 19.7147 19.5122 20.3653C19.5244 20.9055 19.9025 21.286 20.439 21.3106C20.7683 21.3351 21.1098 21.3228 21.439 21.3228ZM9.74393 27.2152C10.0488 27.2152 10.3537 27.2275 10.6586 27.2152C11.2805 27.1906 11.6708 26.8469 11.6951 26.2209C11.7195 25.5825 11.7195 24.9319 11.6951 24.2936C11.6708 23.6798 11.3049 23.3238 10.7073 23.3115C10.0488 23.2992 9.39027 23.2992 8.74393 23.3115C8.20734 23.3238 7.82929 23.7043 7.8049 24.2445C7.78051 24.9196 7.78051 25.5948 7.8049 26.27C7.8171 26.8101 8.19514 27.1784 8.74393 27.2029C9.07319 27.2275 9.41466 27.2152 9.74393 27.2152ZM15.6342 23.2992C15.6342 23.3115 15.6342 23.3115 15.6342 23.2992C15.3049 23.2992 14.9634 23.287 14.6342 23.2992C14.0366 23.3238 13.6708 23.692 13.6586 24.2936C13.6464 24.9196 13.6464 25.5457 13.6586 26.184C13.6708 26.8101 14.0366 27.1906 14.6586 27.2029C15.2805 27.2152 15.9025 27.2152 16.5366 27.2029C17.1586 27.1906 17.5366 26.8346 17.561 26.2086C17.5854 25.5825 17.5854 24.9442 17.561 24.3181C17.5366 23.6675 17.1586 23.3115 16.5122 23.287C16.2195 23.2992 15.9269 23.2992 15.6342 23.2992ZM19.5 25.2142C19.5 25.5211 19.4878 25.828 19.5 26.1349C19.5122 26.8224 19.8659 27.1906 20.5366 27.2152C21.1464 27.2275 21.7561 27.2275 22.3659 27.2152C22.9878 27.2029 23.3781 26.8469 23.4025 26.2331C23.4269 25.5948 23.4269 24.9442 23.4025 24.3058C23.3781 23.6921 23 23.3361 22.4147 23.3238C21.7561 23.3115 21.0976 23.3115 20.4512 23.3238C19.9147 23.3361 19.5488 23.7166 19.5122 24.2567C19.4878 24.5759 19.5 24.8951 19.5 25.2142Z" fill="#191919"/>
<path d="M31.2317 7.02173C31.378 7.08311 31.5122 7.13221 31.6219 7.19359C33.0122 7.89331 34.3902 8.59302 35.7927 9.28046C36.6707 9.71011 37.061 10.3976 37.061 11.3796C37.0488 19.7394 37.061 28.0992 37.061 36.4589C37.061 36.6431 37.061 36.8149 37.061 37.0604C37.4268 37.0604 37.7561 37.0482 38.0853 37.0604C38.6219 37.0973 38.9878 37.5024 39 38.018C39 38.5335 38.6585 38.9755 38.1585 38.9877C35.8658 39.0123 33.561 39 31.2439 39C31.2317 28.3324 31.2317 17.6893 31.2317 7.02173Z" fill="#191919"/>
<path d="M13.6707 33.1321C14.9633 33.1321 16.2194 33.1321 17.5121 33.1321C17.5121 35.0716 17.5121 37.0112 17.5121 38.9753C16.2316 38.9753 14.9633 38.9753 13.6707 38.9753C13.6707 37.0358 13.6707 35.1085 13.6707 33.1321Z" fill="#191919"/>
</g>
<defs>
<clipPath id="clip0_1037_665">
<rect width="39" height="39" fill="white"/>
</clipPath>
</defs>
</svg>
