<svg width="45" height="39" viewBox="0 0 45 39" fill="none" xmlns="http://www.w3.org/2000/svg">
<g clip-path="url(#clip0_1037_588)">
<path d="M45 27.5971C45 28.2195 45 28.8301 45 29.4526C44.9765 29.5817 44.9531 29.7109 44.9179 29.8283C44.6484 30.8265 44.5078 31.8952 44.0625 32.8112C42.1054 36.9096 38.8007 38.9882 34.2656 39C25.5703 39.0235 16.8632 39.0117 8.16792 39C7.74605 39 7.31245 39 6.89058 38.9413C3.60933 38.5302 0.914016 36.0876 0.187453 32.8816C-0.550828 29.6522 0.808547 26.3288 3.59761 24.5086C3.86714 24.3324 3.89058 24.1797 3.79683 23.8979C3.38667 22.5944 3.2812 21.2439 3.43355 19.8934C4.16011 13.6576 10.4296 9.67658 16.3828 11.6847C16.7343 11.8021 16.8867 11.7082 17.0976 11.4616C20.0742 7.99727 23.8359 6.5998 28.2656 7.68019C32.6953 8.76059 35.414 11.7199 36.457 16.1707C36.621 16.8753 36.6562 17.6152 36.7617 18.3315C36.8789 18.3667 36.996 18.3902 37.1015 18.4254C40.8164 19.4589 43.2773 21.8076 44.496 25.4598C44.7539 26.1526 44.8476 26.8807 45 27.5971ZM23.2265 28.243C25.9335 28.2312 28.1367 26.0117 28.1015 23.3342C28.0781 20.645 25.8867 18.4724 23.2031 18.4724C20.5195 18.4724 18.3281 20.6919 18.3398 23.3929C18.3632 26.0822 20.5546 28.2547 23.2265 28.243ZM13.6171 28.2195C14.5078 28.2195 15.5742 27.8085 16.4296 26.9042C17.0156 26.2818 17.0273 25.4833 16.4765 24.9431C15.9257 24.4146 15.164 24.4851 14.5195 25.0605C14.2617 25.2954 13.9101 25.495 13.5703 25.542C12.3046 25.7416 11.121 24.7082 11.0859 23.4047C11.0625 22.5474 11.4257 21.8663 12.1523 21.4083C12.8789 20.9503 13.6406 20.9738 14.414 21.3378C14.7539 21.5022 15.1523 21.6432 15.5273 21.6314C16.0781 21.6197 16.5 21.1499 16.6054 20.6332C16.7226 20.046 16.4882 19.5293 15.9375 19.177C14.2031 18.0731 11.9531 18.1906 10.3125 19.4824C8.70698 20.7507 8.05073 22.9232 8.70698 24.8609C9.37495 26.8572 11.2031 28.196 13.6171 28.2195ZM33.6796 30.8265C34.0429 30.3098 34.371 29.8988 34.6406 29.4408C34.9921 28.8654 35.3671 28.2899 35.6015 27.6675C36.2343 25.9295 35.25 24.0975 33.4921 23.6161C31.7343 23.1346 29.9531 24.2385 29.5898 26.0235C29.4492 26.6811 29.8242 27.3505 30.457 27.5619C31.0898 27.7732 31.7929 27.4562 32.0742 26.8455C32.121 26.7516 32.1445 26.6576 32.1796 26.5519C32.2968 26.2114 32.5429 26.0822 32.871 26.1996C33.1992 26.317 33.2578 26.5989 33.1171 26.8925C32.9414 27.2448 32.7539 27.5971 32.5195 27.9142C31.7578 28.9711 30.9843 30.028 30.2226 31.0849C29.9531 31.4607 29.7421 31.86 29.8476 32.3532C29.9882 33.0226 30.457 33.4336 31.2421 33.4571C32.4375 33.4923 33.6445 33.4923 34.8398 33.4571C35.6015 33.4336 36.1523 32.8347 36.1406 32.1183C36.1289 31.3785 35.5546 30.8383 34.7578 30.8265C34.4179 30.8265 34.1015 30.8265 33.6796 30.8265Z" fill="#191919"/>
<path d="M45 10.6866C44.918 10.945 44.8477 11.2151 44.7539 11.4735C44.0743 13.3642 42.0704 14.4446 40.1368 13.9631C38.168 13.4816 36.8555 11.5909 37.1133 9.65322C37.3946 7.58638 39.0821 6.1067 41.1211 6.15368C42.961 6.20065 44.4844 7.44545 44.9063 9.2422C44.9297 9.33615 44.9649 9.4301 45 9.52405C45 9.92332 45 10.2991 45 10.6866Z" fill="#191919"/>
<path d="M45 1.96116C44.9414 2.05511 44.8828 2.14906 44.8242 2.25475C44.5195 2.78321 43.9219 3.04156 43.3711 2.8889C42.7734 2.72449 42.3633 2.20778 42.3633 1.60886C42.3633 1.00994 42.7734 0.493232 43.3711 0.328824C43.9219 0.176159 44.5195 0.446258 44.8242 0.96297C44.8828 1.05692 44.9414 1.15087 45 1.25656C45 1.49143 45 1.72629 45 1.96116Z" fill="#191919"/>
<path d="M12.7501 5.87669e-05C14.9297 -0.0116847 16.6993 1.73809 16.711 3.91063C16.7227 6.1184 14.9883 7.89166 12.7852 7.91514C10.6172 7.93863 8.80084 6.13014 8.81256 3.94586C8.80084 1.77332 10.5704 0.0118022 12.7501 5.87669e-05Z" fill="#191919"/>
<path d="M29.0743 1.26841C29.7891 1.30364 30.3516 1.92604 30.3282 2.6424C30.293 3.35875 29.6836 3.93417 28.9688 3.91069C28.2422 3.8872 27.6563 3.24131 27.6914 2.51322C27.7266 1.79687 28.3594 1.23318 29.0743 1.26841Z" fill="#191919"/>
<path d="M5.80083 9.03082C5.78911 9.74717 5.19145 10.3343 4.47661 10.3343C3.75005 10.3343 3.15239 9.7002 3.16411 8.97211C3.18755 8.25576 3.79692 7.68033 4.51177 7.69207C5.22661 7.70381 5.81255 8.31447 5.80083 9.03082Z" fill="#191919"/>
<path d="M23.2266 25.6006C21.9844 25.6006 21 24.6142 20.9883 23.3694C20.9883 22.1363 21.9727 21.1264 23.2031 21.1029C24.4336 21.0911 25.4766 22.1246 25.4766 23.3694C25.4648 24.6024 24.457 25.6006 23.2266 25.6006Z" fill="#191919"/>
</g>
<defs>
<clipPath id="clip0_1037_588">
<rect width="45" height="39" fill="white"/>
</clipPath>
</defs>
</svg>
