<svg width="39" height="39" viewBox="0 0 39 39" fill="none" xmlns="http://www.w3.org/2000/svg">
<g clip-path="url(#clip0_1037_663)">
<path d="M18.9037 39.0003C18.4448 39.0003 17.986 39.0003 17.5272 39.0003C16.9766 38.9393 16.4158 38.8986 15.8652 38.8173C13.2143 38.4412 10.7468 37.5569 8.46289 36.1441C2.2025 32.2512 -1.16221 24.496 0.367202 17.3099C1.6621 11.2622 5.14916 6.88141 10.7774 4.27938C14.1421 2.72426 17.7005 2.30753 21.3609 2.95803C21.9523 3.05968 22.5437 3.20198 23.1656 3.32395C23.1758 3.20198 23.1962 3.10033 23.2064 2.99869C23.3084 2.23638 23.3798 1.4639 23.5021 0.701584C23.5939 0.112061 23.7672 -0.0200732 24.379 0.0104193C26.5099 0.0815687 28.5594 0.549121 30.5476 1.30127C32.8213 2.15506 34.9217 3.29345 36.655 5.03153C37.9805 6.36304 38.8574 7.92832 38.9798 9.82903C39.1531 12.4006 38.0927 14.4334 36.0535 15.9784C35.8292 16.1512 35.7578 16.2935 35.8394 16.5781C36.4817 18.8752 36.5735 21.2129 36.2166 23.5507C35.615 27.4232 33.9429 30.7876 31.1594 33.5827C28.1617 36.5913 24.5319 38.3599 20.2903 38.858C19.8315 38.8986 19.3625 38.9494 18.9037 39.0003ZM32.1178 17.4522C33.0864 22.0667 32.2198 26.2849 29.1507 29.9236C26.0817 33.5624 22.0848 35.2598 17.3335 34.9956C9.49269 34.5687 2.93661 27.5147 4.09897 18.865C4.61897 15.0026 6.48485 11.8314 9.61505 9.50377C13.826 6.36304 18.4652 5.85483 23.4103 7.52176C23.4205 7.45061 23.4409 7.38962 23.4307 7.32864C23.3492 6.47484 23.288 5.61089 23.186 4.7571C23.1758 4.65545 23.0127 4.51316 22.9005 4.4725C20.5147 3.7915 18.088 3.63904 15.6409 4.01511C12.1029 4.57414 9.00328 6.05811 6.45426 8.5585C2.24328 12.675 0.560927 17.6961 1.39701 23.4999C1.90681 27.037 3.47701 30.1269 6.02602 32.6578C10.2472 36.8658 15.3554 38.5124 21.2386 37.5366C25.2048 36.8759 28.539 34.9549 31.139 31.8853C34.5037 27.9213 35.8292 23.3372 35.0441 18.1738C34.9727 17.7063 34.8401 17.2489 34.7382 16.8423C33.8307 17.0558 32.9947 17.2489 32.1178 17.4522ZM23.7162 32.6985C23.6041 32.546 23.5225 32.4342 23.4409 32.3224C22.3805 31.0214 21.9319 29.5577 22.095 27.8603C22.2378 26.4068 22.2276 24.9432 21.6668 23.5405C21.0652 22.0565 20.1272 20.786 18.975 19.6985C18.0982 18.8752 17.6088 17.8994 17.4252 16.7305C17.1805 15.2465 17.7923 14.3013 19.2707 14.0065C20.168 13.8236 21.0652 13.9354 21.9523 14.1386C23.4205 14.4741 24.8174 15.0128 26.1633 15.6938C26.6527 15.9377 27.1625 16.08 27.5907 16.08C27.2543 15.6938 26.8566 15.277 26.5201 14.8298C26.2652 14.4842 25.9492 14.4131 25.5515 14.3623C24.6339 14.2403 23.6652 14.1895 22.8394 13.8337C21.7484 13.3662 20.7696 12.6445 19.7601 12.0042C19.5256 11.8619 19.3217 11.6484 19.1586 11.4248C18.8323 10.9877 19.0158 10.4999 19.546 10.3576C19.7296 10.3067 19.9233 10.3067 20.1068 10.3067C21.3813 10.2864 22.6456 10.2661 23.9201 10.2458C23.9609 10.2458 24.0119 10.2051 24.0731 10.1848C24.0017 9.91034 23.9201 9.6664 23.8794 9.40213C23.8284 9.08704 23.655 8.91425 23.3492 8.78211C21.2386 7.91816 19.0464 7.58274 16.7727 7.82668C16.2119 7.88767 15.6613 8.00964 15.1107 8.11128C15.2637 8.31456 15.4166 8.4162 15.5696 8.52801C16.426 9.13786 16.4464 10.6727 15.6001 11.3028C14.9986 11.7501 14.3766 12.1668 13.775 12.614C13.6629 12.7055 13.5507 12.8681 13.5405 13.0003C13.4896 13.4881 13.2448 13.8337 12.8064 14.037C12.1743 14.3419 11.848 14.8806 11.6237 15.5108C11.5319 15.7649 11.4809 16.019 11.379 16.2731C11.2158 16.6797 10.9609 17.0151 10.5327 17.1472C9.84956 17.3505 9.2072 17.1777 8.66681 16.7508C8.1672 16.3646 8.22838 15.7751 8.35073 15.2364C8.52407 14.4741 8.76877 13.7219 8.9421 12.9596C9.03387 12.5734 9.08485 12.1668 8.81975 11.7704C8.71779 11.8619 8.63622 11.9228 8.57504 11.994C7.06603 13.6508 6.02603 15.5616 5.48563 17.7368C5.42446 18.001 5.49583 18.1027 5.70995 18.2043C6.42367 18.5397 6.96406 19.0581 7.3923 19.7188C7.55544 19.9627 7.71857 20.2067 7.89191 20.4404C7.99387 20.5726 8.10602 20.6945 8.21818 20.8165C8.90132 21.5178 9.4723 21.6398 10.3899 21.2637C10.7264 21.1316 11.0527 20.969 11.4503 21.1113C12.0825 21.3247 12.7248 21.5483 13.3774 21.6398C14.9272 21.8634 16.1609 22.4834 16.8441 23.9776C16.9154 24.13 16.997 24.2723 17.0888 24.4045C17.4966 24.994 17.5884 25.6242 17.3947 26.3255C17.0378 27.6062 17.1703 28.8259 17.8025 30.0049C18.037 30.4318 18.2205 30.9096 18.3531 31.3771C18.5876 32.1699 18.2511 32.7696 17.4456 32.9729C16.9664 33.0949 16.4668 33.0949 15.9774 33.1355C15.2535 33.1863 14.6825 32.8712 14.2645 32.3122C13.9688 31.9158 13.7343 31.4788 13.4896 31.0417C13.2448 30.5945 13.0205 30.1472 12.7758 29.7C12.5617 29.2935 12.2252 28.9987 11.7868 28.8564C10.808 28.5515 9.82916 28.2364 8.84014 27.9518C8.24877 27.779 7.6472 27.6469 7.04563 27.4944C7.02524 27.5249 7.01504 27.5554 6.99465 27.596C8.62603 30.2489 10.9099 32.1394 13.8668 33.1762C17.1805 34.3044 20.4535 34.1316 23.7162 32.6985ZM32.75 12.3396C32.7296 12.2583 32.7398 12.2176 32.7194 12.1871C31.8527 10.9369 30.986 9.68673 30.099 8.43653C30.0378 8.34505 29.8543 8.3044 29.7319 8.3044C28.3045 8.33489 26.877 8.38571 25.4598 8.43653C25.266 8.4467 25.0621 8.46702 24.8378 8.49752C25.1029 9.70706 25.4801 10.815 25.9798 11.8822C26.1021 12.1363 26.2449 12.2379 26.5303 12.2481C28.07 12.2684 29.6096 12.3091 31.1492 12.3396C31.6692 12.3497 32.1892 12.3396 32.75 12.3396ZM31.7405 3.04951C31.6998 3.16132 31.6692 3.21214 31.659 3.27312C31.4245 4.60463 31.1899 5.94631 30.986 7.28798C30.9554 7.4811 31.0472 7.7352 31.1594 7.908C31.9037 8.9854 32.6582 10.0526 33.4127 11.1199C33.4739 11.2114 33.5452 11.2927 33.6574 11.4451C33.7594 10.9776 33.8511 10.5812 33.9327 10.1848C34.2794 8.60932 34.626 7.04404 34.9523 5.46859C34.9829 5.31613 34.9727 5.07219 34.8809 5.00104C33.9429 4.20823 32.8927 3.58821 31.7405 3.04951ZM35.3703 14.9924C38.1743 13.1324 38.8676 8.92441 36.0433 6.1191C36.0025 6.21058 35.9617 6.28172 35.9413 6.36304C35.4825 8.47719 35.0237 10.5913 34.5648 12.7055C34.5343 12.8478 34.5037 13.0206 34.5547 13.1426C34.8198 13.7626 35.095 14.3724 35.3703 14.9924ZM34.3711 15.6125C34.1162 15.0229 33.8613 14.4436 33.6268 13.8642C33.5248 13.5999 33.3617 13.5186 33.0762 13.5085C31.3735 13.478 29.6707 13.4272 27.968 13.3967C27.6315 13.3865 27.295 13.3967 26.9382 13.3967C28.2535 15.6226 31.4245 17.0964 34.3711 15.6125ZM24.4809 1.97211C24.4401 2.1449 24.4096 2.21605 24.3994 2.2872C24.2362 3.87281 24.3382 5.44826 24.5523 7.02371C24.5829 7.24732 24.6848 7.31847 24.9092 7.30831C26.0919 7.26765 27.2747 7.23716 28.4574 7.1965C28.6307 7.18634 28.8041 7.16601 29.0896 7.13552C27.5194 5.39744 26.0307 3.72035 24.4809 1.97211ZM25.4903 1.21996C25.4699 1.25045 25.4598 1.29111 25.4394 1.3216C26.928 2.98853 28.4064 4.65545 29.9562 6.39353C30.1601 5.1535 30.3437 4.02527 30.5578 2.89705C30.619 2.59212 30.517 2.48032 30.2621 2.40917C29.2323 2.10424 28.2025 1.77899 27.1625 1.50456C26.6119 1.36226 26.0409 1.31144 25.4903 1.21996Z" fill="#191919"/>
</g>
<defs>
<clipPath id="clip0_1037_663">
<rect width="39" height="39" fill="white"/>
</clipPath>
</defs>
</svg>
