<svg width="39" height="39" viewBox="0 0 39 39" fill="none" xmlns="http://www.w3.org/2000/svg">
<g clip-path="url(#clip0_1037_649)">
<path d="M39 38.0766C38.762 38.7524 38.2668 38.9999 37.5623 38.9999C32.0684 38.9904 26.5745 38.9904 21.0806 38.9904C20.9568 38.9904 20.833 38.9904 20.6711 38.9904C20.6711 36.544 20.6711 34.1166 20.6711 31.6416C20.8044 31.6416 20.9377 31.6416 21.0806 31.6416C25.927 31.6416 30.7734 31.6416 35.6199 31.6321C35.896 31.6321 36.0483 31.7082 36.1721 31.9653C37.0862 33.812 38.0193 35.6587 38.9429 37.5054C38.9524 37.5244 38.981 37.534 39 37.5435C39 37.7243 39 37.8957 39 38.0766Z" fill="#191919"/>
<path d="M19.8048 0C20.4618 0.304613 20.6903 0.828167 20.6522 1.53258C20.6141 2.21796 20.6522 2.90334 20.6427 3.5792C20.6332 4.29314 20.1571 4.78814 19.5001 4.78814C18.8431 4.78814 18.3671 4.28362 18.3575 3.5792C18.348 2.89382 18.3861 2.20844 18.348 1.53258C18.3099 0.828167 18.5384 0.304613 19.1954 0C19.3954 0 19.5953 0 19.8048 0Z" fill="#191919"/>
<path d="M18.3384 31.6417C18.3384 34.1072 18.3384 36.525 18.3384 38.9715C18.2242 38.981 18.1099 38.9905 18.0052 38.9905C12.4446 38.9905 6.89361 38.9905 1.33306 38.9905C0.828422 38.9905 0.409477 38.8572 0.152397 38.3908C-0.0380326 38.0481 -0.0475541 37.6864 0.133354 37.3342C1.05694 35.497 1.98052 33.6693 2.91363 31.8416C2.96124 31.7464 3.1231 31.6608 3.22784 31.6512C3.58965 31.6227 3.96099 31.6417 4.33233 31.6417C8.83599 31.6417 13.3397 31.6417 17.8433 31.6417C18.0052 31.6417 18.167 31.6417 18.3384 31.6417Z" fill="#191919"/>
<path d="M4.17041 29.3285C4.50366 28.6717 4.81787 28.0434 5.12256 27.4247C5.8938 25.9016 6.67456 24.3786 7.43628 22.846C7.72192 22.2653 8.15039 22.0083 8.79785 22.0083C11.8542 22.0178 14.9202 22.0178 17.9766 22.0178C18.0908 22.0178 18.1956 22.0178 18.3384 22.0178C18.3384 24.4642 18.3384 26.8821 18.3384 29.3381C13.6348 29.3285 8.93115 29.3285 4.17041 29.3285Z" fill="#191919"/>
<path d="M34.8105 29.3285C30.0784 29.3285 25.3748 29.3285 20.6616 29.3285C20.6616 26.8916 20.6616 24.4738 20.6616 22.0369C20.7473 22.0273 20.833 22.0083 20.9187 22.0083C24.0417 22.0083 27.1648 22.0083 30.2878 22.0083C30.8591 22.0083 31.259 22.2463 31.5161 22.7508C32.592 24.8831 33.668 27.0059 34.7344 29.1286C34.7534 29.1857 34.7725 29.2429 34.8105 29.3285Z" fill="#191919"/>
<path d="M19.5 14.2406C17.1958 14.2406 15.3105 12.3558 15.3105 10.0522C15.3105 7.74856 17.1958 5.86377 19.5 5.86377C21.8042 5.86377 23.6895 7.74856 23.6895 10.0522C23.6895 12.3558 21.8042 14.2406 19.5 14.2406Z" fill="#191919"/>
<path d="M13.2729 2.5415C13.53 2.68429 13.8252 2.789 14.0346 2.9889C14.625 3.5315 15.1772 4.10265 15.739 4.6738C16.2246 5.16879 16.2341 5.85417 15.7961 6.31109C15.3391 6.77753 14.644 6.77753 14.1299 6.28253C13.5395 5.71138 12.9492 5.13072 12.3874 4.53101C12.0447 4.16928 11.959 3.7314 12.1684 3.26496C12.3589 2.85564 12.7873 2.5891 13.2729 2.5415Z" fill="#191919"/>
<path d="M25.6889 2.59863C26.2411 2.63671 26.5839 2.81757 26.7934 3.21738C27.0124 3.6267 27.0219 4.06458 26.7172 4.39775C26.0698 5.11169 25.3842 5.79707 24.6796 6.44437C24.2607 6.82514 23.5847 6.72995 23.1943 6.32062C22.8134 5.92082 22.7468 5.27352 23.1181 4.86419C23.7465 4.16929 24.4225 3.51247 25.1081 2.87469C25.2795 2.70334 25.5556 2.65575 25.6889 2.59863Z" fill="#191919"/>
<path d="M24.175 13.4316C24.3274 13.5173 24.6416 13.6125 24.8606 13.8219C25.4509 14.3645 26.0031 14.9357 26.5649 15.5068C27.0695 16.0304 27.0695 16.7062 26.5935 17.1727C26.1364 17.6201 25.4604 17.6106 24.9558 17.1251C24.3654 16.5539 23.7751 15.9733 23.2038 15.3735C22.8515 15.0118 22.7754 14.5739 22.9848 14.1075C23.1848 13.6696 23.5466 13.4602 24.175 13.4316Z" fill="#191919"/>
<path d="M16.1199 14.7451C16.0342 14.8974 15.9294 15.2115 15.7295 15.4304C15.1868 16.0206 14.6155 16.5727 14.0347 17.1344C13.53 17.6198 12.854 17.6294 12.397 17.182C11.9304 16.725 11.9209 16.0492 12.4065 15.5447C12.9873 14.9354 13.5776 14.3548 14.187 13.7741C14.5488 13.4219 14.9963 13.3553 15.4534 13.5647C15.8914 13.7455 16.0913 14.1168 16.1199 14.7451Z" fill="#191919"/>
<path d="M11.8352 11.1946C11.4163 11.1946 10.9973 11.2042 10.5784 11.1946C9.92139 11.1756 9.44531 10.6711 9.44531 10.0428C9.45483 9.43359 9.92139 8.92907 10.5593 8.91955C11.4258 8.90051 12.2827 8.90051 13.1492 8.91955C13.7776 8.93859 14.2441 9.45263 14.2441 10.0619C14.2346 10.6711 13.7585 11.1566 13.1301 11.1946C13.1016 11.1946 13.0825 11.1946 13.054 11.1946C12.6445 11.1946 12.2351 11.1946 11.8352 11.1946Z" fill="#191919"/>
<path d="M27.1553 11.1946C26.7363 11.1946 26.3174 11.2042 25.8984 11.1946C25.251 11.1756 24.7559 10.6806 24.7559 10.0523C24.7559 9.42407 25.2415 8.92907 25.8984 8.91955C26.7363 8.90051 27.5742 8.90051 28.4121 8.91955C29.0691 8.92907 29.5547 9.43359 29.5452 10.0619C29.5452 10.6901 29.0596 11.1756 28.4026 11.1946C27.9932 11.2042 27.5742 11.1946 27.1553 11.1946Z" fill="#191919"/>
<path d="M20.6426 17.7342C20.6426 18.1244 20.6522 18.5243 20.6426 18.9145C20.6236 19.5999 20.1475 20.0949 19.5096 20.1044C18.8716 20.114 18.367 19.619 18.3575 18.9336C18.348 18.1054 18.348 17.2868 18.3575 16.4586C18.367 15.8018 18.8621 15.3163 19.481 15.3068C20.119 15.2973 20.6141 15.7923 20.6331 16.4776C20.6522 16.8965 20.6426 17.3153 20.6426 17.7342Z" fill="#191919"/>
</g>
<defs>
<clipPath id="clip0_1037_649">
<rect width="39" height="39" fill="white"/>
</clipPath>
</defs>
</svg>
