<svg width="246" height="254" viewBox="0 0 246 254" fill="none" xmlns="http://www.w3.org/2000/svg">
<path d="M75.4518 26.9853C74.909 25.4675 73.7148 24.817 71.6521 25.1422L70.2407 25.2506C67.6352 25.5759 65.6811 25.5759 64.2697 24.9254C62.8584 24.2749 61.7728 23.4076 61.1214 21.9981C60.5786 20.8056 60.47 19.5045 60.6871 18.2035C60.9042 16.9025 61.5556 15.71 62.5327 14.6258C63.5098 13.5416 64.5954 12.6743 66.0067 11.9154C67.3095 11.2649 68.6123 10.9396 69.915 10.9396C71.2178 10.9396 72.412 11.2649 73.3891 12.0238C74.4747 12.6743 75.2347 13.65 75.8861 14.951L72.3035 16.9025C71.7606 15.8184 71.1092 15.0595 70.2407 14.7342C69.3722 14.4089 68.3952 14.5174 67.3095 15.0595C66.2239 15.6015 65.3554 16.3605 64.9211 17.3362C64.4869 18.312 64.3783 19.2877 64.704 20.2635C65.1382 21.5645 66.441 22.1066 68.6123 21.8897L69.915 21.6729C72.5206 21.3476 74.4747 21.4561 75.9946 21.9981C77.406 22.6486 78.4916 23.6244 79.143 25.1422C79.6858 26.3348 79.7944 27.6358 79.5772 28.8284C79.3601 30.021 78.8173 31.2136 77.8402 32.2978C76.8631 33.3819 75.6689 34.3577 74.2576 35.0082C72.8463 35.6587 71.5435 36.0923 70.1322 36.0923C68.7208 36.0923 67.4181 35.7671 66.3324 35.1166C65.2468 34.4661 64.3783 33.3819 63.7269 32.1893L67.3095 30.3462C67.8523 31.5388 68.6123 32.2978 69.5894 32.623C70.5664 32.9483 71.6521 32.7314 72.9548 32.1893C74.149 31.6473 74.909 30.8883 75.4518 29.9126C75.7775 29.0452 75.7775 28.0695 75.4518 26.9853Z" fill="white"/>
<path d="M92.9304 26.9853C92.7133 26.6601 92.4962 26.118 92.279 25.4675C91.302 27.2022 89.9992 28.2863 88.4793 28.72C87.068 29.1537 85.6566 29.0452 84.4624 28.5032C83.2682 27.8527 82.3997 26.8769 81.9655 25.4675C81.5312 23.7328 81.7483 22.1066 82.9425 20.5887C84.0282 19.0709 85.8738 17.9867 88.2622 17.2278L90.6506 16.4689L90.542 15.2763C90.4334 14.8426 90.3249 14.5174 90.2163 14.1921C89.6735 13.1079 88.6964 12.7827 87.5022 13.2164C86.7423 13.4332 86.0909 13.8669 85.6566 14.5174C85.2224 15.1679 85.0053 15.8184 85.1138 16.5773L81.4227 17.7699C81.2055 16.6857 81.2055 15.71 81.6398 14.7342C82.074 13.7584 82.7254 12.8911 83.7025 12.1322C84.6796 11.3733 85.7652 10.8312 86.9594 10.3975C88.805 9.85543 90.4334 9.96385 91.7362 10.7228C93.039 11.4817 93.9075 12.6743 94.3417 14.4089L95.5359 22.6486L95.8616 24.0581C96.0788 24.7086 96.2959 25.2506 96.6216 25.7927L96.7302 26.118L92.9304 26.9853ZM88.2622 25.4675C89.0221 25.2506 89.6735 24.817 90.2163 24.2749C90.7591 23.7328 91.1934 22.9739 91.4105 22.3234L90.9763 18.9625L89.2392 19.5045C87.8279 19.9382 86.8508 20.5887 86.1995 21.3476C85.5481 22.1066 85.3309 22.9739 85.4395 23.9496C85.5481 24.7086 85.8738 25.1422 86.4166 25.4675C86.9594 25.7927 87.6108 25.6843 88.2622 25.4675Z" fill="white"/>
<path d="M104.656 19.0709L108.13 5.95241L112.146 5.30191L106.393 23.9496L103.136 24.4917L97.2732 7.68708L101.073 7.03658L104.656 19.0709Z" fill="white"/>
<path d="M121.374 22.8655C119.855 22.8655 118.552 22.5402 117.358 21.7813C116.272 21.0224 115.403 20.0466 114.861 18.854C114.318 17.553 114.101 16.1436 114.209 14.6258V13.9753C114.426 12.2406 114.861 10.6144 115.729 9.20493C116.598 7.79551 117.575 6.71134 118.878 5.95243C120.18 5.19351 121.483 4.86826 123.003 4.86826C125.174 4.86826 126.803 5.62717 127.997 7.25343C129.191 8.87968 129.517 10.8312 129.3 13.4332L129.083 15.1679L118.118 15.3847C118.009 16.7941 118.335 17.8783 118.986 18.7456C119.637 19.613 120.615 20.0466 121.7 20.0466C123.329 20.0466 124.849 19.2877 126.26 17.8783L128.214 19.8298C127.454 20.914 126.586 21.6729 125.391 22.3234C124.197 22.5402 122.894 22.8655 121.374 22.8655ZM122.786 7.90393C120.723 7.90393 119.312 9.31335 118.335 12.2406L125.608 12.1322L125.717 11.8069C125.826 11.2649 125.826 10.8312 125.717 10.3975C125.608 9.6386 125.283 8.9881 124.74 8.55443C124.197 8.12076 123.546 7.90393 122.786 7.90393Z" fill="white"/>
<path d="M161.217 7.6871L154.269 6.16926L146.453 25.1422L142.544 24.2749L150.361 5.30193L143.413 3.78409L144.716 0.748413L162.412 4.75984L161.217 7.6871Z" fill="white"/>
<path d="M166.863 15.1679C168.817 14.3005 170.554 14.3005 172.291 14.951C173.811 15.6015 174.679 16.5773 175.005 17.9867C175.331 19.3961 175.005 20.914 174.028 22.7571L167.948 32.4062L164.366 30.9967L170.445 21.3476C170.662 20.914 170.879 20.5887 170.988 20.155C171.314 18.854 170.879 17.9867 169.577 17.4446C168.274 16.9025 166.863 17.011 165.234 17.8783L158.395 28.6116L154.812 27.2022L168.274 5.95242L171.857 7.47026L166.863 15.1679Z" fill="white"/>
<path d="M177.502 38.0438C176.199 37.1765 175.331 36.2007 174.788 35.0082C174.245 33.8156 174.028 32.5146 174.245 31.1051C174.462 29.6957 175.005 28.3947 175.982 27.2021L176.416 26.66C177.502 25.2506 178.805 24.1665 180.216 23.4075C181.627 22.6486 183.147 22.3234 184.559 22.3234C185.97 22.3234 187.381 22.757 188.575 23.6244C190.421 24.817 191.398 26.3348 191.507 28.2863C191.615 30.2378 190.855 32.1893 189.335 34.2492L188.25 35.5502L178.913 29.8041C178.153 30.8883 177.719 32.0809 177.828 33.0566C177.936 34.1408 178.479 35.0082 179.456 35.5502C180.867 36.4176 182.496 36.6344 184.45 36.0923L184.993 38.8027C183.799 39.3448 182.604 39.4532 181.302 39.3448C179.999 39.2364 178.696 38.8027 177.502 38.0438ZM186.73 26.118C184.993 25.0338 183.039 25.4675 180.542 27.419L186.73 31.2136L186.947 30.9967C187.273 30.5631 187.49 30.2378 187.707 29.8041C188.033 29.0452 188.033 28.3947 187.924 27.7442C187.816 27.0937 187.381 26.5516 186.73 26.118Z" fill="white"/>
<path d="M209.637 50.6202L203.014 44.0068L197.043 48.2351L204.751 56.0411L202.037 57.9926L191.507 47.3677L211.048 33.7072L221.579 44.2236L218.865 46.1751L211.265 38.4775L205.837 42.2721L212.459 48.8856L209.637 50.6202Z" fill="white"/>
<path d="M221.579 54.5233L219.733 55.3906C221.905 55.7158 223.533 56.5832 224.619 58.2094C225.596 59.5104 225.813 60.9199 225.27 62.2209C224.836 63.5219 223.642 64.7144 221.905 65.6902L211.591 70.6774L209.42 67.5333L219.733 62.5461C220.168 62.3293 220.493 62.1124 220.819 61.7872C221.796 60.9199 221.905 59.9441 221.145 58.7515C220.276 57.5589 218.973 56.9084 217.128 56.9084L205.729 62.3293L203.557 59.1852L219.516 51.4876L221.579 54.5233Z" fill="white"/>
<path d="M221.036 77.2908L234.606 76.6403L236.452 80.3265L216.911 80.4349L215.391 77.5076L229.612 66.7744L231.35 70.2437L221.036 77.2908Z" fill="white"/>
<path d="M221.579 91.0597L220.276 87.482L237.755 84.2295L239.057 87.8072L221.579 91.0597ZM242.097 83.2537C242.64 83.0369 243.183 83.0369 243.726 83.2537C244.268 83.4706 244.594 83.9042 244.92 84.4463C245.137 84.9884 245.137 85.5305 244.92 86.0726C244.703 86.6147 244.268 86.9399 243.726 87.1567C243.183 87.3736 242.64 87.3736 242.097 87.1567C241.554 86.9399 241.229 86.5062 241.012 85.9641C240.794 85.4221 240.794 84.88 241.012 84.3379C241.12 83.7958 241.554 83.3621 242.097 83.2537Z" fill="white"/>
<path d="M239.275 102.01C239.275 101.468 239.166 101.034 239.058 100.492C238.624 98.8658 237.647 97.7816 236.018 97.1311L223.859 98.2153L222.882 94.5291L240.578 92.9028L241.555 96.3722L239.492 96.4806C241.338 97.2395 242.423 98.3237 242.858 99.8415C242.966 100.167 242.966 100.709 242.966 101.359L239.275 102.01Z" fill="white"/>
<path d="M234.715 104.07C236.452 104.07 238.081 104.287 239.601 104.937C241.121 105.588 242.315 106.455 243.292 107.648C244.269 108.84 244.812 110.25 244.92 111.767C245.137 113.285 244.92 114.586 244.269 115.779C243.617 116.971 242.749 117.839 241.446 118.598C240.143 119.248 238.732 119.682 237.104 119.682C235.258 119.79 233.521 119.465 232.001 118.814C230.481 118.164 229.287 117.297 228.31 116.104C227.333 114.911 226.79 113.502 226.682 111.984C226.464 110.466 226.682 109.165 227.333 107.973C227.984 106.78 228.853 105.913 230.156 105.154C231.458 104.503 232.87 104.07 234.498 104.07H234.715ZM232.978 108.081C231.893 108.298 231.024 108.732 230.373 109.382C229.721 110.033 229.504 110.792 229.613 111.767C229.721 113.068 230.373 114.044 231.567 114.803C232.761 115.562 234.172 115.887 236.018 115.887L237.646 115.779C239.058 115.562 240.035 115.128 240.795 114.586C241.555 114.044 241.772 113.068 241.663 112.093C241.446 110.466 240.469 109.274 238.732 108.515C237.646 108.081 236.452 107.864 235.149 107.864C234.281 107.864 233.521 107.973 232.978 108.081Z" fill="white"/>
<path d="M245.463 128.789L243.4 128.355C244.92 129.873 245.68 131.608 245.571 133.559C245.463 135.185 244.92 136.378 243.726 137.137C242.532 137.896 241.012 138.113 238.949 137.896L227.658 135.619L227.767 131.825L239.058 134.101C239.492 134.21 239.926 134.21 240.36 134.21C241.663 134.101 242.315 133.342 242.423 131.933C242.532 130.524 241.772 129.223 240.36 128.03L227.984 125.428L228.093 121.633L245.463 125.211V128.789Z" fill="white"/>
<path d="M243.726 149.171L241.989 148.412C243.075 150.147 243.4 151.99 242.857 153.942C242.532 155.026 242.097 155.785 241.446 156.435C240.795 156.977 240.035 157.303 239.275 157.411C240.686 159.362 241.12 161.422 240.578 163.482C240.143 165.109 239.275 166.193 237.972 166.735C236.669 167.277 235.041 167.168 233.195 166.518L222.665 161.964L223.533 158.278L234.172 162.832C234.607 163.049 235.041 163.157 235.475 163.157C236.778 163.265 237.538 162.615 237.972 161.314C238.406 159.796 237.863 158.387 236.344 157.086L236.018 156.977L225.162 152.315L226.03 148.629L236.561 153.183C236.995 153.291 237.429 153.4 237.863 153.508C239.166 153.616 240.035 153.074 240.36 151.665C240.686 150.255 240.36 148.954 239.383 147.762L227.55 142.558L228.418 138.872L244.703 145.919L243.726 149.171Z" fill="white"/>
<path d="M217.671 171.722C218.322 170.421 219.299 169.337 220.385 168.686C221.579 168.036 222.773 167.711 224.185 167.711C225.596 167.819 226.899 168.253 228.31 169.012L228.853 169.337C230.373 170.313 231.567 171.397 232.544 172.806C233.412 174.216 233.955 175.625 234.064 177.034C234.172 178.444 233.955 179.853 233.195 181.154C232.218 183.106 230.807 184.19 228.853 184.515C226.899 184.84 224.944 184.298 222.773 182.997L221.362 182.022L226.139 172.156C224.944 171.505 223.75 171.288 222.773 171.505C221.688 171.722 220.928 172.372 220.385 173.348C219.625 174.758 219.625 176.492 220.385 178.335L217.671 179.203C217.019 178.119 216.694 176.926 216.694 175.517C216.694 174.216 217.019 172.915 217.671 171.722ZM230.481 179.636C231.458 177.793 230.807 175.842 228.527 173.674L225.379 180.179L225.704 180.395C226.139 180.721 226.573 180.937 227.007 181.046C227.767 181.263 228.419 181.263 229.07 181.046C229.613 180.721 230.156 180.287 230.481 179.636Z" fill="white"/>
<path d="M224.944 194.923L223.533 193.405C223.967 195.574 223.642 197.417 222.556 199.043C221.579 200.344 220.385 200.995 219.082 200.995C217.779 200.995 216.259 200.344 214.631 199.043L206.38 191.02L208.551 187.876L216.802 195.899C217.128 196.224 217.453 196.441 217.888 196.658C218.973 197.308 219.95 196.983 220.819 195.899C221.687 194.706 221.796 193.297 221.253 191.562L212.242 182.672L214.414 179.528L227.007 191.996L224.944 194.923Z" fill="white"/>
<path d="M214.522 214.655L211.917 211.294L209.854 213.463L208.008 211.186L210.071 209.017L203.883 201.211C203.666 200.995 203.557 200.886 203.34 200.669C202.797 200.236 202.255 200.344 201.603 200.886C201.386 201.211 201.06 201.537 200.843 201.97L198.781 199.694C199.106 198.935 199.649 198.284 200.192 197.634C201.06 196.658 202.146 196.224 203.232 196.333C204.317 196.441 205.403 196.983 206.38 198.176L212.677 206.09L214.522 204.03L216.368 206.415L214.522 208.475L217.128 211.836L214.522 214.655Z" fill="white"/>
<path d="M192.267 208.367C192.701 208.909 192.809 209.451 192.809 209.993C192.701 210.535 192.484 211.077 191.941 211.511C191.507 211.945 190.964 212.053 190.312 212.053C189.77 212.053 189.227 211.728 188.792 211.186C188.358 210.644 188.25 210.21 188.358 209.559C188.467 209.017 188.684 208.475 189.227 208.042C189.661 207.608 190.204 207.5 190.855 207.5C191.398 207.608 191.941 207.825 192.267 208.367Z" fill="white"/>
<path d="M169.468 227.882C169.902 229.4 171.205 230.05 173.268 229.833L174.679 229.725C177.285 229.4 179.239 229.508 180.65 230.05C182.061 230.592 183.147 231.677 183.69 233.086C184.233 234.279 184.341 235.58 184.016 236.881C183.69 238.182 183.147 239.374 182.17 240.458C181.193 241.543 179.999 242.41 178.696 243.06C177.393 243.711 176.09 244.036 174.788 243.928C173.485 243.819 172.291 243.494 171.314 242.844C170.337 242.193 169.468 241.217 168.925 239.916L172.508 238.182C172.942 239.266 173.702 240.025 174.571 240.35C175.439 240.675 176.416 240.567 177.61 240.025C178.696 239.483 179.564 238.724 180.107 237.748C180.65 236.772 180.65 235.796 180.324 234.821C179.89 233.52 178.587 232.978 176.416 233.194L175.113 233.303C172.508 233.628 170.554 233.52 169.142 232.869C167.731 232.219 166.754 231.134 166.103 229.725C165.56 228.532 165.451 227.231 165.668 226.039C165.885 224.846 166.537 223.654 167.514 222.57C168.491 221.485 169.685 220.618 171.205 219.859C172.616 219.209 174.028 218.883 175.439 218.883C176.85 218.883 178.153 219.209 179.239 219.968C180.324 220.726 181.193 221.702 181.736 223.003L178.153 224.738C177.61 223.545 176.85 222.786 175.873 222.461C174.896 222.136 173.811 222.244 172.508 222.895C171.314 223.437 170.554 224.196 170.011 225.063C169.251 225.93 169.142 226.906 169.468 227.882Z" fill="white"/>
<path d="M152.098 227.774C152.315 228.099 152.532 228.641 152.75 229.291C153.727 227.557 155.029 226.473 156.658 226.039C158.069 225.605 159.481 225.714 160.675 226.364C161.869 227.015 162.737 227.99 163.063 229.4C163.497 231.134 163.172 232.761 162.086 234.279C161 235.688 159.155 236.772 156.766 237.531L154.378 238.182L154.487 239.374C154.595 239.808 154.704 240.133 154.812 240.458C155.355 241.543 156.224 241.868 157.526 241.543C158.286 241.326 158.938 240.892 159.372 240.35C159.806 239.699 160.023 239.049 159.915 238.29L163.606 237.097C163.823 238.182 163.715 239.157 163.389 240.133C162.955 241.109 162.303 241.976 161.326 242.735C160.349 243.494 159.263 244.036 158.069 244.361C156.224 244.903 154.595 244.795 153.292 244.036C151.99 243.277 151.121 242.085 150.795 240.35L149.71 232.11L149.384 230.701C149.276 230.05 148.95 229.508 148.624 228.966L148.516 228.641L152.098 227.774ZM156.658 229.291C155.898 229.508 155.247 229.942 154.704 230.484C154.161 231.026 153.727 231.677 153.51 232.435L153.944 235.796L155.681 235.254C157.092 234.821 158.069 234.279 158.721 233.411C159.372 232.652 159.589 231.785 159.481 230.809C159.372 230.05 159.046 229.617 158.503 229.291C157.961 229.183 157.309 229.075 156.658 229.291Z" fill="white"/>
<path d="M140.156 235.471L136.465 248.59L132.448 249.132L138.419 230.592L141.676 230.159L147.43 246.963L143.63 247.505L140.156 235.471Z" fill="white"/>
<path d="M123.437 231.46C124.957 231.568 126.26 231.893 127.346 232.652C128.431 233.411 129.3 234.387 129.734 235.688C130.277 236.989 130.385 238.398 130.277 239.916L130.168 240.567C129.951 242.301 129.408 243.928 128.54 245.337C127.671 246.747 126.586 247.831 125.283 248.481C123.98 249.132 122.677 249.565 121.157 249.457C118.986 249.349 117.358 248.59 116.272 246.963C115.186 245.337 114.861 243.277 115.186 240.784L115.404 239.157L126.368 239.374C126.477 237.965 126.26 236.881 125.609 236.013C124.957 235.146 124.089 234.712 122.894 234.712C121.266 234.604 119.746 235.363 118.335 236.772L116.381 234.712C117.141 233.628 118.118 232.869 119.312 232.327C120.723 231.677 122.026 231.46 123.437 231.46ZM121.592 246.421C123.654 246.53 125.174 245.12 126.26 242.193L118.986 242.085L118.878 242.41C118.769 242.952 118.769 243.386 118.878 243.819C118.986 244.578 119.312 245.229 119.746 245.662C120.18 246.096 120.832 246.313 121.592 246.421Z" fill="white"/>
<path d="M83.5942 246.096L90.5423 247.722L98.6846 228.858L102.593 229.834L94.4506 248.698L101.29 250.324L99.9873 253.36L82.1829 249.132L83.5942 246.096Z" fill="white"/>
<path d="M77.9489 238.507C75.9948 239.374 74.1492 239.374 72.5207 238.615C71.0008 237.965 70.1323 236.881 69.8066 235.58C69.4809 234.279 69.9152 232.652 70.8923 230.809L77.0804 221.269L80.5545 222.786L74.3663 232.436C74.1492 232.869 73.9321 233.194 73.8235 233.628C73.3892 234.929 73.9321 235.796 75.1263 236.447C76.429 236.989 77.8404 236.881 79.4688 236.013L86.4169 225.388L89.8909 226.906L76.1033 247.831L72.5207 246.313L77.9489 238.507Z" fill="white"/>
<path d="M67.6351 215.522C68.9379 216.39 69.8064 217.366 70.3492 218.558C70.892 219.751 71.0006 221.052 70.7835 222.461C70.5663 223.871 69.915 225.172 69.0464 226.364L68.6122 226.906C67.5266 228.316 66.2238 229.4 64.7039 230.159C63.184 230.918 61.7727 231.243 60.2528 231.135C58.8414 231.026 57.4301 230.592 56.2359 229.833C54.3903 228.641 53.4133 227.015 53.4133 225.172C53.3047 223.22 54.0646 221.269 55.6931 219.317L56.7787 218.016L66.1152 223.871C66.9837 222.786 67.3094 221.702 67.2009 220.618C67.0923 219.534 66.5495 218.667 65.5724 218.016C64.1611 217.04 62.5326 216.823 60.5785 217.366L60.0356 214.655C61.2298 214.113 62.424 214.005 63.8354 214.113C65.2467 214.221 66.4409 214.655 67.6351 215.522ZM58.1901 227.231C59.8185 228.424 61.8812 227.99 64.3782 226.039L58.2986 222.136L58.0815 222.353C57.7558 222.678 57.5387 223.112 57.3216 223.545C56.9959 224.304 56.8873 224.955 57.1044 225.605C57.213 226.256 57.5387 226.798 58.1901 227.231Z" fill="white"/>
<path d="M35.7177 202.404L42.2315 209.126L48.3111 205.006L40.7116 197.092L43.4257 195.248L53.8478 205.982L34.0892 219.425L23.7756 208.801L26.5983 206.958L34.1978 214.764L39.626 211.077L33.1121 204.355L35.7177 202.404Z" fill="white"/>
<path d="M23.7756 198.393L25.7297 197.525C23.5584 197.2 21.93 196.224 20.8443 194.598C19.9758 193.189 19.7587 191.888 20.193 190.587C20.6272 189.286 21.8214 188.201 23.5584 187.117L33.9806 182.238L36.1518 185.383L25.7297 190.37C25.2955 190.587 24.9698 190.803 24.6441 191.129C23.667 191.996 23.5584 192.972 24.3184 194.164C25.0783 195.357 26.4897 196.007 28.2267 196.116L39.7344 190.803L41.9057 193.948L25.8383 201.428L23.7756 198.393Z" fill="white"/>
<path d="M24.7527 175.625L11.0737 176.059L9.33667 172.372L28.8782 172.481L30.2895 175.517L15.8505 186.033L14.222 182.564L24.7527 175.625Z" fill="white"/>
<path d="M3.69132 169.445C3.1485 169.662 2.60568 169.662 2.06286 169.445C1.52004 169.228 1.19435 168.795 0.868656 168.144C0.651529 167.602 0.651529 167.06 0.868656 166.518C1.08578 165.976 1.52004 165.651 2.06286 165.434C2.60568 165.217 3.1485 165.217 3.69132 165.542C4.23413 165.759 4.55983 166.193 4.77695 166.735C4.99408 167.277 4.99408 167.819 4.77695 168.361C4.66839 168.903 4.23413 169.228 3.69132 169.445ZM24.3184 161.856L25.6212 165.434L8.14243 168.361L6.83967 164.783L24.3184 161.856Z" fill="white"/>
<path d="M6.73088 150.689C6.73088 151.231 6.83944 151.665 6.94801 152.207C7.2737 153.833 8.35934 154.917 9.98779 155.568L22.1469 154.701L23.124 158.387L5.42811 159.796L4.5596 156.327L6.62231 156.218C4.77673 155.459 3.69109 154.267 3.3654 152.749C3.25684 152.424 3.25684 151.882 3.25684 151.231L6.73088 150.689Z" fill="white"/>
<path d="M11.3991 148.738C9.66203 148.738 8.03357 148.412 6.62224 147.762C5.10235 147.111 3.90815 146.136 3.03964 144.943C2.17113 143.75 1.62831 142.341 1.41118 140.823C1.30262 139.305 1.51974 138.004 2.17113 136.812C2.82251 135.619 3.79958 134.752 5.10235 134.101C6.40512 133.451 7.81645 133.126 9.55347 133.017C11.3991 133.017 13.1361 133.234 14.656 133.884C16.1759 134.535 17.3701 135.511 18.2386 136.703C19.1071 137.896 19.6499 139.305 19.867 140.823C19.9756 142.341 19.7585 143.642 19.1071 144.835C18.4557 146.027 17.4786 146.895 16.2844 147.545C15.0902 148.196 13.5703 148.521 11.9419 148.629L11.3991 148.738ZM13.1361 144.726C14.2217 144.509 15.0902 144.184 15.7416 143.534C16.393 142.883 16.6101 142.124 16.5016 141.148C16.393 139.847 15.7416 138.763 14.5474 138.004C13.3532 137.245 11.9419 136.812 10.0963 136.812L8.46783 136.92C7.0565 137.137 6.07942 137.462 5.31948 138.113C4.55953 138.763 4.23384 139.631 4.3424 140.606C4.45097 142.233 5.42804 143.425 7.16506 144.184C8.2507 144.618 9.4449 144.835 10.7477 144.835C11.8333 144.943 12.5933 144.835 13.1361 144.726Z" fill="white"/>
<path d="M0.977059 123.802L3.03977 124.235C1.51988 122.718 0.759931 120.874 0.868495 118.923C0.977059 117.297 1.62844 116.104 2.82264 115.345C4.01685 114.586 5.6453 114.369 7.59945 114.695L18.7815 117.08L18.5644 120.874L7.27376 118.489C6.83951 118.381 6.40525 118.381 5.97099 118.381C4.66823 118.489 4.01685 119.248 3.90828 120.549C3.79972 121.959 4.4511 123.26 5.86243 124.452L18.2387 127.163L18.0216 130.957L0.651367 127.163L0.977059 123.802Z" fill="white"/>
<path d="M3.0399 103.419L4.77692 104.178C3.69128 102.444 3.47415 100.6 4.01697 98.6489C4.34266 97.5647 4.77692 96.8058 5.4283 96.1553C6.07968 95.6132 6.83963 95.288 7.70814 95.1796C6.29681 93.1196 5.97112 91.1681 6.51394 89.1082C6.94819 87.482 7.81671 86.3978 9.11947 85.8557C10.4222 85.3136 12.0507 85.422 13.8963 86.181L24.427 90.8429L23.4499 94.5291L12.9192 89.8671C12.485 89.6503 12.0507 89.5419 11.6164 89.5419C10.3137 89.4335 9.55373 89.9756 9.11947 91.385C8.68522 92.9028 9.22803 94.3122 10.7479 95.6132L11.0736 95.7217L21.8214 100.6L20.8444 104.287L10.3137 99.6247C9.87942 99.4078 9.44516 99.2994 9.11947 99.2994C7.81671 99.191 6.9482 99.7331 6.6225 101.143C6.18825 102.552 6.51394 103.853 7.49101 105.154L19.2159 110.466L18.2388 114.153L2.17139 106.889L3.0399 103.419Z" fill="white"/>
<path d="M29.3125 81.3022C28.6611 82.6032 27.684 83.6874 26.4898 84.3379C25.2956 84.9884 24.1014 85.3137 22.6901 85.2052C21.2787 85.0968 19.976 84.6632 18.5647 83.9042L18.1304 83.4706C16.6105 82.4948 15.4163 81.3022 14.5478 79.8928C13.6793 78.4834 13.1365 77.074 13.0279 75.6645C12.9193 74.2551 13.245 72.8457 13.8964 71.5447C14.8735 69.5932 16.3934 68.509 18.239 68.1838C20.1931 67.8585 22.1473 68.509 24.3185 69.81L25.7299 70.7858L20.8445 80.6517C22.0387 81.3022 23.1243 81.6275 24.21 81.4107C25.2956 81.1938 26.0556 80.5433 26.5984 79.5676C27.3583 78.1581 27.4669 76.4235 26.7069 74.5804L29.421 73.713C30.0724 74.7972 30.2895 76.0982 30.2895 77.3992C30.2895 78.7002 29.9639 80.0012 29.3125 81.3022ZM16.6105 73.171C15.6334 74.9056 16.2848 76.9656 18.4561 79.1339L21.713 72.6289L21.3873 72.412C20.9531 72.0868 20.5188 71.87 20.0845 71.7615C19.3246 71.5447 18.6732 71.5447 18.0218 71.7615C17.479 72.0868 17.0448 72.5205 16.6105 73.171Z" fill="white"/>
<path d="M22.4729 57.8842L23.8842 59.402C23.4499 57.2337 23.7756 55.3906 24.9698 53.7643C25.9469 52.4633 27.1411 51.8128 28.5524 51.8128C29.9638 51.8128 31.3751 52.5717 32.895 53.8727L40.9287 62.004L38.7574 65.1481L30.6152 57.0168C30.2895 56.6916 29.9638 56.4747 29.5295 56.2579C28.4439 55.6074 27.4668 55.8242 26.5983 57.0168C25.7298 58.2094 25.6212 59.6188 26.164 61.3535L35.0663 70.3521L32.7864 73.4962L20.4102 60.8114L22.4729 57.8842Z" fill="white"/>
<path d="M33.1123 38.3691L35.7178 41.8385L37.7805 39.6701L39.5176 42.0553L37.4548 44.2236L43.5344 52.1381C43.7515 52.3549 43.8601 52.4633 44.0772 52.6802C44.6201 53.1138 45.1629 53.0054 45.8143 52.4633C46.1399 52.1381 46.3571 51.8128 46.6828 51.3791L48.7455 53.6559C48.4198 54.4148 47.877 55.0653 47.3342 55.6074C46.3571 56.5832 45.38 57.0168 44.2944 56.9084C43.2087 56.8 42.1231 56.1495 41.146 55.0653L34.9579 47.0425L33.0037 49.1024L31.1581 46.7172L33.0037 44.6573L30.3982 41.188L33.1123 38.3691Z" fill="white"/>
<path d="M55.2591 44.9825C54.8248 44.4404 54.7162 43.8983 54.8248 43.3562C54.9334 42.8142 55.1505 42.2721 55.6933 41.8384C56.2361 41.4047 56.6704 41.2963 57.3218 41.2963C57.9732 41.2963 58.4074 41.6216 58.7331 42.1637C59.1674 42.7057 59.2759 43.2478 59.1674 43.7899C59.0588 44.332 58.8417 44.8741 58.2988 45.3078C57.756 45.7414 57.3218 45.8498 56.6704 45.8498C56.019 45.7414 55.5847 45.4162 55.2591 44.9825Z" fill="white"/>
</svg>
