<svg width="568" height="1016" viewBox="0 0 568 1016" fill="none" xmlns="http://www.w3.org/2000/svg">
<g opacity="0.1">
<mask id="mask0_571_1444" style="mask-type:alpha" maskUnits="userSpaceOnUse" x="0" y="0" width="568" height="1016">
<rect x="568" width="1016" height="568" transform="rotate(90 568 0)" fill="#4BAF47"/>
</mask>
<g mask="url(#mask0_571_1444)">
<mask id="mask1_571_1444" style="mask-type:luminance" maskUnits="userSpaceOnUse" x="-702" y="-1" width="1270" height="1017">
<path d="M568 1015.47L568 -0.528893L-701.594 -0.528893V1015.47L568 1015.47Z" fill="white"/>
</mask>
<g mask="url(#mask1_571_1444)">
<path d="M-236.516 674.495C-236.516 597.269 -174.359 536.206 -113.965 476.94C-54.0124 418.186 7.70394 357.637 7.70394 281.437C7.70394 205.237 -54.0124 144.687 -113.965 85.9337C-146.146 54.3762 -179.208 21.7923 -202.573 -12.844L-196.401 -14.1269C-173.037 20.2529 -140.415 52.5802 -108.235 83.8812C-47.8408 142.891 14.3164 204.211 14.3164 281.437C14.3164 358.663 -47.8408 419.726 -108.235 478.992C-168.188 537.746 -229.904 598.295 -229.904 674.495C-229.904 750.695 -168.188 811.501 -108.235 869.998C-47.8408 929.008 14.3164 990.328 14.3164 1067.55H7.70394C7.70394 991.354 -54.0124 930.548 -113.965 872.051C-174.359 812.784 -236.516 751.722 -236.516 674.495Z" fill="#D4D4D4"/>
</g>
<mask id="mask2_571_1444" style="mask-type:luminance" maskUnits="userSpaceOnUse" x="-702" y="-1" width="1270" height="1017">
<path d="M568 1015.47L568 -0.528893L-701.594 -0.528893V1015.47L568 1015.47Z" fill="white"/>
</mask>
<g mask="url(#mask2_571_1444)">
<path d="M-191.993 674.495C-191.993 597.269 -129.836 536.206 -69.442 476.94C-9.489 418.186 52.2274 357.637 52.2274 281.437C52.2274 205.237 -9.489 144.431 -69.442 85.9337C-101.623 54.3762 -134.685 22.0489 -158.049 -12.5875L-151.877 -13.8703C-128.513 20.5095 -95.8919 52.8368 -63.7112 84.1378C-3.31735 143.148 58.8398 204.467 58.8398 281.693C58.8398 358.92 -3.31735 419.982 -63.7112 479.249C-123.664 538.002 -185.381 598.552 -185.381 674.752C-185.381 750.952 -123.664 811.758 -63.7112 870.255C-3.31735 929.265 58.8398 990.584 58.8398 1067.81H52.2274C52.2274 991.61 -9.489 930.804 -69.442 872.308C-129.836 812.784 -191.993 751.722 -191.993 674.495Z" fill="#D4D4D4"/>
</g>
<mask id="mask3_571_1444" style="mask-type:luminance" maskUnits="userSpaceOnUse" x="-702" y="-1" width="1270" height="1017">
<path d="M568 1015.47L568 -0.528893L-701.594 -0.528893V1015.47L568 1015.47Z" fill="white"/>
</mask>
<g mask="url(#mask3_571_1444)">
<path d="M-147.91 674.495C-147.91 597.269 -85.7529 536.206 -25.359 476.94C34.594 418.186 96.3104 357.637 96.3104 281.437C96.3104 205.237 34.594 144.431 -25.359 85.9337C-57.5397 54.3762 -90.602 22.0489 -113.966 -12.5875L-107.794 -13.8703C-84.4304 20.5095 -51.8089 52.8368 -19.6282 84.1378C40.7657 143.148 102.923 204.467 102.923 281.693C102.923 358.92 40.7657 419.982 -19.6282 479.249C-79.5812 538.002 -141.298 598.552 -141.298 674.752C-141.298 750.952 -79.5812 811.758 -19.6282 870.255C40.7657 929.265 102.923 990.584 102.923 1067.81H96.3104C96.3104 991.61 34.594 930.804 -25.359 872.308C-85.3121 812.784 -147.91 751.722 -147.91 674.495Z" fill="#D4D4D4"/>
</g>
<mask id="mask4_571_1444" style="mask-type:luminance" maskUnits="userSpaceOnUse" x="-702" y="-1" width="1270" height="1017">
<path d="M568 1015.47L568 -0.528893L-701.594 -0.528893V1015.47L568 1015.47Z" fill="white"/>
</mask>
<g mask="url(#mask4_571_1444)">
<path d="M-103.386 674.495C-103.386 597.269 -41.229 536.206 19.1648 476.94C78.677 418.186 140.393 357.637 140.393 281.437C140.393 205.237 78.677 144.431 18.724 85.9337C-13.4567 54.3762 -46.519 22.0489 -69.883 -12.5875L-63.7114 -13.8703C-40.3474 20.5095 -7.72589 52.8368 24.4548 84.1378C84.8487 143.148 147.006 204.467 147.006 281.693C147.006 358.92 84.8487 419.982 24.4548 479.249C-35.4982 538.002 -97.2146 598.552 -97.2146 674.752C-97.2146 750.952 -35.4982 811.758 24.4548 870.255C84.8487 929.265 147.006 990.584 147.006 1067.81H140.393C140.393 991.61 78.677 930.804 18.724 872.308C-41.229 812.784 -103.386 751.722 -103.386 674.495Z" fill="#D4D4D4"/>
</g>
<mask id="mask5_571_1444" style="mask-type:luminance" maskUnits="userSpaceOnUse" x="-702" y="-1" width="1270" height="1017">
<path d="M568 1015.47L568 -0.528893L-701.594 -0.528893V1015.47L568 1015.47Z" fill="white"/>
</mask>
<g mask="url(#mask5_571_1444)">
<path d="M-58.8622 674.495C-58.8622 597.269 3.295 536.206 63.6889 476.94C123.642 418.186 185.358 357.637 185.358 281.437C185.358 205.237 123.642 144.687 63.6889 85.9337C31.5082 54.3762 -1.55414 22.0489 -24.9182 -12.5875L-18.7466 -13.8703C4.61748 20.5095 37.239 52.8368 69.4197 84.1378C129.814 143.148 191.971 204.467 191.971 281.693C191.971 358.92 129.814 419.982 69.4197 479.249C9.46664 538.002 -52.2497 598.552 -52.2497 674.752C-52.2497 750.952 9.46664 811.758 69.4197 870.255C129.814 929.265 191.971 990.584 191.971 1067.81H185.358C185.358 991.61 123.642 930.804 63.6889 872.308C3.295 812.784 -58.8622 751.722 -58.8622 674.495Z" fill="#D4D4D4"/>
</g>
<mask id="mask6_571_1444" style="mask-type:luminance" maskUnits="userSpaceOnUse" x="-702" y="-1" width="1270" height="1017">
<path d="M568 1015.47L568 -0.528893L-701.594 -0.528893V1015.47L568 1015.47Z" fill="white"/>
</mask>
<g mask="url(#mask6_571_1444)">
<path d="M-14.7782 674.495C-14.7782 597.269 47.379 536.206 107.773 476.94C167.726 418.186 229.442 357.637 229.442 281.437C229.442 205.237 167.726 144.431 107.773 85.9337C75.5922 54.3762 42.5298 22.0489 19.1658 -12.5875L25.3374 -13.8703C48.7015 20.5095 81.323 52.8368 113.504 84.1378C173.898 143.148 236.055 204.467 236.055 281.693C236.055 358.92 173.898 419.982 113.504 479.249C53.5506 538.002 -8.16571 598.552 -8.16571 674.752C-8.16571 750.952 53.5506 811.758 113.504 870.255C173.898 929.265 236.055 990.584 236.055 1067.81H229.442C229.442 991.61 167.726 930.804 107.773 872.308C47.379 812.784 -14.7782 751.722 -14.7782 674.495Z" fill="#D4D4D4"/>
</g>
<mask id="mask7_571_1444" style="mask-type:luminance" maskUnits="userSpaceOnUse" x="-702" y="-1" width="1270" height="1017">
<path d="M568 1015.47L568 -0.528893L-701.594 -0.528893V1015.47L568 1015.47Z" fill="white"/>
</mask>
<g mask="url(#mask7_571_1444)">
<path d="M29.7452 674.495C29.7452 597.269 91.9024 536.206 152.296 476.94C212.249 418.186 273.966 357.637 273.966 281.437C273.966 205.237 212.249 144.687 152.296 85.9337C120.116 54.3762 87.0533 22.0489 63.6892 -12.5875L69.8609 -13.8703C93.2249 20.5095 125.846 52.8368 158.027 84.1378C218.421 143.148 280.578 204.467 280.578 281.693C280.578 358.92 218.421 419.982 158.027 479.249C98.074 538.002 36.3577 598.552 36.3577 674.752C36.3577 750.952 98.074 811.758 158.027 870.255C218.421 929.265 280.578 990.584 280.578 1067.81H273.966C273.966 991.61 212.249 930.804 152.296 872.308C91.9024 812.784 29.7452 751.722 29.7452 674.495Z" fill="#D4D4D4"/>
</g>
<mask id="mask8_571_1444" style="mask-type:luminance" maskUnits="userSpaceOnUse" x="-702" y="-1" width="1270" height="1017">
<path d="M568 1015.47L568 -0.528893L-701.594 -0.528893V1015.47L568 1015.47Z" fill="white"/>
</mask>
<g mask="url(#mask8_571_1444)">
<path d="M74.2687 674.495C74.2687 597.269 136.426 536.206 196.82 476.94C256.773 418.186 318.489 357.637 318.489 281.437C318.489 205.237 256.773 144.431 196.82 85.9337C164.639 54.3762 131.577 21.7923 108.213 -12.844L114.384 -14.1269C137.748 20.2529 170.37 52.5802 202.551 83.8812C262.944 142.891 325.102 204.211 325.102 281.437C325.102 358.663 262.944 419.726 202.551 478.992C142.597 537.746 80.8811 598.295 80.8811 674.495C80.8811 750.695 142.597 811.501 202.551 869.998C262.944 929.008 325.102 990.328 325.102 1067.55H318.489C318.489 991.354 256.773 930.548 196.82 872.051C136.426 812.784 74.2687 751.722 74.2687 674.495Z" fill="#D4D4D4"/>
</g>
<mask id="mask9_571_1444" style="mask-type:luminance" maskUnits="userSpaceOnUse" x="-702" y="-1" width="1270" height="1017">
<path d="M568 1015.47L568 -0.528893L-701.594 -0.528893V1015.47L568 1015.47Z" fill="white"/>
</mask>
<g mask="url(#mask9_571_1444)">
<path d="M118.353 674.495C118.353 597.269 180.51 536.206 240.904 476.94C300.857 418.186 362.573 357.637 362.573 281.437C362.573 205.237 300.857 144.687 240.904 85.9337C208.723 54.3762 175.661 21.7923 152.297 -12.844L158.468 -14.1269C181.832 20.2529 214.454 52.5802 246.634 83.8812C307.028 142.891 369.186 204.211 369.186 281.437C369.186 358.663 307.028 419.726 246.634 478.992C186.681 537.746 124.965 598.295 124.965 674.495C124.965 750.695 186.681 811.501 246.634 869.998C307.028 929.008 369.186 990.328 369.186 1067.55H362.573C362.573 991.354 300.857 930.548 240.904 872.051C180.51 812.784 118.353 751.722 118.353 674.495Z" fill="#D4D4D4"/>
</g>
<mask id="mask10_571_1444" style="mask-type:luminance" maskUnits="userSpaceOnUse" x="-702" y="-1" width="1270" height="1017">
<path d="M568 1015.47L568 -0.528893L-701.594 -0.528893V1015.47L568 1015.47Z" fill="white"/>
</mask>
<g mask="url(#mask10_571_1444)">
<path d="M162.876 674.495C162.876 597.269 225.033 536.206 285.427 476.94C345.38 418.186 407.097 357.637 407.097 281.437C407.097 205.237 345.38 144.687 285.427 85.9337C253.246 54.3762 220.184 21.7923 196.82 -12.844L202.992 -14.1269C226.356 20.2529 258.977 52.5802 291.158 83.8812C351.552 142.891 413.709 204.211 413.709 281.437C413.709 358.663 351.552 419.726 291.158 478.992C231.205 537.746 169.489 598.295 169.489 674.495C169.489 750.695 231.205 811.501 291.158 869.998C351.552 929.008 413.709 990.328 413.709 1067.55H407.097C407.097 991.354 345.38 930.548 285.427 872.051C225.033 812.784 162.876 751.722 162.876 674.495Z" fill="#D4D4D4"/>
</g>
<mask id="mask11_571_1444" style="mask-type:luminance" maskUnits="userSpaceOnUse" x="-702" y="-1" width="1270" height="1017">
<path d="M568 1015.47L568 -0.528893L-701.594 -0.528893V1015.47L568 1015.47Z" fill="white"/>
</mask>
<g mask="url(#mask11_571_1444)">
<path d="M206.959 674.495C206.959 597.269 269.116 536.206 329.51 476.94C389.463 418.186 451.18 357.637 451.18 281.437C451.18 205.237 389.463 144.687 329.51 85.9337C297.329 54.3762 264.267 21.7923 240.903 -12.844L247.075 -14.1269C270.439 20.2529 303.06 52.5802 335.241 83.8812C395.635 142.891 457.792 204.211 457.792 281.437C457.792 358.663 395.635 419.726 335.241 478.992C275.288 537.746 213.572 598.295 213.572 674.495C213.572 750.695 275.288 811.501 335.241 869.998C395.635 929.008 457.792 990.328 457.792 1067.55H451.18C451.18 991.354 389.463 930.548 329.51 872.051C269.557 812.784 206.959 751.722 206.959 674.495Z" fill="#D4D4D4"/>
</g>
<mask id="mask12_571_1444" style="mask-type:luminance" maskUnits="userSpaceOnUse" x="-702" y="-1" width="1270" height="1017">
<path d="M568 1015.47L568 -0.528893L-701.594 -0.528893V1015.47L568 1015.47Z" fill="white"/>
</mask>
<g mask="url(#mask12_571_1444)">
<path d="M251.484 674.495C251.484 597.269 313.641 536.206 374.035 476.94C433.988 418.186 495.704 357.637 495.704 281.437C495.704 205.237 433.988 144.431 374.035 85.9337C341.854 54.3762 308.792 21.7923 285.428 -12.844L291.599 -14.1269C314.963 20.2529 347.585 52.5802 379.765 83.8812C440.159 142.891 502.316 204.211 502.316 281.437C502.316 358.663 440.159 419.726 379.765 478.992C319.812 537.746 258.096 598.295 258.096 674.495C258.096 750.695 319.812 811.501 379.765 869.998C440.159 929.008 502.316 990.328 502.316 1067.55H495.704C495.704 991.354 433.988 930.548 374.035 872.051C313.641 812.784 251.484 751.722 251.484 674.495Z" fill="#D4D4D4"/>
</g>
<mask id="mask13_571_1444" style="mask-type:luminance" maskUnits="userSpaceOnUse" x="-702" y="-1" width="1270" height="1017">
<path d="M568 1015.47L568 -0.528893L-701.594 -0.528893V1015.47L568 1015.47Z" fill="white"/>
</mask>
<g mask="url(#mask13_571_1444)">
<path d="M296.007 674.495C296.007 597.269 358.164 536.206 418.558 476.94C478.511 418.186 540.227 357.637 540.227 281.437C540.227 205.237 478.511 144.687 418.558 85.9337C386.377 54.3762 353.315 21.7923 329.951 -12.844L336.123 -14.1269C359.487 20.2529 392.108 52.5802 424.289 83.8812C484.683 142.891 546.84 204.211 546.84 281.437C546.84 358.663 484.683 419.726 424.289 478.992C364.336 537.746 302.619 598.295 302.619 674.495C302.619 750.695 364.336 811.501 424.289 869.998C484.683 929.008 546.84 990.328 546.84 1067.55H540.227C540.227 991.354 478.511 930.548 418.558 872.051C358.164 812.784 296.007 751.722 296.007 674.495Z" fill="#D4D4D4"/>
</g>
<mask id="mask14_571_1444" style="mask-type:luminance" maskUnits="userSpaceOnUse" x="-702" y="-1" width="1270" height="1017">
<path d="M568 1015.47L568 -0.528893L-701.594 -0.528893V1015.47L568 1015.47Z" fill="white"/>
</mask>
<g mask="url(#mask14_571_1444)">
<path d="M340.091 674.495C340.091 597.269 402.248 536.206 462.642 476.94C522.595 418.186 584.311 357.637 584.311 281.437C584.311 205.237 522.595 144.687 462.642 85.9337C430.461 54.3762 397.399 21.7923 374.035 -12.844L380.207 -14.1269C403.571 20.2529 436.192 52.5802 468.373 83.8812C528.767 142.891 590.924 204.211 590.924 281.437C590.924 358.663 528.767 419.726 468.373 478.992C408.42 537.746 346.703 598.295 346.703 674.495C346.703 750.695 408.42 811.501 468.373 869.998C528.767 929.008 590.924 990.328 590.924 1067.55H584.311C584.311 991.354 522.595 930.548 462.642 872.051C402.248 812.784 340.091 751.722 340.091 674.495Z" fill="#D4D4D4"/>
</g>
<mask id="mask15_571_1444" style="mask-type:luminance" maskUnits="userSpaceOnUse" x="-702" y="-1" width="1270" height="1017">
<path d="M568 1015.47L568 -0.528893L-701.594 -0.528893V1015.47L568 1015.47Z" fill="white"/>
</mask>
<g mask="url(#mask15_571_1444)">
<path d="M384.614 674.495C384.614 597.269 446.772 536.206 507.165 476.94C567.118 418.186 628.835 357.637 628.835 281.437C628.835 205.237 567.118 144.687 507.165 85.9337C474.985 54.3762 441.922 21.7923 418.558 -12.844L424.73 -14.1269C448.094 20.2529 480.716 52.5802 512.896 83.8812C573.29 142.891 635.447 204.211 635.447 281.437C635.447 358.663 573.29 419.726 512.896 478.992C452.943 537.746 391.227 598.295 391.227 674.495C391.227 750.695 452.943 811.501 512.896 869.998C573.29 929.008 635.447 990.328 635.447 1067.55H628.835C628.835 991.354 567.118 930.548 507.165 872.051C446.772 812.784 384.614 751.722 384.614 674.495Z" fill="#D4D4D4"/>
</g>
<mask id="mask16_571_1444" style="mask-type:luminance" maskUnits="userSpaceOnUse" x="-702" y="-1" width="1270" height="1017">
<path d="M568 1015.47L568 -0.528893L-701.594 -0.528893V1015.47L568 1015.47Z" fill="white"/>
</mask>
<g mask="url(#mask16_571_1444)">
<path d="M428.698 674.495C428.698 597.269 490.855 536.206 551.249 476.94C583.429 445.382 616.492 412.798 639.856 378.162L646.027 379.445C622.663 414.338 589.16 446.922 556.979 478.736C497.026 537.489 435.31 598.039 435.31 674.239C435.31 750.439 497.026 811.245 556.979 869.742C589.16 901.299 622.663 934.14 646.027 969.033L639.856 970.316C616.492 935.936 583.429 903.352 551.249 871.794C491.296 812.784 428.698 751.722 428.698 674.495Z" fill="#D4D4D4"/>
</g>
<mask id="mask17_571_1444" style="mask-type:luminance" maskUnits="userSpaceOnUse" x="-702" y="-1" width="1270" height="1017">
<path d="M568 1015.47L568 -0.528893L-701.594 -0.528893V1015.47L568 1015.47Z" fill="white"/>
</mask>
<g mask="url(#mask17_571_1444)">
<path d="M462.642 -12.844L468.813 -14.1269C492.177 20.2529 524.799 52.5802 556.979 83.8812C589.16 115.439 622.663 148.279 646.027 183.172L639.856 184.455C616.492 149.819 583.429 117.235 551.249 85.9337C519.509 54.3762 486.006 21.7923 462.642 -12.844Z" fill="#D4D4D4"/>
</g>
<mask id="mask18_571_1444" style="mask-type:luminance" maskUnits="userSpaceOnUse" x="-702" y="-1" width="1270" height="1017">
<path d="M568 1015.47L568 -0.528893L-701.594 -0.528893V1015.47L568 1015.47Z" fill="white"/>
</mask>
<g mask="url(#mask18_571_1444)">
<path d="M473.222 674.495C473.222 597.269 535.379 536.207 595.773 476.94C610.761 462.316 625.749 447.435 639.856 432.297L645.587 434.093C631.48 449.231 616.051 464.368 601.063 478.992C541.55 537.489 479.834 598.295 479.834 674.495C479.834 750.695 541.55 811.501 601.503 869.998C616.492 884.623 631.921 899.76 646.027 914.897L640.297 916.693C626.19 901.556 610.761 886.675 596.213 872.051C535.379 812.784 473.222 751.722 473.222 674.495Z" fill="#D4D4D4"/>
</g>
<mask id="mask19_571_1444" style="mask-type:luminance" maskUnits="userSpaceOnUse" x="-702" y="-1" width="1270" height="1017">
<path d="M568 1015.47L568 -0.528893L-701.594 -0.528893V1015.47L568 1015.47Z" fill="white"/>
</mask>
<g mask="url(#mask19_571_1444)">
<path d="M507.166 -12.844L513.337 -14.1269C536.701 20.2529 569.323 52.5802 601.503 83.8812C616.492 98.5055 631.921 113.643 646.027 128.78L640.297 130.576C626.19 115.439 610.761 100.558 595.773 85.9337C563.592 54.3762 530.53 21.7923 507.166 -12.844Z" fill="#D4D4D4"/>
</g>
<mask id="mask20_571_1444" style="mask-type:luminance" maskUnits="userSpaceOnUse" x="-702" y="-1" width="1270" height="1017">
<path d="M568 1015.47L568 -0.528893L-701.594 -0.528893V1015.47L568 1015.47Z" fill="white"/>
</mask>
<g mask="url(#mask20_571_1444)">
<path d="M517.745 674.495C517.745 597.269 579.903 536.206 640.297 476.94L646.027 478.992C586.074 537.746 524.358 598.295 524.358 674.495C524.358 750.695 586.074 811.245 646.027 869.998L640.297 872.051C579.903 812.784 517.745 751.722 517.745 674.495Z" fill="#D4D4D4"/>
</g>
<mask id="mask21_571_1444" style="mask-type:luminance" maskUnits="userSpaceOnUse" x="-702" y="-1" width="1270" height="1017">
<path d="M568 1015.47L568 -0.528893L-701.594 -0.528893V1015.47L568 1015.47Z" fill="white"/>
</mask>
<g mask="url(#mask21_571_1444)">
<path d="M551.689 -12.844L557.861 -14.1269C581.225 20.2529 613.847 52.5802 646.027 83.8812L640.297 85.9337C608.116 54.3762 575.054 21.7923 551.689 -12.844Z" fill="#D4D4D4"/>
</g>
<mask id="mask22_571_1444" style="mask-type:luminance" maskUnits="userSpaceOnUse" x="-702" y="-1" width="1270" height="1017">
<path d="M568 1015.47L568 -0.528893L-701.594 -0.528893V1015.47L568 1015.47Z" fill="white"/>
</mask>
<g mask="url(#mask22_571_1444)">
<path d="M561.828 674.495C561.828 613.176 601.062 562.889 639.855 521.839L645.586 523.635C607.674 564.172 568.44 613.946 568.44 674.495C568.44 735.045 607.674 784.819 645.586 825.356L639.855 827.152C601.503 786.101 561.828 735.815 561.828 674.495Z" fill="#D4D4D4"/>
</g>
</g>
</g>
</svg>
