<svg width="648" height="387" viewBox="0 0 648 387" fill="none" xmlns="http://www.w3.org/2000/svg">
<g opacity="0.06">
<mask id="mask0_709_172" style="mask-type:alpha" maskUnits="userSpaceOnUse" x="0" y="0" width="648" height="387">
<rect width="648" height="387" fill="#4BAF47"/>
</mask>
<g mask="url(#mask0_709_172)">
<mask id="mask1_709_172" style="mask-type:luminance" maskUnits="userSpaceOnUse" x="-2" y="-13" width="650" height="551">
<path d="M648 -13H-1.04199V538H648V-13Z" fill="white"/>
</mask>
<g mask="url(#mask1_709_172)">
<path d="M430.178 490.171C380.844 490.171 341.836 463.195 303.975 436.984C266.442 410.965 227.762 384.18 179.084 384.18C130.406 384.18 91.7253 410.965 54.1923 436.984C34.0327 450.95 13.2174 465.299 -8.90902 475.439L-9.72852 472.761C12.234 462.621 32.8854 448.463 52.8811 434.497C90.578 408.286 129.75 381.31 179.084 381.31C228.418 381.31 267.426 408.286 305.286 434.497C342.819 460.516 381.5 487.301 430.178 487.301C478.856 487.301 517.7 460.516 555.069 434.497C592.766 408.286 631.938 381.31 681.272 381.31V384.18C632.594 384.18 593.75 410.965 556.38 436.984C518.52 463.195 479.512 490.171 430.178 490.171Z" fill="#D4D4D4"/>
</g>
<mask id="mask2_709_172" style="mask-type:luminance" maskUnits="userSpaceOnUse" x="-2" y="-13" width="650" height="551">
<path d="M648 -13H-1.04199V538H648V-13Z" fill="white"/>
</mask>
<g mask="url(#mask2_709_172)">
<path d="M430.178 470.847C380.844 470.847 341.836 443.871 303.975 417.66C266.442 391.64 227.762 364.856 179.084 364.856C130.406 364.856 91.5616 391.64 54.1925 417.66C34.0328 431.626 13.3815 445.975 -8.74496 456.115L-9.56445 453.437C12.3981 443.297 33.0494 429.139 53.0452 415.173C90.7421 388.962 129.914 361.986 179.248 361.986C228.582 361.986 267.59 388.962 305.45 415.173C342.983 441.192 381.664 467.977 430.342 467.977C479.02 467.977 517.864 441.192 555.233 415.173C592.93 388.962 632.102 361.986 681.436 361.986V364.856C632.758 364.856 593.914 391.64 556.545 417.66C518.52 443.871 479.512 470.847 430.178 470.847Z" fill="#D4D4D4"/>
</g>
<mask id="mask3_709_172" style="mask-type:luminance" maskUnits="userSpaceOnUse" x="-2" y="-13" width="650" height="551">
<path d="M648 -13H-1.04199V538H648V-13Z" fill="white"/>
</mask>
<g mask="url(#mask3_709_172)">
<path d="M430.178 451.715C380.844 451.715 341.836 424.739 303.975 398.528C266.442 372.509 227.762 345.724 179.084 345.724C130.406 345.724 91.7255 372.509 54.1925 398.528C34.0328 412.495 13.3815 426.844 -8.74496 436.984L-9.56445 434.305C12.3981 424.165 33.0494 410.008 53.0452 396.041C90.7421 369.831 129.914 342.854 179.248 342.854C228.582 342.854 267.59 369.831 305.45 396.041C342.983 422.061 381.664 448.845 430.342 448.845C479.02 448.845 517.864 422.061 555.233 396.041C592.93 369.831 632.102 342.854 681.436 342.854V345.724C632.758 345.724 593.914 372.509 556.545 398.528C518.52 424.548 479.512 451.715 430.178 451.715Z" fill="#D4D4D4"/>
</g>
<mask id="mask4_709_172" style="mask-type:luminance" maskUnits="userSpaceOnUse" x="-2" y="-13" width="650" height="551">
<path d="M648 -13H-1.04199V538H648V-13Z" fill="white"/>
</mask>
<g mask="url(#mask4_709_172)">
<path d="M430.178 432.392C380.844 432.392 341.836 405.415 303.975 379.205C266.442 353.185 227.762 326.401 179.084 326.401C130.406 326.401 91.7255 353.185 54.1925 379.205C34.0328 393.171 13.3815 407.52 -8.74496 417.66L-9.56445 414.981C12.3981 404.842 33.0494 390.684 53.0452 376.718C90.7421 350.507 129.914 323.531 179.248 323.531C228.582 323.531 267.59 350.507 305.45 376.718C342.983 402.737 381.664 429.522 430.342 429.522C479.02 429.522 517.864 402.737 555.233 376.718C592.93 350.507 632.102 323.531 681.436 323.531V326.401C632.758 326.401 593.914 353.185 556.545 379.205C518.52 405.415 479.512 432.392 430.178 432.392Z" fill="#D4D4D4"/>
</g>
<mask id="mask5_709_172" style="mask-type:luminance" maskUnits="userSpaceOnUse" x="-2" y="-13" width="650" height="551">
<path d="M648 -13H-1.04199V538H648V-13Z" fill="white"/>
</mask>
<g mask="url(#mask5_709_172)">
<path d="M430.178 413.069C380.844 413.069 341.836 386.093 303.975 359.882C266.442 333.863 227.762 307.078 179.084 307.078C130.406 307.078 91.7253 333.863 54.1923 359.882C34.0327 373.848 13.2174 388.197 -8.90902 398.337L-9.72852 395.659C12.234 385.519 32.8854 371.361 52.8811 357.395C90.578 331.184 129.75 304.208 179.084 304.208C228.418 304.208 267.426 331.184 305.286 357.395C342.819 383.414 381.5 410.199 430.178 410.199C478.856 410.199 517.7 383.414 555.069 357.395C592.766 331.184 631.938 304.208 681.272 304.208V307.078C632.594 307.078 593.75 333.863 556.38 359.882C518.52 386.093 479.512 413.069 430.178 413.069Z" fill="#D4D4D4"/>
</g>
<mask id="mask6_709_172" style="mask-type:luminance" maskUnits="userSpaceOnUse" x="-2" y="-13" width="650" height="551">
<path d="M648 -13H-1.04199V538H648V-13Z" fill="white"/>
</mask>
<g mask="url(#mask6_709_172)">
<path d="M430.178 393.936C380.844 393.936 341.836 366.96 303.975 340.75C266.442 314.73 227.762 287.945 179.084 287.945C130.406 287.945 91.7253 314.73 54.1923 340.75C34.0327 354.716 13.2174 369.065 -8.90902 379.205L-9.72852 376.526C12.234 366.386 32.8854 352.229 52.8811 338.263C90.578 312.052 129.75 285.076 179.084 285.076C228.418 285.076 267.426 312.052 305.286 338.263C342.819 364.282 381.5 391.067 430.178 391.067C478.856 391.067 517.7 364.282 555.069 338.263C592.766 312.052 631.938 285.076 681.272 285.076V287.945C632.594 287.945 593.75 314.73 556.38 340.75C518.52 366.769 479.512 393.936 430.178 393.936Z" fill="#D4D4D4"/>
</g>
<mask id="mask7_709_172" style="mask-type:luminance" maskUnits="userSpaceOnUse" x="-2" y="-13" width="650" height="551">
<path d="M648 -13H-1.04199V538H648V-13Z" fill="white"/>
</mask>
<g mask="url(#mask7_709_172)">
<path d="M430.178 374.613C380.844 374.613 341.836 347.637 303.975 321.426C266.442 295.407 227.762 268.622 179.084 268.622C130.406 268.622 91.7255 295.407 54.1925 321.426C34.0328 335.393 13.3815 349.742 -8.74496 359.882L-9.56445 357.203C12.3981 347.063 33.0494 332.906 53.0452 318.939C90.7421 292.728 129.914 265.752 179.248 265.752C228.582 265.752 267.59 292.728 305.45 318.939C342.983 344.959 381.664 371.743 430.342 371.743C479.02 371.743 517.864 344.959 555.233 318.939C592.93 292.728 632.102 265.752 681.436 265.752V268.622C632.758 268.622 593.914 295.407 556.545 321.426C518.52 347.637 479.512 374.613 430.178 374.613Z" fill="#D4D4D4"/>
</g>
<mask id="mask8_709_172" style="mask-type:luminance" maskUnits="userSpaceOnUse" x="-2" y="-13" width="650" height="551">
<path d="M648 -13H-1.04199V538H648V-13Z" fill="white"/>
</mask>
<g mask="url(#mask8_709_172)">
<path d="M430.178 355.289C380.844 355.289 341.836 328.313 303.975 302.103C266.442 276.083 227.762 249.299 179.084 249.299C130.406 249.299 91.7253 276.083 54.1923 302.103C34.0327 316.069 13.2174 330.418 -8.90902 340.558L-9.72852 337.879C12.234 327.739 32.8854 313.582 52.8811 299.615C90.578 273.405 129.75 246.429 179.084 246.429C228.418 246.429 267.426 273.405 305.286 299.615C342.819 325.635 381.5 352.42 430.178 352.42C478.856 352.42 517.7 325.635 555.069 299.615C592.766 273.405 631.938 246.429 681.272 246.429V249.299C632.594 249.299 593.75 276.083 556.38 302.103C518.52 328.313 479.512 355.289 430.178 355.289Z" fill="#D4D4D4"/>
</g>
<mask id="mask9_709_172" style="mask-type:luminance" maskUnits="userSpaceOnUse" x="-2" y="-13" width="650" height="551">
<path d="M648 -13H-1.04199V538H648V-13Z" fill="white"/>
</mask>
<g mask="url(#mask9_709_172)">
<path d="M430.178 336.158C380.844 336.158 341.836 309.182 303.975 282.971C266.442 256.952 227.762 230.167 179.084 230.167C130.406 230.167 91.7253 256.952 54.1923 282.971C34.0327 296.938 13.2174 311.287 -8.90902 321.427L-9.72852 318.748C12.234 308.608 32.8854 294.45 52.8811 280.484C90.578 254.273 129.75 227.297 179.084 227.297C228.418 227.297 267.426 254.273 305.286 280.484C342.819 306.504 381.5 333.288 430.178 333.288C478.856 333.288 517.7 306.504 555.069 280.484C592.766 254.273 631.938 227.297 681.272 227.297V230.167C632.594 230.167 593.75 256.952 556.38 282.971C518.52 309.182 479.512 336.158 430.178 336.158Z" fill="#D4D4D4"/>
</g>
<mask id="mask10_709_172" style="mask-type:luminance" maskUnits="userSpaceOnUse" x="-2" y="-13" width="650" height="551">
<path d="M648 -13H-1.04199V538H648V-13Z" fill="white"/>
</mask>
<g mask="url(#mask10_709_172)">
<path d="M430.178 316.835C380.844 316.835 341.836 289.859 303.975 263.648C266.442 237.629 227.762 210.844 179.084 210.844C130.406 210.844 91.5616 237.629 54.1925 263.648C34.0328 277.614 13.3815 291.963 -8.74496 302.103L-9.56445 299.425C12.3981 289.285 33.0494 275.127 53.0452 261.161C90.7421 234.95 129.914 207.974 179.248 207.974C228.582 207.974 267.59 234.95 305.45 261.161C342.983 287.18 381.664 313.965 430.342 313.965C479.02 313.965 517.864 287.18 555.233 261.161C592.93 234.95 632.102 207.974 681.436 207.974V210.844C632.758 210.844 593.914 237.629 556.545 263.648C518.52 289.859 479.512 316.835 430.178 316.835Z" fill="#D4D4D4"/>
</g>
<mask id="mask11_709_172" style="mask-type:luminance" maskUnits="userSpaceOnUse" x="-2" y="-13" width="650" height="551">
<path d="M648 -13H-1.04199V538H648V-13Z" fill="white"/>
</mask>
<g mask="url(#mask11_709_172)">
<path d="M430.178 297.702C380.844 297.702 341.836 270.726 303.975 244.515C266.442 218.496 227.762 191.711 179.084 191.711C130.406 191.711 91.5616 218.496 54.1925 244.515C34.0328 258.482 13.3815 272.831 -8.74496 282.97L-9.56445 280.292C12.3981 270.152 33.0494 255.994 53.0452 242.028C90.7421 215.817 129.914 188.841 179.248 188.841C228.582 188.841 267.59 215.817 305.45 242.028C342.983 268.048 381.664 294.832 430.342 294.832C479.02 294.832 517.864 268.048 555.233 242.028C592.93 215.817 632.102 188.841 681.436 188.841V191.711C632.758 191.711 593.914 218.496 556.545 244.515C518.52 270.535 479.512 297.702 430.178 297.702Z" fill="#D4D4D4"/>
</g>
<mask id="mask12_709_172" style="mask-type:luminance" maskUnits="userSpaceOnUse" x="-2" y="-13" width="650" height="551">
<path d="M648 -13H-1.04199V538H648V-13Z" fill="white"/>
</mask>
<g mask="url(#mask12_709_172)">
<path d="M430.178 278.38C380.844 278.38 341.836 251.404 303.975 225.193C266.442 199.365 227.762 172.58 179.084 172.58C130.406 172.58 91.5616 199.365 54.1925 225.384C34.0328 239.351 13.3815 253.7 -8.74496 263.84L-9.56445 261.161C12.3981 251.021 33.0494 236.864 53.0452 222.897C90.7421 196.686 129.914 169.71 179.248 169.71C228.582 169.71 267.59 196.686 305.45 222.897C342.983 248.917 381.664 275.701 430.342 275.701C479.02 275.701 517.864 248.917 555.233 222.897C592.93 196.686 632.102 169.71 681.436 169.71V172.58C632.758 172.58 593.914 199.365 556.545 225.384C518.52 251.404 479.512 278.38 430.178 278.38Z" fill="#D4D4D4"/>
</g>
<mask id="mask13_709_172" style="mask-type:luminance" maskUnits="userSpaceOnUse" x="-2" y="-13" width="650" height="551">
<path d="M648 -13H-1.04199V538H648V-13Z" fill="white"/>
</mask>
<g mask="url(#mask13_709_172)">
<path d="M430.178 259.056C380.844 259.056 341.836 232.08 303.975 205.869C266.442 179.85 227.762 153.065 179.084 153.065C130.406 153.065 91.7255 179.85 54.1925 205.869C34.0328 219.836 13.3815 234.185 -8.74496 244.324L-9.56445 241.646C12.3981 231.506 33.0494 217.348 53.0452 203.382C90.7421 177.171 129.914 150.195 179.248 150.195C228.582 150.195 267.59 177.171 305.45 203.382C342.983 229.402 381.664 256.186 430.342 256.186C479.02 256.186 517.864 229.402 555.233 203.382C592.93 177.171 632.102 150.195 681.436 150.195V153.065C632.758 153.065 593.914 179.85 556.545 205.869C518.52 232.08 479.512 259.056 430.178 259.056Z" fill="#D4D4D4"/>
</g>
<mask id="mask14_709_172" style="mask-type:luminance" maskUnits="userSpaceOnUse" x="-2" y="-13" width="650" height="551">
<path d="M648 -13H-1.04199V538H648V-13Z" fill="white"/>
</mask>
<g mask="url(#mask14_709_172)">
<path d="M430.178 239.925C380.844 239.925 341.836 212.949 303.975 186.738C266.442 160.718 227.762 133.934 179.084 133.934C130.406 133.934 91.5616 160.718 54.1925 186.738C34.0328 200.704 13.3815 215.053 -8.74496 225.193L-9.56445 222.515C12.3981 212.375 33.0494 198.217 53.0452 184.251C90.7421 158.04 129.914 131.064 179.248 131.064C228.582 131.064 267.59 158.04 305.45 184.251C342.983 210.27 381.664 237.055 430.342 237.055C479.02 237.055 517.864 210.27 555.233 184.251C592.93 158.04 632.102 131.064 681.436 131.064V133.934C632.758 133.934 593.914 160.718 556.545 186.738C518.52 212.949 479.512 239.925 430.178 239.925Z" fill="#D4D4D4"/>
</g>
<mask id="mask15_709_172" style="mask-type:luminance" maskUnits="userSpaceOnUse" x="-2" y="-13" width="650" height="551">
<path d="M648 -13H-1.04199V538H648V-13Z" fill="white"/>
</mask>
<g mask="url(#mask15_709_172)">
<path d="M430.178 220.601C380.844 220.601 341.836 193.625 303.975 167.414C266.442 141.395 227.762 114.61 179.084 114.61C130.406 114.61 91.7255 141.395 54.1925 167.414C34.0328 181.381 13.3815 195.729 -8.74496 205.869L-9.56445 203.191C12.3981 193.051 33.0494 178.893 53.0452 164.927C90.7421 138.716 129.914 111.74 179.248 111.74C228.582 111.74 267.59 138.716 305.45 164.927C342.983 190.946 381.664 217.731 430.342 217.731C479.02 217.731 517.864 190.946 555.233 164.927C592.93 138.716 632.102 111.74 681.436 111.74V114.61C632.758 114.61 593.914 141.395 556.545 167.414C518.52 193.625 479.512 220.601 430.178 220.601Z" fill="#D4D4D4"/>
</g>
<mask id="mask16_709_172" style="mask-type:luminance" maskUnits="userSpaceOnUse" x="-2" y="-13" width="650" height="551">
<path d="M648 -13H-1.04199V538H648V-13Z" fill="white"/>
</mask>
<g mask="url(#mask16_709_172)">
<path d="M430.178 201.278C380.844 201.278 341.836 174.302 303.975 148.091C266.442 122.072 227.762 95.2873 179.084 95.2873C130.406 95.2873 91.5614 122.072 54.1923 148.091C34.0327 162.058 13.2174 176.407 -8.90902 186.547L-9.72852 183.868C12.234 173.728 32.8854 159.571 52.8811 145.604C90.578 119.394 129.75 92.4175 179.084 92.4175C228.418 92.4175 267.426 119.394 305.286 145.604C342.819 171.624 381.5 198.408 430.178 198.408C478.856 198.408 517.7 171.624 555.069 145.604C592.766 119.394 631.938 92.4175 681.272 92.4175V95.2873C632.594 95.2873 593.75 122.072 556.38 148.091C518.52 174.302 479.512 201.278 430.178 201.278Z" fill="#D4D4D4"/>
</g>
<mask id="mask17_709_172" style="mask-type:luminance" maskUnits="userSpaceOnUse" x="-2" y="-13" width="650" height="551">
<path d="M648 -13H-1.04199V538H648V-13Z" fill="white"/>
</mask>
<g mask="url(#mask17_709_172)">
<path d="M430.178 182.146C380.844 182.146 341.836 155.17 303.975 128.959C266.442 102.94 227.762 76.1549 179.084 76.1549C130.406 76.1549 91.7253 102.94 54.1923 128.959C34.0327 142.925 13.2174 157.274 -8.90902 167.414L-9.72852 164.736C12.234 154.596 32.8854 140.438 52.8811 126.472C90.578 100.261 129.75 73.2852 179.084 73.2852C228.418 73.2852 267.426 100.261 305.286 126.472C342.819 152.491 381.5 179.276 430.178 179.276C478.856 179.276 517.7 152.491 555.069 126.472C592.766 100.261 631.938 73.2852 681.272 73.2852V76.1549C632.594 76.1549 593.75 102.94 556.38 128.959C518.52 155.17 479.512 182.146 430.178 182.146Z" fill="#D4D4D4"/>
</g>
<mask id="mask18_709_172" style="mask-type:luminance" maskUnits="userSpaceOnUse" x="-2" y="-13" width="650" height="551">
<path d="M648 -13H-1.04199V538H648V-13Z" fill="white"/>
</mask>
<g mask="url(#mask18_709_172)">
<path d="M430.178 162.822C380.844 162.822 341.836 135.846 303.975 109.635C266.442 83.6159 227.762 56.8312 179.084 56.8312C130.406 56.8312 91.7253 83.6159 54.1923 109.635C34.0327 123.602 13.2174 137.951 -8.90902 148.091L-9.72852 145.412C12.234 135.272 32.8854 121.115 52.8811 107.148C90.578 80.9375 129.75 53.9614 179.084 53.9614C228.418 53.9614 267.426 80.9375 305.286 107.148C342.819 133.168 381.5 159.952 430.178 159.952C478.856 159.952 517.7 133.168 555.069 107.148C592.766 80.9375 631.938 53.9614 681.272 53.9614V56.8312C632.594 56.8312 593.75 83.6159 556.38 109.635C518.52 135.846 479.512 162.822 430.178 162.822Z" fill="#D4D4D4"/>
</g>
<mask id="mask19_709_172" style="mask-type:luminance" maskUnits="userSpaceOnUse" x="-2" y="-13" width="650" height="551">
<path d="M648 -13H-1.04199V538H648V-13Z" fill="white"/>
</mask>
<g mask="url(#mask19_709_172)">
<path d="M430.178 143.69C380.844 143.69 341.836 116.714 303.975 90.5035C266.442 64.4841 227.762 37.6994 179.084 37.6994C130.406 37.6994 91.7253 64.4841 54.1923 90.5035C34.0327 104.47 13.2174 118.819 -8.90902 128.959L-9.72852 126.28C12.234 116.14 32.8854 101.983 52.8811 88.0164C90.578 61.8056 129.75 34.8296 179.084 34.8296C228.418 34.8296 267.426 61.8056 305.286 88.0164C342.819 114.036 381.5 140.821 430.178 140.821C478.856 140.821 517.7 114.036 555.069 88.0164C592.766 61.8056 631.938 34.8296 681.272 34.8296V37.6994C632.594 37.6994 593.75 64.4841 556.38 90.5035C518.52 116.523 479.512 143.69 430.178 143.69Z" fill="#D4D4D4"/>
</g>
<mask id="mask20_709_172" style="mask-type:luminance" maskUnits="userSpaceOnUse" x="-2" y="-13" width="650" height="551">
<path d="M648 -13H-1.04199V538H648V-13Z" fill="white"/>
</mask>
<g mask="url(#mask20_709_172)">
<path d="M430.178 124.367C380.844 124.367 341.836 97.3911 303.975 71.1803C266.442 45.1609 227.762 18.3761 179.084 18.3761C130.406 18.3761 91.5614 45.1609 54.1923 71.1803C34.0327 85.1466 13.2174 99.4956 -8.90902 109.636L-9.72852 106.957C12.234 96.8171 32.8854 82.6595 52.8811 68.6932C90.578 42.4824 129.75 15.5063 179.084 15.5063C228.418 15.5063 267.426 42.4824 305.286 68.6932C342.819 94.7126 381.5 121.497 430.178 121.497C478.856 121.497 517.7 94.7126 555.069 68.6932C592.766 42.4824 631.938 15.5063 681.272 15.5063V18.3761C632.594 18.3761 593.75 45.1609 556.38 71.1803C518.52 97.3911 479.512 124.367 430.178 124.367Z" fill="#D4D4D4"/>
</g>
<mask id="mask21_709_172" style="mask-type:luminance" maskUnits="userSpaceOnUse" x="-2" y="-13" width="650" height="551">
<path d="M648 -13H-1.04199V538H648V-13Z" fill="white"/>
</mask>
<g mask="url(#mask21_709_172)">
<path d="M430.178 105.044C380.844 105.044 341.836 78.0683 303.975 51.8576C266.442 25.8381 227.762 -0.946615 179.084 -0.946615C130.406 -0.946615 91.7253 25.8381 54.1923 51.8576C34.0327 65.8239 13.2174 80.1728 -8.90902 90.3128L-9.72852 87.6343C12.234 77.4944 32.8854 63.3367 52.8811 49.3704C90.578 23.1596 129.75 -3.81641 179.084 -3.81641C228.418 -3.81641 267.426 23.1596 305.286 49.3704C342.819 75.3898 381.5 102.175 430.178 102.175C478.856 102.175 517.7 75.3898 555.069 49.3704C592.766 23.1596 631.938 -3.81641 681.272 -3.81641V-0.946615C632.594 -0.946615 593.75 25.8381 556.38 51.8576C518.52 78.0683 479.512 105.044 430.178 105.044Z" fill="#D4D4D4"/>
</g>
<mask id="mask22_709_172" style="mask-type:luminance" maskUnits="userSpaceOnUse" x="-2" y="-13" width="650" height="551">
<path d="M648 -13H-1.04199V538H648V-13Z" fill="white"/>
</mask>
<g mask="url(#mask22_709_172)">
<path d="M430.178 85.9125C380.844 85.9125 341.836 58.9365 303.975 32.7257C266.442 6.70627 227.762 -20.0785 179.084 -20.0785C130.406 -20.0785 91.7253 6.70627 54.1923 32.7257C34.0327 46.692 13.2174 61.041 -8.90902 71.1809L-9.72852 68.5025C12.234 58.3625 32.8854 44.2049 52.8811 30.2386C90.578 4.0278 129.75 -22.9482 179.084 -22.9482C228.418 -22.9482 267.426 4.0278 305.286 30.2386C342.819 56.258 381.5 83.0427 430.178 83.0427C478.856 83.0427 517.7 56.258 555.069 30.2386C592.766 4.0278 631.938 -22.9482 681.272 -22.9482V-20.0785C632.594 -20.0785 593.75 6.70627 556.38 32.7257C518.52 58.9365 479.512 85.9125 430.178 85.9125Z" fill="#D4D4D4"/>
</g>
<mask id="mask23_709_172" style="mask-type:luminance" maskUnits="userSpaceOnUse" x="-2" y="-13" width="650" height="551">
<path d="M648 -13H-1.04199V538H648V-13Z" fill="white"/>
</mask>
<g mask="url(#mask23_709_172)">
<path d="M430.178 66.5888C380.844 66.5888 341.836 39.6128 303.975 13.402C266.442 -12.6175 227.762 -39.4022 179.084 -39.4022C130.406 -39.4022 91.7253 -12.6175 54.1923 13.402C34.0327 27.3683 13.2174 41.7173 -8.90902 51.8572L-9.72852 49.1787C12.234 39.0388 32.8854 24.8812 52.8811 10.9148C90.578 -15.2959 129.75 -42.272 179.084 -42.272C228.418 -42.272 267.426 -15.2959 305.286 10.9148C342.819 36.9343 381.5 63.719 430.178 63.719C478.856 63.719 517.7 36.9343 555.069 10.9148C592.766 -15.2959 631.938 -42.272 681.272 -42.272V-39.4022C632.594 -39.4022 593.75 -12.6175 556.38 13.402C518.52 39.6128 479.512 66.5888 430.178 66.5888Z" fill="#D4D4D4"/>
</g>
<mask id="mask24_709_172" style="mask-type:luminance" maskUnits="userSpaceOnUse" x="-2" y="-13" width="650" height="551">
<path d="M648 -13H-1.04199V538H648V-13Z" fill="white"/>
</mask>
<g mask="url(#mask24_709_172)">
<path d="M430.178 47.4572C380.844 47.4572 341.836 20.4812 303.975 -5.7296C283.816 -19.6959 263 -34.0449 240.874 -44.1848L241.694 -46.8633C263.984 -36.7233 284.799 -22.1831 305.123 -8.21675C342.656 17.8027 381.336 44.5874 430.014 44.5874C478.692 44.5874 517.536 17.8027 554.906 -8.21675C575.065 -22.1831 596.044 -36.7233 618.335 -46.8633L619.154 -44.1848C597.192 -34.0449 576.376 -19.6959 556.217 -5.7296C518.52 20.2898 479.512 47.4572 430.178 47.4572Z" fill="#D4D4D4"/>
</g>
<mask id="mask25_709_172" style="mask-type:luminance" maskUnits="userSpaceOnUse" x="-2" y="-13" width="650" height="551">
<path d="M648 -13H-1.04199V538H648V-13Z" fill="white"/>
</mask>
<g mask="url(#mask25_709_172)">
<path d="M-8.90902 32.7256L-9.72852 30.0471C12.234 19.9072 32.8854 5.74957 52.8811 -8.21675C73.0408 -22.1831 94.0199 -36.7234 116.31 -46.8633L117.13 -44.1848C95.0033 -34.0449 74.1881 -19.6959 54.1923 -5.7296C34.0327 8.0454 13.2174 22.5857 -8.90902 32.7256Z" fill="#D4D4D4"/>
</g>
<mask id="mask26_709_172" style="mask-type:luminance" maskUnits="userSpaceOnUse" x="-2" y="-13" width="650" height="551">
<path d="M648 -13H-1.04199V538H648V-13Z" fill="white"/>
</mask>
<g mask="url(#mask26_709_172)">
<path d="M430.178 28.1339C380.844 28.1339 341.836 1.1579 303.976 -25.0529C294.633 -31.5577 285.127 -38.0626 275.457 -44.1848L276.604 -46.672C286.274 -40.5497 295.944 -33.8536 305.287 -27.3487C342.656 -1.52057 381.5 25.2642 430.178 25.2642C478.856 25.2642 517.701 -1.52057 555.07 -27.54C564.412 -34.0449 574.082 -40.7411 583.752 -46.8633L584.899 -44.3761C575.229 -38.2539 565.723 -31.5577 556.381 -25.2442C518.52 1.1579 479.512 28.1339 430.178 28.1339Z" fill="#D4D4D4"/>
</g>
<mask id="mask27_709_172" style="mask-type:luminance" maskUnits="userSpaceOnUse" x="-2" y="-13" width="650" height="551">
<path d="M648 -13H-1.04199V538H648V-13Z" fill="white"/>
</mask>
<g mask="url(#mask27_709_172)">
<path d="M-8.90902 13.4023L-9.72852 10.7239C12.234 0.583942 32.8854 -13.5737 52.8811 -27.54C62.2234 -34.0449 71.8935 -40.7411 81.5635 -46.8633L82.7108 -44.3761C73.0407 -38.2539 63.5346 -31.5577 54.1923 -25.0529C34.0327 -11.0865 13.2174 3.26241 -8.90902 13.4023Z" fill="#D4D4D4"/>
</g>
<mask id="mask28_709_172" style="mask-type:luminance" maskUnits="userSpaceOnUse" x="-2" y="-13" width="650" height="551">
<path d="M648 -13H-1.04199V538H648V-13Z" fill="white"/>
</mask>
<g mask="url(#mask28_709_172)">
<path d="M430.177 8.81068C380.843 8.81068 341.835 -18.1654 303.975 -44.3761L305.286 -46.8633C342.819 -20.8438 381.499 5.94089 430.177 5.94089C478.855 5.94089 517.536 -20.8438 555.069 -46.8633L556.38 -44.3761C518.519 -18.1654 479.511 8.81068 430.177 8.81068Z" fill="#D4D4D4"/>
</g>
</g>
</g>
</svg>
