<svg width="271" height="516" viewBox="0 0 271 516" fill="none" xmlns="http://www.w3.org/2000/svg">
<g opacity="0.05" clip-path="url(#clip0_665_186)">
<path d="M98.9197 355.777C94.3738 343.691 96.3175 333.812 106.653 326.092C107.412 325.531 107.887 323.89 107.702 322.801C106.569 310.752 110.9 304.5 122.203 301.519C123.484 301.219 124.703 300.122 125.523 299.055C129.892 293.301 135.045 291.197 142.149 293.556C145.953 294.766 147.448 292.043 149.119 290.309C149.954 289.442 149.708 286.251 148.81 285.017C144.673 279.52 145.054 274.074 147.398 268.075C149.674 262.483 151.543 256.822 153.204 251.077C153.679 249.435 153.394 247.05 152.481 245.616C146.279 235.464 139.786 225.435 133.969 216.357C130.204 219.557 126.816 223.731 122.369 225.88C116.963 228.606 114.553 225.984 115.908 220.162C117.187 214.647 118.672 209.216 119.644 203.624C121.097 195.187 125.888 189.701 132.873 185.349C159.173 168.771 185.257 152.009 211.334 135.147C213.535 133.773 215.213 130.835 216.017 128.265C217.824 121.806 219.01 115.095 220.48 108.161C214.482 107.121 210.147 104.246 207.337 99.0476C205.818 96.2565 206.292 94.615 208.861 92.8115C214.949 88.5291 221.176 88.649 228.418 91.4988C226.706 88.8229 225.279 85.9244 223.184 83.4787C222.416 82.6354 220.2 82.506 218.819 82.8134C212.715 84.2888 206.649 86.2626 200.537 87.6382C198.466 88.0993 195.843 87.9011 193.872 87.0506C187.528 84.1314 181.36 80.8975 175.092 77.6714C172.799 76.545 170.666 74.9047 172.582 72.4495C173.402 71.3831 176.477 70.9445 178.027 71.5267C183.205 73.6336 188.13 76.3617 193.968 79.2199C194.158 76.4971 194.487 74.2651 194.517 72.0562C194.616 69.4408 194.599 66.6337 198.112 66.6628C202.123 66.6533 201.572 69.9055 201.573 72.5132C201.551 74.8218 201.322 77.0461 201.308 79.4543C205.657 79.9202 207.742 78.3547 207.917 74.1286C208.1 71.3061 208.374 68.3762 209.378 65.7911C210.044 64.0344 212.161 62.8677 213.556 61.4558C214.4 63.2962 215.851 65.1899 215.997 67.0843C216.121 69.9833 215.241 72.8598 214.69 76.112C218.985 75.88 222.037 75.1423 223.209 70.8391C223.66 68.8985 224.511 66.927 225.806 65.5229C226.91 64.2339 228.881 63.7805 230.522 62.9515C231.067 64.8149 232.011 66.6476 231.951 68.4576C231.798 70.3751 230.633 72.1703 229.668 73.9501C227.99 76.8883 228.175 79.2812 231.251 81.4503C235.491 79.2165 238.251 75.9941 239.062 70.9164C239.735 66.6518 240.807 62.3563 242.201 58.3367C242.699 56.9943 244.945 56.2187 246.372 55.2056C247.193 56.7469 249.027 58.4104 248.736 59.8371C247.611 66.0423 246.295 72.3627 244.142 78.2463C243.062 81.1382 239.911 83.1874 237.903 85.75C236.991 86.9239 235.649 89.0336 235.987 89.509C237.199 90.9197 239.041 92.6829 240.751 92.7511C246.688 92.9939 252.77 92.5233 258.683 92.4669C264.995 92.3797 268.984 94.6788 270.129 99.1037C271.527 104.211 269.052 109.819 264.053 112.613C260.104 114.724 256.032 116.543 251.485 118.7C253.23 126.99 254.675 135.304 256.811 143.463C259.969 155.756 260.995 167.713 253.276 179.443C258.117 181.075 262.619 182.231 266.869 184.008C269.147 184.935 271.579 186.552 272.938 188.554C278.256 196.367 283.391 204.394 288.135 212.553C289.178 214.378 289.195 217.185 288.659 219.332C288.062 221.986 286.66 224.602 285.242 227.019C284.353 228.492 282.812 230.617 281.7 230.503C280.089 230.427 278.256 228.763 277.243 227.337C272.477 220.183 267.986 212.708 263.22 205.554C262.2 204.028 260.082 202.587 258.249 202.227C252.749 201.149 247.097 200.683 240.723 199.973C241.43 202.626 241.914 204.996 242.59 207.25C245.263 215.87 248.127 224.374 250.501 233.017C252.291 239.298 257.278 242.823 261.866 246.38C264.329 248.396 267.634 248.341 270.97 246.077C282.218 238.487 293.903 231.364 305.366 223.957C296.664 215.203 296.271 210.118 303.07 200.765C303.698 199.814 303.866 198.096 303.467 196.823C301.492 189.453 303.4 184.291 309.48 179.909C310.814 179.003 311.887 177.315 312.369 175.774C315.05 166.339 323.077 161.204 333.026 162.741C334.652 163.017 336.523 162.571 337.964 161.757C344.413 158.249 349.767 158.738 355.536 163.306C356.603 164.126 358.367 164.893 359.648 164.593C370.308 162.364 375.762 165.452 379.334 176.61C387.561 171.46 395.589 166.325 403.716 161.183C410.31 156.962 416.912 152.84 423.398 148.527C426.266 146.7 428.115 147.259 430.033 150.02C447.11 174.977 459.731 201.983 465.841 231.701C473.943 271.594 471.468 310.903 458.094 349.349C438.983 404.387 404.335 446.586 352.232 473.185C307.176 496.229 259.144 502.854 209.494 493.757C147.533 482.404 101.2 447.474 67.0855 395.451C65.044 392.399 63.2939 389.225 61.1527 386.181C58.9041 383.045 59.348 381.004 62.691 378.84C74.0772 371.741 85.448 364.442 96.7191 357.15C97.3019 356.905 97.969 356.452 98.9197 355.777ZM258.414 279.545C261.206 280.633 263.469 281.361 265.656 282.395C270.642 284.617 275.981 286.21 280.522 289.168C294.462 298.22 297.03 311.963 287.764 325.719C282.015 334.388 282.311 343.392 288.665 351.626C292.786 356.924 297.083 361.907 301.013 367.32C304.489 372.066 309.038 373.821 314.759 373.88C330.812 373.941 342.343 381.675 349.268 395.983C350.826 399.273 351.181 403.859 350.461 407.526C349.459 412.718 347.13 417.613 345 422.492C342.77 427.378 337.939 429.758 332.655 428.863C324.125 427.517 320.633 421.268 318.842 413.683C318.105 410.631 316.869 408.921 313.563 408.976C298.83 409.113 287.323 402.983 278.49 391.229C272.68 383.555 263.545 380.851 254.442 383.762C250.823 384.945 247.334 386.519 243.852 388.192C236.905 391.739 233.357 397.73 232.647 405.408C232.281 409.749 231.907 413.991 231.541 418.332C230.968 423.893 229.467 429.124 225.266 433.16C216.12 441.992 202.245 440.257 193.796 429.577C191.463 426.649 188.9 423.336 185.57 421.789C171.731 415.337 157.089 412.759 141.911 413.632C139.917 413.787 137.257 415.698 136.291 417.477C132.628 424.581 133.398 431.944 136.953 438.99C139.325 443.722 142.786 448.268 143.877 453.299C146.083 463.66 153.164 468.327 161.955 471.759C162.162 471.844 162.262 471.836 162.369 471.928C205.075 491.09 249.461 495.68 295.145 485.927C358.981 472.261 406.356 436.4 437.944 379.293C441.822 372.373 444.158 366.274 436.778 360.326C436.248 359.966 435.995 359.283 435.649 358.708C431.934 352.175 431.528 352.107 425.755 356.565C425.095 357.118 424.436 357.67 423.769 358.123C418.939 361.807 413.946 362.093 409.481 358.827C405.123 355.654 403.793 350.14 405.961 344.456C407.302 341.042 408.85 337.713 409.784 334.231C411.177 328.907 409.182 326.454 404.204 324.332C400.683 322.899 397.391 320.546 394.583 317.955C391.667 315.272 389.679 311.614 386.948 308.716C374.072 295.27 377.179 279.683 396.535 274.475C401.55 273.184 406.235 270.214 410.513 267.175C414.316 264.473 416.078 260.024 414.596 255.124C413.236 250.515 409.753 248.277 405.066 247.336C399.053 246.096 394.664 242.524 391.724 236.934C387.733 229.42 387.545 221.811 390.126 213.688C390.769 211.632 389.679 207.905 388.06 206.426C385.581 204.21 380.833 201.168 379 202.112C370.32 206.595 362.246 212.435 353.743 217.907C356.191 219.724 358.285 220.866 359.912 222.445C366.073 228.187 364.276 239.961 356.331 240.976C348.385 241.992 343.133 245.408 338.565 251.177C338.473 251.285 338.281 251.4 338.189 251.507C327.915 258.721 318.005 257.683 306.711 247.825C291.23 257.749 275.75 267.672 260.17 277.604C259.794 277.934 259.434 278.463 258.414 279.545ZM136.654 457.168C137.03 456.838 137.405 456.508 137.873 456.07C135.624 451.631 133.474 447.183 131.133 442.851C126.105 433.611 125.679 424.216 129.64 414.482C131.831 409.096 135.726 406.288 141.54 406.239C145.351 406.245 149.24 405.944 152.991 406.456C170.923 408.78 189.369 409.96 201.211 426.897C204.373 431.467 209.865 432.446 215.256 430.825C220.547 429.212 223.46 425.376 224.14 419.908C224.744 414.746 225.048 409.607 225.66 404.545C226.614 394.842 231.028 387.078 239.792 382.388C243.258 380.515 246.947 378.926 250.75 377.528C263.211 372.653 276.228 376.259 284.271 386.87C291.769 396.922 301.596 402.079 314.22 401.905C320.333 401.833 323.885 404.968 325.652 410.95C326.597 414.086 327.848 417.299 329.943 419.745C333.036 423.417 337.576 422.464 339.545 418.099C340.901 414.885 342.556 411.648 342.992 408.204C343.419 404.66 343.686 400.327 342.151 397.336C336.486 386.341 327.026 380.754 314.594 380.813C306.97 380.801 300.665 378.38 295.968 372.124C292.829 367.853 289.407 363.805 286.069 359.55C274.043 344.132 273.503 335.849 283.55 319.224C288.079 311.652 286.871 302.518 279.652 297.36C274.979 294.01 269.594 291.819 264.378 289.214C261.562 287.827 258.119 287.391 255.763 285.467C252.671 283.099 250.593 283.46 247.442 285.509C203.108 314.014 158.66 342.328 114.22 370.741C101.315 378.961 88.5108 387.173 75.3228 395.616C91.9847 420.404 112.135 441.011 136.654 457.168ZM445.974 361.219C475.847 292.309 463.394 213.034 432.012 167.82C424.552 172.509 417.199 177.291 409.738 181.98C402.286 186.77 394.833 191.559 387.189 196.463C398.644 205.807 398.644 205.807 395.804 219.668C393.7 230.061 398.42 237.92 408.676 240.838C414.927 242.561 419.147 246.547 421.129 252.713C424.286 262.398 417.741 273.737 406.461 278.32C402.282 280.048 397.972 281.384 393.785 283.012C385.795 286.038 383.804 292.711 388.953 299.635C392.207 304.097 395.553 308.452 399.274 312.477C401.246 314.631 404.008 316.624 406.793 317.612C414.425 320.331 418.501 326.335 416.802 334.189C415.922 338.37 413.822 342.343 412.842 346.531C412.39 348.472 412.522 351.471 413.719 352.682C414.594 353.617 417.73 352.673 419.686 352.02C421.15 351.505 422.346 350.109 423.673 349.104C429.921 344.307 436.656 345.792 440.394 352.624C442.006 355.308 443.81 357.876 445.974 361.219ZM258.717 253.645C255.901 250.954 253.223 248.754 251.006 246.017C248.458 242.904 245.496 239.623 244.305 235.904C237.616 215.559 231.31 194.984 225.104 174.402C224.55 172.438 224.634 169.624 225.615 168.043C226.243 167.092 229.188 167.566 231.182 167.412C231.612 167.78 231.942 168.155 232.372 168.523C235.727 160.039 238.876 151.471 242.546 143.163C245.963 135.476 247.578 127.829 244.529 119.54C243.016 115.544 244.756 113.404 248.552 111.906C252.739 110.279 256.803 108.359 260.637 106.057C262.079 105.243 262.492 102.804 263.365 101.132C261.808 100.45 260.312 99.2615 258.809 99.2775C251.683 99.2271 244.489 99.5831 236.881 99.7706C237.788 103.712 236.386 106.328 232.367 106.238C228.754 106.217 227.597 108.112 226.939 111.272C225.5 118.605 223.962 125.945 222.017 133.217C221.481 135.365 219.971 137.889 218.055 139.04C199.914 150.875 181.65 162.418 163.393 174.061C153.74 180.224 143.987 186.395 134.441 192.65C128.139 196.749 124.223 205.778 126.435 211.023C127.653 208.621 128.365 206.159 130.036 204.425C131.424 202.913 133.839 201.724 135.841 201.669C136.738 201.6 137.967 204.513 138.696 206.162C140.523 210.334 141.684 214.958 143.994 218.891C148.853 227.241 154.087 235.262 159.521 243.266C161.447 246.126 161.54 248.626 160.368 251.626C157.802 258.645 155.343 265.755 153.084 272.851C152.517 274.6 152.779 276.686 152.726 278.596C153.347 278.848 153.861 279.009 154.483 279.262C156.43 277.206 158.799 275.418 160.424 273.085C164.915 266.319 168.977 259.184 173.468 252.417C178.059 245.643 177.857 239.139 173.329 232.469C171.073 229.233 168.709 225.906 166.928 222.332C166.337 221.175 167.387 219.188 167.762 217.554C169.395 217.929 171.29 217.782 172.563 218.687C174.052 219.775 174.912 221.815 175.932 223.341C182.849 220.699 187.15 216.655 187.131 208.633C187.09 202.919 190.547 198.339 195.309 195.062C197.877 193.258 200.66 191.639 203.229 189.835C204.18 189.16 204.785 187.909 205.513 186.95C206.617 185.661 207.821 184.365 209.024 183.068C210.229 184.379 212.116 185.436 212.638 187.001C215.242 194.723 216.871 202.821 219.958 210.306C221.939 215.167 225.071 220.642 229.19 223.332C235.42 227.364 238.046 232.777 240.342 239.119C243.16 247.025 250.7 249.852 256.846 254.09C257.084 254.573 257.751 254.121 258.717 253.645ZM428.528 161.67C426.731 156.594 424.767 155.843 420.565 158.576C406.833 167.762 392.863 176.466 379 185.262C324.622 220.06 270.237 254.759 215.76 289.566C171.987 317.526 128.205 345.386 84.432 373.347C78.9804 376.777 73.6439 380.4 67.9087 384.053C69.2748 386.154 70.4107 387.872 71.654 389.681C190.929 313.452 309.636 237.669 428.528 161.67ZM105.675 351.041C106.832 350.45 107.998 349.959 109.148 349.268C135.049 332.721 161.049 316.166 186.85 299.626C192.777 295.857 192.461 291.77 185.917 288.866C183.424 287.755 179.98 287.319 177.327 288.026C173.584 288.917 171.26 288.696 168.797 285.376C165.881 281.389 158.334 282.374 157.983 286.915C157.557 293.066 154.82 296.588 150.028 299.466C149.737 299.589 149.668 299.995 149.491 300.31C147.614 304.567 145.321 304.745 141.784 301.809C137.71 298.413 132.863 299.29 131.224 304.03C129.914 307.843 127.652 308.419 124.162 308.689C116.577 309.175 111.91 316.257 115.234 322.92C117.721 327.843 116.142 329.47 111.886 331.504C104.141 335.112 101.33 344.156 105.675 351.041ZM193.71 221.063C199.334 227.648 201.209 235.026 198.774 242.436C194.875 254.272 199.779 261.916 208.281 269.382C217.005 277.133 220.288 278.082 230.148 272.003C236.849 267.874 243.336 263.561 250.313 259.109C248.503 257.745 247.413 256.626 246.155 255.92C238.913 251.767 234.132 245.718 231.897 237.566C231.466 235.894 230.698 233.747 229.333 232.95C220.296 227.631 214.778 219.834 211.966 209.419C205.748 213.311 200.012 216.964 193.71 221.063ZM372.853 177.112C370.766 174.766 369.553 172.051 367.927 171.776C365.48 171.263 362.213 171.817 360.212 173.175C355.642 176.337 354.231 176.246 352.142 171.292C349.931 166.047 344.853 165.236 340.422 168.889C338.912 170.109 336.289 171.215 334.64 170.64C325.281 167.653 320.121 170.961 318.684 180.902C318.501 182.42 317.06 184.538 315.603 185.152C308.993 187.87 307.829 192.273 312.563 197.724C315.318 200.921 314.874 202.961 311.186 204.551C306.041 206.754 304.232 210.605 306.443 214.546C308.431 218.204 312.811 219.069 317.304 216.213C334.326 205.468 351.34 194.623 368.147 183.694C370.048 182.343 371.044 179.659 372.853 177.112ZM206.736 280.535C207.204 280.097 207.564 279.568 208.032 279.131C203.121 273.994 198.31 268.85 193.207 263.829C190.491 261.13 189.37 258.308 190.174 254.435C191.184 249.342 191.695 244.287 192.399 239.117C193.086 233.748 192.11 228.909 187.591 224.946C185.015 226.65 182.63 228.239 179.954 229.95C187.023 240.938 183.975 250.802 176.9 260.477C187.066 267.413 196.901 273.974 206.736 280.535ZM313.497 243.488C319.237 251.57 331.608 250.713 337.663 242.12C341.281 237.026 345.16 234.017 351.741 234.812C353.16 235.003 355.89 232.686 356.272 231.152C357.091 227.478 348.583 221.215 345.324 223.172C334.797 229.704 324.392 236.527 313.497 243.488ZM236.076 185.288C250.645 177.841 256.428 160.544 249.235 145.353C248.392 147.425 247.733 149.281 246.967 151.045C243.619 158.325 240.922 166.257 236.416 172.824C233.173 177.589 233.934 180.94 236.076 185.288ZM280.222 219.183C280.713 219.045 281.304 218.899 281.795 218.76C281.464 217.081 281.624 215.263 280.818 213.921C277.932 209.029 274.379 204.59 271.884 199.568C268.56 192.904 263.229 190.107 256.417 187.625C248.876 184.799 244.36 187.355 239.255 192.664C246.549 193.604 253.36 194.782 260.232 195.454C263.868 195.775 266.292 197.292 268.142 200.459C272.041 206.777 276.231 212.972 280.222 219.183ZM205.19 287.776C194.197 280.502 183.832 273.581 173.045 266.392C170.999 269.76 169.221 272.706 167.259 275.866C170.396 277.529 173.335 280.511 176.019 280.203C186.358 279.002 193.392 283.072 198.504 292.104C200.713 290.83 202.714 289.472 205.19 287.776ZM193.66 212.641C197.869 210.009 201.189 207.545 204.862 205.757C209.501 203.492 210.673 200.493 207.396 195.731C201.592 199.791 193.947 202.088 193.66 212.641ZM215.734 96.091C215.512 97.1112 215.29 98.1313 214.969 99.1592C218.129 99.8174 221.289 100.476 224.449 101.134C224.679 100.213 224.817 99.4002 225.046 98.4797C221.978 97.7142 218.81 96.9563 215.734 96.091Z" fill="#080807"/>
<path d="M65.6775 197.068C68.4893 190.632 74.1949 189.187 80.4993 189C83.9965 188.83 85.1401 190.647 84.8962 193.976C84.2855 200.342 83.7822 206.8 83.5703 213.135C83.1988 222.592 79.2522 229.919 71.8843 235.805C70.1822 237.14 68.9716 239.641 68.635 241.773C67.7478 247.158 67.5739 252.687 67.0931 258.141C66.7958 262.075 64.6641 263.043 61.327 261.395C53.8245 257.763 46.3296 254.231 38.9114 250.392C34.8378 248.3 34.8289 245.592 38.839 242.975C42.4657 240.588 46.1001 238.301 49.7344 236.014C51.268 235.093 52.9089 234.264 54.4501 233.442C53.7902 232.691 53.138 232.04 52.478 231.288C50.1695 231.266 47.8609 231.244 45.652 231.215C23.939 230.588 8.88171 209.687 15.0924 188.846C16.2794 184.742 18.3268 183.982 21.5416 186.642C23.8893 188.466 25.6929 191.035 28.1249 192.652C31.8304 195.173 35.8885 197.066 40.8214 199.894C40.8256 192.171 40.6618 186.165 41.012 180.321C41.1568 178.304 42.6055 176.286 43.4559 174.314C45.2357 175.28 47.5751 175.701 48.7876 177.111C54.397 183.498 59.8224 190.099 65.6775 197.068ZM60.3111 253.45C60.7075 248.204 61.25 243.548 61.3016 239.031C61.4304 235.51 62.4571 233.224 65.6239 231.374C71.1906 228.135 75.3377 223.401 75.8333 216.843C76.3289 210.286 75.8197 203.705 75.8091 197.086C75.272 196.626 74.7426 196.266 74.2055 195.806C73.4239 197.371 72.5426 198.944 71.8685 200.601C70.3207 203.93 68.7729 207.26 67.532 210.665C63.9622 220.269 63.6554 220.193 55.814 213.478C52.3767 210.534 48.3868 206.931 44.3216 206.243C35.7924 204.897 27.7385 203.213 20.7095 195.332C20.7493 198.438 20.5736 200.056 20.7967 201.644C22.4975 214.551 32.9555 223.972 45.9173 224.273C49.7369 224.379 53.5487 224.385 57.3759 224.59C60.3979 224.758 62.0168 226.237 61.167 229.513C59.6892 235.043 58.104 240.482 52.1842 243.046C50.4359 243.783 48.9332 245.103 46.6407 246.584C51.5349 248.913 55.6085 251.005 60.3111 253.45ZM49.6896 187.473C48.8154 187.841 48.0332 188.102 47.1591 188.471C47.8587 192.328 47.5234 197.068 49.6415 199.813C52.2046 203.125 56.9529 204.864 60.7505 207.278C61.1338 207.048 61.5095 206.718 61.8929 206.488C57.8864 200.078 53.788 193.775 49.6896 187.473Z" fill="#0C0A09"/>
<path d="M279.035 69.0268C276.358 69.4345 274.173 69.7039 271.895 70.0807C271.625 67.895 271.364 65.809 271.094 63.6232C271.017 62.6262 271.139 61.6138 271.062 60.6167C270.713 50.9148 273.971 47.6537 283.344 48.2324C284.362 44.5428 285.074 40.7767 286.406 37.2634C288.651 31.2724 286.225 25.8434 284.688 20.2452C284.12 18.0826 284.426 15.5515 284.348 13.2507C286.549 13.1806 288.911 12.5967 290.959 13.1403C310.396 18.0555 319.639 36.3971 312.253 55.0224C311.495 56.8864 310.936 58.7351 309.925 61.2205C315.462 61.4941 320.509 61.906 325.541 62.1185C331.577 62.3535 332.72 64.1707 330.429 69.5635C327.87 75.3783 325.304 81.0933 322.745 86.9081C320.339 92.1092 318.759 92.432 314.247 88.5685C312.744 87.2807 311.24 85.9929 309.728 84.6053C306.145 81.0712 302.554 78.7413 296.764 79.089C290.268 79.3911 285.588 75.9418 279.035 69.0268ZM294.154 22.0203C293.788 27.6654 294.358 33.7395 292.98 39.2622C289.803 51.3434 290.256 53.3143 301.763 58.141C302.07 58.2175 302.376 58.2941 302.683 58.3706C312.479 44.975 307.685 25.7877 294.154 22.0203ZM322.269 69.0917C320.758 69.008 319.339 68.8169 317.928 68.7255C310.68 68.3836 303.439 68.1414 296.979 63.7266C292.637 60.7528 287.659 58.6305 282.956 56.186C280.762 55.0519 278.599 54.3166 278.109 57.0625C280.419 59.6922 282.468 61.5396 283.941 63.7325C287.218 68.4939 291.561 72.7716 297.313 71.9253C304.652 70.8559 309.21 74.0138 313.683 78.6826C314.665 79.7099 315.923 80.4149 317.404 81.4036C319.113 77.5604 320.568 74.3385 322.108 70.9095C322.277 70.4952 322.238 69.9967 322.269 69.0917Z" fill="#0C0A08"/>
<path d="M258.414 279.545C259.434 278.463 259.794 277.934 260.27 277.596C275.85 267.665 291.323 257.641 306.811 247.817C318.097 257.576 328.015 258.714 338.289 251.5C338.381 251.392 338.573 251.277 338.665 251.17C343.233 245.4 348.485 241.985 356.431 240.969C364.376 239.953 366.073 228.187 360.012 222.437C358.285 220.866 356.291 219.716 353.843 217.9C362.346 212.427 370.328 206.695 379.1 202.104C380.932 201.16 385.681 204.203 388.16 206.418C389.779 207.898 390.869 211.625 390.226 213.68C387.745 221.796 387.825 229.312 391.824 236.926C394.756 242.417 399.045 245.996 405.166 247.328C409.753 248.277 413.236 250.515 414.696 255.116C416.178 260.016 414.408 264.366 410.613 267.167C406.434 270.198 401.65 273.176 396.635 274.467C377.279 279.676 374.172 295.262 387.048 308.709C389.779 311.607 391.767 315.264 394.683 317.947C397.491 320.538 400.882 322.884 404.304 324.324C409.282 326.446 411.277 328.9 409.884 334.223C408.95 337.706 407.41 341.135 406.061 344.449C403.886 350.033 405.215 355.547 409.581 358.82C413.938 361.993 419.039 361.799 423.869 358.115C424.528 357.563 425.187 357.01 425.854 356.558C431.628 352.099 432.034 352.168 435.749 358.701C436.095 359.276 436.348 359.958 436.877 360.318C444.258 366.267 441.914 372.266 438.044 379.285C406.555 436.384 359.081 472.254 295.245 485.919C249.561 495.672 205.175 491.083 162.469 471.92C162.362 471.828 162.155 471.744 162.055 471.752C153.264 468.32 146.183 463.652 143.977 453.291C142.886 448.261 139.425 443.714 137.053 438.983C133.498 431.936 132.728 424.574 136.391 417.47C137.357 415.69 140.017 413.779 142.011 413.625C157.189 412.751 171.931 415.322 185.67 421.781C188.9 423.337 191.563 426.641 193.896 429.57C202.353 440.349 216.22 441.985 225.366 433.153C229.567 429.117 231.168 423.877 231.641 418.324C232.007 413.983 232.381 409.742 232.747 405.401C233.457 397.723 237.005 391.731 243.952 388.185C247.326 386.419 250.915 384.838 254.542 383.755C263.744 380.836 272.78 383.547 278.59 391.222C287.423 402.975 298.93 409.106 313.663 408.969C316.969 408.914 318.205 410.623 318.942 413.676C320.633 421.268 324.225 427.509 332.754 428.855C338.039 429.75 342.87 427.371 345.1 422.484C347.337 417.697 349.559 412.711 350.561 407.518C351.281 403.852 350.926 399.265 349.367 395.976C342.543 381.66 331.012 373.926 314.859 373.872C309.138 373.813 304.589 372.059 301.112 367.313C297.183 361.9 292.878 356.817 288.765 351.619C282.311 343.392 282.016 334.388 287.864 325.711C297.13 311.955 294.562 298.212 280.622 289.161C276.081 286.202 270.742 284.609 265.756 282.387C263.47 281.361 261.207 280.633 258.414 279.545ZM372.918 321.838C372.379 316.163 368.634 311.839 362.682 311.396C359.354 311.153 357.336 309.704 355.341 307.251C350.023 300.741 342.306 299.533 334.654 303.034C332.33 304.116 329.554 304.532 327.031 304.326C321.194 304.075 317.321 305.879 315.283 310.651C313.437 315.307 314.552 320.637 318.794 323.619C323.459 326.868 328.208 329.911 333.309 332.325C340.39 335.689 341.027 336.141 340.862 344.378C340.643 353.221 349.06 359.591 357.579 356.926C363.553 355.059 368.061 351.1 369.508 345.171C371.238 337.715 371.948 330.037 373.064 322.428C372.941 322.137 372.926 321.938 372.918 321.838Z" fill="#4390B7"/>
<path d="M136.655 457.168C112.135 441.011 91.9853 420.404 75.3311 395.715C88.4194 387.281 101.324 379.061 114.228 370.841C158.669 342.427 203.117 314.114 247.45 285.609C250.509 283.667 252.679 283.198 255.771 285.567C258.219 287.384 261.571 287.927 264.386 289.314C269.595 291.819 274.988 294.11 279.66 297.46C286.879 302.618 288.088 311.752 283.558 319.324C273.503 335.849 274.044 344.132 286.077 359.65C289.308 363.813 292.838 367.953 295.976 372.224C300.681 378.58 306.986 381 314.602 380.913C327.035 380.853 336.494 386.44 342.159 397.436C343.694 400.426 343.428 404.76 343 408.304C342.556 411.648 340.909 414.985 339.553 418.199C337.592 422.664 333.151 423.609 329.951 419.845C327.956 417.391 326.704 414.178 325.66 411.049C323.794 405.076 320.341 401.933 314.228 402.004C301.604 402.179 291.777 397.022 284.279 386.97C276.336 376.351 263.219 372.752 250.759 377.628C247.055 379.018 243.366 380.607 239.801 382.488C231.036 387.178 226.622 394.942 225.668 404.644C225.164 409.798 224.76 414.945 224.149 420.007C223.568 425.468 220.556 429.312 215.264 430.925C209.873 432.546 204.381 431.567 201.219 426.997C189.27 409.968 170.924 408.78 152.999 406.556C149.248 406.044 145.36 406.345 141.548 406.339C135.727 406.288 131.839 409.196 129.648 414.581C125.688 424.316 126.114 433.711 131.141 442.951C133.483 447.283 135.632 451.73 137.881 456.17C137.506 456.5 137.03 456.838 136.655 457.168Z" fill="#B7C558"/>
<path d="M258.717 253.645C257.751 254.121 257.084 254.573 256.877 254.489C250.724 250.151 243.191 247.424 240.372 239.518C238.084 233.276 235.451 227.762 229.221 223.731C225.002 221.048 221.97 215.566 219.989 210.704C216.902 203.22 215.273 195.122 212.669 187.4C212.147 185.835 210.26 184.778 209.055 183.467C207.851 184.763 206.748 186.052 205.544 187.349C204.716 188.316 204.203 189.459 203.26 190.234C200.699 192.137 198.008 193.649 195.339 195.461C190.578 198.738 187.121 203.318 187.162 209.032C187.181 217.054 182.972 220.991 175.963 223.74C174.942 222.214 174.09 220.274 172.594 219.086C171.42 218.173 169.426 218.328 167.792 217.953C167.517 219.579 166.368 221.573 166.959 222.731C168.74 226.304 171.096 229.532 173.36 232.868C177.987 239.53 178.09 246.042 173.499 252.816C169.008 259.583 164.946 266.718 160.455 273.484C158.929 275.809 156.56 277.597 154.513 279.661C153.892 279.408 153.378 279.247 152.757 278.995C152.909 277.077 152.548 274.999 153.115 273.25C155.374 266.154 157.833 259.043 160.399 252.025C161.563 248.926 161.47 246.425 159.551 243.665C154.217 235.653 148.876 227.541 144.025 219.29C141.714 215.357 140.554 210.732 138.727 206.561C137.998 204.912 136.769 201.998 135.872 202.068C133.87 202.122 131.455 203.312 130.067 204.824C128.496 206.55 127.684 209.02 126.465 211.421C124.155 206.184 128.169 197.147 134.472 193.049C144.118 186.786 153.771 180.623 163.424 174.46C181.68 162.817 199.944 151.274 218.085 139.439C219.903 138.295 221.412 135.771 222.048 133.616C223.993 126.344 225.531 119.004 226.97 111.671C227.628 108.511 228.777 106.516 232.398 106.637C236.516 106.719 237.819 104.111 236.912 100.169C244.52 99.9819 251.714 99.6259 258.839 99.6764C260.343 99.6604 261.846 100.948 263.396 101.53C262.522 103.203 262.002 105.55 260.668 106.456C256.834 108.758 252.77 110.677 248.583 112.305C244.787 113.803 243.047 115.943 244.56 119.938C247.601 128.128 245.986 135.776 242.576 143.562C238.906 151.87 235.758 160.438 232.403 168.922C231.973 168.554 231.643 168.179 231.213 167.811C229.319 167.957 226.266 167.391 225.645 168.442C224.672 170.122 224.482 172.845 225.134 174.8C231.341 195.383 237.639 215.858 244.336 236.302C245.527 240.022 248.489 243.303 251.036 246.416C253.223 248.754 255.901 250.954 258.717 253.645Z" fill="#EB9D4E"/>
<path d="M428.528 161.67C309.637 237.669 190.929 313.452 71.6546 389.681C70.511 387.864 69.3751 386.146 67.9093 384.053C73.6368 380.3 78.981 376.777 84.4326 373.346C128.206 345.386 171.987 317.526 215.761 289.565C270.146 254.867 324.523 220.068 379.001 185.261C392.856 176.366 406.826 167.662 420.566 158.575C424.76 155.743 426.731 156.594 428.528 161.67Z" fill="#784D1F"/>
<path d="M105.675 351.041C101.331 344.156 104.141 335.112 111.97 331.297C116.226 329.262 117.805 327.636 115.318 322.713C111.994 316.049 116.562 308.976 124.247 308.482C127.744 308.311 129.907 307.743 131.309 303.823C132.948 299.082 137.795 298.206 141.869 301.602C145.306 304.545 147.699 304.36 149.576 300.103C149.752 299.788 149.821 299.382 150.113 299.259C154.905 296.381 157.542 292.867 158.068 286.708C158.419 282.167 165.873 281.289 168.882 285.169C171.345 288.489 173.769 288.702 177.411 287.819C180.072 287.212 183.509 287.548 186.002 288.659C192.553 291.662 192.862 295.65 186.935 299.419C161.042 316.066 135.141 332.613 109.233 349.061C107.998 349.959 106.733 350.458 105.675 351.041Z" fill="#64873B"/>
<path d="M206.737 280.535C196.902 273.974 187.066 267.413 176.809 260.584C183.784 250.917 186.932 241.045 179.863 230.058C182.539 228.346 185.023 226.75 187.5 225.054C192.119 229.009 193.095 233.848 192.307 239.225C191.596 244.295 191.092 249.449 190.082 254.542C189.378 258.408 190.4 261.238 193.116 263.936C198.119 268.965 203.03 274.102 207.941 279.238C207.565 279.568 207.097 280.006 206.737 280.535Z" fill="#CA7B30"/>
<path d="M236.077 185.287C233.942 181.039 233.174 177.588 236.416 172.824C240.923 166.257 243.519 158.333 246.967 151.045C247.734 149.281 248.392 147.424 249.235 145.353C256.428 160.544 250.646 177.841 236.077 185.287Z" fill="#CA7B30"/>
<path d="M280.222 219.183C276.231 212.972 272.041 206.777 268.234 200.351C266.384 197.185 263.96 195.667 260.324 195.347C253.452 194.675 246.649 193.597 239.347 192.557C244.452 187.247 248.968 184.691 256.509 187.518C263.221 190.007 268.56 192.904 271.976 199.46C274.471 204.483 278.132 209.014 280.91 213.814C281.716 215.156 281.564 217.073 281.887 218.653C281.304 218.898 280.713 219.044 280.222 219.183Z" fill="#C5772F"/>
<path d="M193.66 212.641C193.847 202.095 201.593 199.791 207.397 195.731C210.574 200.5 209.494 203.392 204.863 205.756C201.289 207.537 197.969 210.001 193.66 212.641Z" fill="#C6782F"/>
<path d="M215.734 96.0908C218.81 96.9561 221.978 97.714 225.054 98.5793C224.824 99.4997 224.687 100.313 224.457 101.233C221.297 100.575 218.137 99.9169 214.976 99.2587C215.29 98.1311 215.512 97.111 215.734 96.0908Z" fill="#C48241"/>
<path d="M60.3111 253.45C55.6085 251.006 51.5427 249.013 46.5332 246.492C48.8258 245.011 50.3285 243.691 52.0768 242.954C58.0963 240.382 59.5818 234.951 61.0595 229.421C61.9094 226.146 60.2904 224.666 57.2685 224.499C53.4413 224.293 49.6295 224.287 45.8099 224.182C32.8404 223.781 22.3824 214.36 20.6816 201.453C20.4585 199.865 20.6419 198.346 20.5944 195.14C27.6233 203.022 35.6772 204.705 44.2065 206.051C48.3714 206.732 52.2615 210.343 55.6989 213.286C63.548 220.101 63.8471 220.078 67.4168 210.474C68.6578 207.068 70.3053 203.731 71.7533 200.41C72.4275 198.753 73.3088 197.18 74.0904 195.615C74.6275 196.075 75.1569 196.435 75.694 196.895C75.8043 203.506 76.3135 210.087 75.7182 216.652C75.2226 223.21 70.9757 227.952 65.5087 231.183C62.342 233.033 61.2233 235.426 61.1865 238.839C61.25 243.548 60.6998 248.104 60.3111 253.45Z" fill="#E5994C"/>
<path d="M49.6889 187.473C53.7874 193.775 57.8935 200.178 61.8922 206.488C61.5089 206.718 61.1332 207.048 60.7498 207.278C56.9522 204.864 52.2039 203.125 49.6408 199.813C47.5227 197.068 47.9578 192.321 47.1584 188.471C48.0326 188.102 48.807 187.742 49.6889 187.473Z" fill="#C0752E"/>
</g>
<defs>
<clipPath id="clip0_665_186">
<rect width="450.2" height="481.3" fill="white" transform="translate(0.795898 35.1909) rotate(-4.42448)"/>
</clipPath>
</defs>
</svg>
