<svg width="820" height="155" viewBox="0 0 820 155" fill="none" xmlns="http://www.w3.org/2000/svg">
<path d="M35.2 121.4H95.9V151.1H1V3.1001H94.9V32.8001H35.2V60.7001H84.7V90.4001H35.2V121.4Z" stroke="url(#paint0_linear_1030_398)" stroke-width="2"/>
<path d="M122.4 135.1C110.6 123.1 104.8 103.9 104.8 77.5001C104.8 51.8001 110.9 32.7001 123.3 20.1001C135.6 7.5001 153.2 1.1001 176.1 1.1001C185.8 1.1001 195 2.20009 203.5 4.30009V33.5001C195.2 31.5001 187 30.5001 179.1 30.5001C170.5 30.5001 163.4 32.0001 157.9 35.0001C152.4 38.0001 148.2 42.9001 145.4 49.7001C142.6 56.5001 141.2 65.7001 141.2 77.2001C141.2 89.0001 142.6 98.3001 145.3 105.1C148 111.9 152.1 116.7 157.6 119.5C163.1 122.3 170.2 123.8 179 123.8C185.8 123.8 194 122.2 203.5 119.1V148.3C199.7 149.8 195.1 151 189.8 151.9C184.5 152.8 179.2 153.2 174 153.2C151.3 153.1 134.1 147.1 122.4 135.1Z" stroke="url(#paint1_linear_1030_398)" stroke-width="2"/>
<path d="M238.9 145.1C229.6 139.8 222.4 131.5 217.3 120.2C212.2 108.9 209.6 94.5 209.6 77C209.6 59.5 212.2 45.1 217.3 33.9C222.4 22.6 229.6 14.3 238.9 9C248.2 3.7 259.1 1 271.8 1C284.5 1 295.4 3.6 304.7 9C314 14.3 321.2 22.6 326.3 33.9C331.4 45.2 334 59.6 334 77C334 94.5 331.4 108.8 326.3 120.2C321.2 131.5 314 139.8 304.7 145.1C295.4 150.4 284.5 153.1 271.8 153.1C259.1 153.1 248.2 150.4 238.9 145.1ZM286.3 119.8C290.2 116.8 293.1 111.9 295.1 105.1C297.1 98.3 298.2 89.2 298.2 77.8C298.2 66 297.2 56.6 295.1 49.6C293.1 42.6 290.1 37.6 286.3 34.6C282.4 31.6 277.6 30 271.8 30C266 30 261.2 31.5 257.3 34.5C253.4 37.5 250.5 42.4 248.4 49.2C246.4 56 245.3 65.1 245.3 76.5C245.3 88.3 246.3 97.7 248.4 104.7C250.4 111.7 253.4 116.7 257.3 119.7C261.2 122.7 266 124.2 271.8 124.2C277.6 124.2 282.4 122.7 286.3 119.8Z" stroke="url(#paint2_linear_1030_398)" stroke-width="2"/>
<path d="M384.5 120.4H441.4V151.1H339.5V131.6L395.5 33.8001H340.5V3.1001H440.4V22.6001L384.5 120.4Z" stroke="url(#paint3_linear_1030_398)" stroke-width="2"/>
<path d="M476.3 145.1C467 139.8 459.8 131.5 454.7 120.2C449.6 108.9 447 94.5 447 77C447 59.5 449.6 45.1 454.7 33.9C459.8 22.6 467 14.3 476.3 9C485.6 3.7 496.5 1 509.2 1C521.9 1 532.8 3.6 542.1 9C551.4 14.3 558.6 22.6 563.7 33.9C568.8 45.2 571.4 59.6 571.4 77C571.4 94.5 568.8 108.8 563.7 120.2C558.6 131.5 551.4 139.8 542.1 145.1C532.8 150.4 521.9 153.1 509.2 153.1C496.5 153.1 485.6 150.4 476.3 145.1ZM523.7 119.8C527.6 116.8 530.5 111.9 532.5 105.1C534.5 98.3 535.5 89.2 535.5 77.8C535.5 66 534.5 56.6 532.5 49.6C530.5 42.6 527.5 37.6 523.7 34.6C519.8 31.6 515 30 509.2 30C503.4 30 498.6 31.5 494.7 34.5C490.8 37.5 487.9 42.4 485.8 49.2C483.8 56 482.8 65.1 482.8 76.5C482.8 88.3 483.8 97.7 485.8 104.7C487.8 111.7 490.8 116.7 494.7 119.7C498.6 122.7 503.4 124.2 509.2 124.2C515 124.2 519.8 122.7 523.7 119.8Z" stroke="url(#paint4_linear_1030_398)" stroke-width="2"/>
<path d="M671.3 3.1001H703.7V151.1H669.1L619.7 61.1001V151.1H587.3V3.1001H621.9L671.3 93.1001V3.1001Z" stroke="url(#paint5_linear_1030_398)" stroke-width="2"/>
<path d="M757.7 121.4H818.4V151.1H723.5V3.1001H817.4V32.8001H757.7V60.7001H807.2V90.4001H757.7V121.4Z" stroke="url(#paint6_linear_1030_398)" stroke-width="2"/>
<defs>
<linearGradient id="paint0_linear_1030_398" x1="48.4499" y1="152.1" x2="48.4499" y2="2.1001" gradientUnits="userSpaceOnUse">
<stop stop-color="#4BAF47" stop-opacity="0.1"/>
<stop offset="0.9944" stop-color="#4BAF47"/>
<stop offset="1" stop-color="#4BAF47"/>
</linearGradient>
<linearGradient id="paint1_linear_1030_398" x1="154.002" y1="154.1" x2="154.002" y2="0.100097" gradientUnits="userSpaceOnUse">
<stop stop-color="#4BAF47" stop-opacity="0.1"/>
<stop offset="0.9944" stop-color="#4BAF47"/>
<stop offset="1" stop-color="#4BAF47"/>
</linearGradient>
<linearGradient id="paint2_linear_1030_398" x1="271.8" y1="154.1" x2="271.8" y2="0.0999969" gradientUnits="userSpaceOnUse">
<stop stop-color="#4BAF47" stop-opacity="0.1"/>
<stop offset="0.9944" stop-color="#4BAF47"/>
<stop offset="1" stop-color="#4BAF47"/>
</linearGradient>
<linearGradient id="paint3_linear_1030_398" x1="390.451" y1="152.1" x2="390.451" y2="2.1001" gradientUnits="userSpaceOnUse">
<stop stop-color="#4BAF47" stop-opacity="0.1"/>
<stop offset="0.9944" stop-color="#4BAF47"/>
<stop offset="1" stop-color="#4BAF47"/>
</linearGradient>
<linearGradient id="paint4_linear_1030_398" x1="509.202" y1="154.1" x2="509.202" y2="0.0999969" gradientUnits="userSpaceOnUse">
<stop stop-color="#4BAF47" stop-opacity="0.1"/>
<stop offset="0.9944" stop-color="#4BAF47"/>
<stop offset="1" stop-color="#4BAF47"/>
</linearGradient>
<linearGradient id="paint5_linear_1030_398" x1="645.501" y1="152.1" x2="645.501" y2="2.1001" gradientUnits="userSpaceOnUse">
<stop stop-color="#4BAF47" stop-opacity="0.1"/>
<stop offset="0.9944" stop-color="#4BAF47"/>
<stop offset="1" stop-color="#4BAF47"/>
</linearGradient>
<linearGradient id="paint6_linear_1030_398" x1="770.951" y1="152.1" x2="770.951" y2="2.1001" gradientUnits="userSpaceOnUse">
<stop stop-color="#4BAF47" stop-opacity="0.1"/>
<stop offset="0.9944" stop-color="#4BAF47"/>
<stop offset="1" stop-color="#4BAF47"/>
</linearGradient>
</defs>
</svg>
