<svg width="84" height="84" viewBox="0 0 84 84" fill="none" xmlns="http://www.w3.org/2000/svg">
<g clip-path="url(#clip0_834_300)">
<path d="M16.8971 59.5112C18.9637 58.2159 20.9087 56.9939 22.9266 55.723C21.1032 51.1039 18.3802 46.9247 13.7851 44.3096C12.9098 43.7963 11.913 43.4542 10.9162 43.1854C6.34544 41.9878 3.20912 38.0774 3.3793 33.5316C3.40362 32.554 3.81693 31.5764 4.01143 30.5988C4.08437 30.2322 4.10868 29.7678 3.93849 29.4501C0.631981 23.7067 2.30955 17.0102 7.9987 13.5642C8.48495 13.2709 8.48495 12.9532 8.48495 12.5133C8.5822 5.57232 14.1255 -0.0244212 21.0789 1.87042e-05C26.0143 0.0244586 29.7341 2.29737 32.1897 6.5988C32.4572 7.06315 32.676 7.30755 33.2838 7.33199C39.4592 7.52751 44.2731 12.5133 44.2001 18.7454C44.2001 19.6008 44.4676 20.1141 45.0511 20.7739C45.9263 21.776 46.7043 21.8493 47.92 21.4827C50.7402 20.6273 53.6577 20.4807 56.5752 20.8473C56.8184 20.8717 57.0615 20.8473 57.2803 20.8473C57.7423 18.9898 57.7909 18.9165 59.6629 18.7454C62.1671 18.501 64.647 18.5499 67.0297 19.4786C69.2664 20.3585 70.9926 21.8249 72.2569 23.8534C72.4271 24.0978 72.5972 24.3666 72.7431 24.611C72.7674 24.6355 72.7917 24.6355 73.0106 24.8554C73.2537 24.5133 73.4482 24.1222 73.7642 23.8289C76.2198 21.5071 79.1616 20.6273 82.4682 21.0183C83.465 21.1405 84.0242 21.7515 83.9512 22.5336C83.8783 23.3646 83.1489 23.8534 82.1278 23.7312C79.3075 23.389 76.9492 24.2933 75.0285 26.3951C75.1014 26.4685 75.1258 26.5418 75.1501 26.5662C80.0612 28.9124 81.6902 33.165 81.836 38.2485C81.836 38.4196 81.836 38.6151 81.836 38.7862C81.8603 40.5703 81.7145 40.7414 80.0126 41.3279C80.9365 44.9695 81.1553 48.6355 80.3286 52.3503C79.502 56.0896 77.6543 59.2668 74.9799 62.1018C75.2716 62.2485 75.4904 62.3707 75.7093 62.4929C77.2896 63.275 78.8456 64.0815 80.4259 64.8636C80.6204 64.9613 80.7906 65.0835 80.9608 65.2057C84.0728 67.3075 84.17 70.7536 80.9608 72.7088C78.5295 74.1752 75.9038 75.3727 73.2537 76.3992C64.4768 79.8208 55.3839 82.0937 46.0479 83.3157C39.8725 84.1222 33.6971 84.3911 27.546 83.2179C23.3399 82.4114 21.3706 81.4827 17.432 78.501C16.1191 79.6253 14.8792 80.6762 13.6149 81.7271C13.1773 82.0937 12.691 82.4359 12.2048 82.7291C9.89508 84.1467 7.65832 84.0978 5.83488 82.6803C3.91418 81.1894 3.23343 78.8676 3.96281 76.3503C4.13299 75.7393 4.37612 75.1528 4.59493 74.5662C-1.50753 72.0489 -1.72634 65.9878 4.522 63.2994C4.25456 62.3707 3.88987 61.442 3.74399 60.4888C3.40362 58.4359 4.01143 56.6517 5.64037 55.332C7.26932 54.0122 9.14139 53.719 11.1107 54.5255C13.2745 55.4053 14.7819 57.0917 16.2407 58.8269C16.581 59.1202 16.8242 59.4135 16.8971 59.5112ZM41.5258 18.721C41.4771 13.8086 37.2711 9.84931 32.4085 10.1915C31.047 10.2892 30.8282 10.1426 30.2933 8.87171C28.397 4.30144 23.5831 1.90633 18.7935 3.12833C14.1012 4.32588 11.0135 8.74951 11.4511 13.6619C11.5483 14.8595 11.3295 15.2505 10.2598 15.7149C4.98393 17.9878 3.40362 24.2689 6.97757 28.7169C7.56107 29.4501 7.58538 30.11 7.12344 30.8921C6.856 31.332 6.61288 31.7964 6.467 32.2851C5.44587 35.5601 7.75557 39.275 11.3538 40.277C12.3506 40.5458 13.3718 40.8147 14.2713 41.3035C18.8178 43.6741 22.1486 47.2424 24.3368 51.9104C24.7501 52.7902 25.1634 53.6701 25.6739 54.501C25.8198 54.721 26.2575 54.9654 26.5006 54.9165C29.6369 54.2078 32.7975 53.9634 36.0068 53.9634C36.6876 53.9634 36.9307 53.6945 36.9064 53.0591C36.9064 51.4949 36.9064 49.9552 36.9064 48.3911C36.8821 42.1589 38.4867 36.6355 43.1547 32.1874C46.4369 29.0591 45.586 23.609 42.0363 22.0448C41.3313 21.7271 41.234 21.0428 41.3313 20.3096C41.3799 19.7964 41.4528 19.2587 41.5258 18.721ZM29.0534 80.554C29.3695 80.6273 29.5883 80.6762 29.8314 80.7006C34.0375 81.2383 38.2679 81.0672 42.4739 80.7495C43.0331 80.7006 43.0575 80.3585 43.0575 79.943C43.0575 77.9634 43.0331 75.9837 43.0575 73.9797C43.0575 73.1243 43.641 72.5621 44.3946 72.5377C45.1726 72.5133 45.7805 73.1243 45.8291 74.0041C45.8534 74.7862 45.8291 75.5927 45.8291 76.3748C45.8291 77.6945 45.8291 79.0387 45.8291 80.4318C47.5067 80.1629 49.0383 79.9674 50.5457 79.6741C59.1767 78.11 67.5889 75.8371 75.6606 72.3422C77.0464 71.7312 78.3836 70.998 79.6722 70.1915C80.8635 69.4338 80.8392 68.554 79.6965 67.7475C78.9671 67.2098 78.1648 66.7454 77.3382 66.3544C71.333 63.446 64.9631 61.5397 58.4959 59.9267C57.4019 59.6579 56.2835 59.4135 55.0679 59.1446C55.0679 59.609 55.0679 59.9511 55.0679 60.2689C55.0679 62.8106 55.0922 65.3279 55.0679 67.8697C55.0679 68.8228 54.4357 69.4583 53.6334 69.4338C52.8797 69.4094 52.3205 68.7984 52.2476 67.8941C52.2233 67.6497 52.2476 67.4053 52.2476 67.1609C52.2476 64.5458 52.2233 61.9063 52.2476 59.2913C52.2476 58.7291 52.1017 58.4847 51.4939 58.4114C48.0902 57.9715 44.7107 57.4338 41.3069 57.0183C39.7509 56.8228 38.1949 56.8228 36.6632 56.7495C36.5903 56.9695 36.566 57.0183 36.566 57.0672C36.566 58.998 36.5417 60.9043 36.5417 62.835C36.5417 64.277 36.104 64.9858 35.1559 65.0102C34.2077 65.0102 33.7457 64.3014 33.7457 62.8839C33.7457 60.8799 33.7457 58.8758 33.7457 56.7739C30.1961 56.9206 26.8166 57.3605 23.6074 58.6803C18.7935 60.6599 16.5324 64.1304 16.654 69.4094C16.7755 74.7129 20.8114 79.1365 26.2331 79.8452C26.2331 78.501 26.2331 77.1568 26.2331 75.8371C26.2331 74.7617 26.2088 73.6864 26.2575 72.6355C26.3061 71.8289 26.7437 71.3401 27.5703 71.2668C28.2997 71.2179 28.8832 71.7312 29.0048 72.5133C29.0534 72.831 29.0291 73.1731 29.0291 73.5153C29.0534 75.8615 29.0534 78.2078 29.0534 80.554ZM72.9376 39.2994C72.889 39.3972 72.7674 39.5438 72.6945 39.6904C71.6491 41.5234 70.166 42.9654 68.3669 44.0407C67.2242 44.7251 66.7136 44.6517 65.9113 43.5275C65.4737 42.9165 64.9874 42.2811 64.7443 41.5723C64.1851 40.057 63.7718 38.4684 63.2855 36.8554C59.8088 36.5866 58.6418 36.3177 56.6482 35.1935C55.6271 34.6069 55.3353 33.9471 55.8945 32.9206C56.5023 31.7719 57.1831 30.6477 57.9854 29.6212C58.6175 28.8147 59.4441 28.2037 60.1006 27.5927C59.4198 26.444 58.7877 25.3198 58.1069 24.1955C57.9854 23.9756 57.6693 23.7556 57.4262 23.7312C55.5784 23.609 53.7307 23.389 51.9072 23.4623C50.4485 23.5357 49.014 23.9511 47.5553 24.2444C48.6007 28.3748 47.6282 31.7475 44.6864 34.4603C43.0331 36 41.9391 37.8086 41.0638 39.8615C39.1431 44.3585 39.8482 49.0998 39.6537 53.8167C40.7478 53.89 41.7932 53.9634 42.8629 54.0611C52.5637 55.0387 61.997 57.2872 71.1871 60.5621C71.8436 60.7821 72.2569 60.7577 72.7917 60.2689C78.1648 55.2587 79.2103 47.8289 77.1437 41.4746C77.0708 41.2546 76.7547 41.0346 76.5116 40.9124C75.3689 40.3992 74.2019 39.886 72.9376 39.2994ZM9.48176 80.9939C9.79783 80.8473 10.5515 80.7006 11.0135 80.2607C12.3993 78.9654 13.7122 77.5479 15.025 76.1548C15.1709 76.0082 15.1952 75.6171 15.098 75.4216C13.2259 71.1935 13.2259 66.9654 15.0737 62.7373C15.1466 62.5418 15.1952 62.224 15.098 62.0774C13.7122 60.22 12.3263 58.3381 10.1382 57.3361C8.1932 56.4562 6.2725 57.8249 6.58857 59.9267C6.75875 61.0265 7.29363 62.1263 7.82851 63.1283C8.55789 64.497 8.31476 65.2057 6.83169 65.7678C5.76194 66.1589 4.69218 66.6477 3.7683 67.3075C2.38249 68.334 2.38249 69.6049 3.74399 70.6314C4.64356 71.3157 5.71331 71.8289 6.78307 72.2444C8.50926 72.9043 8.75239 73.5397 7.75557 75.0795C7.07482 76.1304 6.467 77.2302 6.56425 78.5744C6.71013 79.8941 7.80419 80.9939 9.48176 80.9939ZM79.186 38.444C79.1373 37.7353 79.0887 37.1731 79.0158 36.5866C78.6025 33.1405 77.1194 30.4522 73.8372 28.9613C73.2051 28.668 72.7431 28.6192 72.2812 29.2546C71.9408 29.719 71.5275 30.1344 71.0899 30.501C70.5064 30.9898 69.5825 30.941 69.0962 30.4522C68.537 29.89 68.537 29.1568 69.1449 28.497C69.5095 28.0815 69.9715 27.7393 70.2876 27.2994C70.4577 27.0794 70.555 26.6395 70.4334 26.3951C68.7559 22.6803 64.2094 20.5784 60.2708 21.7027C60.5625 23.7556 61.6566 25.2953 63.2369 26.5662C64.7686 27.7882 64.6227 28.7658 62.8479 29.5479C61.146 30.2811 59.9061 31.5275 58.9579 33.2139C60.7084 34.0693 62.4589 34.3137 64.3066 33.8493C66.1787 33.3849 66.8595 33.9959 66.5677 35.9267C66.3003 37.7841 66.8352 39.4705 67.8077 41.0835C68.0265 40.9369 68.1724 40.8391 68.3182 40.7414C69.6797 39.6416 70.6522 38.2974 71.1142 36.5621C71.5032 35.0957 72.6945 34.8025 73.7886 35.8778C74.1289 36.22 74.4693 36.5621 74.8583 36.8799C76.0739 37.8574 77.4355 38.4684 79.186 38.444Z" fill="#4BAF47"/>
<path d="M28.0081 34.3137C29.1751 32.9206 30.2449 31.6253 31.3389 30.3544C31.9711 29.6212 32.7977 29.499 33.4298 30.0367C34.0376 30.5499 34.062 31.4053 33.4541 32.163C32.0926 33.8493 30.7311 35.5357 29.3453 37.1731C28.9806 37.6131 28.8834 38.0041 29.0292 38.5662C29.6614 40.9613 30.1963 43.3564 30.7798 45.7516C31.0715 46.9247 30.7311 47.7067 29.8802 47.9023C28.9806 48.1222 28.2756 47.5601 27.9838 46.387C27.4003 43.9674 26.8168 41.5234 26.1847 39.1039C26.0874 38.7373 25.7227 38.3218 25.3824 38.1752C23.413 37.3198 21.3951 36.5377 19.4015 35.7312C18.5991 35.4135 18.1372 34.8758 18.2588 33.996C18.4046 33.1161 19.3771 32.6762 20.3497 33.0672C21.9057 33.6782 23.4374 34.3137 25.1879 35.0224C24.969 34.0937 24.7989 33.3116 24.6044 32.554C24.2883 31.3564 24.2883 29.89 23.5589 29.0347C22.8538 28.2037 21.4194 28.0082 20.2767 27.5683C17.9184 26.6151 15.5601 25.6619 13.2018 24.6843C12.2779 24.2933 11.8646 23.4868 12.1563 22.7292C12.4481 21.9715 13.299 21.7027 14.2472 22.0448C14.4174 22.1182 14.5876 22.1915 14.7578 22.2404C17.4078 23.2913 20.0579 24.3666 22.8538 25.4909C22.4648 23.9023 22.1002 22.4359 21.7355 20.9695C21.6139 20.5051 21.4923 20.0163 21.3708 19.552C21.1277 18.5499 21.5167 17.8167 22.3433 17.6212C23.1213 17.4257 23.7777 17.89 24.0452 18.8676C24.5071 20.6273 24.969 22.4114 25.4067 24.1711C25.4553 24.3177 25.5039 24.4644 25.5769 24.7332C25.8443 24.4644 26.0388 24.2689 26.209 24.0489C27.9595 21.9471 29.71 19.8208 31.4605 17.719C32.1656 16.888 33.0408 16.6925 33.673 17.2302C34.3294 17.7678 34.3051 18.6232 33.6 19.5031C31.4362 22.167 29.2481 24.8554 27.0356 27.4949C26.598 28.0326 26.5007 28.497 26.6709 29.1324C27.1815 30.8188 27.5705 32.5051 28.0081 34.3137Z" fill="#4BAF47"/>
</g>
<defs>
<clipPath id="clip0_834_300">
<rect width="84" height="84" fill="white"/>
</clipPath>
</defs>
</svg>
