<svg width="82" height="84" viewBox="0 0 82 84" fill="none" xmlns="http://www.w3.org/2000/svg">
<g clip-path="url(#clip0_835_303)">
<path d="M11.1097 0C12.1677 0.875 12.1677 1.575 11.1097 2.625C8.99355 4.9 6.70108 7 4.4086 9.275C4.23226 9.625 4.05591 9.975 4.05591 10.325C4.05591 19.95 4.05591 29.575 4.05591 39.2V39.375C5.11398 39.55 5.29032 40.425 5.29032 41.475C5.29032 46.725 5.29032 51.975 5.29032 57.225C5.29032 58.45 5.11398 58.625 4.05591 59.15C4.05591 59.325 4.05591 59.325 4.05591 59.5C4.05591 65.8 4.05591 72.275 4.05591 78.575C4.05591 80.5 5.81936 81.9 7.5828 81.2C8.64086 80.85 9.16989 79.975 9.34624 78.925C9.34624 78.575 9.34624 78.4 9.34624 78.05C9.34624 65.45 9.34624 52.675 9.34624 40.075C9.34624 36.4 11.4624 34.3 15.1656 34.3C16.929 34.3 18.6925 34.3 20.4559 34.3C20.8086 34.3 21.1613 34.125 21.514 33.775C23.2774 32.2 24.1591 30.275 23.8065 27.825C23.6301 26.6 23.8065 25.2 23.8065 23.975C23.8065 22.925 24.3355 22.4 25.3935 22.4C26.628 22.4 27.8624 22.4 29.0968 22.4C29.0968 21.175 29.0968 19.95 29.0968 18.9C29.0968 17.675 29.6258 17.15 30.8602 17.15C31.5656 17.15 32.0946 17.15 32.8 17.15H32.9763C32.9763 16.275 32.9763 15.575 32.9763 14.525C32.6237 14.525 32.0946 14.525 31.7419 14.525C28.7441 14.525 26.4516 12.25 26.4516 9.275C26.4516 8.05 26.4516 6.825 26.4516 5.425C26.4516 4.375 26.9806 3.85 28.0387 3.85C32.271 3.85 36.5032 3.85 40.9118 3.85C41.9699 3.85 42.4989 4.375 42.4989 5.425C42.4989 6.65 42.4989 7.875 42.4989 9.1C42.4989 12.075 40.2065 14.35 37.2086 14.35C36.8559 14.35 36.5032 14.35 35.9742 14.35C35.9742 15.225 35.9742 16.1 35.9742 16.975C36.6796 16.975 37.5613 16.975 38.2667 16.975C39.3247 16.975 39.8538 17.5 39.8538 18.55C39.8538 19.775 39.8538 20.825 39.8538 22.225C41.0882 22.225 42.3226 22.225 43.3806 22.225C44.6151 22.225 45.1441 22.575 45.1441 23.975C45.1441 26.075 45.1441 28.175 45.1441 30.45C45.1441 30.8 45.1441 31.15 45.3204 31.325C46.5548 32.725 47.7892 34.125 48.8473 35.525C59.7806 30.1 70.714 33.95 76.5333 40.775C82.7054 47.775 83.5871 58.275 79.0022 66.325C74.5935 73.85 64.7183 79.975 52.9032 76.65C52.9032 77.35 52.9032 78.05 52.9032 78.925C52.9032 81.9 50.6108 84.175 47.6129 84.175C38.7957 84.175 30.1548 84.175 21.3376 84.175C18.1634 84.175 16.0473 81.9 16.0473 78.75C16.0473 66.5 16.0473 54.25 16.0473 42C16.0473 40.775 16.2237 39.9 17.1054 39.025C17.8108 38.5 18.3398 37.625 18.8688 36.925C17.1054 36.925 15.5183 36.75 13.9312 36.925C12.8731 37.1 12.1677 38.15 11.9914 39.375C11.9914 39.725 11.9914 39.9 11.9914 40.25C11.9914 53.025 11.9914 65.8 11.9914 78.575C11.9914 81.725 9.87527 84 6.87742 84C3.87957 84.175 1.41075 81.725 1.41075 78.75C1.41075 72.625 1.41075 66.325 1.41075 60.2C1.41075 59.85 1.41075 59.675 1.41075 59.325C0.176344 58.975 0 58.275 0 57.225C0 51.975 0 46.55 0 41.3C0 40.075 0.176344 39.9 1.23441 39.375C1.23441 39.025 1.23441 38.675 1.23441 38.325C1.23441 29.05 1.23441 19.6 1.23441 10.325C1.23441 9.275 1.5871 8.4 2.29247 7.525C4.58495 5.425 6.70108 3.325 8.8172 1.225C9.16989 0.875 9.69892 0.35 10.0516 0C10.4043 0 10.757 0 11.1097 0ZM18.5161 73.5C27.8624 73.5 37.2086 73.5 46.5548 73.5C40.3828 68.775 37.0323 62.825 37.0323 55.125C37.0323 47.6 40.3828 41.475 46.5548 36.925C45.4968 35.7 44.4387 34.475 43.3806 33.425C43.2043 33.075 42.6753 32.9 42.3226 32.9C37.0323 32.9 31.7419 32.9 26.4516 32.9C25.9226 32.9 25.5699 33.075 25.2172 33.425C23.1011 35.875 21.1613 38.15 19.0452 40.6C18.6925 41.125 18.5161 41.475 18.5161 42C18.5161 52.15 18.5161 62.475 18.5161 72.625C18.5161 72.8 18.5161 73.15 18.5161 73.5ZM39.6774 55.125C39.6774 65.975 48.4946 74.9 59.428 74.9C70.3613 74.9 79.3548 66.15 79.3548 55.3C79.3548 44.45 70.5376 35.525 59.6043 35.525C48.671 35.35 39.6774 44.275 39.6774 55.125ZM50.2581 76.125C39.6774 76.125 29.0968 76.125 18.5161 76.125C18.5161 76.825 18.5161 77.525 18.5161 78.225C18.5161 80.15 19.5742 81.2 21.514 81.2C26.2753 81.2 31.2129 81.2 35.9742 81.2C39.6774 81.2 43.557 81.2 47.2602 81.2C48.8473 81.2 49.9054 80.15 50.0817 78.75C50.2581 78.05 50.2581 77.175 50.2581 76.125ZM26.4516 30.1C31.7419 30.1 37.0323 30.1 42.1462 30.1C42.1462 28.35 42.1462 26.6 42.1462 25.025C36.8559 25.025 31.5656 25.025 26.4516 25.025C26.4516 26.775 26.4516 28.35 26.4516 30.1ZM29.0968 6.65C29.0968 7.875 29.0968 8.925 29.2731 10.15C29.4495 11.2 30.5075 11.9 31.5656 11.9C33.329 11.9 35.2688 11.9 37.0323 11.9C38.2667 11.9 39.3247 11.025 39.5011 9.975C39.6774 8.925 39.5011 7.875 39.5011 6.65C36.1505 6.65 32.6237 6.65 29.0968 6.65ZM37.0323 22.225C37.0323 21.35 37.0323 20.475 37.0323 19.6C35.2688 19.6 33.5054 19.6 31.9183 19.6C31.9183 20.475 31.9183 21.35 31.9183 22.225C33.5054 22.225 35.2688 22.225 37.0323 22.225Z" fill="#4BAF47"/>
<path d="M43.7334 54.6C43.9097 49.175 46.5549 44.45 51.8452 41.475C57.1355 38.675 62.4259 38.675 67.5399 41.65C68.7743 42.35 68.7743 43.225 67.8925 44.1C61.5442 50.4 55.1958 56.7 48.8474 63C48.671 63.175 48.4947 63.35 48.3183 63.525C47.4366 64.4 46.7312 64.225 46.0259 63.175C44.4388 60.725 43.7334 58.1 43.7334 54.6ZM52.9033 54.95C56.9592 50.925 60.8388 47.075 64.8947 43.05C61.0151 41.475 57.1356 41.475 53.256 43.575C53.0796 43.75 52.9033 43.925 52.9033 44.275C52.9033 47.775 52.9033 51.45 52.9033 54.95ZM47.613 60.55C48.3183 59.85 49.0237 59.15 49.7291 58.45C50.0818 58.1 50.2581 57.75 50.2581 57.225C50.2581 53.725 50.2581 50.225 50.2581 46.9C50.2581 46.725 50.2581 46.375 50.2581 46.2C46.3786 49.175 45.1442 55.825 47.613 60.55Z" fill="#4BAF47"/>
<path d="M75.4754 55.125C75.4754 67.025 62.4259 74.725 52.0216 68.95C51.8453 68.775 51.669 68.775 51.3163 68.6C50.4346 68.075 50.4345 67.2 50.9636 66.5C52.198 65.275 53.4324 63.875 54.6668 62.65C59.9571 57.4 65.2475 52.15 70.7141 46.9C71.7722 45.85 72.6539 45.85 73.3593 47.25C74.77 49.7 75.4754 52.325 75.4754 55.125ZM54.3141 67.025C58.5464 69.125 64.8948 68.425 69.127 64.225C73.3593 59.85 73.712 53.55 71.7722 49.875C65.7765 55.65 59.9571 61.425 54.3141 67.025Z" fill="#4BAF47"/>
<path d="M54.314 67.025C60.1333 61.25 65.9527 55.475 71.5957 49.875C73.5355 53.725 73.3591 60.025 68.9505 64.225C64.7183 68.6 58.5462 69.125 54.314 67.025Z" fill="white"/>
</g>
<defs>
<clipPath id="clip0_835_303">
<rect width="82" height="84" fill="white"/>
</clipPath>
</defs>
</svg>
