<svg width="83" height="84" viewBox="0 0 83 84" fill="none" xmlns="http://www.w3.org/2000/svg">
<g clip-path="url(#clip0_834_290)">
<path d="M1.9812 84C0.413515 83.497 -0.0872723 82.3598 0.0215945 80.7852C0.326421 76.477 0.500608 72.1687 0.870755 67.8605C1.15381 64.7113 2.74326 62.1307 4.98592 59.9875C8.05596 57.0352 11.801 55.22 15.7637 53.8641C18.8555 52.8144 21.9909 51.9615 25.1263 51.0867C25.7577 50.9118 25.8666 50.6493 25.9319 50.037C26.1061 48.528 25.6053 47.5002 24.4513 46.4504C21.6208 43.9136 19.6612 40.7644 18.616 37.0466C18.5289 36.7623 18.1588 36.478 17.854 36.3468C15.2629 35.2096 13.4993 33.3945 12.9985 30.5296C12.7372 29.0862 13.0203 27.7084 13.6082 26.3744C13.6953 26.1557 13.8041 25.937 13.8912 25.7402C12.9114 25.1716 11.8663 24.7561 11.0607 24.0781C10.1244 23.2908 9.18817 22.3723 8.57852 21.3226C7.51163 19.5293 8.44788 17.911 10.5599 17.7579C11.9316 17.6486 13.3251 17.6923 14.7186 17.6704C16.8959 17.6486 16.8959 17.6704 17.4838 15.571C18.3548 12.4655 19.1604 9.36009 20.1402 6.29838C20.5539 5.0081 21.2071 3.71781 21.9909 2.60247C23.2538 0.852928 25.0827 2.50768e-05 27.2818 0.0218944C32.834 0.0437637 38.3862 0.065633 43.9384 0.0218944C46.6819 2.50768e-05 48.7068 1.18097 50.1221 3.45538C50.7099 4.39576 51.1236 5.46735 51.4502 6.51708C52.4736 9.97243 53.4534 13.4278 54.3896 16.905C54.5638 17.5392 54.8469 17.6923 55.4565 17.6923C57.0024 17.6486 58.5484 17.6923 60.116 17.7142C60.4426 17.7142 60.7692 17.736 61.0958 17.7798C63.099 18.0422 63.8828 19.5074 62.9683 21.3226C62.0756 23.094 60.5733 24.1875 58.875 25.0622C58.4613 25.2809 58.0476 25.4559 57.5468 25.6965C58.2653 27.0524 58.679 28.4739 58.5484 30.0047C58.2435 33.0883 56.4799 35.1003 53.7582 36.2812C53.1703 36.5436 52.9091 36.8717 52.7349 37.484C51.6027 41.3767 49.3382 44.5478 46.3335 47.1721C45.8109 47.6314 45.5279 48.0469 45.5932 48.7686C45.6585 49.4465 45.615 50.1245 45.615 50.7149C49.3165 51.874 52.9744 52.9456 56.5452 54.1922C60.1596 55.4606 63.4909 57.2539 66.5174 59.9657C66.5174 59.3315 66.4956 58.8722 66.5174 58.4348C66.5827 57.3195 67.323 56.5322 68.4334 56.4666C69.3262 56.4228 70.2189 56.4666 71.1769 56.4666C71.1769 53.4049 71.1769 50.4306 71.1769 47.3471C70.0229 47.3471 68.8471 47.3689 67.6932 47.3471C64.9715 47.2815 62.7071 45.4882 62.0539 42.8639C61.9014 42.2953 61.8579 41.6829 61.8579 41.0706C61.8361 36.9373 61.8361 32.8259 61.8579 28.6926C61.8579 28.3864 61.8144 27.9927 61.9885 27.8178C62.3151 27.4679 62.7506 27.0961 63.1643 27.0305C63.7522 26.943 64.1659 27.3804 64.2747 28.0146C64.3183 28.277 64.2965 28.5613 64.2965 28.8238C64.2965 32.8477 64.2965 36.8498 64.2965 40.8738C64.2965 43.4981 65.6682 44.8758 68.2593 44.8758C69.2173 44.8758 70.1535 44.8758 71.2422 44.8758C71.2422 44.5041 71.2422 44.1979 71.2422 43.8699C71.2422 38.8618 71.2422 33.8756 71.2422 28.8675C71.2422 28.5613 71.1551 28.1896 71.2858 27.9927C71.547 27.5991 71.939 27.0961 72.3309 27.0524C72.7228 27.0086 73.2236 27.4241 73.5284 27.7522C73.7244 27.9709 73.6808 28.4301 73.6808 28.78C73.6808 33.7881 73.6808 38.7743 73.6808 43.7824C73.6808 44.1104 73.6808 44.4385 73.6808 44.7884C75.1396 44.7884 76.5549 44.9414 77.9266 44.7446C79.5379 44.5041 80.5612 43.0169 80.5612 41.2674C80.583 37.1122 80.5612 32.9571 80.5612 28.8019C80.5612 28.5613 80.5394 28.2989 80.583 28.0583C80.7136 27.3804 81.1055 26.9649 81.8023 26.9867C82.499 27.0086 82.9127 27.4023 82.9781 28.1021C83.0216 28.6707 82.9998 29.2393 82.9998 29.8298C82.9998 33.5694 82.9998 37.3091 82.9998 41.0706C82.9998 44.8102 80.4959 47.3252 76.7509 47.3471C75.7493 47.3471 74.7477 47.3471 73.7244 47.3471C73.7026 47.6095 73.659 47.8063 73.659 47.9813C73.659 50.7587 73.659 53.558 73.659 56.4447C74.4864 56.4447 75.2267 56.4447 75.9888 56.4447C77.5783 56.4666 78.3403 57.2101 78.3403 58.8285C78.3403 66.4171 78.3403 74.0276 78.3621 81.6163C78.3621 82.8191 77.8613 83.5845 76.7944 84.0438C51.8422 84 26.9117 84 1.9812 84ZM15.0017 81.4851C28.8713 81.4851 42.6538 81.4851 56.5017 81.4851C56.5017 81.2008 56.5017 80.9602 56.5017 80.7196C56.5017 77.5048 56.5017 74.2682 56.5017 71.0534C56.5017 69.8725 56.2621 69.6319 55.0646 69.6538C49.8172 69.6756 44.5699 69.6975 39.3225 69.7194C38.9306 69.7194 38.4298 69.7412 38.1467 69.5225C37.7984 69.282 37.3847 68.779 37.4064 68.4072C37.4282 68.0136 37.8854 67.5981 38.2338 67.27C38.3862 67.1169 38.7564 67.1825 39.0177 67.1825C42.0659 67.1825 45.1142 67.2044 48.1625 67.2044C48.3367 67.2044 48.5108 67.1607 48.7503 67.1169C48.7503 62.918 48.7503 58.7628 48.7286 54.6295C48.7286 54.4765 48.5762 54.1922 48.4237 54.1484C47.4004 53.8423 46.3553 53.5798 45.3102 53.3174C43.786 57.7569 40.8248 60.4468 36.2089 60.6217C31.1357 60.8186 27.8697 58.063 26.1714 53.3174C25.0174 53.6236 23.907 53.9079 22.7965 54.214C22.7965 58.566 22.7965 62.8305 22.7965 67.1607C25.8012 67.1607 28.7189 67.1607 31.6583 67.1607C32.0066 67.1607 32.3768 67.1607 32.7034 67.2481C33.313 67.4012 33.5961 67.8605 33.5526 68.4728C33.509 69.0852 33.1824 69.4788 32.551 69.5882C32.2897 69.6319 32.0066 69.61 31.7454 69.61C27.4996 69.61 23.2538 69.61 19.008 69.61C18.0282 69.61 17.0484 69.61 16.0686 69.61C15.4371 69.61 15.0017 69.8725 15.0017 70.5723C15.0017 74.1807 15.0017 77.7891 15.0017 81.4851ZM50.8624 27.446C40.716 28.9331 30.7656 28.955 20.8369 27.4679C20.8369 30.1578 20.8369 32.8259 20.8369 35.4939C20.8369 35.7782 20.924 36.0844 21.0111 36.3687C22.7965 42.2297 26.6069 46.2536 32.2026 48.5718C34.8154 49.6433 37.4282 49.4684 39.9539 48.2874C41.1297 47.7407 42.3054 47.1065 43.3288 46.3192C46.8996 43.6512 49.6866 40.3052 50.4704 35.8219C50.9712 33.1539 50.7535 30.3546 50.8624 27.446ZM50.6229 12.6405C46.9867 12.6405 43.3941 12.6405 39.8015 12.6405C39.4749 12.6405 39.1483 12.6624 38.8217 12.6186C38.1685 12.5311 37.7766 12.1156 37.7548 11.4814C37.7113 10.8253 38.0814 10.3879 38.7128 10.2349C38.9741 10.1693 39.2572 10.1911 39.5184 10.1911C42.6756 10.1911 45.8327 10.1911 48.9899 10.1911C49.2729 10.1911 49.556 10.1911 50.0567 10.1911C49.36 8.31036 48.881 6.51708 48.0971 4.89875C47.2915 3.25855 45.8327 2.42752 43.8949 2.44939C38.3645 2.49313 32.8558 2.49313 27.3254 2.44939C25.8448 2.44939 24.6908 3.03986 23.7981 4.15519C22.3828 5.88287 22.2086 8.0698 21.4901 10.1693C25.3222 10.1693 28.9801 10.1693 32.6598 10.1693C32.9211 10.1693 33.2042 10.1474 33.4655 10.1911C34.1404 10.3442 34.5106 10.7597 34.467 11.4814C34.4235 12.1375 34.0316 12.5311 33.3784 12.6186C33.1389 12.6624 32.8993 12.6405 32.6381 12.6405C28.9148 12.6405 25.1916 12.6405 21.4466 12.6624C21.1853 12.6624 20.7716 12.8373 20.7063 13.0123C20.2273 14.4994 19.8136 16.0302 19.3999 17.5611C30.2865 17.5611 41.0861 17.5611 51.9728 17.5611C51.5373 15.8771 51.1019 14.2807 50.6229 12.6405ZM10.8647 20.1854C10.7994 20.2729 10.7341 20.3822 10.6905 20.4697C11.4091 21.082 12.0623 21.9131 12.8896 22.2848C14.7404 23.1159 16.6347 23.925 18.5943 24.428C22.6876 25.4778 26.9117 25.7839 31.1139 25.9808C38.2338 26.3307 45.3102 26.0026 52.2994 24.5811C54.6945 24.1 57.0678 23.4221 59.0927 21.9568C59.7023 21.5194 60.2031 20.9071 60.7475 20.3603C60.7039 20.2947 60.6604 20.2291 60.595 20.1635C44.0255 20.1854 27.456 20.1854 10.8647 20.1854ZM12.5413 81.4851C12.5413 81.1351 12.5413 80.8508 12.5413 80.5665C12.5413 77.2861 12.563 74.0058 12.5413 70.7254C12.5413 69.4569 12.9767 68.4072 14.0654 67.7293C14.5444 67.445 14.6315 67.1169 14.6315 66.5921C14.6097 63.6397 14.6315 60.6873 14.6097 57.735C14.6097 57.4726 14.5662 57.232 14.5444 56.904C11.5832 58.1505 8.88335 59.572 6.61892 61.7371C4.63754 63.6397 3.37469 65.8922 3.2005 68.6915C2.98277 71.9282 2.80858 75.1867 2.61262 78.4234C2.5473 79.4293 2.50376 80.4135 2.43844 81.4632C5.85685 81.4851 9.1664 81.4851 12.5413 81.4851ZM66.4085 81.4851C66.4303 81.3538 66.4738 81.2664 66.4738 81.2008C66.4738 75.4929 66.4738 69.785 66.4738 64.0771C66.4738 63.8365 66.365 63.5304 66.2126 63.3335C63.7957 60.2062 60.4644 58.4567 56.85 56.8821C56.85 60.3593 56.85 63.7053 56.8718 67.0513C56.8718 67.2263 57.0895 67.4668 57.2637 67.5762C58.4395 68.2979 58.962 69.3695 58.962 70.7254C58.962 73.5028 58.962 76.302 58.962 79.0794C58.962 79.8667 58.962 80.654 58.962 81.4632C61.466 81.4851 63.9046 81.4851 66.4085 81.4851ZM28.414 49.534C28.1528 52.5957 29.0237 55.0888 31.4841 56.8165C34.0533 58.6316 36.8186 58.741 39.5184 57.1227C42.3272 55.4387 43.307 52.8144 43.0893 49.5121C40.7595 50.7805 38.408 51.7428 35.7952 51.7647C33.1606 51.7865 30.7656 50.8243 28.414 49.534ZM75.8146 67.7293C75.8146 64.755 75.8146 61.8464 75.8146 58.9159C73.5066 58.9159 71.2422 58.9159 68.9778 58.9159C68.9778 61.8902 68.9778 64.7988 68.9778 67.7293C71.264 67.7293 73.5066 67.7293 75.8146 67.7293ZM54.2808 67.1388C54.3243 67.0294 54.3679 66.9857 54.3679 66.942C54.3679 63.421 54.3896 59.9001 54.3679 56.3572C54.3679 56.1823 54.2155 55.9198 54.0848 55.8542C53.1486 55.5262 52.2123 55.22 51.2325 54.9138C51.2325 59.069 51.2325 63.093 51.2325 67.1388C52.3212 67.1388 53.3228 67.1388 54.2808 67.1388ZM20.2273 67.1169C20.2273 63.0492 20.2273 59.0253 20.2273 54.9357C19.3781 55.22 18.5725 55.5043 17.7669 55.723C17.2225 55.8542 17.0484 56.1167 17.0484 56.6853C17.0701 59.9001 17.0701 63.1148 17.0701 66.3296C17.0701 66.5921 17.1137 66.8545 17.1137 67.1169C18.2023 67.1169 19.2039 67.1169 20.2273 67.1169ZM75.7928 81.4851C75.7928 79.8449 75.7928 78.2703 75.7928 76.6519C73.4849 76.6519 71.2422 76.6519 68.9778 76.6519C68.9778 78.2921 68.9778 79.8886 68.9778 81.4851C71.2858 81.4851 73.5284 81.4851 75.7928 81.4851ZM68.956 74.0932C71.2858 74.0932 73.5502 74.0932 75.7928 74.0932C75.7928 72.7811 75.7928 71.5345 75.7928 70.2661C73.4849 70.2661 71.2422 70.2661 68.956 70.2661C68.956 71.5564 68.956 72.8029 68.956 74.0932ZM18.2023 33.7006C18.2023 31.4481 18.2023 29.2174 18.2023 26.9649C17.8322 26.8774 17.4403 26.8118 17.0919 26.6587C16.4605 26.3963 16.1774 26.6587 15.8944 27.2054C14.6751 29.6111 15.6331 32.4759 18.2023 33.7006ZM53.2574 33.6569C55.4348 32.7602 56.5888 30.2671 55.892 28.0365C55.413 26.4838 55.2606 26.3963 53.7364 26.8337C53.584 26.8774 53.4316 26.9211 53.2574 26.9867C53.2574 29.1955 53.2574 31.3825 53.2574 33.6569Z" fill="#4BAF47"/>
<path d="M54.2809 67.1388C53.3011 67.1388 52.3213 67.1388 51.2544 67.1388C51.2544 63.1148 51.2544 59.069 51.2544 54.9138C52.2124 55.22 53.1705 55.5262 54.1067 55.8542C54.2373 55.8979 54.3898 56.1822 54.3898 56.3572C54.4115 59.8782 54.3898 63.3991 54.3898 66.9419C54.368 66.9857 54.3244 67.0294 54.2809 67.1388Z" fill="white"/>
<path d="M20.8153 76.7831C20.3363 76.7831 19.8355 76.805 19.3565 76.7831C18.6597 76.7394 18.2461 76.3238 18.2025 75.6459C18.159 74.9679 18.5509 74.4431 19.2259 74.3993C20.2927 74.3119 21.4032 74.3119 22.4701 74.3993C23.1451 74.4431 23.5152 74.9461 23.5152 75.6459C23.5152 76.302 22.9926 76.7612 22.2741 76.805C22.2306 76.805 22.1653 76.805 22.1217 76.805C21.6645 76.805 21.229 76.805 20.8153 76.7831Z" fill="#4BAF47"/>
<path d="M50.5576 76.7831C50.1004 76.7831 49.6214 76.805 49.1642 76.7831C48.4674 76.7394 48.0537 76.3676 47.9884 75.6678C47.9231 74.9898 48.3585 74.3993 49.0553 74.3556C50.1222 74.29 51.1891 74.29 52.2342 74.3775C52.9092 74.4212 53.3011 74.9242 53.2575 75.624C53.214 76.3238 52.8003 76.7175 52.1036 76.7612C51.6028 76.8268 51.0802 76.7831 50.5576 76.7831Z" fill="#4BAF47"/>
<path d="M35.6213 43.8698C34.2932 43.848 33.1392 43.3668 32.1812 42.4483C31.615 41.9016 31.5715 41.2236 32.0505 40.6988C32.5078 40.1739 33.1827 40.152 33.7924 40.6113C35.2512 41.7048 36.2528 41.7048 37.6898 40.6332C38.3212 40.1739 38.9962 40.1958 39.4535 40.6769C39.9107 41.2018 39.8671 41.9453 39.2793 42.4921C38.2341 43.4543 37.0148 43.8917 35.6213 43.8698Z" fill="#4BAF47"/>
<path d="M44.1779 30.8576C45.0271 31.2731 45.9416 31.623 46.7254 32.126C47.3569 32.5415 47.3569 33.3288 46.9214 33.8537C46.4859 34.3567 45.8327 34.466 45.2448 34.0287C44.4392 33.3944 43.6989 33.3944 42.8715 34.0287C42.2837 34.4879 41.6087 34.3786 41.195 33.8756C40.7595 33.3507 40.8248 32.6509 41.3692 32.126C42.0224 31.4918 43.0675 31.0763 44.0473 31.0982C44.0909 31.0107 44.1344 30.9232 44.1779 30.8576Z" fill="#4BAF47"/>
<path d="M27.5434 30.8576C28.3708 31.2513 29.2635 31.6012 30.0256 32.1042C30.657 32.5197 30.7006 33.2851 30.2869 33.8318C29.8732 34.3786 29.1764 34.4879 28.545 34.0287C27.7612 33.4382 27.0427 33.4163 26.237 34.0068C25.6056 34.4879 24.9306 34.3786 24.4952 33.8537C24.0815 33.3288 24.1686 32.629 24.7347 32.1042C25.4967 31.4043 26.4112 31.12 27.4128 31.0982C27.4781 31.0107 27.5217 30.9451 27.5434 30.8576Z" fill="#4BAF47"/>
</g>
<defs>
<clipPath id="clip0_834_290">
<rect width="83" height="84" fill="white"/>
</clipPath>
</defs>
</svg>
