<svg width="296" height="510" viewBox="0 0 296 510" fill="none" xmlns="http://www.w3.org/2000/svg">
<g opacity="0.1" clip-path="url(#clip0_120_171)">
<path d="M320.275 441.185C316.909 449.798 313.813 458.143 316.909 468.103C320.006 477.524 320.679 487.753 322.429 497.578C323.237 502.558 321.621 506.461 317.178 509.018C315.563 509.018 313.813 509.018 312.063 509.018C308.562 506.999 306.543 504.038 306.139 499.731C304.12 472.679 294.561 448.183 280.964 425.034C274.771 414.536 267.905 404.307 261.713 393.675C259.693 390.175 257.135 388.156 253.231 387.484C248.923 386.676 244.75 385.734 240.442 384.792C233.037 383.715 225.633 382.638 218.229 381.696C197.9 379.139 177.841 381.292 157.916 385.599C135.568 390.444 114.163 398.251 93.2958 407.403C87.6415 409.825 84.2759 409.152 82.5257 405.249C80.9102 401.615 82.3911 398.654 88.18 396.366C104.604 390.041 121.029 383.715 137.722 378.197C155.762 372.275 174.475 368.776 193.323 368.776C208.67 368.776 224.017 370.525 239.365 371.602C242.327 372.275 245.154 372.948 248.789 373.755C247.981 372.14 247.577 371.064 247.038 370.121C231.422 344.28 215.94 318.439 200.189 292.732C197.765 288.829 194.669 284.926 191.034 282.369C180.803 275.37 170.167 269.179 159.666 262.584C135.568 249.125 108.778 246.434 81.9873 245.626C61.5241 245.088 41.1957 246.703 20.7325 247.51C16.6938 247.645 13.732 246.03 13.5974 242.261C13.3281 238.224 16.4245 235.801 20.3287 235.397C30.291 234.59 40.3879 233.513 50.3502 233.378C65.159 233.244 79.9679 233.244 94.6421 234.455C108.239 235.532 121.836 237.551 135.164 240.377C143.78 242.127 151.993 245.761 160.474 248.587C167.475 252.49 174.475 256.393 181.476 260.296C181.88 260.296 182.283 260.431 182.687 260.565C182.553 260.162 182.418 259.758 182.283 259.489C171.109 238.358 160.07 217.362 148.896 196.232C145.934 190.579 143.242 184.792 140.549 179.139C140.146 177.658 140.011 176.178 139.472 174.832C135.568 164.738 131.26 154.643 127.625 144.415C118.605 119.112 111.201 93.6743 107.028 67.2948C104.739 53.0283 102.989 38.6272 101.373 24.2261C100.835 19.5154 103.527 16.2853 107.162 16.5545C111.336 16.9582 112.817 20.1884 113.355 23.9569C114.701 34.3203 115.778 44.8183 117.394 55.1817C123.048 93.6743 134.491 130.417 149.165 166.353C149.839 168.102 151.454 169.314 152.666 170.794C153.204 173.351 153.339 176.178 154.416 178.466C170.975 215.747 190.361 251.279 214.055 284.522C215.671 286.81 217.69 288.829 219.44 290.983V290.848C219.844 291.925 220.113 292.867 220.517 293.944C222.133 296.77 223.748 299.596 225.768 303.096C226.71 290.983 227.248 280.081 228.595 269.314C230.749 251.413 233.037 233.513 235.999 215.747C239.769 193.405 244.346 171.198 248.789 148.856C251.077 137.012 253.635 125.303 256.193 113.594C257.001 109.69 258.885 106.46 263.732 107.268C267.636 107.941 269.117 111.036 268.175 115.747C265.347 128.802 262.251 141.857 259.828 154.913C254.174 185.734 248.385 216.555 243.538 247.645C240.846 265.276 240.172 283.177 238.557 300.942C238.826 316.959 241.788 331.898 250.943 345.761C267.501 371.198 282.983 397.309 298.869 423.15C301.831 427.995 304.12 433.244 307.485 439.704C308.293 435.936 308.832 433.513 309.37 430.956C310.582 427.995 312.063 425.169 313.005 422.208C323.237 391.656 337.238 362.854 355.143 336.205C373.183 309.287 394.05 284.657 417.609 262.315C435.245 245.626 453.824 229.879 473.479 215.747C477.248 213.055 481.153 213.19 483.307 216.016C485.595 218.977 484.787 222.342 480.883 225.438C467.151 236.474 453.15 246.972 439.957 258.547C418.417 277.255 398.762 297.981 381.26 320.592C360.528 347.376 343.969 376.716 331.449 408.21C327.141 419.112 323.91 430.148 320.275 441.185Z" fill="#4CA55B"/>
<path d="M320.275 441.185C323.91 430.283 327.141 419.112 331.449 408.48C343.969 376.986 360.528 347.78 381.261 320.862C398.762 298.251 418.417 277.524 439.957 258.816C453.151 247.376 467.286 236.743 480.884 225.707C484.788 222.611 485.595 219.381 483.307 216.286C481.153 213.459 477.249 213.325 473.479 216.016C453.689 230.148 435.245 245.895 417.609 262.584C394.05 284.926 373.183 309.422 355.143 336.474C337.238 363.257 323.371 392.06 313.005 422.477C312.063 425.438 310.582 428.264 309.37 431.225C305.601 418.439 300.62 405.788 298.466 392.733C290.388 344.28 309.37 305.115 342.354 271.198C375.741 236.743 416.129 215.613 463.382 207.672C475.364 205.653 487.615 205.384 499.731 204.172C499.866 204.711 500 205.249 500.135 205.788C494.75 213.459 489.365 220.996 483.98 228.668C466.344 254.24 456.651 282.773 450.458 313.19C443.996 345.222 429.726 374.294 406.57 398.116C387.184 418.035 362.817 429.476 336.565 437.282C331.045 438.897 325.66 439.839 320.275 441.185Z" fill="#69C278"/>
<path d="M238.557 301.077C240.172 283.311 240.845 265.411 243.538 247.78C248.25 216.824 254.173 186.003 259.828 155.047C262.251 141.858 265.347 128.937 268.174 115.882C269.117 111.171 267.636 108.076 263.732 107.403C258.885 106.595 257 109.825 256.193 113.728C253.635 125.438 251.077 137.281 248.788 148.991C244.346 171.198 239.903 193.54 235.999 215.882C233.037 233.648 230.748 251.548 228.594 269.448C227.248 280.216 226.71 291.117 225.767 303.23C223.748 299.731 222.132 296.905 220.517 294.078C220.113 293.002 219.844 292.06 219.44 290.983V291.117C218.497 288.291 217.69 285.465 216.613 282.638C206.112 254.509 206.516 225.841 213.92 197.443C224.69 156.259 247.038 120.592 269.386 83.311C270.598 92.4631 271.675 100.135 272.752 107.806C275.713 129.072 278.675 150.337 281.502 171.602C288.099 221.535 273.156 264.603 238.557 301.077Z" fill="#6AC378"/>
<path d="M152.531 170.794C151.319 169.314 149.704 167.968 149.031 166.353C134.357 130.417 123.048 93.6744 117.259 55.1818C115.778 44.8183 114.567 34.3204 113.22 23.957C112.682 20.1884 111.201 16.9583 107.027 16.5545C103.393 16.1508 100.7 19.3809 101.239 24.2261C102.854 38.6272 104.604 53.0283 106.893 67.2948C111.066 93.6744 118.471 119.112 127.491 144.28C131.125 154.509 135.434 164.603 139.338 174.697C139.876 176.043 140.145 177.524 140.415 179.004C109.047 166.353 87.9106 144.549 83.0641 110.229C77.6791 72.0055 87.1029 36.2046 102.719 1.61508C102.989 1.3459 103.393 1.07672 104.47 0C113.355 11.9785 122.644 23.4186 130.856 35.6663C143.511 54.3742 153.608 74.5627 158.051 97.0391C163.032 122.073 161.012 146.703 152.531 170.794Z" fill="#69C278"/>
<path d="M239.634 371.602C224.287 370.66 208.939 368.776 193.592 368.776C174.61 368.776 155.897 372.275 137.992 378.197C121.298 383.715 104.874 390.041 88.4493 396.367C82.6604 398.655 81.1795 401.616 82.795 405.249C84.5452 409.153 87.9108 409.825 93.5651 407.403C114.567 398.251 135.838 390.445 158.185 385.599C178.11 381.292 198.169 379.139 218.498 381.696C225.902 382.638 233.307 383.715 240.711 384.792C229.941 402.423 212.978 410.498 193.727 414.94C175.148 419.247 156.301 418.708 137.588 417.497C117.259 416.151 97.0654 414.536 76.8715 413.056C74.5829 412.921 72.2942 412.517 68.7939 412.114C74.7175 405.115 79.8333 399.058 85.2183 393.002C97.4692 379.408 110.528 366.353 126.414 356.932C155.493 339.704 185.784 335.801 217.152 350.741C226.441 355.317 233.98 362.585 239.634 371.602Z" fill="#69C378"/>
<path d="M160.474 248.587C152.127 245.761 143.78 242.127 135.164 240.377C121.836 237.685 108.239 235.532 94.6418 234.455C79.9675 233.244 65.1587 233.244 50.3499 233.378C40.3876 233.513 30.2907 234.455 20.3283 235.397C16.4242 235.801 13.3278 238.089 13.5971 242.261C13.8663 246.164 16.6935 247.645 20.7322 247.51C41.1953 246.703 61.6584 245.088 81.9869 245.626C108.777 246.299 135.433 249.125 159.666 262.584C147.684 264.872 135.837 268.372 123.721 269.448C85.7565 272.948 50.2153 262.315 15.3472 248.856C10.5007 246.972 5.92339 244.953 -0.134766 242.531C5.65414 239.3 10.0968 236.474 14.8087 234.051C38.5028 221.669 63.2739 212.921 90.4683 214.401C117.124 215.747 140.818 224.361 158.454 245.761C159.262 246.568 159.801 247.645 160.474 248.587Z" fill="#6AC379"/>
<path d="M219.306 290.983C219.71 292.06 219.979 293.002 220.383 294.078C219.979 293.002 219.71 291.925 219.306 290.983Z" fill="#FEFEFE"/>
<path d="M182.283 259.354C182.418 259.758 182.553 260.162 182.687 260.431C182.283 260.296 181.879 260.296 181.476 260.162C181.745 260.027 182.014 259.623 182.283 259.354Z" fill="#FEFEFE"/>
</g>
<defs>
<clipPath id="clip0_120_171">
<rect width="500" height="509.018" fill="white"/>
</clipPath>
</defs>
</svg>
