<svg width="292" height="509" viewBox="0 0 292 509" fill="none" xmlns="http://www.w3.org/2000/svg">
<g opacity="0.1" clip-path="url(#clip0_241_134)">
<path d="M-28.2748 441.169C-24.9091 449.782 -21.8127 458.127 -24.9091 468.086C-28.0055 477.507 -28.6787 487.735 -30.4288 497.56C-31.2366 502.54 -29.6211 506.443 -25.1784 509C-23.5629 509 -21.8128 509 -20.0626 509C-16.5623 506.981 -14.543 504.02 -14.1391 499.713C-12.1197 472.662 -2.56128 448.167 11.0359 425.019C17.2287 414.521 24.0946 404.293 30.2874 393.661C32.3068 390.161 34.8647 388.143 38.7688 387.47C43.0768 386.662 47.2502 385.72 51.5583 384.778C58.9627 383.701 66.3671 382.625 73.7715 381.682C94.1 379.125 114.159 381.279 134.084 385.585C156.432 390.431 177.837 398.236 198.704 407.388C204.358 409.811 207.724 409.138 209.474 405.235C211.09 401.601 209.609 398.64 203.82 396.352C187.396 390.027 170.971 383.701 154.278 378.183C136.238 372.262 117.525 368.762 98.6773 368.762C83.3299 368.762 67.9826 370.512 52.6353 371.589C49.6735 372.262 46.8464 372.935 43.2115 373.742C44.0192 372.127 44.4231 371.05 44.9616 370.108C60.5782 344.268 76.0602 318.428 91.8114 292.722C94.2346 288.819 97.331 284.916 100.966 282.359C111.197 275.36 121.833 269.17 132.334 262.575C156.432 249.116 183.222 246.425 210.013 245.617C230.476 245.079 250.804 246.694 271.267 247.501C275.306 247.636 278.268 246.021 278.403 242.253C278.672 238.215 275.575 235.792 271.671 235.389C261.709 234.581 251.612 233.505 241.65 233.37C226.841 233.235 212.032 233.235 197.358 234.447C183.761 235.523 170.164 237.542 156.836 240.368C148.22 242.118 140.007 245.752 131.526 248.578C124.525 252.481 117.525 256.384 110.524 260.287C110.12 260.287 109.717 260.422 109.313 260.556C109.447 260.152 109.582 259.749 109.717 259.479C120.891 238.35 131.93 217.354 143.104 196.225C146.066 190.572 148.758 184.785 151.451 179.132C151.854 177.652 151.989 176.171 152.528 174.826C156.432 164.732 160.74 154.638 164.375 144.409C173.395 119.107 180.799 93.6709 184.972 67.2922C187.261 53.0262 189.011 38.6257 190.627 24.2251C191.165 19.5146 188.473 16.2846 184.838 16.5537C180.664 16.9575 179.183 20.1875 178.645 23.9559C177.299 34.3189 176.222 44.8166 174.606 55.1796C168.952 93.6709 157.509 130.413 142.835 166.347C142.161 168.096 140.546 169.308 139.334 170.788C138.796 173.345 138.661 176.171 137.584 178.459C121.025 215.739 101.639 251.27 77.9449 284.512C76.3294 286.8 74.31 288.819 72.5599 290.972V290.838C72.156 291.914 71.8867 292.856 71.4829 293.933C69.8674 296.759 68.2519 299.586 66.2325 303.085C65.2901 290.972 64.7516 280.071 63.4053 269.304C61.2513 251.404 58.9627 233.505 56.0009 215.739C52.2314 193.398 47.6541 171.192 43.2115 148.851C40.9228 137.007 38.3649 125.298 35.8071 113.589C34.9993 109.686 33.1145 106.456 28.268 107.264C24.3639 107.937 22.883 111.032 23.8254 115.743C26.6525 128.798 29.7489 141.852 32.1721 154.907C37.8264 185.727 43.6154 216.547 48.4619 247.636C51.1544 265.267 51.8275 283.166 53.443 300.932C53.1738 316.947 50.212 331.886 41.0575 345.748C24.4985 371.185 9.01654 397.294 -6.86929 423.135C-9.83109 427.98 -12.1197 433.229 -15.4854 439.689C-16.2931 435.92 -16.8316 433.498 -17.3701 430.941C-18.5818 427.98 -20.0626 425.153 -21.005 422.193C-31.2366 391.642 -45.2376 362.841 -63.1429 336.193C-81.1827 309.276 -102.05 284.647 -125.609 262.306C-143.245 245.617 -161.824 229.871 -181.479 215.739C-185.248 213.048 -189.153 213.182 -191.307 216.008C-193.595 218.969 -192.787 222.334 -188.883 225.429C-175.151 236.465 -161.15 246.963 -147.957 258.537C-126.417 277.245 -106.762 297.971 -89.2603 320.581C-68.5279 347.363 -51.9689 376.703 -39.4487 408.196C-35.1407 419.097 -31.9097 430.133 -28.2748 441.169Z" fill="#4CA55B"/>
<path d="M-28.275 441.169C-31.9099 430.268 -35.141 419.097 -39.449 408.465C-51.9692 376.972 -68.5282 347.767 -89.2605 320.85C-106.762 298.24 -126.417 277.514 -147.957 258.807C-161.151 247.367 -175.286 236.735 -188.884 225.699C-192.788 222.603 -193.595 219.373 -191.307 216.278C-189.153 213.451 -185.249 213.317 -181.479 216.009C-161.689 230.14 -143.245 245.886 -125.609 262.575C-102.05 284.916 -81.183 309.41 -63.1431 336.462C-45.2379 363.244 -31.3714 392.046 -21.0053 422.462C-20.0629 425.423 -18.582 428.249 -17.3704 431.21C-13.6009 418.424 -8.61969 405.773 -6.46568 392.718C1.61186 344.268 -17.3704 305.104 -50.3537 271.188C-83.7409 236.735 -124.129 215.605 -171.382 207.664C-183.364 205.645 -195.615 205.376 -207.731 204.165C-207.866 204.703 -208 205.242 -208.135 205.78C-202.75 213.451 -197.365 220.988 -191.98 228.659C-174.344 254.231 -164.651 282.763 -158.458 313.179C-151.996 345.21 -137.726 374.28 -114.57 398.102C-95.1841 418.02 -70.8168 429.46 -44.5648 437.266C-39.0451 438.881 -33.6601 439.823 -28.275 441.169Z" fill="#69C278"/>
<path d="M53.4433 301.066C51.8278 283.301 51.1547 265.401 48.4622 247.771C43.7503 216.816 37.8267 185.996 32.1724 155.042C29.7492 141.853 26.6528 128.932 23.8257 115.878C22.8833 111.167 24.3642 108.072 28.2683 107.399C33.1148 106.591 34.9996 109.821 35.8073 113.724C38.3652 125.433 40.9231 137.277 43.2118 148.986C47.6544 171.192 52.097 193.533 56.0012 215.874C58.963 233.639 61.2516 251.539 63.4056 269.439C64.7519 280.206 65.2904 291.107 66.2328 303.22C68.2521 299.721 69.8676 296.894 71.4832 294.068C71.887 292.991 72.1563 292.049 72.5602 290.973V291.107C73.5025 288.281 74.3103 285.455 75.3873 282.628C85.8881 254.5 85.4842 225.833 78.0798 197.436C67.3098 156.253 44.9619 120.588 22.614 83.3081C21.4024 92.4599 20.3254 100.131 19.2484 107.803C16.2866 129.067 13.3248 150.331 10.4977 171.596C3.90103 221.527 18.8445 264.594 53.4433 301.066Z" fill="#6AC378"/>
<path d="M139.469 170.788C140.681 169.308 142.296 167.962 142.969 166.347C157.643 130.413 168.952 93.6711 174.741 55.1798C176.222 44.8168 177.433 34.3191 178.78 23.9561C179.318 20.1877 180.799 16.9577 184.973 16.5539C188.607 16.1502 191.3 19.3802 190.761 24.2253C189.146 38.6259 187.396 53.0264 185.107 67.2924C180.934 93.6711 173.529 119.108 164.509 144.275C160.875 154.503 156.566 164.597 152.662 174.691C152.124 176.037 151.855 177.517 151.585 178.998C182.953 166.347 204.089 144.544 208.936 110.225C214.321 72.0029 204.897 36.2033 189.281 1.61502C189.011 1.34585 188.607 1.07668 187.53 0C178.645 11.9781 169.356 23.4178 161.144 35.665C148.489 54.3723 138.392 74.56 133.949 97.0357C128.968 122.068 130.988 146.697 139.469 170.788Z" fill="#69C278"/>
<path d="M52.366 371.589C67.7133 370.647 83.0607 368.763 98.408 368.763C117.39 368.763 136.103 372.262 154.008 378.184C170.702 383.702 187.126 390.027 203.551 396.353C209.34 398.641 210.82 401.601 209.205 405.235C207.455 409.138 204.089 409.811 198.435 407.389C177.433 398.237 156.162 390.431 133.815 385.586C113.89 381.279 93.8307 379.126 73.5022 381.683C66.0978 382.625 58.6934 383.702 51.289 384.778C62.059 402.409 79.0219 410.484 98.2734 414.925C116.852 419.232 135.699 418.694 154.412 417.482C174.741 416.137 194.935 414.522 215.129 413.041C217.417 412.907 219.706 412.503 223.206 412.099C217.283 405.101 212.167 399.044 206.782 392.988C194.531 379.395 181.472 366.34 165.586 356.919C136.507 339.692 106.216 335.789 74.8485 350.728C65.5593 355.304 58.0203 362.572 52.366 371.589Z" fill="#69C378"/>
<path d="M131.526 248.578C139.873 245.752 148.22 242.118 156.836 240.369C170.164 237.677 183.761 235.524 197.358 234.447C212.032 233.236 226.841 233.236 241.65 233.37C251.612 233.505 261.709 234.447 271.672 235.389C275.576 235.793 278.672 238.081 278.403 242.253C278.134 246.156 275.307 247.636 271.268 247.502C250.805 246.694 230.342 245.079 210.013 245.617C183.223 246.29 156.567 249.117 132.334 262.575C144.316 264.863 156.163 268.362 168.279 269.439C206.244 272.938 241.785 262.306 276.653 248.847C281.499 246.963 286.077 244.945 292.135 242.522C286.346 239.292 281.903 236.466 277.191 234.043C253.497 221.661 228.726 212.913 201.532 214.394C174.876 215.74 151.182 224.353 133.546 245.752C132.738 246.56 132.199 247.636 131.526 248.578Z" fill="#6AC379"/>
<path d="M72.6943 290.973C72.2905 292.049 72.0212 292.991 71.6173 294.068C72.0212 292.991 72.2905 291.915 72.6943 290.973Z" fill="#FEFEFE"/>
<path d="M109.717 259.345C109.582 259.749 109.447 260.153 109.313 260.422C109.717 260.287 110.121 260.287 110.524 260.153C110.255 260.018 109.986 259.614 109.717 259.345Z" fill="#FEFEFE"/>
</g>
<defs>
<clipPath id="clip0_241_134">
<rect width="500" height="509" fill="white" transform="matrix(-1 0 0 1 292 0)"/>
</clipPath>
</defs>
</svg>
