<svg width="80" height="84" viewBox="0 0 80 84" fill="none" xmlns="http://www.w3.org/2000/svg">
<g clip-path="url(#clip0_86_5)">
<path d="M30.1115 28.9997C32.1337 26.4515 34.5115 24.8054 37.4448 24.0837C38.3337 23.8582 39.2448 23.7455 40.1559 23.6778C41.4448 23.5876 41.9337 24.1063 41.8893 25.4142C41.6893 31.8636 36.9781 37.208 30.6448 38.1777C30.4893 38.2003 30.3115 38.2228 30.1115 38.2679C30.1115 39.2827 30.1115 40.2974 30.1115 41.3348C34.9337 41.3348 39.7115 41.3348 44.6004 41.3348C44.6004 40.9514 44.6004 40.5906 44.6004 40.2298C44.6004 30.7812 44.6004 21.3552 44.6004 11.9066C44.6004 10.1927 44.9115 9.89959 46.6004 9.92214C61.7559 10.1476 75.1115 21.6032 77.6448 36.8021C79.7337 49.2274 75.9115 59.6231 66.5559 67.899C66.1115 68.305 65.9559 68.6658 65.9559 69.2521C65.9781 72.7925 66.0004 76.3554 65.9559 79.8958C65.9337 82.6695 63.4893 84.5637 60.9781 83.797C59.3337 83.3009 58.2226 81.7224 58.1781 79.8056C58.1559 78.2496 58.1781 76.7162 58.1781 75.1603C58.1781 74.1455 57.7337 73.6268 56.9115 73.6268C56.0893 73.6268 55.6226 74.168 55.6226 75.1377C55.6226 75.9044 55.6448 76.6711 55.6226 77.4153C55.5559 79.738 53.9115 81.4293 51.7559 81.4293C49.6226 81.4293 47.9337 79.7154 47.8448 77.4153C47.8226 76.7839 47.8448 76.1299 47.8448 75.3407C46.3781 75.3407 44.9781 75.4534 43.6226 75.3181C31.3559 74.1455 22.4448 67.9216 16.8226 56.8494C14.6448 52.5423 13.667 47.9195 13.6226 43.0711C13.6004 41.7632 14.0226 41.3348 15.267 41.3122C15.8893 41.3122 16.5337 41.3122 17.3781 41.3122C16.8448 40.9063 16.467 40.6357 16.1115 40.3425C14.467 39.0572 13.067 37.5463 11.9781 35.7648C11.7337 35.3589 11.4893 35.2011 11.0004 35.2011C5.20037 35.2462 0.60037 30.9842 0.044814 25.0985C-0.466297 19.709 3.35593 14.6352 8.77815 13.5076C15.5781 12.087 22.0893 17.905 21.6004 24.9181C21.5781 25.1887 21.6448 25.5946 21.8226 25.7074C24.067 27.1731 25.9115 29.0674 27.4448 31.5028C27.4448 27.8271 27.4448 24.3318 27.4448 20.7463C25.6893 20.4531 24.0004 19.8217 22.5559 18.6717C19.9781 16.6196 18.5781 13.9586 18.4893 10.6212C18.4448 9.51623 18.9559 8.99757 20.0448 9.02012C21.7115 9.06522 23.267 9.51623 24.7559 10.328C24.9115 9.24563 24.9781 8.18576 25.2004 7.171C25.5781 5.38952 26.4226 3.8561 27.6448 2.52563C28.4893 1.60106 29.1781 1.62361 30.0226 2.57073C31.9559 4.75811 32.8448 7.3063 32.7115 10.1702C34.0004 9.80939 35.2893 9.44858 36.5781 9.11033C36.8226 9.04268 37.067 9.04267 37.3115 9.02012C38.6893 8.95247 39.2004 9.51623 39.0893 10.8918C38.7337 15.8303 35.467 19.5962 30.6893 20.6335C30.5115 20.6786 30.3115 20.7237 30.0893 20.7688C30.1115 23.4974 30.1115 26.1358 30.1115 28.9997ZM47.2448 72.8601C47.7781 72.815 48.2226 72.7925 48.6448 72.7474C49.867 72.6121 50.4448 73.1082 50.4448 74.3259C50.467 75.3407 50.4226 76.3554 50.467 77.3702C50.4893 78.2722 51.0226 78.836 51.7559 78.8134C52.5115 78.7909 52.9781 78.2496 53.0004 77.3251C53.0226 76.4456 52.9781 75.5662 53.0226 74.7092C53.1337 72.7474 54.5781 71.259 56.5115 71.011C58.2448 70.808 60.0004 71.913 60.5337 73.6268C60.7115 74.168 60.7559 74.7769 60.7781 75.3632C60.8226 76.9192 60.7781 78.4526 60.8226 80.0086C60.8448 80.7978 61.3781 81.3165 62.067 81.3165C62.8004 81.3165 63.3115 80.7978 63.3337 79.9635C63.3337 79.738 63.3337 79.5125 63.3337 79.287C63.3337 75.6338 63.3559 71.9581 63.3115 68.305C63.3115 67.5382 63.5337 66.9519 64.1559 66.5009C64.667 66.095 65.1559 65.644 65.6893 65.193C60.7337 59.4878 54.6893 56.3533 47.2226 55.8797C47.2448 61.6075 47.2448 67.1774 47.2448 72.8601ZM67.6893 63.2762C72.5337 57.8867 75.2226 51.5275 75.6004 44.0859C71.2448 44.0859 67.0226 44.0859 62.7337 44.0859C62.7115 44.334 62.7115 44.5595 62.667 44.785C62.2448 48.3479 61.9559 51.956 61.3115 55.4738C61.0226 57.0523 61.0893 58.0897 62.6226 58.7211C62.7781 58.7887 62.8893 58.9015 63.0226 59.0142C64.5559 60.4349 66.0893 61.8556 67.6893 63.2762ZM75.5781 41.3573C75.1781 33.9157 72.4893 27.5339 67.5337 22.0542C65.6448 24.2416 63.6004 26.0682 61.3115 27.6242C61.1337 27.7369 61.0448 28.1879 61.0893 28.4585C61.4893 31.0744 62.0004 33.6676 62.3559 36.2835C62.5781 37.9522 62.6226 39.6435 62.7559 41.3573C67.0004 41.3573 71.2226 41.3573 75.5781 41.3573ZM16.1781 44.0859C16.6004 51.5275 19.2893 57.9093 24.267 63.389C26.1337 61.1791 28.2226 59.3299 30.5337 57.7514C30.6893 57.6386 30.7337 57.2327 30.6893 56.9847C30.2448 53.9178 29.7337 50.8736 29.3115 47.8293C29.1337 46.6115 29.1559 45.3713 29.067 44.0859C24.7781 44.0859 20.5115 44.0859 16.1781 44.0859ZM27.2448 41.3348C27.8004 31.2999 18.6893 24.873 11.9337 25.9329C11.4448 34.7726 18.9781 41.9211 27.2448 41.3348ZM10.3559 32.5401C9.37815 29.9919 9.22259 27.331 9.31148 24.6475C9.3337 23.7004 9.77815 23.1141 10.6226 23.1592C12.7115 23.2719 14.8226 23.4523 16.9115 23.7004C17.6004 23.768 18.267 24.0837 18.9559 24.3093C19.1337 19.8894 15.3115 16.0333 10.8448 16.0107C6.20037 15.9882 2.44481 19.8894 2.60037 24.5573C2.75593 29.9017 7.44481 32.7431 10.3559 32.5401ZM60.0893 41.3348C60.0004 37.208 59.5337 33.2166 58.5337 29.2027C54.9115 31.0067 51.1559 31.9538 47.2226 32.1793C47.2226 35.2913 47.2226 38.2905 47.2226 41.3348C51.5115 41.3348 55.7337 41.3348 60.0893 41.3348ZM31.6893 44.0633C31.8226 48.2126 32.267 52.1815 33.267 56.1954C36.8893 54.3914 40.6448 53.4668 44.5781 53.2188C44.5781 50.1068 44.5781 47.1076 44.5781 44.0633C40.267 44.0633 36.0226 44.0633 31.6893 44.0633ZM47.2226 53.2413C51.1781 53.4443 54.9337 54.414 58.5559 56.218C59.5115 52.1589 60.0226 48.1675 60.0448 44.1084C55.7115 44.1084 51.467 44.1084 47.2226 44.1084C47.2226 47.1527 47.2226 50.1519 47.2226 53.2413ZM44.5559 55.9023C40.7781 56.0601 37.2893 57.0749 33.9337 58.8338C34.2448 59.7584 34.5115 60.6153 34.8448 61.4497C36.1559 64.7871 37.7559 67.9667 40.4004 70.4472C41.5781 71.5296 42.8893 72.3866 44.5559 72.7248C44.5559 67.0872 44.5559 61.5399 44.5559 55.9023ZM57.8448 26.6094C56.7115 23.0239 55.2893 19.6639 53.0004 16.7323C51.8893 15.3117 50.6004 14.0714 48.9559 13.2821C48.4226 13.0341 47.8448 12.8762 47.267 12.6507C47.267 18.3785 47.267 23.9259 47.267 29.5409C51.0226 29.3154 54.5337 28.3683 57.8448 26.6094ZM31.5559 60.029C29.6226 61.8105 27.8448 63.4341 26.0226 65.1028C29.5781 68.2824 33.4004 70.4247 37.7781 71.6424C34.8226 68.3501 33.0448 64.4488 31.5559 60.029ZM54.0448 13.7782C57.0226 17.0706 58.7781 21.0169 60.267 25.3691C62.2004 23.6102 63.9781 21.964 65.7781 20.2953C62.2448 17.1382 58.4226 14.9734 54.0448 13.7782ZM39.1337 26.4741C34.8004 26.7672 30.3115 31.345 30.267 35.4942C34.4226 35.3364 39.0893 30.6459 39.1337 26.4741ZM21.2004 11.9742C21.8226 15.1538 24.7559 18.0403 27.2448 18.0177C26.867 15.0636 23.9781 12.1546 21.2004 11.9742ZM36.3337 11.9968C34.0226 12.0419 30.5559 14.9058 30.3337 18.0177C32.9115 17.9275 35.8004 15.0411 36.3337 11.9968ZM28.7781 5.38952C26.9781 7.84751 27.0004 11.9066 28.7781 14.0488C30.5559 11.7713 30.5781 7.91516 28.7781 5.38952Z" fill="#4BAF47"/>
<path d="M77.5775 0C77.9998 0.338255 78.4887 0.541208 78.6664 0.924564C78.822 1.28537 78.7998 1.91678 78.5998 2.25503C77.422 4.21691 77.422 4.73557 78.822 6.51705C80.4442 8.52403 80.3775 11.4556 78.7109 13.3498C78.1109 14.0489 77.3109 14.1616 76.7331 13.6204C76.1775 13.1243 76.1775 12.3801 76.7331 11.6585C77.6887 10.3957 77.6442 9.13289 76.5998 7.91517C74.7553 5.77289 74.6664 2.84134 76.4442 0.856913C76.7331 0.518658 77.1331 0.338255 77.5775 0Z" fill="#4BAF47"/>
<path d="M71.0444 14.1166C70.6222 13.7332 70.111 13.5077 69.9777 13.1469C69.8444 12.741 69.9111 12.1096 70.1555 11.7713C70.7555 10.937 71.1333 10.1026 70.7777 9.11039C70.6222 8.61428 70.2888 8.16327 69.9555 7.77992C68.2444 5.70529 68.2222 2.86395 69.8888 0.879516C70.5555 0.112805 71.2888 -0.0224974 71.9111 0.518711C72.4888 1.01482 72.4666 1.75898 71.8888 2.52569C70.9333 3.78851 71.0222 4.96113 72.1777 6.31415C73.8888 8.34368 73.9555 11.2076 72.2888 13.192C72.0222 13.5303 71.5555 13.7558 71.0444 14.1166Z" fill="#4BAF47"/>
<path d="M64.6446 14.0939C64.2002 13.7557 63.7113 13.5302 63.5558 13.1694C63.4002 12.8086 63.4224 12.1997 63.6446 11.8389C64.8224 9.87703 64.8224 9.33582 63.4224 7.57689C61.778 5.52481 61.8669 2.52562 63.6224 0.69904C64.2446 0.0450802 64.9558 -0.0225707 65.5335 0.496087C66.0669 0.992194 66.0891 1.69125 65.578 2.39032C64.5113 3.81099 64.5558 4.8483 65.7335 6.24642C67.4891 8.3436 67.5558 11.23 65.8669 13.1919C65.5335 13.5302 65.1113 13.7557 64.6446 14.0939Z" fill="#4BAF47"/>
</g>
<defs>
<clipPath id="clip0_86_5">
<rect width="80" height="84" fill="white"/>
</clipPath>
</defs>
</svg>
