<svg width="84" height="84" viewBox="0 0 84 84" fill="none" xmlns="http://www.w3.org/2000/svg">
<g clip-path="url(#clip0_86_50)">
<path d="M0 76.455C0.524727 73.9182 2.12077 72.278 4.28527 71.0752C4.85372 70.769 5.37845 70.3535 6.07808 69.8942C5.61895 69.7412 5.33472 69.6537 5.02863 69.5662C2.84227 68.8883 1.42113 66.7888 1.63977 64.4706C1.77095 63.2022 2.44872 62.2837 3.56377 61.6933C6.09995 60.3374 8.8329 59.4407 11.6096 58.7409C12.8339 58.4347 14.0583 58.1942 15.3045 57.9973C15.873 57.9099 16.1135 57.6474 16.2009 57.1444C16.4633 55.6136 16.9443 54.0827 16.988 52.5519C17.0973 47.7188 17.0318 42.8856 17.0318 38.1619C15.8074 37.6151 14.5393 37.2434 13.4461 36.5654C10.7569 34.8815 9.37949 32.3665 9.20458 29.2173C9.13899 28.0583 9.66372 27.5334 10.8225 27.5771C12.8558 27.6646 14.6705 28.3207 16.2447 29.5891C16.4633 29.7641 16.7038 29.9609 17.0536 30.2671C17.0536 28.9768 17.0536 27.8177 17.0536 26.6586C17.0536 26.1775 17.0536 25.6745 17.0536 25.1934C17.0755 24.2311 17.5783 23.6407 18.3654 23.6625C19.1525 23.6625 19.6554 24.253 19.6773 25.2152C19.6773 25.5433 19.6773 25.8495 19.6773 26.3087C19.9615 26.09 20.1364 25.9588 20.3113 25.8276C21.9073 24.4936 23.7657 23.75 25.8428 23.6625C27.0453 23.6188 27.5482 24.1218 27.5263 25.3246C27.417 29.4798 24.3779 33.0445 20.1145 33.9848C19.9833 34.0067 19.8522 34.0286 19.6991 34.0723C19.6991 35.8875 19.6991 37.6807 19.6991 39.5615C22.6507 37.8776 25.8209 37.0903 29.0349 36.5217C35.4191 35.4063 41.847 35.2095 48.2967 35.7125C52.2759 36.0187 56.2551 36.4998 60.0375 37.7901C61.7428 38.3806 63.4045 39.2116 64.9568 40.152C66.3123 40.9611 66.9245 42.2952 66.9027 43.9791C66.8589 47.2595 66.9245 50.5399 67.0557 53.8203C67.0994 54.9138 67.493 56.0072 67.6898 57.1007C67.7991 57.7349 68.127 57.9755 68.7611 58.0629C72.3248 58.5878 75.7356 59.6157 79.0151 61.059C79.2993 61.1903 79.5617 61.3215 79.8241 61.4308C81.4638 62.1744 82.4477 63.3772 82.2728 65.2798C82.076 67.2262 81.114 68.6477 79.2775 69.435C78.8839 69.6099 78.4466 69.6974 77.8563 69.8942C78.228 70.1567 78.4904 70.3535 78.7527 70.5503C79.5836 71.1189 80.4581 71.6219 81.2889 72.2343C84.634 74.7274 84.809 79.7792 81.6387 82.141C79.5617 83.6938 76.7413 83.6719 74.5112 82.1629C72.5216 80.807 70.5758 79.3855 68.4768 78.2483C64.2134 75.952 59.6002 74.9023 54.7902 74.8586C53.8064 74.8586 52.8006 75.0991 51.8168 75.3178C50.5705 75.5803 49.9146 76.5206 49.8709 77.6797C49.7616 81.0695 48.0781 83.1033 44.886 84.0218C42.9183 84.0218 40.9506 84.0218 38.9828 84.0218C35.8126 83.1033 34.1072 81.0695 33.9979 77.6797C33.9542 76.5206 33.2983 75.6021 32.0521 75.3178C31.0682 75.0991 30.0625 74.8586 29.0786 74.8586C25.1432 74.8586 21.3389 75.6677 17.6877 77.1548C14.7579 78.3358 12.0687 80.0416 9.53254 82.0098C7.41177 83.65 4.59136 83.6719 2.42686 82.1848C1.09318 81.2663 0.393545 79.9323 0 78.4233C0 77.7672 0 77.1111 0 76.455ZM19.6773 47.0846C19.6773 48.5935 19.6991 49.9713 19.6773 51.3709C19.5679 58.0192 17.2067 63.7271 12.3092 68.2103C10.0354 70.3098 7.36804 71.9718 4.89745 73.8526C4.39459 74.2244 3.848 74.5961 3.47631 75.0554C1.85841 77.0674 2.62363 79.8666 4.94118 80.5009C6.23113 80.8508 7.34617 80.4571 8.37376 79.6479C12.3748 76.455 16.8787 74.2462 21.8855 73.0872C24.9464 72.3873 28.0729 71.8843 31.2212 72.3655C34.3696 72.8466 36.5997 74.29 36.7527 78.3139C36.8183 79.9979 38.2395 81.31 39.923 81.3538C41.1036 81.3975 42.2624 81.3538 43.443 81.3538C45.8917 81.3538 47.0942 80.1947 47.2254 77.7234C47.3566 75.4272 48.6903 73.5027 50.8329 72.8466C52.0791 72.4748 53.3909 72.1905 54.6809 72.1905C62.0708 72.2343 68.7392 74.5087 74.6642 78.9044C75.189 79.298 75.6918 79.7354 76.2384 80.0853C78.2061 81.3538 80.7423 80.3696 81.2233 78.1608C81.5731 76.5862 80.8735 75.0554 79.3868 74.0057C77.3316 72.5623 75.2108 71.2064 73.2431 69.6318C67.2525 64.7768 64.1916 58.4785 64.2572 50.7367C64.2572 49.5558 64.2572 48.353 64.2572 47.1064C63.3826 47.5001 62.6174 47.9156 61.8084 48.2218C57.8511 49.7963 53.697 50.4087 49.5211 50.8242C43.5523 51.3928 37.5617 51.3053 31.6148 50.4962C27.5482 49.9713 23.5034 49.184 19.6773 47.0846ZM43.0495 48.5935C44.4487 48.5061 46.9193 48.4404 49.368 48.2218C53.2379 47.8937 57.064 47.2814 60.7153 45.8599C61.7647 45.4444 62.7923 44.8758 63.7106 44.2197C64.5195 43.6511 64.4977 43.0169 63.7324 42.4045C63.1203 41.9234 62.4206 41.5079 61.721 41.1798C58.1353 39.5834 54.3311 38.9273 50.4612 38.5337C42.6996 37.7245 34.9818 37.8776 27.3295 39.5615C25.012 40.0645 22.7163 40.7206 20.7048 42.0765C19.393 42.9731 19.3274 43.8042 20.7048 44.5258C22.4102 45.4225 24.203 46.2098 26.0396 46.7346C31.2212 48.2218 36.5997 48.5061 43.0495 48.5935ZM14.7361 60.731C11.1723 61.4527 7.93649 62.3931 4.87559 63.9677C4.35086 64.2301 4.17595 64.6237 4.2634 65.1705C4.39459 66.0452 4.83186 66.7013 5.7064 66.9856C6.23113 67.1606 6.77772 67.2262 7.25872 67.4667C8.37376 68.0135 9.16085 67.6636 9.99167 66.8544C11.8501 65.1049 13.4899 63.2022 14.7361 60.731ZM69.2858 60.7091C70.1385 62.8742 73.1338 66.5045 74.9703 67.6854C75.1234 67.7729 75.342 67.8604 75.4951 67.8167C76.5226 67.5324 77.5721 67.2918 78.5341 66.8981C79.3212 66.592 79.671 65.8484 79.7366 64.9955C79.8022 64.1645 79.1244 63.9239 78.5778 63.7052C76.785 62.9835 74.9922 62.3056 73.1557 61.6933C71.9313 61.2996 70.6632 61.059 69.2858 60.7091ZM24.7496 26.5055C22.3446 26.9648 20.1583 29.1955 19.9833 31.3168C22.4321 30.5951 23.9844 29.0205 24.7496 26.5055ZM12.025 30.3764C12.5497 32.8258 14.7798 35.0127 16.8568 35.1439C16.1135 32.6945 14.5612 31.12 12.025 30.3764Z" fill="#4BAF47"/>
<path d="M0 78.4234C0.393545 79.9542 1.09318 81.2664 2.42686 82.1849C4.59136 83.672 7.41177 83.672 9.53254 82.0099C12.0687 80.0417 14.7579 78.3359 17.7314 77.1331C21.3826 75.646 25.1869 74.8368 29.1223 74.8368C30.1062 74.8368 31.1119 75.0773 32.0958 75.296C33.3201 75.5585 33.9979 76.4989 34.0416 77.6579C34.151 81.0477 35.8345 83.0815 39.0266 84C26.0177 84 13.0089 84 0 84C0 82.1411 0 80.2822 0 78.4234Z" fill="white"/>
<path d="M52.8002 19.3981C51.7289 21.3226 50.7231 23.1596 49.7174 24.9966C49.0615 26.2213 48.4056 27.446 47.7715 28.6925C47.3999 29.458 46.7002 29.786 46.0006 29.8297C44.8855 29.8953 43.6612 29.9828 42.6117 29.6766C38.086 28.2551 35.1344 25.3028 34.1942 20.5571C34.0631 19.8355 34.0412 19.07 34.1286 18.3483C34.1724 17.9328 34.4785 17.4954 34.7846 17.1893C37.277 14.6524 39.7913 12.1375 42.3275 9.64436C42.8304 9.14137 42.8522 8.81333 42.4368 8.28847C41.9121 7.61052 41.4967 6.88883 41.0157 6.18901C40.5784 5.57667 40.5565 4.9862 40.9938 4.37386C41.8028 3.17105 42.5899 1.96824 43.4207 0.765426C44.0547 -0.153085 44.8855 -0.240562 45.6726 0.546733C46.6128 1.46524 47.5092 2.42749 48.5149 3.45535C49.455 2.51497 50.3296 1.61833 51.2041 0.743557C52.188 -0.240562 52.7564 -0.240562 53.7622 0.765426C56.1672 3.17105 58.5503 5.5548 60.9553 7.96043C61.9173 8.92268 61.9173 9.51315 60.9772 10.4535C60.1026 11.3283 59.2281 12.1593 58.113 13.2528C58.5066 13.5152 58.8564 13.6902 59.1188 13.9526C67.0334 21.4757 74.948 29.0206 82.8845 36.5655C84.5243 38.1182 84.415 38.7743 82.3816 39.7803C80.239 40.8519 78.0745 41.9235 75.9319 42.9732C74.7731 43.5418 74.4451 43.4762 73.5925 42.5358C67.099 35.2971 60.6055 28.0583 54.112 20.7977C53.6747 20.3385 53.2593 19.9011 52.8002 19.3981ZM39.529 16.3364C41.7153 19.1794 44.3171 21.6069 47.7497 23.1815C48.9084 21.0164 50.0235 18.8951 51.1385 16.7738C51.2916 16.4676 51.4884 16.1614 51.7507 15.9209C53.8496 13.7995 55.9485 11.7219 58.0693 9.60063C58.2005 9.46941 58.3098 9.31633 58.3535 9.27259C56.3421 7.26061 54.3743 5.31424 52.4722 3.38974C48.2088 7.65426 43.9235 11.9406 39.529 16.3364ZM80.3702 37.7902C72.3681 30.1578 64.4097 22.591 56.4951 15.0461C55.7299 15.7896 55.0521 16.4457 54.3306 17.1455C61.2833 24.8873 68.214 32.629 75.1666 40.3707C76.9157 39.5178 78.5992 38.6868 80.3702 37.7902ZM37.6268 18.1734C36.7523 18.6108 36.643 19.2669 36.7523 20.076C37.1021 22.3067 38.2609 24.0344 39.9881 25.4121C41.3218 26.5056 42.8304 27.2929 44.5794 27.3585C44.9511 27.3804 45.454 27.1835 45.6945 26.9211C46.0443 26.5275 46.1974 25.9807 46.4379 25.4777C42.8522 23.7719 40.0318 21.2351 37.6268 18.1734ZM44.8418 3.47722C43.4207 5.05181 43.4207 5.7735 44.7106 6.88883C45.3228 6.29836 45.9131 5.72976 46.5034 5.18303C45.9787 4.63629 45.4103 4.04582 44.8418 3.47722Z" fill="#4BAF47"/>
<path d="M28.8595 54.3452C28.6627 58.0411 27.2197 61.2778 25.1427 64.252C23.5248 66.5701 21.5789 68.604 19.4144 70.4191C18.9116 70.8347 18.3868 71.0534 17.7746 70.7253C16.8782 70.2442 16.8345 69.1726 17.7309 68.429C19.8954 66.6139 21.8194 64.5582 23.3717 62.1963C25.0334 59.6813 26.1921 56.9695 26.2577 53.8859C26.2796 53.0549 26.848 52.5082 27.5914 52.5301C28.3348 52.5519 28.8376 53.1205 28.8595 53.9516C28.8595 54.0609 28.8595 54.1921 28.8595 54.3452Z" fill="#4BAF47"/>
<path d="M56.3648 52.5082C57.0425 52.4863 57.6766 52.9674 57.6984 53.6891C57.9171 59.5063 61.2185 63.6178 65.1321 67.423C65.5256 67.7948 65.9629 68.1447 66.3564 68.5165C66.9686 69.0851 67.0561 69.8286 66.5751 70.3973C66.1159 70.944 65.3507 71.0752 64.7385 70.5503C60.2346 66.7669 56.6053 62.3931 55.3372 56.4446C55.1623 55.5917 55.1185 54.717 55.0967 53.8422C55.0967 53.0768 55.6651 52.53 56.3648 52.5082Z" fill="#4BAF47"/>
<path d="M47.2256 58.3473C47.2256 58.1724 47.2256 57.9974 47.2256 57.8443C47.2693 57.0133 47.7722 56.4447 48.5155 56.4447C49.2589 56.4447 49.718 56.9914 49.8492 57.8225C50.0897 59.4627 50.2865 61.1247 50.7238 62.7212C51.0299 63.8803 51.6639 64.9737 52.1886 66.0891C52.604 66.9638 52.4947 67.6855 51.7951 68.0792C51.0954 68.4728 50.3739 68.2104 49.8929 67.3575C48.3188 64.5582 47.4005 61.5621 47.2256 58.3473Z" fill="#4BAF47"/>
<path d="M36.7307 58.3692C36.5558 61.584 35.6375 64.5801 34.0415 67.3794C33.5605 68.2104 32.8171 68.451 32.1175 68.0355C31.4397 67.62 31.3085 66.8983 31.7895 66.0235C33.1669 63.4867 34.0196 60.8186 34.1071 57.91C34.1289 56.9477 34.6755 56.3791 35.4626 56.401C36.2278 56.4229 36.7088 57.0133 36.7307 57.91C36.7307 58.1068 36.7307 58.238 36.7307 58.3692Z" fill="#4BAF47"/>
<path d="M53.9376 43.0388C51.6419 42.7545 49.3681 42.4046 47.0505 42.1859C45.3889 42.0328 43.7273 42.0547 42.0656 41.989C41.2129 41.9453 40.6664 41.4423 40.6664 40.6988C40.6664 39.9552 41.2129 39.3866 42.0438 39.3866C45.8918 39.3866 49.7616 39.5178 53.5222 40.4145C54.5935 40.6769 55.6648 41.0924 56.6268 41.6391C58.1135 42.5139 58.0917 43.9135 56.6924 44.9195C55.2712 45.9255 53.6096 46.3192 51.9261 46.5597C45.0609 47.5438 38.1958 47.5657 31.3525 46.4066C30.1281 46.2098 28.9256 45.7724 27.7887 45.2476C27.1984 44.9851 26.6736 44.3728 26.3457 43.7823C25.9959 43.17 26.2801 42.5358 26.9141 42.1859C27.5482 41.836 28.0948 42.0109 28.5976 42.5358C28.9037 42.8419 29.2754 43.2137 29.6908 43.3012C31.9428 43.7386 34.1947 44.2197 36.4685 44.4165C41.4534 44.8321 46.4602 44.7446 51.4233 43.9792C52.2759 43.8479 53.1067 43.6292 53.9376 43.4543C53.9376 43.3231 53.9376 43.17 53.9376 43.0388Z" fill="#4BAF47"/>
</g>
<defs>
<clipPath id="clip0_86_50">
<rect width="84" height="84" fill="white"/>
</clipPath>
</defs>
</svg>
