<svg width="158" height="162" viewBox="0 0 158 162" fill="none" xmlns="http://www.w3.org/2000/svg">
<path d="M48.8794 16.888C48.5314 15.9151 47.7659 15.4981 46.4437 15.7066L45.539 15.7761C43.8688 15.9846 42.6161 15.9846 41.7114 15.5676C40.8067 15.1506 40.1108 14.5946 39.6932 13.6911C39.3453 12.9267 39.2757 12.0927 39.4149 11.2587C39.554 10.4247 39.9716 9.66024 40.5979 8.96526C41.2243 8.27028 41.9202 7.71429 42.8249 7.22781C43.66 6.81082 44.4951 6.60233 45.3302 6.60233C46.1653 6.60233 46.9308 6.81082 47.5572 7.29731C48.2531 7.71429 48.7402 8.33978 49.1578 9.17375L46.8612 10.4247C46.5133 9.72974 46.0957 9.24325 45.539 9.03476C44.9822 8.82626 44.3559 8.89576 43.66 9.24325C42.9641 9.59074 42.4073 10.0772 42.129 10.7027C41.8506 11.3282 41.781 11.9537 41.9898 12.5792C42.2681 13.4131 43.1033 13.7606 44.4951 13.6216L45.3302 13.4826C47.0004 13.2741 48.2531 13.3436 49.2274 13.6911C50.1321 14.1081 50.828 14.7336 51.2455 15.7066C51.5935 16.4711 51.6631 17.305 51.5239 18.0695C51.3847 18.834 51.0368 19.5985 50.4104 20.2934C49.7841 20.9884 49.0186 21.6139 48.1139 22.0309C47.2092 22.4479 46.3741 22.7259 45.4694 22.7259C44.5647 22.7259 43.7296 22.5174 43.0337 22.1004C42.3377 21.6834 41.781 20.9884 41.3634 20.2239L43.66 19.0425C44.0079 19.807 44.4951 20.2934 45.1214 20.5019C45.7478 20.7104 46.4437 20.5714 47.2788 20.2239C48.0443 19.8765 48.5314 19.39 48.8794 18.7645C49.0882 18.2085 49.0882 17.583 48.8794 16.888Z" fill="white"/>
<path d="M60.0844 16.888C59.9452 16.6795 59.806 16.3321 59.6669 15.9151C59.0405 17.027 58.2054 17.722 57.2311 18C56.3264 18.278 55.4217 18.2085 54.6562 17.861C53.8907 17.444 53.334 16.8185 53.0556 15.9151C52.7772 14.8031 52.9164 13.7606 53.6819 12.7877C54.3778 11.8147 55.5609 11.1197 57.0919 10.6332L58.623 10.1467L58.5534 9.38225C58.4838 9.10426 58.4142 8.89577 58.3446 8.68727C57.9966 7.99229 57.3703 7.7838 56.6048 8.06179C56.1177 8.20079 55.7001 8.47878 55.4217 8.89577C55.1434 9.31276 55.0042 9.72974 55.0738 10.2162L52.7076 10.9807C52.5685 10.2857 52.5684 9.66025 52.8468 9.03476C53.1252 8.40928 53.5427 7.8533 54.1691 7.36681C54.7954 6.88032 55.4913 6.53283 56.2568 6.25484C57.4399 5.90735 58.4838 5.97685 59.3189 6.46333C60.154 6.94982 60.7107 7.7143 60.9891 8.82627L61.7546 14.1081L61.9634 15.0116C62.1026 15.4286 62.2418 15.7761 62.4505 16.1236L62.5201 16.3321L60.0844 16.888ZM57.0919 15.9151C57.5791 15.7761 57.9966 15.4981 58.3446 15.1506C58.6926 14.8031 58.9709 14.3166 59.1101 13.8996L58.8317 11.7452L57.7183 12.0927C56.8136 12.3707 56.1872 12.7877 55.7697 13.2741C55.3521 13.7606 55.213 14.3166 55.2825 14.9421C55.3521 15.4286 55.5609 15.7066 55.9089 15.9151C56.2568 16.1236 56.6744 16.0541 57.0919 15.9151Z" fill="white"/>
<path d="M67.6004 11.8147L69.8274 3.40542L72.4023 2.98843L68.7139 14.9421L66.6261 15.2896L62.8682 4.51739L65.3039 4.1004L67.6004 11.8147Z" fill="white"/>
<path d="M78.3175 14.2471C77.3432 14.2471 76.5081 14.0386 75.7426 13.5521C75.0467 13.0657 74.4899 12.4402 74.142 11.6757C73.794 10.8417 73.6548 9.93825 73.7244 8.96528V8.54829C73.8636 7.43632 74.142 6.39385 74.6987 5.49037C75.2555 4.5869 75.8818 3.89192 76.7169 3.40543C77.552 2.91894 78.3871 2.71045 79.3614 2.71045C80.7532 2.71045 81.7971 3.19694 82.5626 4.23941C83.3282 5.28188 83.5369 6.53284 83.3977 8.2008L83.2586 9.31277L76.2297 9.45176C76.1602 10.3552 76.3689 11.0502 76.7865 11.6062C77.204 12.1622 77.8304 12.4402 78.5263 12.4402C79.5702 12.4402 80.5445 11.9537 81.4492 11.0502L82.7018 12.3012C82.2147 12.9962 81.6579 13.4826 80.8924 13.8996C80.1269 14.0386 79.2918 14.2471 78.3175 14.2471ZM79.2222 4.65639C77.9 4.65639 76.9953 5.55987 76.3689 7.43632L81.0316 7.36682L81.1012 7.15833C81.1708 6.81084 81.1708 6.53284 81.1012 6.25485C81.0316 5.76836 80.8228 5.35138 80.4749 5.07338C80.1269 4.79539 79.7094 4.65639 79.2222 4.65639Z" fill="white"/>
<path d="M103.858 4.5174L99.4036 3.54442L94.393 15.7066L91.8877 15.1506L96.8983 2.98844L92.4444 2.01547L93.2795 0.069519L104.623 2.64095L103.858 4.5174Z" fill="white"/>
<path d="M107.477 9.31276C108.729 8.75678 109.843 8.75678 110.956 9.17377C111.931 9.59075 112.487 10.2162 112.696 11.1197C112.905 12.0232 112.696 12.9962 112.07 14.1776L108.173 20.363L105.876 19.4595L109.773 13.2742C109.912 12.9962 110.052 12.7877 110.121 12.5097C110.33 11.6757 110.052 11.1197 109.216 10.7722C108.381 10.4247 107.477 10.4942 106.433 11.0502L102.048 17.9305L99.752 17.027L108.381 3.40543L110.678 4.3784L107.477 9.31276Z" fill="white"/>
<path d="M114.296 23.9768C113.461 23.4209 112.905 22.7954 112.557 22.0309C112.209 21.2664 112.069 20.4324 112.209 19.529C112.348 18.6255 112.696 17.7915 113.322 17.027L113.6 16.6796C114.296 15.7761 115.131 15.0811 116.036 14.5946C116.941 14.1081 117.915 13.8996 118.82 13.8996C119.725 13.8996 120.629 14.1776 121.395 14.7336C122.578 15.4981 123.204 16.4711 123.274 17.722C123.343 18.973 122.856 20.224 121.882 21.5444L121.186 22.3784L115.201 18.695C114.714 19.39 114.436 20.1545 114.505 20.7799C114.575 21.4749 114.923 22.0309 115.549 22.3784C116.454 22.9344 117.498 23.0734 118.75 22.7259L119.098 24.4633C118.333 24.8108 117.567 24.8803 116.732 24.8108C115.897 24.7413 115.062 24.4633 114.296 23.9768ZM120.212 16.3321C119.098 15.6371 117.846 15.9151 116.245 17.166L120.212 19.5985L120.351 19.4595C120.56 19.1815 120.699 18.973 120.838 18.695C121.047 18.2085 121.047 17.7915 120.977 17.3745C120.908 16.9575 120.629 16.6101 120.212 16.3321Z" fill="white"/>
<path d="M134.895 32.0386L130.65 27.7992L126.823 30.5097L131.764 35.5135L130.024 36.7645L123.273 29.9537L135.8 21.1969L142.55 27.9382L140.811 29.1892L135.939 24.2548L132.46 26.6873L136.705 30.9267L134.895 32.0386Z" fill="white"/>
<path d="M142.55 34.5405L141.367 35.0965C142.759 35.305 143.803 35.861 144.499 36.9035C145.125 37.7375 145.264 38.6409 144.916 39.4749C144.638 40.3089 143.873 41.0734 142.759 41.6989L136.148 44.8958L134.756 42.8803L141.367 39.6834C141.646 39.5444 141.854 39.4054 142.063 39.1969C142.69 38.6409 142.759 38.0155 142.272 37.251C141.715 36.4865 140.88 36.0695 139.697 36.0695L132.39 39.5444L130.998 37.529L141.228 32.5946L142.55 34.5405Z" fill="white"/>
<path d="M142.203 49.1352L150.902 48.7182L152.085 51.0811L139.558 51.1506L138.584 49.2742L147.701 42.3939L148.814 44.6178L142.203 49.1352Z" fill="white"/>
<path d="M142.551 57.9614L141.716 55.668L152.92 53.583L153.755 55.8765L142.551 57.9614ZM155.704 52.9575C156.052 52.8186 156.4 52.8186 156.748 52.9575C157.096 53.0965 157.304 53.3745 157.513 53.722C157.652 54.0695 157.652 54.417 157.513 54.7645C157.374 55.112 157.096 55.3205 156.748 55.4595C156.4 55.5985 156.052 55.5985 155.704 55.4595C155.356 55.3205 155.147 55.0425 155.008 54.695C154.869 54.3475 154.869 54 155.008 53.6525C155.078 53.305 155.356 53.027 155.704 52.9575Z" fill="white"/>
<path d="M153.894 64.9807C153.894 64.6332 153.825 64.3552 153.755 64.0077C153.477 62.9653 152.85 62.2703 151.806 61.8533L144.012 62.5483L143.386 60.1854L154.729 59.1429L155.356 61.3668L154.033 61.4363C155.216 61.9228 155.912 62.6178 156.191 63.5908C156.26 63.7993 156.26 64.1467 156.26 64.5637L153.894 64.9807Z" fill="white"/>
<path d="M150.972 66.3012C152.085 66.3012 153.129 66.4402 154.103 66.8572C155.077 67.2741 155.843 67.8301 156.469 68.5946C157.096 69.3591 157.444 70.2626 157.513 71.2355C157.652 72.2085 157.513 73.0425 157.096 73.807C156.678 74.5714 156.121 75.1274 155.286 75.6139C154.451 76.0309 153.546 76.3089 152.503 76.3089C151.32 76.3784 150.206 76.1699 149.232 75.7529C148.257 75.3359 147.492 74.7799 146.866 74.0155C146.239 73.251 145.891 72.3475 145.822 71.3745C145.683 70.4016 145.822 69.5676 146.239 68.8031C146.657 68.0386 147.214 67.4826 148.049 66.9962C148.884 66.5792 149.788 66.3012 150.832 66.3012H150.972ZM149.858 68.8726C149.162 69.0116 148.605 69.2896 148.188 69.7066C147.77 70.1236 147.631 70.6101 147.701 71.2355C147.77 72.0695 148.188 72.695 148.953 73.1815C149.719 73.668 150.624 73.8765 151.807 73.8765L152.851 73.807C153.755 73.668 154.382 73.39 154.869 73.0425C155.356 72.695 155.495 72.0695 155.425 71.444C155.286 70.4016 154.66 69.6371 153.546 69.1506C152.851 68.8726 152.085 68.7336 151.25 68.7336C150.693 68.7336 150.206 68.8031 149.858 68.8726Z" fill="white"/>
<path d="M157.861 82.1467L156.539 81.8688C157.513 82.8417 158.001 83.9537 157.931 85.2047C157.861 86.2471 157.513 87.0116 156.748 87.4981C155.982 87.9846 155.008 88.1236 153.686 87.9846L146.448 86.5251L146.518 84.0927L153.755 85.5522C154.034 85.6217 154.312 85.6217 154.591 85.6217C155.426 85.5522 155.843 85.0657 155.913 84.1622C155.982 83.2587 155.495 82.4247 154.591 81.6603L146.657 79.9923L146.727 77.5599L157.861 79.8533V82.1467Z" fill="white"/>
<path d="M156.748 95.2124L155.634 94.7259C156.33 95.8378 156.539 97.0193 156.191 98.2703C155.982 98.9653 155.704 99.4517 155.287 99.8687C154.869 100.216 154.382 100.425 153.895 100.494C154.799 101.745 155.078 103.066 154.73 104.386C154.451 105.429 153.895 106.124 153.06 106.471C152.224 106.819 151.181 106.749 149.998 106.332L143.247 103.413L143.804 101.05L150.624 103.969C150.902 104.108 151.181 104.178 151.459 104.178C152.294 104.247 152.781 103.83 153.06 102.996C153.338 102.023 152.99 101.12 152.016 100.286L151.807 100.216L144.848 97.2278L145.404 94.8649L152.155 97.7838C152.433 97.8533 152.712 97.9228 152.99 97.9923C153.825 98.0618 154.382 97.7143 154.591 96.8108C154.799 95.9073 154.591 95.0734 153.964 94.3089L146.379 90.973L146.935 88.61L157.374 93.1274L156.748 95.2124Z" fill="white"/>
<path d="M140.045 109.668C140.463 108.834 141.089 108.139 141.785 107.722C142.551 107.305 143.316 107.097 144.221 107.097C145.126 107.166 145.961 107.444 146.865 107.931L147.213 108.139C148.188 108.765 148.953 109.459 149.579 110.363C150.136 111.266 150.484 112.17 150.554 113.073C150.623 113.977 150.484 114.88 149.997 115.714C149.371 116.965 148.466 117.66 147.213 117.869C145.961 118.077 144.708 117.73 143.316 116.896L142.411 116.27L145.473 109.946C144.708 109.529 143.942 109.39 143.316 109.529C142.62 109.668 142.133 110.085 141.785 110.71C141.298 111.614 141.298 112.726 141.785 113.907L140.045 114.463C139.628 113.768 139.419 113.004 139.419 112.1C139.419 111.266 139.628 110.432 140.045 109.668ZM148.257 114.741C148.883 113.56 148.466 112.309 147.005 110.919L144.986 115.089L145.195 115.228C145.473 115.436 145.752 115.575 146.03 115.645C146.517 115.784 146.935 115.784 147.352 115.645C147.7 115.436 148.048 115.158 148.257 114.741Z" fill="white"/>
<path d="M144.708 124.541L143.803 123.568C144.082 124.958 143.873 126.139 143.177 127.181C142.551 128.015 141.785 128.432 140.95 128.432C140.115 128.432 139.141 128.015 138.097 127.181L132.808 122.039L134.199 120.023L139.488 125.166C139.697 125.375 139.906 125.514 140.184 125.653C140.88 126.069 141.507 125.861 142.063 125.166C142.62 124.402 142.69 123.498 142.342 122.386L136.566 116.687L137.957 114.672L146.03 122.664L144.708 124.541Z" fill="white"/>
<path d="M138.027 137.189L136.357 135.035L135.035 136.425L133.852 134.965L135.174 133.575L131.207 128.571C131.068 128.432 130.999 128.363 130.859 128.224C130.511 127.946 130.163 128.015 129.746 128.363C129.607 128.571 129.398 128.78 129.259 129.058L127.937 127.598C128.145 127.112 128.493 126.695 128.841 126.278C129.398 125.653 130.094 125.375 130.79 125.444C131.486 125.514 132.182 125.861 132.808 126.625L136.844 131.699L138.027 130.378L139.21 131.907L138.027 133.228L139.698 135.382L138.027 137.189Z" fill="white"/>
<path d="M123.761 133.158C124.039 133.506 124.109 133.853 124.109 134.201C124.039 134.548 123.9 134.896 123.552 135.174C123.274 135.452 122.926 135.521 122.508 135.521C122.16 135.521 121.812 135.313 121.534 134.965C121.256 134.618 121.186 134.34 121.256 133.923C121.325 133.575 121.464 133.228 121.812 132.95C122.091 132.672 122.439 132.602 122.856 132.602C123.204 132.672 123.552 132.811 123.761 133.158Z" fill="white"/>
<path d="M109.146 145.668C109.425 146.641 110.26 147.058 111.582 146.919L112.487 146.849C114.157 146.641 115.41 146.71 116.314 147.058C117.219 147.405 117.915 148.1 118.263 149.004C118.611 149.768 118.681 150.602 118.472 151.436C118.263 152.27 117.915 153.035 117.289 153.73C116.662 154.425 115.897 154.981 115.062 155.398C114.227 155.815 113.392 156.023 112.557 155.954C111.721 155.884 110.956 155.676 110.33 155.259C109.703 154.842 109.146 154.216 108.799 153.382L111.095 152.27C111.373 152.965 111.861 153.452 112.417 153.66C112.974 153.869 113.6 153.799 114.366 153.452C115.062 153.104 115.619 152.618 115.967 151.992C116.314 151.367 116.314 150.741 116.106 150.116C115.827 149.282 114.992 148.934 113.6 149.073L112.765 149.143C111.095 149.351 109.842 149.282 108.938 148.865C108.033 148.448 107.407 147.753 106.989 146.849C106.641 146.085 106.572 145.251 106.711 144.486C106.85 143.722 107.268 142.958 107.894 142.263C108.52 141.568 109.286 141.012 110.26 140.525C111.165 140.108 112.069 139.9 112.974 139.9C113.879 139.9 114.714 140.108 115.41 140.595C116.106 141.081 116.662 141.707 117.01 142.541L114.714 143.653C114.366 142.888 113.879 142.402 113.252 142.193C112.626 141.985 111.93 142.054 111.095 142.471C110.33 142.819 109.842 143.305 109.494 143.861C109.007 144.417 108.938 145.042 109.146 145.668Z" fill="white"/>
<path d="M98.0114 145.598C98.1506 145.807 98.2898 146.154 98.4289 146.571C99.0553 145.459 99.8904 144.764 100.934 144.486C101.839 144.209 102.744 144.278 103.509 144.695C104.275 145.112 104.831 145.737 105.04 146.641C105.319 147.753 105.11 148.795 104.414 149.768C103.718 150.672 102.535 151.367 101.004 151.853L99.4728 152.27L99.5424 153.035C99.612 153.313 99.6816 153.521 99.7512 153.73C100.099 154.425 100.656 154.633 101.491 154.425C101.978 154.286 102.396 154.008 102.674 153.66C102.952 153.243 103.092 152.826 103.022 152.34L105.388 151.575C105.527 152.27 105.458 152.896 105.249 153.521C104.971 154.147 104.553 154.703 103.927 155.189C103.3 155.676 102.604 156.023 101.839 156.232C100.656 156.579 99.612 156.51 98.7769 156.023C97.9418 155.537 97.3851 154.772 97.1763 153.66L96.4804 148.378L96.2716 147.475C96.202 147.058 95.9932 146.71 95.7844 146.363L95.7148 146.154L98.0114 145.598ZM100.934 146.571C100.447 146.71 100.03 146.988 99.6816 147.336C99.3336 147.683 99.0553 148.1 98.9161 148.587L99.1945 150.741L100.308 150.394C101.213 150.116 101.839 149.768 102.257 149.212C102.674 148.726 102.813 148.17 102.744 147.544C102.674 147.058 102.465 146.78 102.117 146.571C101.769 146.502 101.352 146.432 100.934 146.571Z" fill="white"/>
<path d="M90.3571 150.533L87.9909 158.942L85.416 159.29L89.2436 147.405L91.3314 147.127L95.0197 157.9L92.584 158.247L90.3571 150.533Z" fill="white"/>
<path d="M79.6397 147.961C80.614 148.031 81.4491 148.239 82.145 148.726C82.8409 149.212 83.3977 149.838 83.676 150.672C84.024 151.506 84.0936 152.409 84.024 153.382L83.9544 153.799C83.8152 154.911 83.4672 155.954 82.9105 156.857C82.3538 157.761 81.6579 158.456 80.8227 158.873C79.9876 159.29 79.1525 159.568 78.1782 159.498C76.7864 159.429 75.7425 158.942 75.0466 157.9C74.3507 156.857 74.1419 155.537 74.3507 153.938L74.4899 152.896L81.5187 153.035C81.5883 152.131 81.4491 151.436 81.0315 150.88C80.614 150.324 80.0572 150.046 79.2917 150.046C78.2478 149.977 77.2735 150.463 76.3688 151.367L75.1162 150.046C75.6033 149.351 76.2297 148.865 76.9952 148.517C77.8999 148.1 78.735 147.961 79.6397 147.961ZM78.4566 157.552C79.7789 157.622 80.7532 156.718 81.4491 154.842L76.7864 154.772L76.7168 154.981C76.6472 155.328 76.6472 155.606 76.7168 155.884C76.7864 156.371 76.9952 156.788 77.2735 157.066C77.5519 157.344 77.9695 157.483 78.4566 157.552Z" fill="white"/>
<path d="M54.099 157.344L58.5529 158.386L63.7723 146.293L66.2777 146.919L61.0583 159.012L65.4426 160.054L64.6075 162L53.1943 159.29L54.099 157.344Z" fill="white"/>
<path d="M50.4803 152.479C49.2277 153.035 48.0446 153.035 47.0007 152.548C46.0264 152.131 45.4697 151.436 45.2609 150.602C45.0521 149.768 45.3305 148.726 45.9568 147.544L49.9236 141.429L52.1506 142.402L48.1838 148.587C48.0446 148.865 47.9054 149.073 47.8358 149.351C47.5575 150.185 47.9054 150.741 48.6709 151.158C49.5061 151.506 50.4107 151.436 51.4546 150.88L55.9085 144.07L58.1355 145.042L49.2973 158.456L47.0007 157.483L50.4803 152.479Z" fill="white"/>
<path d="M43.8692 137.745C44.7043 138.301 45.261 138.927 45.609 139.691C45.957 140.456 46.0266 141.29 45.8874 142.193C45.7482 143.097 45.3306 143.931 44.7739 144.695L44.4955 145.042C43.7996 145.946 42.9645 146.641 41.9902 147.127C41.0159 147.614 40.1112 147.822 39.1369 147.753C38.2322 147.683 37.3275 147.405 36.562 146.919C35.3789 146.154 34.7526 145.112 34.7526 143.931C34.683 142.68 35.1702 141.429 36.2141 140.178L36.91 139.344L42.8949 143.097C43.4516 142.402 43.6604 141.707 43.5908 141.012C43.5212 140.317 43.1733 139.761 42.5469 139.344C41.6422 138.718 40.5984 138.579 39.3457 138.927L38.9977 137.189C39.7633 136.842 40.5288 136.772 41.4335 136.842C42.3382 136.911 43.1037 137.189 43.8692 137.745ZM37.8147 145.251C38.8586 146.015 40.1808 145.737 41.7814 144.487L37.8843 141.985L37.7451 142.124C37.5363 142.332 37.3971 142.61 37.2579 142.888C37.0492 143.375 36.9796 143.792 37.1188 144.209C37.1883 144.626 37.3971 144.973 37.8147 145.251Z" fill="white"/>
<path d="M23.409 129.336L27.5846 133.645L31.4817 131.004L26.6103 125.93L28.3501 124.749L35.0309 131.629L22.3652 140.247L15.7539 133.436L17.5633 132.255L22.4348 137.259L25.9144 134.896L21.7388 130.587L23.409 129.336Z" fill="white"/>
<path d="M15.7541 126.764L17.0067 126.209C15.6149 126 14.571 125.375 13.8751 124.332C13.3184 123.429 13.1792 122.595 13.4575 121.761C13.7359 120.927 14.5014 120.232 15.6149 119.537L22.2958 116.409L23.6876 118.425L17.0067 121.622C16.7284 121.761 16.5196 121.9 16.3108 122.108C15.6845 122.664 15.6149 123.29 16.102 124.054C16.5892 124.819 17.4939 125.236 18.6074 125.305L25.9841 121.9L27.376 123.915L17.0763 128.71L15.7541 126.764Z" fill="white"/>
<path d="M16.3801 112.17L7.61152 112.448L6.49805 110.085L19.0246 110.154L19.9293 112.1L10.6736 118.842L9.6297 116.618L16.3801 112.17Z" fill="white"/>
<path d="M2.87961 108.208C2.53164 108.347 2.18368 108.347 1.83572 108.208C1.48776 108.069 1.27899 107.792 1.07021 107.375C0.931024 107.027 0.931024 106.68 1.07021 106.332C1.20939 105.985 1.48776 105.776 1.83572 105.637C2.18368 105.498 2.53164 105.498 2.87961 105.707C3.22757 105.846 3.43634 106.124 3.57553 106.471C3.71471 106.819 3.71471 107.166 3.57553 107.514C3.50594 107.861 3.22757 108.069 2.87961 108.208ZM16.1021 103.344L16.9372 105.637L5.73289 107.514L4.89778 105.22L16.1021 103.344Z" fill="white"/>
<path d="M4.82754 96.1853C4.82754 96.5328 4.89713 96.8108 4.96672 97.1583C5.1755 98.2008 5.87142 98.8958 6.9153 99.3127L14.7096 98.7568L15.336 101.12L3.99243 102.023L3.43569 99.7992L4.75794 99.7297C3.57488 99.2433 2.87895 98.4788 2.67018 97.5058C2.60059 97.2973 2.60059 96.9498 2.60059 96.5328L4.82754 96.1853Z" fill="white"/>
<path d="M7.81996 94.9344C6.70649 94.9344 5.6626 94.7259 4.75791 94.3089C3.78361 93.8919 3.0181 93.2664 2.46136 92.502C1.90462 91.7375 1.55666 90.834 1.41748 89.861C1.34789 88.8881 1.48707 88.0541 1.90462 87.2896C2.32218 86.5251 2.94851 85.9691 3.78361 85.5522C4.61872 85.1352 5.52342 84.9267 6.63689 84.8572C7.81996 84.8572 8.93344 84.9962 9.90773 85.4132C10.882 85.8302 11.6475 86.4556 12.2043 87.2201C12.761 87.9846 13.109 88.8881 13.2482 89.861C13.3177 90.834 13.1786 91.668 12.761 92.4325C12.3435 93.1969 11.7171 93.7529 10.9516 94.1699C10.1861 94.5869 9.21181 94.7954 8.16792 94.8649L7.81996 94.9344ZM8.93344 92.363C9.62936 92.224 10.1861 92.0155 10.6037 91.5985C11.0212 91.1815 11.1604 90.695 11.0908 90.0695C11.0212 89.2356 10.6037 88.5406 9.83814 88.0541C9.07262 87.5676 8.16792 87.2896 6.98486 87.2896L5.94097 87.3591C5.03627 87.4981 4.40994 87.7066 3.9228 88.1236C3.43565 88.5406 3.22688 89.0966 3.29647 89.722C3.36606 90.7645 3.99239 91.529 5.10587 92.0155C5.80179 92.2935 6.5673 92.4325 7.40241 92.4325C8.09833 92.502 8.58548 92.4325 8.93344 92.363Z" fill="white"/>
<path d="M1.13944 78.9498L2.46169 79.2278C1.4874 78.2548 1.00026 77.0734 1.06985 75.8224C1.13944 74.7799 1.55699 74.0155 2.32251 73.529C3.08802 73.0425 4.13191 72.9035 5.38456 73.112L12.5526 74.6409L12.4134 77.0734L5.17579 75.5444C4.89742 75.4749 4.61905 75.4749 4.34068 75.4749C3.50558 75.5444 3.08802 76.0309 3.01843 76.8649C2.94884 77.7684 3.36639 78.6023 4.27109 79.3668L12.2046 81.1043L12.0654 83.5367L0.930664 81.1043L1.13944 78.9498Z" fill="white"/>
<path d="M2.46201 65.8842L3.57549 66.3707C2.87956 65.2587 2.74038 64.0772 3.08834 62.8263C3.29712 62.1313 3.57549 61.6448 3.99304 61.2278C4.41059 60.8803 4.89774 60.6718 5.45448 60.6023C4.54978 59.2819 4.341 58.0309 4.68896 56.7104C4.96733 55.668 5.52407 54.973 6.35917 54.6255C7.19428 54.278 8.23816 54.3475 9.42123 54.834L16.1717 57.8224L15.5453 60.1854L8.7949 57.1969C8.51653 57.0579 8.23816 56.9884 7.95979 56.9884C7.12469 56.9189 6.63754 57.2664 6.35917 58.1699C6.0808 59.1429 6.42877 60.0464 7.40306 60.8803L7.61183 60.9498L14.5015 64.0772L13.8751 66.4402L7.12469 63.4518C6.84632 63.3128 6.56795 63.2433 6.35917 63.2433C5.52407 63.1738 4.96733 63.5213 4.75855 64.4247C4.48019 65.3282 4.68896 66.1622 5.31529 66.9962L12.8312 70.4016L12.2049 72.7645L1.90527 68.1081L2.46201 65.8842Z" fill="white"/>
<path d="M19.3026 51.7066C18.885 52.5406 18.2587 53.2356 17.4932 53.6525C16.7277 54.0695 15.9622 54.278 15.0575 54.2085C14.1528 54.139 13.3177 53.861 12.413 53.3746L12.1346 53.0966C11.1603 52.4711 10.3948 51.7066 9.83806 50.8031C9.28133 49.8996 8.93337 48.9962 8.86377 48.0927C8.79418 47.1892 9.00296 46.2858 9.42051 45.4518C10.0468 44.2008 11.0211 43.5058 12.2042 43.2973C13.4569 43.0888 14.7095 43.5058 16.1014 44.3398L17.0061 44.9653L13.8744 51.2896C14.6399 51.7066 15.3358 51.9151 16.0318 51.7761C16.7277 51.6371 17.2148 51.2201 17.5628 50.5946C18.0499 49.6912 18.1195 48.5792 17.6324 47.3977L19.3722 46.8417C19.7897 47.5367 19.9289 48.3707 19.9289 49.2047C19.9289 50.0386 19.7202 50.8726 19.3026 51.7066ZM11.1603 46.4942C10.534 47.6062 10.9515 48.9267 12.3434 50.3166L14.4311 46.1468L14.2224 46.0078C13.944 45.7993 13.6656 45.6603 13.3873 45.5908C12.9001 45.4518 12.4826 45.4518 12.065 45.5908C11.7171 45.7993 11.4387 46.0773 11.1603 46.4942Z" fill="white"/>
<path d="M14.9189 36.695L15.8236 37.668C15.5453 36.278 15.754 35.0965 16.5196 34.0541C17.1459 33.2201 17.9114 32.8031 18.8161 32.8031C19.7208 32.8031 20.6255 33.2896 21.5998 34.1236L26.7496 39.3359L25.3578 41.3514L20.1383 36.139C19.9296 35.9305 19.7208 35.7915 19.4424 35.6525C18.7465 35.2355 18.1202 35.3745 17.5634 36.139C17.0067 36.9035 16.9371 37.807 17.2851 38.9189L22.9916 44.6873L21.5302 46.7027L13.5967 38.5714L14.9189 36.695Z" fill="white"/>
<path d="M21.7388 24.1854L23.409 26.4093L24.7313 25.0193L25.8448 26.5483L24.5225 27.9383L28.4197 33.0116C28.5589 33.1506 28.6285 33.2201 28.7676 33.3591C29.1156 33.6371 29.4636 33.5676 29.8811 33.2201C30.0899 33.0116 30.2291 32.8031 30.4379 32.5251L31.7601 33.9846C31.5513 34.4711 31.2034 34.8881 30.8554 35.2356C30.2291 35.861 29.6027 36.139 28.9068 36.0695C28.2109 36 27.515 35.583 26.8887 34.8881L22.9219 29.7452L21.6692 31.0657L20.4862 29.5367L21.6692 28.2163L19.999 25.9923L21.7388 24.1854Z" fill="white"/>
<path d="M35.9353 28.4247C35.6569 28.0772 35.5873 27.7298 35.6569 27.3823C35.7265 27.0348 35.8657 26.6873 36.2137 26.4093C36.5616 26.1313 36.84 26.0618 37.2576 26.0618C37.6751 26.0618 37.9535 26.2703 38.1623 26.6178C38.4406 26.9653 38.5102 27.3128 38.4406 27.6603C38.371 28.0077 38.2318 28.3552 37.8839 28.6332C37.5359 28.9112 37.2576 28.9807 36.84 28.9807C36.4225 28.9112 36.1441 28.7027 35.9353 28.4247Z" fill="white"/>
</svg>
