<svg width="1920" height="625" viewBox="0 0 1920 625" fill="none" xmlns="http://www.w3.org/2000/svg">
<g opacity="0.06">
<mask id="mask0_132_1213" style="mask-type:alpha" maskUnits="userSpaceOnUse" x="0" y="0" width="1921" height="625">
<rect width="1921" height="625" fill="#4BAF47"/>
</mask>
<g mask="url(#mask0_132_1213)">
<mask id="mask1_132_1213" style="mask-type:luminance" maskUnits="userSpaceOnUse" x="-1" y="0" width="1921" height="1397">
<path d="M1920 0H-1V1397H1920V0Z" fill="white"/>
</mask>
<g mask="url(#mask1_132_1213)">
<path d="M1275.3 885.252C1129.29 885.252 1013.83 816.857 901.773 750.403C790.685 684.433 676.201 616.523 532.126 616.523C388.051 616.523 273.568 684.433 162.479 750.403C102.812 785.813 41.2042 822.193 -24.2845 847.901L-26.71 841.11C38.2936 815.402 99.4163 779.507 158.599 744.097C270.172 677.642 386.111 609.247 532.126 609.247C678.142 609.247 793.596 677.642 905.654 744.097C1016.74 810.066 1131.23 877.976 1275.3 877.976C1419.38 877.976 1534.34 810.066 1644.95 744.097C1756.52 677.642 1872.46 609.247 2018.48 609.247V616.523C1874.4 616.523 1759.43 684.433 1648.83 750.403C1536.77 816.857 1421.32 885.252 1275.3 885.252Z" fill="#D4D4D4"/>
</g>
<mask id="mask2_132_1213" style="mask-type:luminance" maskUnits="userSpaceOnUse" x="-1" y="0" width="1921" height="1397">
<path d="M1920 0H-1V1397H1920V0Z" fill="white"/>
</mask>
<g mask="url(#mask2_132_1213)">
<path d="M1275.3 836.26C1129.29 836.26 1013.83 767.865 901.773 701.411C790.685 635.441 676.201 567.531 532.126 567.531C388.051 567.531 273.082 635.441 162.479 701.411C102.811 736.821 41.6886 773.201 -23.8001 798.91L-26.2256 792.119C38.778 766.41 99.9007 730.515 159.083 695.105C270.656 628.65 386.595 560.255 532.611 560.255C678.626 560.255 794.08 628.65 906.139 695.105C1017.23 761.074 1131.71 828.984 1275.79 828.984C1419.86 828.984 1534.83 761.074 1645.43 695.105C1757.01 628.65 1872.94 560.255 2018.96 560.255V567.531C1874.89 567.531 1759.92 635.441 1649.31 701.411C1536.77 767.865 1421.32 836.26 1275.3 836.26Z" fill="#D4D4D4"/>
</g>
<mask id="mask3_132_1213" style="mask-type:luminance" maskUnits="userSpaceOnUse" x="-1" y="0" width="1921" height="1397">
<path d="M1920 0H-1V1397H1920V0Z" fill="white"/>
</mask>
<g mask="url(#mask3_132_1213)">
<path d="M1275.3 787.753C1129.29 787.753 1013.83 719.358 901.773 652.904C790.685 586.934 676.201 519.024 532.126 519.024C388.051 519.024 273.082 586.934 162.479 652.904C102.811 688.314 41.6886 724.694 -23.8001 750.402L-26.2256 743.612C38.778 717.903 99.9007 682.008 159.083 646.598C270.656 580.143 386.595 511.748 532.611 511.748C678.626 511.748 794.08 580.143 906.139 646.598C1017.23 712.567 1131.71 780.477 1275.79 780.477C1419.86 780.477 1534.83 712.567 1645.43 646.598C1757.01 580.143 1872.94 511.748 2018.96 511.748V519.024C1874.89 519.024 1759.92 586.934 1649.31 652.904C1536.77 718.873 1421.32 787.753 1275.3 787.753Z" fill="#D4D4D4"/>
</g>
<mask id="mask4_132_1213" style="mask-type:luminance" maskUnits="userSpaceOnUse" x="-1" y="0" width="1921" height="1397">
<path d="M1920 0H-1V1397H1920V0Z" fill="white"/>
</mask>
<g mask="url(#mask4_132_1213)">
<path d="M1275.3 738.761C1129.29 738.761 1013.83 670.366 901.773 603.911C790.685 538.427 676.201 470.517 532.126 470.517C388.051 470.517 273.082 538.427 162.479 604.396C102.811 639.806 41.6886 676.187 -23.8001 701.895L-26.2256 695.104C38.778 669.396 99.9007 633.501 159.083 598.091C270.656 531.636 386.595 463.241 532.611 463.241C678.626 463.241 794.08 531.636 906.139 598.091C1017.23 664.06 1131.71 731.97 1275.79 731.97C1419.86 731.97 1534.83 664.06 1645.43 598.091C1757.01 531.636 1872.94 463.241 2018.96 463.241V470.517C1874.89 470.517 1759.92 538.427 1649.31 604.396C1536.77 670.366 1421.32 738.761 1275.3 738.761Z" fill="#D4D4D4"/>
</g>
<mask id="mask5_132_1213" style="mask-type:luminance" maskUnits="userSpaceOnUse" x="-1" y="0" width="1921" height="1397">
<path d="M1920 0H-1V1397H1920V0Z" fill="white"/>
</mask>
<g mask="url(#mask5_132_1213)">
<path d="M1275.3 689.769C1129.29 689.769 1013.83 621.374 901.773 554.919C790.685 488.95 676.201 421.04 532.126 421.04C388.051 421.04 273.567 488.95 162.479 554.919C102.811 590.329 41.6886 626.71 -23.8001 652.418L-26.2256 645.627C38.778 619.919 99.9007 584.024 159.083 548.613C270.656 482.159 386.595 413.764 532.611 413.764C678.626 413.764 794.08 482.159 906.139 548.613C1017.23 614.583 1131.71 682.493 1275.79 682.493C1419.86 682.493 1534.83 614.583 1645.43 548.613C1757.01 482.159 1872.94 413.764 2018.96 413.764V421.04C1874.89 421.04 1759.92 488.95 1649.31 554.919C1536.77 621.374 1421.32 689.769 1275.3 689.769Z" fill="#D4D4D4"/>
</g>
<mask id="mask6_132_1213" style="mask-type:luminance" maskUnits="userSpaceOnUse" x="-1" y="0" width="1921" height="1397">
<path d="M1920 0H-1V1397H1920V0Z" fill="white"/>
</mask>
<g mask="url(#mask6_132_1213)">
<path d="M1275.3 641.262C1129.29 641.262 1013.83 572.867 901.773 506.413C790.685 440.443 676.201 372.533 532.126 372.533C388.051 372.533 273.082 440.443 162.479 506.413C102.811 541.823 41.6886 578.203 -23.8001 603.911L-26.2256 597.121C38.778 571.412 99.9007 535.517 159.083 500.107C270.656 433.652 386.595 365.257 532.611 365.257C678.626 365.257 794.08 433.652 906.139 500.107C1017.23 566.076 1131.71 633.986 1275.79 633.986C1419.86 633.986 1534.83 566.076 1645.43 500.107C1757.01 433.652 1872.94 365.257 2018.96 365.257V372.533C1874.89 372.533 1759.92 440.443 1649.31 506.413C1536.77 572.867 1421.32 641.262 1275.3 641.262Z" fill="#D4D4D4"/>
</g>
<mask id="mask7_132_1213" style="mask-type:luminance" maskUnits="userSpaceOnUse" x="-1" y="0" width="1921" height="1397">
<path d="M1920 0H-1V1397H1920V0Z" fill="white"/>
</mask>
<g mask="url(#mask7_132_1213)">
<path d="M1275.3 592.27C1129.29 592.27 1013.83 523.875 901.773 457.42C790.685 391.451 676.201 323.541 532.126 323.541C388.051 323.541 273.567 391.451 162.479 457.42C102.811 492.83 41.6886 529.211 -23.8001 554.919L-26.2256 548.128C38.778 522.42 99.9007 486.525 159.083 451.114C270.656 384.66 386.595 316.265 532.611 316.265C678.626 316.265 794.08 384.66 906.139 451.114C1017.23 517.084 1131.71 584.994 1275.79 584.994C1419.86 584.994 1534.83 517.084 1645.43 451.114C1757.01 384.66 1872.94 316.265 2018.96 316.265V323.541C1874.89 323.541 1759.92 391.451 1649.31 457.42C1536.77 523.875 1421.32 592.27 1275.3 592.27Z" fill="#D4D4D4"/>
</g>
<mask id="mask8_132_1213" style="mask-type:luminance" maskUnits="userSpaceOnUse" x="-1" y="0" width="1921" height="1397">
<path d="M1920 0H-1V1397H1920V0Z" fill="white"/>
</mask>
<g mask="url(#mask8_132_1213)">
<path d="M1275.3 543.278C1129.29 543.278 1013.83 474.883 901.773 408.428C790.685 342.459 676.201 274.549 532.126 274.549C388.051 274.549 273.082 342.459 162.479 408.428C102.812 443.838 41.2042 480.219 -24.2845 505.927L-26.71 499.136C38.2936 473.428 99.4163 437.533 158.599 402.123C270.172 335.668 386.111 267.273 532.126 267.273C678.142 267.273 793.596 335.668 905.654 402.123C1016.74 468.092 1131.23 536.002 1275.3 536.002C1419.38 536.002 1534.34 468.092 1644.95 402.123C1756.52 335.668 1872.46 267.273 2018.48 267.273V274.549C1874.4 274.549 1759.43 342.459 1648.83 408.428C1536.77 474.883 1421.32 543.278 1275.3 543.278Z" fill="#D4D4D4"/>
</g>
<mask id="mask9_132_1213" style="mask-type:luminance" maskUnits="userSpaceOnUse" x="-1" y="0" width="1921" height="1397">
<path d="M1920 0H-1V1397H1920V0Z" fill="white"/>
</mask>
<g mask="url(#mask9_132_1213)">
<path d="M1275.3 494.771C1129.29 494.771 1013.83 426.376 901.773 359.922C790.685 293.952 676.201 226.042 532.126 226.042C388.051 226.042 273.568 293.952 162.479 359.922C102.812 395.332 41.2042 431.712 -24.2845 457.421L-26.71 450.63C38.2936 424.921 99.4163 389.026 158.599 353.616C270.172 287.161 386.111 218.766 532.126 218.766C678.142 218.766 793.596 287.161 905.654 353.616C1016.74 419.585 1131.23 487.495 1275.3 487.495C1419.38 487.495 1534.34 419.585 1644.95 353.616C1756.52 287.161 1872.46 218.766 2018.48 218.766V226.042C1874.4 226.042 1759.43 293.952 1648.83 359.922C1536.77 426.376 1421.32 494.771 1275.3 494.771Z" fill="#D4D4D4"/>
</g>
<mask id="mask10_132_1213" style="mask-type:luminance" maskUnits="userSpaceOnUse" x="-1" y="0" width="1921" height="1397">
<path d="M1920 0H-1V1397H1920V0Z" fill="white"/>
</mask>
<g mask="url(#mask10_132_1213)">
<path d="M1275.3 445.779C1129.29 445.779 1013.83 377.384 901.773 310.93C790.685 244.96 676.201 177.05 532.126 177.05C388.051 177.05 273.568 244.96 162.479 310.93C102.812 346.34 41.2042 382.72 -24.2845 408.429L-26.71 401.638C38.2936 375.929 99.4163 340.034 158.599 304.624C270.172 238.169 386.111 169.774 532.126 169.774C678.142 169.774 793.596 238.169 905.654 304.624C1016.74 370.593 1131.23 438.503 1275.3 438.503C1419.38 438.503 1534.34 370.593 1644.95 304.624C1756.52 238.169 1872.46 169.774 2018.48 169.774V177.05C1874.4 177.05 1759.43 244.96 1648.83 310.93C1536.77 377.384 1421.32 445.779 1275.3 445.779Z" fill="#D4D4D4"/>
</g>
<mask id="mask11_132_1213" style="mask-type:luminance" maskUnits="userSpaceOnUse" x="-1" y="0" width="1921" height="1397">
<path d="M1920 0H-1V1397H1920V0Z" fill="white"/>
</mask>
<g mask="url(#mask11_132_1213)">
<path d="M1275.3 397.272C1129.29 397.272 1013.83 328.877 901.773 262.423C790.685 196.453 676.201 128.543 532.126 128.543C388.051 128.543 273.568 196.453 162.479 262.423C102.812 297.833 41.2042 334.213 -24.2845 359.921L-26.71 353.131C38.2936 327.422 99.4163 291.527 158.599 256.117C270.172 189.662 386.111 121.267 532.126 121.267C678.142 121.267 793.596 189.662 905.654 256.117C1016.74 322.086 1131.23 389.996 1275.3 389.996C1419.38 389.996 1534.34 322.086 1644.95 256.117C1756.52 189.662 1872.46 121.267 2018.48 121.267V128.543C1874.4 128.543 1759.43 196.453 1648.83 262.423C1536.77 328.392 1421.32 397.272 1275.3 397.272Z" fill="#D4D4D4"/>
</g>
<mask id="mask12_132_1213" style="mask-type:luminance" maskUnits="userSpaceOnUse" x="-1" y="0" width="1921" height="1397">
<path d="M1920 0H-1V1397H1920V0Z" fill="white"/>
</mask>
<g mask="url(#mask12_132_1213)">
<path d="M1275.3 348.28C1129.29 348.28 1013.83 279.885 901.773 213.431C790.685 147.461 676.201 79.5514 532.126 79.5514C388.051 79.5514 273.082 147.461 162.479 213.431C102.812 248.841 41.2042 285.221 -24.2845 310.93L-26.71 304.139C38.2936 278.43 99.4163 242.535 158.599 207.125C270.172 140.67 386.111 72.2754 532.126 72.2754C678.142 72.2754 793.596 140.67 905.654 207.125C1016.74 273.094 1131.23 341.004 1275.3 341.004C1419.38 341.004 1534.34 273.094 1644.95 207.125C1756.52 140.67 1872.46 72.2754 2018.48 72.2754V79.5514C1874.4 79.5514 1759.43 147.461 1648.83 213.431C1536.77 279.885 1421.32 348.28 1275.3 348.28Z" fill="#D4D4D4"/>
</g>
<mask id="mask13_132_1213" style="mask-type:luminance" maskUnits="userSpaceOnUse" x="-1" y="0" width="1921" height="1397">
<path d="M1920 0H-1V1397H1920V0Z" fill="white"/>
</mask>
<g mask="url(#mask13_132_1213)">
<path d="M1275.3 299.288C1129.29 299.288 1013.83 230.893 901.773 164.439C790.685 98.4692 676.201 30.5595 532.126 30.5595C388.051 30.5595 273.568 98.4692 162.479 164.439C102.812 199.849 41.2042 236.229 -24.2845 261.938L-26.71 255.147C38.2936 229.438 99.4163 193.543 158.599 158.133C270.172 91.6782 386.111 23.2834 532.126 23.2834C678.142 23.2834 793.596 91.6782 905.654 158.133C1016.74 224.102 1131.23 292.012 1275.3 292.012C1419.38 292.012 1534.34 224.102 1644.95 158.133C1756.52 91.6782 1872.46 23.2834 2018.48 23.2834V30.5595C1874.4 30.5595 1759.43 98.4692 1648.83 164.439C1536.77 230.893 1421.32 299.288 1275.3 299.288Z" fill="#D4D4D4"/>
</g>
<mask id="mask14_132_1213" style="mask-type:luminance" maskUnits="userSpaceOnUse" x="-1" y="0" width="1921" height="1397">
<path d="M1920 0H-1V1397H1920V0Z" fill="white"/>
</mask>
<g mask="url(#mask14_132_1213)">
<path d="M1275.3 250.781C1129.29 250.781 1013.83 182.386 901.773 115.932C790.685 49.9621 676.201 -17.9476 532.126 -17.9476C388.051 -17.9476 273.568 49.9621 162.479 115.932C102.812 151.342 41.2042 187.722 -24.2845 213.431L-26.71 206.64C38.2936 180.931 99.4163 145.036 158.599 109.626C270.172 43.1712 386.111 -25.2236 532.126 -25.2236C678.142 -25.2236 793.596 43.1712 905.654 109.626C1016.74 175.595 1131.23 243.505 1275.3 243.505C1419.38 243.505 1534.34 175.595 1644.95 109.626C1756.52 43.1712 1872.46 -25.2236 2018.48 -25.2236V-17.9476C1874.4 -17.9476 1759.43 49.9621 1648.83 115.932C1536.77 182.386 1421.32 250.781 1275.3 250.781Z" fill="#D4D4D4"/>
</g>
<mask id="mask15_132_1213" style="mask-type:luminance" maskUnits="userSpaceOnUse" x="-1" y="0" width="1921" height="1397">
<path d="M1920 0H-1V1397H1920V0Z" fill="white"/>
</mask>
<g mask="url(#mask15_132_1213)">
<path d="M1275.3 201.789C1129.29 201.789 1013.83 133.394 901.773 66.9396C790.685 0.970184 676.201 -66.9395 532.126 -66.9395C388.051 -66.9395 273.568 0.970184 162.479 66.9396C102.812 102.35 41.2042 138.73 -24.2845 164.439L-26.71 157.648C38.2936 131.939 99.4163 96.0438 158.599 60.6337C270.172 -5.82079 386.111 -74.2156 532.126 -74.2156C678.142 -74.2156 793.596 -5.82079 905.654 60.6337C1016.74 126.603 1131.23 194.513 1275.3 194.513C1419.38 194.513 1534.34 126.603 1644.95 60.6337C1756.52 -5.82079 1872.46 -74.2156 2018.48 -74.2156V-66.9395C1874.4 -66.9395 1759.43 0.970184 1648.83 66.9396C1536.77 133.394 1421.32 201.789 1275.3 201.789Z" fill="#D4D4D4"/>
</g>
<mask id="mask16_132_1213" style="mask-type:luminance" maskUnits="userSpaceOnUse" x="-1" y="0" width="1921" height="1397">
<path d="M1920 0H-1V1397H1920V0Z" fill="white"/>
</mask>
<g mask="url(#mask16_132_1213)">
<path d="M1275.3 153.282C1129.29 153.282 1013.83 84.887 901.773 18.4325C842.105 -16.9776 780.497 -53.3578 715.009 -79.0664L717.434 -85.8574C783.408 -60.1487 845.016 -23.2835 905.168 12.1266C1016.26 78.0961 1130.74 146.006 1274.82 146.006C1418.89 146.006 1533.86 78.0961 1644.46 12.1266C1704.13 -23.2835 1766.22 -60.1487 1832.2 -85.8574L1834.62 -79.0664C1769.62 -53.3578 1708.01 -16.9776 1648.34 18.4325C1536.77 84.402 1421.32 153.282 1275.3 153.282Z" fill="#D4D4D4"/>
</g>
<mask id="mask17_132_1213" style="mask-type:luminance" maskUnits="userSpaceOnUse" x="-1" y="0" width="1921" height="1397">
<path d="M1920 0H-1V1397H1920V0Z" fill="white"/>
</mask>
<g mask="url(#mask17_132_1213)">
<path d="M-24.2845 115.931L-26.71 109.14C38.2936 83.4318 99.4163 47.5367 158.599 12.1266C218.266 -23.2835 280.359 -60.1487 346.333 -85.8574L348.758 -79.0664C283.27 -53.3578 221.662 -16.9776 162.479 18.4325C102.812 53.3575 41.2042 90.2228 -24.2845 115.931Z" fill="#D4D4D4"/>
</g>
<mask id="mask18_132_1213" style="mask-type:luminance" maskUnits="userSpaceOnUse" x="-1" y="0" width="1921" height="1397">
<path d="M1920 0H-1V1397H1920V0Z" fill="white"/>
</mask>
<g mask="url(#mask18_132_1213)">
<path d="M1275.3 104.29C1129.29 104.29 1013.83 35.895 901.773 -30.5595C874.122 -47.0519 845.986 -63.5442 817.365 -79.0664L820.761 -85.3724C849.382 -69.8501 878.003 -52.8727 905.654 -36.3803C1016.26 29.104 1131.23 97.0137 1275.3 97.0137C1419.38 97.0137 1534.34 29.104 1644.95 -36.8654C1672.6 -53.3578 1701.22 -70.3352 1729.84 -85.8574L1733.24 -79.5515C1704.61 -64.0293 1676.48 -47.0519 1648.83 -31.0446C1536.77 35.895 1421.32 104.29 1275.3 104.29Z" fill="#D4D4D4"/>
</g>
<mask id="mask19_132_1213" style="mask-type:luminance" maskUnits="userSpaceOnUse" x="-1" y="0" width="1921" height="1397">
<path d="M1920 0H-1V1397H1920V0Z" fill="white"/>
</mask>
<g mask="url(#mask19_132_1213)">
<path d="M-24.2845 66.9395L-26.71 60.1485C38.2936 34.4398 99.4163 -1.45533 158.599 -36.8654C186.249 -53.3578 214.87 -70.3352 243.491 -85.8574L246.887 -79.5515C218.266 -64.0293 190.13 -47.0519 162.479 -30.5595C102.812 4.85057 41.2042 41.2308 -24.2845 66.9395Z" fill="#D4D4D4"/>
</g>
<mask id="mask20_132_1213" style="mask-type:luminance" maskUnits="userSpaceOnUse" x="-1" y="0" width="1921" height="1397">
<path d="M1920 0H-1V1397H1920V0Z" fill="white"/>
</mask>
<g mask="url(#mask20_132_1213)">
<path d="M1275.3 55.2978C1129.29 55.2978 1013.83 -13.097 901.773 -79.5515L905.654 -85.8574C1016.74 -19.888 1131.23 48.0218 1275.3 48.0218C1419.38 48.0218 1533.86 -19.888 1644.95 -85.8574L1648.83 -79.5515C1536.77 -13.097 1421.32 55.2978 1275.3 55.2978Z" fill="#D4D4D4"/>
</g>
<mask id="mask21_132_1213" style="mask-type:luminance" maskUnits="userSpaceOnUse" x="-1" y="0" width="1921" height="1397">
<path d="M1920 0H-1V1397H1920V0Z" fill="white"/>
</mask>
<g mask="url(#mask21_132_1213)">
<path d="M-24.2845 17.9474L-26.71 11.1565C38.2936 -14.5522 99.4163 -50.4473 158.599 -85.8574L162.479 -79.5515C102.812 -44.1414 41.2042 -7.76123 -24.2845 17.9474Z" fill="#D4D4D4"/>
</g>
<mask id="mask22_132_1213" style="mask-type:luminance" maskUnits="userSpaceOnUse" x="-1" y="0" width="1921" height="1397">
<path d="M1920 0H-1V1397H1920V0Z" fill="white"/>
</mask>
<g mask="url(#mask22_132_1213)">
<path d="M1275.3 6.79088C1159.36 6.79088 1064.28 -36.3803 986.666 -79.0664L990.062 -85.3723C1066.71 -43.6563 1160.82 -0.485168 1275.3 -0.485168C1389.78 -0.485168 1483.89 -43.6563 1560.54 -85.3723L1563.94 -79.0664C1486.32 -36.8654 1391.24 6.79088 1275.3 6.79088Z" fill="#D4D4D4"/>
</g>
</g>
</g>
</svg>
