<svg width="84" height="85" viewBox="0 0 84 85" fill="none" xmlns="http://www.w3.org/2000/svg">
<g clip-path="url(#clip0_439_1148)">
<path d="M12.5548 81.1548C12.5548 80.8382 12.5548 80.5894 12.5548 80.3405C12.5548 73.7586 12.5548 67.1766 12.5322 60.5721C12.5322 59.984 12.7129 59.6899 13.2548 59.4637C15.4451 58.5364 17.2742 57.1567 18.8322 55.302C22.6032 50.8009 27.458 49.67 32.9677 51.1628C37.6419 52.4294 42.2709 53.8996 46.9 55.2793C48.7516 55.8222 49.9935 57.0436 50.4226 58.9209C50.8742 60.7982 50.1742 62.4041 48.8193 63.6482C47.4193 64.9148 45.7258 65.1636 43.9871 64.5981C40.9387 63.5803 37.9355 62.4041 34.9322 61.3185C34.6613 61.228 34.4129 61.1149 34.1193 61.0697C33.2161 60.8887 32.4258 61.3411 32.1548 62.1327C31.8613 62.9922 32.2 63.9196 33.0806 64.2362C37.6419 65.8421 42.2032 67.5159 46.8322 68.8956C49.5871 69.7099 52.3645 69.3706 55.0967 68.2397C61.7806 65.5029 68.5096 62.9244 75.1935 60.2328C77.6096 59.2602 79.8 59.6447 81.7871 61.2054C83.7967 62.7887 84.1806 65.0505 83.8193 67.4028C83.458 69.8908 81.9 71.4741 79.6419 72.4467C72.0548 75.7038 64.4225 78.8477 56.9032 82.2857C52.8387 84.1404 48.9548 83.9369 44.9129 82.5572C40.1484 80.906 35.3613 79.3001 30.5742 77.7394C28.2484 76.993 25.9 77.2418 23.5742 77.9204C20.1193 78.9608 16.6645 79.9787 13.2096 80.9965C13.0742 81.087 12.8709 81.1096 12.5548 81.1548Z" fill="#4BAF47"/>
<path d="M46.7195 22.3696C42.7002 16.1722 37.2808 11.7842 31.026 8.36883C30.6421 8.16527 30.1905 8.00694 29.7615 7.9617C28.9711 7.91646 28.4292 8.39145 28.2034 9.13786C27.955 9.90688 28.226 10.5628 28.8582 10.9926C29.4905 11.4223 30.1679 11.7616 30.8453 12.1461C36.197 15.2901 40.8486 19.2031 44.1228 24.5636C44.1679 24.6315 44.2357 24.6767 44.4615 24.9255C45.2066 24.0886 45.9518 23.297 46.7421 22.4375C48.3228 24.8577 49.4744 27.504 50.3099 30.2635C51.4841 28.5671 52.6357 26.9159 53.7873 25.2422C54.5324 26.26 55.1873 27.1647 55.8873 28.1147C59.6808 23.6136 64.4905 20.9447 69.8195 19.0673C70.926 18.6828 71.3776 17.7555 71.0389 16.8281C70.6776 15.8781 69.7744 15.5163 68.6679 15.9008C63.1808 17.8233 58.2357 20.6054 54.2389 24.9255C54.1937 24.9934 54.1034 25.016 53.9679 25.1291C53.155 23.4101 52.8615 21.6458 52.9518 19.7911C53.2228 14.1818 56.5195 10.9926 61.4647 9.16048C64.6937 7.9617 68.0808 7.69028 71.4679 8.05217C74.6518 8.39145 77.8131 8.97953 80.997 9.49975C82.1486 9.70332 82.6679 10.3593 82.5098 11.4676C81.6292 17.7102 79.6647 23.5232 75.126 28.1147C69.8873 33.43 61.6453 33.4979 56.2486 28.3409C56.1582 28.273 56.0905 28.2052 55.955 28.0921C54.0582 30.3313 52.7711 32.8646 51.9357 35.6693C50.6712 35.5788 49.4744 35.5109 48.2776 35.3752C48.097 35.3526 47.8486 34.9229 47.8034 34.674C47.3292 31.3039 46.2002 28.1599 44.5292 25.2195C44.4615 25.1065 44.3711 24.9934 44.3937 25.016C42.6776 25.7398 41.0744 26.7124 39.3582 27.0969C32.5841 28.6123 26.9389 26.6219 22.5808 21.2161C18.9228 16.6924 17.026 11.3771 15.9647 5.72248C15.8518 5.11178 15.7389 4.50108 15.6486 3.89039C15.5131 2.94041 15.9421 2.14877 16.8453 1.89996C24.026 0.0678731 31.2518 -0.859482 38.5905 1.01785C41.8873 1.87735 44.755 3.50587 46.9228 6.19746C49.9937 9.99736 50.355 16.3079 47.7808 20.7411C47.4647 21.2839 47.126 21.7589 46.7195 22.3696Z" fill="#4BAF47"/>
<path d="M71.6032 57.9258C65.0548 60.5721 58.4838 63.2185 51.9129 65.8648C51.8677 65.797 51.8225 65.7517 51.7774 65.6839C51.9129 65.5029 52.0258 65.2994 52.1612 65.1184C55.6387 60.5269 53.7419 53.9449 48.2774 52.1807C43.129 50.5296 37.9129 49.082 32.7193 47.6344C31.4774 47.2951 30.1677 47.2725 28.7451 47.0689C31.5677 43.925 34.9322 41.6631 38.8612 40.2382C42.8129 38.8132 46.8774 38.4061 51.0322 39.0394C63.3838 40.962 70.0677 50.5748 71.6032 57.9258Z" fill="#4BAF47"/>
<path d="M9.16786 70.6599C9.16786 74.7086 9.16786 78.7347 9.16786 82.7834C9.16786 84.7286 8.89689 85 7.00012 85C5.28399 85 3.56786 85 1.82915 85C0.406572 85 -0.0224609 84.5703 -0.0224609 83.1227C-0.0224609 78.1466 -0.0224609 73.1706 -0.0224609 68.2171C-0.0224609 64.847 -0.0224609 61.4995 -0.0224609 58.1293C-0.0224609 56.727 0.406571 56.2972 1.78399 56.2972C3.6356 56.2972 5.5098 56.2972 7.36141 56.2972C8.73883 56.2972 9.14528 56.7044 9.14528 58.1293C9.16786 62.3137 9.16786 66.4981 9.16786 70.6599Z" fill="#4BAF47"/>
</g>
<defs>
<clipPath id="clip0_439_1148">
<rect width="84" height="85" fill="white"/>
</clipPath>
</defs>
</svg>
