<svg width="112" height="85" viewBox="0 0 112 85" fill="none" xmlns="http://www.w3.org/2000/svg">
<g clip-path="url(#clip0_136_1226)">
<path d="M0 7.13562C0.219608 6.48252 0.390414 5.82942 0.658824 5.2005C1.97647 1.95918 5.22179 -0.121066 8.75991 -0.000121186C12.2248 0.120824 15.2749 2.3704 16.4462 5.80523C11.9564 8.34507 8.14989 11.7073 5.12418 16.0613C2.8061 15.0454 1.29325 13.3764 0.439216 11.0542C0.29281 10.6188 0.146405 10.1834 0 9.74803C0 8.87723 0 8.00642 0 7.13562Z" fill="#4BAF47"/>
<path d="M43.7754 66.1809C62.1736 59.795 72.2268 37.904 62.3201 19.2059C62.4421 19.1092 62.5885 18.9882 62.7349 18.8915C65.053 17.6336 66.7366 15.8195 67.9079 13.4731C68.0787 13.1587 68.5911 12.7717 68.9083 12.82C79.1811 14.0537 88.917 16.7387 97.2865 23.1003C103.07 27.5027 106.876 33.163 108.584 40.2503C110.731 49.2486 112.122 58.3195 111.976 67.5838C111.927 70.293 111.634 72.978 111.341 75.6871C110.902 79.8718 106.803 82.5568 103.509 82.8471C98.7994 83.2583 94.9196 80.7668 93.4312 76.2677C91.9427 71.7685 90.5031 67.2694 89.0146 62.7702C88.063 59.8434 86.3305 58.9968 83.378 60.0127C78.3758 61.7543 73.2516 62.9396 67.9811 63.5443C64.6625 63.9313 63.3937 65.9148 64.4185 69.0836C64.8577 70.4623 65.3458 71.8169 65.7362 73.2199C67.0538 77.9851 64.3941 82.9438 59.6848 84.4919C54.951 86.04 49.7536 83.7179 48.0455 79.0736C46.5083 74.8647 45.215 70.5349 43.7754 66.1809Z" fill="#4BAF47"/>
<path d="M34.4784 31.1796C33.4292 31.1796 32.4531 31.1796 31.5747 31.1796C31.5747 29.704 31.7699 28.2527 31.5259 26.8739C30.9159 23.173 27.7438 21.3347 23.6932 22.2055C19.8135 23.0521 16.7146 25.2291 13.9329 27.9141C11.5172 30.2604 9.44313 32.8728 8.5403 36.1867C7.24705 40.9035 9.27232 44.5803 13.9329 46.1042C14.0305 46.1283 14.1281 46.2009 14.2989 46.2735C13.5181 51.0629 14.4209 55.562 17.1538 59.7709C9.68714 55.9491 1.39084 44.9189 3.0745 31.2521C4.80696 17.1984 16.129 6.72453 29.6227 5.36995C44.9464 3.84605 58.0497 13.8361 61.5634 27.4303C65.1259 41.2906 58.0497 54.28 48.5821 59.6742C49.3142 57.7149 50.3878 55.6104 50.8758 53.3609C51.3638 51.1113 51.2662 48.7166 51.4126 46.3944C51.315 46.3944 51.2418 46.3702 51.1442 46.3702C51.193 46.3219 51.2174 46.2251 51.2662 46.2009C55.5364 45.6446 59.1721 41.3147 57.0736 35.5336C55.3168 30.6958 51.8274 27.2852 47.6061 24.5034C45.654 23.2214 43.5311 22.2297 41.1399 22.0603C36.4793 21.6733 33.5756 24.6969 34.1612 29.3412C34.2588 29.9459 34.3808 30.5023 34.4784 31.1796Z" fill="#4BAF47"/>
<path d="M32.6726 34.8079C40.9689 34.7837 47.7035 41.3873 47.7035 49.539C47.7035 57.6907 40.9933 64.3426 32.7214 64.3668C24.4739 64.391 17.7148 57.7391 17.6904 49.6116C17.6904 41.4357 24.3763 34.8321 32.6726 34.8079ZM34.771 54.6671C34.771 52.6352 34.7954 50.9662 34.7466 49.3213C34.7222 48.7166 34.9418 48.4505 35.4787 48.1844C37.6747 47.1443 38.8704 45.4027 38.9924 42.9838C39.0656 41.7985 38.4068 41.0245 37.3575 40.9519C36.2839 40.8794 35.5763 41.4841 35.3811 42.6693C35.1127 44.3142 34.2586 45.1366 32.8678 45.1366C31.5257 45.1124 30.6961 44.29 30.4277 42.7177C30.2081 41.4599 29.4761 40.8552 28.378 40.9761C27.3532 41.0971 26.7676 41.8711 26.8408 43.0806C26.9872 45.4511 28.2072 47.1201 30.3057 48.2086C30.5985 48.3779 31.0133 48.7166 31.0377 48.9827C31.1109 50.7726 31.0621 52.5626 31.0621 54.4494C30.7449 54.3284 30.5741 54.3042 30.4277 54.2075C29.8421 53.8446 29.2564 53.4818 28.6708 53.119C27.7924 52.5868 26.8164 52.7078 26.2063 53.4576C25.5963 54.2075 25.6695 55.175 26.3771 55.9007C29.4761 59.0453 36.1619 59.0936 39.2852 56.0216C40.1148 55.1992 40.2368 54.2075 39.5536 53.4092C38.846 52.5868 37.8456 52.5626 36.8451 53.3125C36.2839 53.7721 35.6495 54.1349 34.771 54.6671Z" fill="#4BAF47"/>
<path d="M15.031 62.988C20.082 66.0117 25.4014 67.6807 31.2088 67.9468C31.1844 68.1645 31.1844 68.3338 31.1356 68.4789C29.9399 72.1073 28.8175 75.784 27.5486 79.3882C26.2798 82.9681 22.7905 85.2177 19.0815 84.9758C15.2506 84.7339 12.0785 82.1215 11.2976 78.348C11.0536 77.1144 11.0292 75.7114 11.3708 74.502C12.4689 70.7043 13.7621 66.955 15.031 62.988Z" fill="#4BAF47"/>
<path d="M73.764 66.5196C77.6437 65.4553 81.4259 64.4393 85.33 63.3508C85.4276 63.5927 85.574 63.9314 85.696 64.2942C86.7697 67.5597 87.8433 70.801 88.8437 74.0665C89.0634 74.7922 89.1122 75.6388 88.9413 76.3645C87.9409 80.5492 83.866 83.1132 79.547 82.3634C75.3989 81.6377 72.4952 77.7191 72.9832 73.486C73.276 71.1397 73.52 68.7692 73.764 66.5196Z" fill="#4BAF47"/>
<path d="M60.4899 15.9406C58.7087 14.0296 57.0982 12.0461 55.195 10.3287C53.3161 8.63549 51.1932 7.23253 49.1191 5.66024C49.534 2.83014 53.1209 0.0967832 56.7078 2.73932e-05C60.7096 -0.0967284 64.3209 2.66081 65.1749 6.45848C66.1021 10.4497 64.0769 14.4408 60.4899 15.9406Z" fill="#4BAF47"/>
<path d="M37.6992 28.4947C37.7724 26.2935 38.9193 25.2776 41.0421 25.7371C42.1646 25.979 43.3114 26.3177 44.3119 26.8498C48.0452 28.785 51.0221 31.5909 52.9986 35.2676C53.6086 36.4045 53.9258 37.7832 53.999 39.0653C54.0966 40.8794 52.6326 42.3792 50.8025 42.5969C50.4609 42.6452 49.8753 42.3308 49.7532 42.0405C47.5572 37.4446 44.0678 34.2517 39.3341 32.3649C38.9925 32.2198 38.6021 31.857 38.5044 31.5183C38.1628 30.5266 37.9432 29.4864 37.6992 28.4947Z" fill="#4BAF47"/>
<path d="M28.0612 28.4704C28.0368 28.7849 28.0368 29.1235 27.988 29.438C27.7684 30.9377 27.3047 32.0262 25.5479 32.6793C21.0825 34.3484 17.8372 37.5413 15.8119 41.8227C15.4215 42.6452 15.0067 42.6936 14.2991 42.4517C12.4934 41.8227 11.4198 39.9118 11.9078 37.8799C12.2006 36.7189 12.6398 35.5094 13.2742 34.4935C15.5679 30.8893 18.618 28.035 22.6198 26.3176C23.303 26.0274 24.0594 25.8338 24.8159 25.6887C26.9875 25.3017 28.11 26.2934 28.0612 28.4704Z" fill="#4BAF47"/>
<path d="M100.971 21.3831C103.582 19.3754 107.364 19.9076 109.438 22.4958C111.439 24.9873 111.195 28.7365 108.828 30.7442C106.754 27.1643 104.118 24.0681 100.971 21.3831Z" fill="#4BAF47"/>
<path d="M34.7716 54.667C35.6256 54.1107 36.2845 53.7478 36.8701 53.3124C37.8705 52.5626 38.871 52.5868 39.5786 53.4092C40.2618 54.1833 40.1398 55.175 39.3102 56.0216C36.1869 59.1178 29.501 59.0452 26.4021 55.9007C25.6945 55.175 25.6213 54.2074 26.2313 53.4576C26.8413 52.7077 27.793 52.5868 28.6958 53.1189C29.2814 53.4818 29.867 53.8688 30.4527 54.2074C30.5991 54.3042 30.7699 54.3284 31.0871 54.4493C31.0871 52.5384 31.1115 50.7726 31.0627 48.9826C31.0627 48.7165 30.6479 48.3779 30.3307 48.2086C28.2322 47.1201 27.0121 45.451 26.8657 43.0805C26.7925 41.8711 27.3781 41.0728 28.403 40.9761C29.501 40.8551 30.233 41.4599 30.4527 42.7177C30.7211 44.3142 31.5507 45.1366 32.8927 45.1366C34.2836 45.1608 35.1376 44.3142 35.406 42.6693C35.6012 41.484 36.3089 40.8793 37.3825 40.9519C38.4317 41.0245 39.0662 41.7985 39.0174 42.9838C38.8954 45.4027 37.6753 47.1443 35.5036 48.1844C34.9668 48.4505 34.7472 48.7165 34.7716 49.3213C34.796 50.9903 34.7716 52.6352 34.7716 54.667Z" fill="white"/>
</g>
<defs>
<clipPath id="clip0_136_1226">
<rect width="112" height="85" fill="white"/>
</clipPath>
</defs>
</svg>
