<svg width="74" height="85" viewBox="0 0 74 85" fill="none" xmlns="http://www.w3.org/2000/svg">
<g clip-path="url(#clip0_131_261)">
<path d="M0 85C3.19601 83.641 6.51495 82.282 9.71096 80.923C11.5548 80.0581 13.3987 79.1933 15.1196 78.3285C15.4884 78.0814 15.7342 77.9578 15.7342 77.4637C15.7342 77.2166 15.8571 76.8459 15.8571 76.5988C16.9635 72.7689 18.5615 69.0625 20.7741 65.7267C21.1429 65.2325 21.1429 64.7384 20.897 64.1206C18.8073 59.0552 16.2259 54.2369 12.2924 50.2834C11.6777 49.6657 11.0631 49.1715 10.4485 48.5538C9.83389 48.0596 9.21927 48.0596 8.72757 48.5538C8.23588 49.048 8.23588 49.7892 8.72757 50.407C8.8505 50.5305 9.09635 50.7776 9.21927 50.9011C11.9236 53.125 14.1362 55.9666 15.8571 59.0552C15.8571 59.1788 15.9801 59.3023 16.103 59.5494C11.309 59.673 7.62126 57.3256 4.6711 53.9898C0.860465 49.4186 1.10631 44.1061 1.72093 38.7936C11.6777 37.9288 18.5615 41.7587 20.897 51.6424C21.2658 53.125 21.1429 54.6075 20.6512 55.9666C20.5282 56.2136 20.5282 56.5843 20.6512 56.7078C21.5116 58.4375 22.3721 60.1671 23.2326 61.8968C23.4784 61.5261 23.7243 61.1555 24.093 60.7849C27.412 56.8314 30.7309 52.8779 34.1728 48.9244C34.9103 48.0596 35.6478 47.1948 36.3854 46.2064C36.5083 45.9593 36.6312 45.4651 36.5083 45.218C33.9269 38.67 30.4851 32.4927 25.4452 27.3038C24.4618 26.3154 23.4784 25.4506 22.495 24.5857C21.8804 24.0916 21.2658 24.0916 20.6512 24.5857C20.1595 25.0799 20.0365 25.8212 20.5282 26.4389C20.7741 26.686 21.0199 26.9331 21.2658 27.1802C25.1993 30.516 28.1495 34.593 30.8538 39.1642C29.2558 39.6584 27.7807 39.5349 26.3056 39.1642C18.0698 37.4346 11.8007 30.2689 10.9402 21.9913C10.6944 19.0262 10.6944 16.061 11.186 13.2195C11.186 12.8488 11.309 12.4782 11.9236 12.4782C16.9635 12.2311 21.8804 12.7253 26.4286 15.0727C30.8538 17.2965 33.3123 21.25 35.1561 25.6977C36.2625 28.2921 36.7542 31.1337 36.1395 33.9753C36.1395 34.2224 36.0166 34.593 35.8937 34.8401C35.1561 35.8285 35.6478 36.6933 36.1395 37.6817C37.1229 39.4113 37.8605 41.2645 38.8439 43.1177C40.4419 41.5116 45.113 34.2224 46.711 30.7631C42.4086 24.7093 42.5316 18.1613 44.8671 11.6134C46.2193 8.03051 48.9236 5.43604 51.9967 3.33575C53.7176 2.10028 55.6844 1.11191 57.5282 -7.94604e-06C57.7741 -7.94604e-06 58.0199 -0.123554 58.3887 0.247085C61.2159 4.07703 63.4286 8.15406 64.289 12.9724C64.9037 16.5552 64.0432 19.891 62.691 23.1032C61.3389 26.3154 59.3721 29.157 56.4219 31.2573C55.0698 32.2456 53.4718 32.9869 51.6279 32.9869C51.7508 32.6163 51.9967 32.3692 52.1196 31.9985C54.3322 27.4273 56.1761 22.7325 57.7741 17.7907C57.7741 17.6671 57.897 17.42 57.897 17.2965C58.0199 16.5552 57.5282 15.8139 56.9136 15.6904C56.1761 15.5669 55.5615 15.9375 55.3156 16.6788C53.5947 21.0029 52.1196 25.4506 50.2757 29.7747C46.711 37.8052 41.6711 44.8474 35.8937 51.3953C32.4518 55.3488 29.01 59.4259 25.691 63.5029C22.7409 67.2093 20.5282 71.5334 19.0532 76.3517C19.5449 76.1046 19.7907 75.9811 20.1595 75.8575C23.1096 74.7456 25.9369 73.3866 29.01 72.5218C32.6977 71.4099 35.6478 71.2863 40.6877 72.7689C40.8106 72.3982 40.9336 72.0276 41.0565 71.5334C42.1628 68.0741 43.5149 64.7384 45.2359 61.6497C45.3588 61.4026 45.4817 60.9084 45.3588 60.7849C44.1296 58.4375 44.1296 56.0901 44.99 53.7427C47.5714 46.2064 54.701 38.67 65.7641 39.9055C68.0997 40.1526 70.4352 40.5232 72.8937 40.8939C72.6478 42.8706 72.6478 44.6003 72.2791 46.3299C71.6645 48.8009 71.0498 51.2718 70.1894 53.4956C68.3455 58.0668 64.5349 60.7849 60.2326 62.6381C57.4053 63.8735 54.4552 64.6148 51.3821 64.2442C51.2591 64.2442 51.0133 64.2442 50.8904 64.2442C50.6445 64.2442 50.3987 64.1206 50.1528 63.9971C50.1528 63.8735 50.1528 63.75 50.2757 63.6264C52.8571 59.673 55.9302 56.2136 60.1096 53.8663C60.7243 53.4956 61.4618 53.2485 62.0764 53.0014C62.9369 52.6308 63.3056 51.8895 62.9369 51.1482C62.5681 50.407 61.8306 50.2834 60.9701 50.5305C52.6113 53.8663 48.309 60.7849 45.113 68.5683C44.4983 70.1744 44.0066 71.9041 43.392 73.5102C53.2259 78.8227 63.9203 81.4171 74.2458 84.8764C49.2924 85 24.7076 85 0 85Z" fill="#4BAF47"/>
</g>
<defs>
<clipPath id="clip0_131_261">
<rect width="74" height="85" fill="white"/>
</clipPath>
</defs>
</svg>
