<svg width="85" height="85" viewBox="0 0 85 85" fill="none" xmlns="http://www.w3.org/2000/svg">
<g clip-path="url(#clip0_137_1238)">
<path d="M24.8829 30.4744C33.5701 39.1615 42.2341 47.8255 50.9443 56.5358C49.4888 57.2289 47.987 57.9451 46.4852 58.6614C40.5706 61.457 34.6559 64.2526 28.7413 67.0713C28.1868 67.3254 27.8633 67.3023 27.4013 66.8633C23.127 62.566 18.8296 58.2686 14.5323 53.9943C14.1857 53.6478 13.9778 53.3705 14.2319 52.816C17.7437 45.4458 21.2325 38.0756 24.7212 30.7054C24.7905 30.613 24.8367 30.5437 24.8829 30.4744Z" fill="#4BAF47"/>
<path d="M70.2137 0C73.7949 0 77.376 0 80.9571 0C83.5217 0 84.9772 1.45556 85.0003 4.02011C85.0003 8.73335 85.0003 13.4235 85.0003 18.1367C85.0003 20.6782 83.4986 22.1799 80.9571 22.1799C73.7949 22.1799 66.6326 22.1799 59.4934 22.1799C56.952 22.1799 55.4733 20.6782 55.4502 18.1367C55.4502 13.4235 55.4502 8.73335 55.4502 4.02011C55.4502 1.45556 56.9058 0 59.4934 0C63.0514 0 66.6326 0 70.2137 0ZM64.5763 11.2286C64.6225 11.2286 64.6456 11.2286 64.6918 11.2286C64.6918 12.0834 64.6456 12.9614 64.6918 13.8163C64.8074 16.3577 67.395 18.0443 69.7285 17.0277C71.6693 16.1729 73.61 15.2487 75.4584 14.1859C77.7226 12.8921 77.9305 9.51889 75.7587 8.15575C73.7717 6.90813 71.6231 5.86844 69.4282 5.03669C67.4643 4.27426 65.2925 5.6374 64.8767 7.69367C64.6456 8.84887 64.6687 10.0503 64.5763 11.2286Z" fill="#4BAF47"/>
<path d="M82.7125 62.381C82.4583 62.8662 82.2966 63.2821 82.0194 63.6518C81.1183 64.9456 81.6497 66.2856 83.1977 66.5629C84.5608 66.7939 84.9767 67.256 84.9767 68.6192C84.9767 69.7744 84.9998 70.9296 84.9767 72.0848C84.9536 73.2169 84.4453 73.7483 83.3363 73.9331C81.6035 74.2103 81.049 75.5273 82.0887 76.9366C82.7587 77.8377 82.7356 78.6001 81.95 79.4088C81.0952 80.3098 80.2172 81.1878 79.3162 82.0426C78.5537 82.782 77.7682 82.8051 76.9133 82.1582C75.4578 81.0723 74.164 81.6268 73.8867 83.4289C73.725 84.4917 73.1705 85 72.0846 85.0231C70.8832 85.0462 69.6587 85.0462 68.4572 85.0231C67.2789 85 66.7244 84.5148 66.5627 83.3596C66.2855 81.6499 64.9685 81.1185 63.5361 82.1582C62.6581 82.8051 61.8726 82.7589 61.0639 81.9733C60.186 81.1185 59.3311 80.2636 58.4994 79.4088C57.7138 78.6001 57.6907 77.8377 58.3608 76.9366C59.4004 75.5273 58.869 74.2103 57.1362 73.9331C56.0041 73.7483 55.5189 73.2169 55.4958 72.0848C55.4727 70.8834 55.4727 69.6588 55.4958 68.4574C55.5189 67.3022 56.0041 66.7708 57.1131 66.586C58.8459 66.3087 59.3773 64.9918 58.3839 63.5825C57.7369 62.6814 57.76 61.919 58.5456 61.1103C59.4004 60.2324 60.2553 59.3775 61.1101 58.5458C61.9188 57.7602 62.6812 57.7371 63.5823 58.4071C64.9916 59.4468 66.3086 58.9154 66.5858 57.1826C66.7706 56.0505 67.302 55.5422 68.411 55.5422C69.6587 55.5191 70.8832 55.5191 72.1308 55.5422C73.1936 55.5653 73.7481 56.0736 73.9329 57.1364C74.2102 58.9385 75.504 59.4699 76.9827 58.384C77.8375 57.7602 78.6231 57.7833 79.3855 58.5227C80.2865 59.3775 81.1645 60.2555 82.0194 61.1565C82.2735 61.4338 82.4352 61.8959 82.7125 62.381ZM62.8198 70.1902C62.7967 74.2103 66.1237 77.6067 70.167 77.6298C74.2333 77.6529 77.6065 74.3259 77.6296 70.2133C77.6527 66.1932 74.2795 62.82 70.2363 62.82C66.193 62.82 62.8429 66.1239 62.8198 70.1902Z" fill="#4BAF47"/>
<path d="M0.138625 2.42603C2.93422 4.5285 5.54499 6.46924 8.15575 8.43309C9.81924 9.68071 11.4827 10.9283 13.1462 12.1529C14.6018 13.2156 14.9253 13.2387 16.3577 12.176C20.3547 9.19553 24.3517 6.19199 28.3487 3.18846C28.6491 2.98052 28.9494 2.74948 29.3653 2.44913C29.4346 2.93432 29.5039 3.25777 29.5039 3.60433C29.527 8.57172 29.5501 13.5391 29.5039 18.5065C29.4808 20.7245 27.8867 22.18 25.5531 22.18C22.0875 22.2031 18.6219 22.18 15.1563 22.18C11.4827 22.18 7.83229 22.18 4.15874 22.18C1.45556 22.18 0 20.7245 0 18.0213C0 13.3081 0.0231041 8.61793 0.0462082 3.90469C0.0462082 3.46571 0.0924164 3.04984 0.138625 2.42603Z" fill="#4BAF47"/>
<path d="M11.922 56.7668C16.127 60.9718 20.4474 65.2923 24.8141 69.6589C23.5203 70.9528 22.1802 72.2928 20.8402 73.6328C19.9853 74.4877 19.1536 75.3656 18.2525 76.1974C16.127 78.1843 12.9155 78.2768 10.7899 76.2898C8.82606 74.4415 6.93152 72.547 5.08319 70.5831C3.28107 68.6424 3.05003 65.6157 4.80594 63.675C7.04704 61.2259 9.58849 59.0079 11.922 56.7668Z" fill="#4BAF47"/>
<path d="M3.23438 0.0461426C10.9511 0.0461426 18.5062 0.0461426 26.1768 0.0461426C25.9919 0.230975 25.8995 0.392704 25.7609 0.485121C22.2953 3.11899 18.8065 5.72975 15.3178 8.36362C15.0175 8.59466 14.7864 8.8026 14.3474 8.47914C10.8125 5.79906 7.25449 3.14209 3.69646 0.462016C3.58094 0.392704 3.48852 0.277184 3.23438 0.0461426Z" fill="#4BAF47"/>
<path d="M21.0713 78.6696C22.8041 76.9599 24.4907 75.2733 25.9925 73.7715C27.8408 75.4812 29.7815 77.1678 31.5606 78.993C32.3461 79.8017 32.3923 80.98 32.0688 82.1121C31.3295 84.5842 28.1874 85.6239 26.2697 83.9142C24.4907 82.2969 22.8272 80.4717 21.0713 78.6696Z" fill="#4BAF47"/>
<path d="M36.3193 36.204C38.8146 35.6726 41.125 36.204 43.0426 38.0523C45.0758 39.9931 45.7227 42.3959 45.1682 45.076C42.2109 42.1187 39.2767 39.1613 36.3193 36.204Z" fill="#4BAF47"/>
<path d="M54.2018 29.2729C54.0632 29.5271 53.9246 30.0123 53.6242 30.3588C52.3997 31.6527 51.129 32.9234 49.8351 34.1479C48.911 35.0259 47.8251 35.0259 47.0858 34.2172C46.3464 33.4317 46.4388 32.3689 47.3399 31.4447C48.5875 30.1971 49.812 28.9495 51.0828 27.725C51.6835 27.1474 52.3997 27.0549 53.1621 27.3784C53.8553 27.7019 54.1556 28.2795 54.2018 29.2729Z" fill="#4BAF47"/>
<path d="M38.8151 26.7777C38.8151 25.8535 38.792 24.9293 38.8151 24.0052C38.8613 22.9193 39.5775 22.2031 40.5941 22.18C41.6569 22.1569 42.4424 22.9193 42.4655 24.0283C42.4887 25.8766 42.4887 27.7249 42.4655 29.5502C42.4424 30.6361 41.5876 31.4216 40.571 31.3985C39.5775 31.3754 38.8613 30.613 38.792 29.5502C38.792 29.504 38.792 29.4346 38.792 29.3884C38.8151 28.5105 38.8151 27.6325 38.8151 26.7777Z" fill="#4BAF47"/>
<path d="M54.5029 38.815C55.427 38.815 56.3512 38.7919 57.2754 38.815C58.3382 38.8612 59.1006 39.6005 59.1237 40.594C59.1468 41.6106 58.3613 42.4423 57.2754 42.4654C55.427 42.4885 53.5787 42.4885 51.7535 42.4654C50.6445 42.4423 49.9052 41.6337 49.9283 40.594C49.9514 39.5774 50.6676 38.8612 51.7535 38.815C52.6545 38.7919 53.5787 38.815 54.5029 38.815Z" fill="#4BAF47"/>
<path d="M68.4111 13.6315C68.4111 11.8756 68.4111 10.2814 68.4111 8.54858C70.1208 9.40344 71.715 10.2121 73.4709 11.0669C71.7381 11.9449 70.1439 12.7535 68.4111 13.6315Z" fill="#4BAF47"/>
<path d="M70.2367 66.5398C72.293 66.5629 73.8871 68.1802 73.8871 70.2365C73.8871 72.2927 72.2467 73.8869 70.1905 73.8869C68.1342 73.8638 66.54 72.2465 66.54 70.1902C66.5631 68.134 68.1804 66.5398 70.2367 66.5398Z" fill="#4BAF47"/>
</g>
<defs>
<clipPath id="clip0_137_1238">
<rect width="85" height="85" fill="white"/>
</clipPath>
</defs>
</svg>
