<svg width="85" height="63" viewBox="0 0 85 63" fill="none" xmlns="http://www.w3.org/2000/svg">
<g clip-path="url(#clip0_439_1154)">
<path d="M0 14.5265C0.509115 13.6007 1.30599 13.3142 2.34635 13.3803C3.85156 13.4464 5.37891 13.4023 6.99479 13.4023C6.99479 13.9755 6.99479 14.3282 6.99479 14.6809C6.99479 26.3638 6.99479 38.0248 6.99479 49.7078C6.99479 51.7578 7.65885 52.5073 9.67318 52.9041C17.7305 54.5133 25.2122 57.5332 31.875 62.3607C32.0964 62.515 32.2956 62.6914 32.4505 62.9779C31.2552 62.7354 30.0599 62.493 28.8424 62.2505C22.5117 60.994 16.1146 60.3988 9.67318 59.98C7.1276 59.8257 4.60417 59.6494 2.05859 59.5392C1.10677 59.5171 0.420573 59.1865 0 58.3488C0 43.734 0 29.1413 0 14.5265Z" fill="#4BAF47"/>
<path d="M39.9764 62.4268C38.0728 60.9279 36.2798 59.4069 34.3761 58.0402C27.8241 53.345 20.5415 50.2809 12.7056 48.4734C12.1079 48.3411 11.9751 48.0986 11.9751 47.5476C11.9972 32.4258 11.9751 17.304 11.9972 2.18227C11.9972 0.418799 12.772 -0.198415 14.5207 0.132236C21.759 1.56506 28.5545 4.10004 34.5089 8.50872C36.3683 9.87541 37.9399 11.5948 39.6222 13.204C39.8657 13.4244 39.9985 13.8873 39.9985 14.218C40.0207 30.1333 40.0207 46.0486 40.0207 61.986C39.9985 62.0962 39.9985 62.2285 39.9764 62.4268ZM30.7238 25.0413C31.8306 24.9531 32.7824 24.3138 33.1144 23.3219C33.4907 22.2638 33.1808 21.1175 32.229 20.4562C29.2407 18.4282 25.9868 17.0616 22.423 16.4884C21.9139 16.4003 21.3162 16.5325 20.8293 16.7309C19.9217 17.1277 19.4126 18.1637 19.5011 19.1116C19.634 20.2578 20.3201 21.0955 21.5155 21.338C24.3709 21.9111 27.005 22.9692 29.4399 24.5563C29.8162 24.7988 30.3032 24.887 30.7238 25.0413ZM30.5467 40.9125C31.6756 40.8243 32.6717 40.141 33.0037 39.149C33.3579 38.0689 33.0259 36.9226 32.0519 36.3054C29.0636 34.4538 25.9204 32.9328 22.423 32.2715C21.0949 32.029 19.8553 32.8887 19.5675 34.1893C19.2798 35.4678 20.0545 36.8345 21.3605 37.099C24.1938 37.6721 26.7173 38.9286 29.1964 40.3394C29.617 40.6259 30.104 40.7362 30.5467 40.9125Z" fill="#4BAF47"/>
<path d="M45.0011 62.515C45.0011 62.0962 45.0011 61.7876 45.0011 61.501C45.0011 45.8502 45.0011 30.2215 44.979 14.5707C44.979 13.8873 45.1782 13.3803 45.6209 12.8733C48.7863 9.30229 52.66 6.70117 56.91 4.62909C61.3149 2.46884 65.9634 0.96989 70.7889 0.0440681C72.0506 -0.198409 72.9139 0.440849 73.0024 1.71937C73.0246 1.96184 73.0024 2.20432 73.0024 2.46884C73.0024 17.3922 73.0024 32.3156 73.0246 47.261C73.0246 48.0766 72.8032 48.3852 72.0063 48.5616C63.4621 50.5234 55.6483 54.0504 48.7199 59.451C47.5024 60.3989 46.3293 61.4129 45.0011 62.515ZM54.2537 25.0633C54.7186 24.887 55.1834 24.7547 55.6261 24.5343C56.0024 24.3579 56.3345 24.0934 56.6886 23.895C58.8358 22.6385 61.1379 21.845 63.5506 21.338C64.923 21.0514 65.6978 19.7949 65.4543 18.4944C65.2108 17.1938 64.0597 16.29 62.7537 16.4884C59.0571 17.0616 55.6925 18.4723 52.6379 20.5885C51.7746 21.1837 51.509 22.352 51.8631 23.3439C52.2173 24.3138 53.147 24.9531 54.2537 25.0633ZM54.3866 40.9346C54.8735 40.7582 55.3826 40.6259 55.8254 40.3835C58.3045 38.9727 60.828 37.7162 63.6613 37.1431C64.9673 36.8786 65.7199 35.4898 65.4321 34.2113C65.1444 32.9108 63.8827 32.0731 62.5545 32.3156C59.0571 32.9769 55.9139 34.4979 52.9256 36.3495C51.9517 36.9447 51.6418 38.135 51.9959 39.1931C52.328 40.141 53.3019 40.8243 54.3866 40.9346Z" fill="#4BAF47"/>
<path d="M78.0054 13.2261C79.909 13.2261 81.702 13.204 83.495 13.2481C84.314 13.2702 84.9116 13.9315 85.0002 14.7691C85.0223 15.0116 85.0223 15.2541 85.0223 15.5186C85.0223 29.428 85.0223 43.3374 85.0223 57.2467C85.0223 58.9882 84.6017 59.4511 82.8752 59.5613C77.6291 59.936 72.383 60.1565 67.159 60.7296C62.5327 61.2366 57.9285 62.1404 53.3244 62.8678C53.0809 62.9119 52.8374 62.956 52.5054 62.8678C52.9259 62.5592 53.3465 62.2285 53.7671 61.942C60.3192 57.357 67.5796 54.4693 75.3934 52.9262C77.3634 52.5295 78.0275 51.7579 78.0275 49.774C78.0275 38.0029 78.0275 26.2537 78.0275 14.4826C78.0054 14.0858 78.0054 13.7331 78.0054 13.2261Z" fill="#4BAF47"/>
</g>
<defs>
<clipPath id="clip0_439_1154">
<rect width="85" height="63" fill="white"/>
</clipPath>
</defs>
</svg>
