<svg width="85" height="85" viewBox="0 0 85 85" fill="none" xmlns="http://www.w3.org/2000/svg">
<g clip-path="url(#clip0_125_204)">
<path d="M31.6479 47.8804C28.4953 47.8804 25.2214 47.8804 22.0688 47.8804C21.4625 47.8804 21.22 47.7595 20.8562 47.2759C20.1287 46.0668 19.2799 44.8577 18.3098 43.7695C13.8234 38.4494 12.6108 32.4039 15.0359 25.8748C17.4611 19.3456 22.4325 15.4765 29.3441 14.5092C36.6194 13.421 43.7735 17.1692 47.2899 23.6984C50.8063 30.1066 49.8362 38.0867 45.1073 43.6486C44.1372 44.8577 43.2884 46.0668 42.4397 47.3968C42.1971 47.8804 41.8334 48.0014 41.3484 48.0014C38.0745 47.8804 34.9218 47.8804 31.6479 47.8804ZM28.9803 41.714C29.1016 41.8349 29.2228 42.0767 29.3441 42.0767C29.5866 41.9558 29.9504 41.8349 30.0716 41.714C32.7392 38.5703 35.2856 35.3058 37.832 32.1621C38.317 31.5575 38.1957 31.1948 37.4682 31.0739C36.2556 30.8321 35.0431 30.7112 33.9518 30.5903C33.3455 30.4693 32.9817 30.2275 33.2242 29.5021C33.588 27.9302 33.8305 26.4793 34.073 24.9075C34.073 24.6657 33.9518 24.4238 33.8305 24.0611C33.588 24.182 33.3455 24.3029 33.103 24.4238C32.7392 24.7866 32.4967 25.1493 32.2542 25.3911C30.0716 28.0511 27.889 30.7112 25.7064 33.3712C25.1001 34.0967 25.2214 34.3385 26.1914 34.5803C26.919 34.7012 27.5252 34.7012 28.2528 34.8221C30.4354 35.1849 30.4354 35.1849 29.9504 37.3612C29.5866 38.9331 29.2228 40.2631 28.9803 41.714Z" fill="#4BAF47"/>
<path d="M30.1924 71.0954C31.1624 71.0954 32.0112 71.0954 32.86 71.0954C32.9813 72.5463 33.1025 73.9972 33.345 75.4481C33.4663 76.2945 33.83 77.2618 34.0726 78.1082C35.1639 80.8891 37.3464 82.34 40.2566 82.4609C44.5005 82.7028 47.6532 80.7682 50.0783 77.5036C51.8971 74.9645 52.9884 72.0627 54.0797 69.1608C55.2922 65.7753 56.5048 62.3898 58.3236 59.2462C61.5975 53.9261 66.2052 49.9361 71.6617 46.7924C72.6318 46.1878 73.6018 45.7042 74.6931 45.0996C75.4206 44.7369 75.6631 43.8905 75.1781 43.286C74.8144 42.6814 74.0868 42.4396 73.3593 42.8023C67.6603 45.8251 62.3251 49.4524 58.2024 54.6516C56.0198 57.4325 54.4435 60.6971 53.2309 63.9617C53.1096 64.2035 52.9884 64.4453 52.8671 64.6871C52.8671 63.7198 52.8671 62.6316 52.8671 61.6644C52.9884 58.7625 53.5947 56.1025 54.5647 53.4425C56.0198 49.6942 58.5661 46.9133 61.9613 44.616C66.2052 41.8351 70.6917 39.7796 75.2994 37.7241C76.8757 36.9986 78.452 36.1523 80.0283 35.3059C81.6046 34.3386 82.8172 33.1295 83.4235 31.3159C83.5447 31.074 83.666 30.9531 83.9085 30.4695C84.151 31.1949 84.3935 31.6786 84.5148 32.0413C85.1211 35.185 84.9998 38.3287 84.8785 41.4723C84.636 45.3415 84.0298 49.2106 82.9385 52.9588C81.4834 58.5207 78.0882 62.3898 72.6318 64.3244C69.4791 65.5335 66.2052 66.3799 63.0526 67.589C61.1125 68.3144 59.1724 69.2817 57.3536 70.1281C56.7473 70.3699 56.3835 70.9745 56.141 71.579C54.9285 74.8436 53.4734 77.8664 51.1696 80.4055C47.6532 84.2746 43.4092 85.8464 38.3165 84.8792C36.1339 84.5164 34.4363 83.4282 33.1025 81.7355C30.6774 78.4709 30.3136 74.8436 30.1924 71.0954Z" fill="#4BAF47"/>
<path d="M22.3105 50.6614C28.6158 50.6614 34.7998 50.6614 40.7414 50.6614C40.4988 52.7169 40.3776 54.7723 40.1351 56.9487C39.8926 56.9487 39.6501 56.9487 39.4076 56.9487C37.3462 56.9487 35.1636 56.9487 33.1023 56.9487C32.011 56.9487 31.4047 57.4324 31.4047 58.3996C31.4047 59.246 32.011 59.7297 33.1023 59.7297C35.1636 59.7297 37.225 59.7297 39.4076 59.7297C39.6501 59.7297 40.0138 59.7297 40.3776 59.7297C40.3776 61.0597 40.4988 62.2688 40.3776 63.4779C40.3776 63.9615 40.0138 64.5661 39.6501 64.9288C37.3462 66.9843 34.6786 68.4352 31.526 68.3143C28.4946 68.1934 26.0695 66.8634 23.8869 64.8079C23.4018 64.3242 23.2806 63.4779 23.1593 62.7524C23.0381 61.3015 23.1593 59.9715 23.1593 58.5206C23.0381 55.9814 23.1593 53.3214 22.3105 50.6614Z" fill="#4BAF47"/>
<path d="M15.5211 13.9047C15.1573 14.2674 14.9148 14.751 14.4298 14.9929C13.8235 15.2347 13.2172 14.9929 12.8534 14.5092C12.0047 13.3001 11.2771 12.091 10.4283 10.8819C9.94331 10.1564 9.33704 9.43099 8.85201 8.58461C8.36699 7.85915 8.48825 7.13369 9.09452 6.65005C9.7008 6.16641 10.5496 6.28732 11.0346 7.01278C12.3684 8.94735 13.7022 10.8819 15.036 12.8165C15.2785 13.1792 15.2785 13.421 15.5211 13.9047Z" fill="#4BAF47"/>
<path d="M54.929 7.49653C54.6865 7.98017 54.6865 8.222 54.5653 8.46382C53.2314 10.3984 51.8976 12.4539 50.5638 14.3884C50.0788 15.1139 49.23 15.2348 48.6237 14.7512C48.0175 14.2675 47.775 13.5421 48.26 12.8166C49.5938 10.882 50.9276 8.94746 52.2614 7.01289C52.6252 6.40834 53.2314 6.16652 53.8377 6.40834C54.3227 6.65016 54.5652 7.25471 54.929 7.49653Z" fill="#4BAF47"/>
<path d="M58.8089 28.5349C59.7789 28.5349 60.8702 28.5349 61.8403 28.5349C62.689 28.5349 63.2953 29.1395 63.2953 29.8649C63.2953 30.5904 62.689 31.1949 61.8403 31.1949C59.7789 31.1949 57.7176 31.1949 55.6562 31.1949C54.8074 31.1949 54.2012 30.5904 54.2012 29.8649C54.2012 29.0186 54.8074 28.5349 55.6562 28.5349C56.7475 28.5349 57.7176 28.5349 58.8089 28.5349Z" fill="#4BAF47"/>
<path d="M4.60786 28.5349C5.57791 28.5349 6.66921 28.5349 7.63925 28.5349C8.48804 28.5349 9.09431 29.1395 9.09431 29.8649C9.09431 30.5904 8.48804 31.1949 7.63925 31.1949C5.57791 31.1949 3.51657 31.1949 1.33397 31.1949C0.485183 31.1949 -0.121094 30.5904 -0.121094 29.8649C-0.121094 29.1395 0.485183 28.5349 1.33397 28.5349C2.54652 28.5349 3.51657 28.5349 4.60786 28.5349Z" fill="#4BAF47"/>
<path d="M30.3135 4.47368C30.3135 3.5064 30.3135 2.41821 30.3135 1.45092C30.3135 0.483642 30.9198 0 31.6473 0C32.3748 0 32.9811 0.604552 32.9811 1.45092C32.9811 3.5064 32.9811 5.56188 32.9811 7.73826C32.9811 8.58464 32.3748 9.18919 31.6473 9.18919C30.7985 9.06828 30.3135 8.46373 30.3135 7.61735C30.3135 6.65007 30.3135 5.56188 30.3135 4.47368Z" fill="#4BAF47"/>
</g>
<defs>
<clipPath id="clip0_125_204">
<rect width="85" height="85" fill="white"/>
</clipPath>
</defs>
</svg>
