<svg width="1920" height="376" viewBox="0 0 1920 376" fill="none" xmlns="http://www.w3.org/2000/svg">
<g opacity="0.06">
<mask id="mask0_186_272" style="mask-type:alpha" maskUnits="userSpaceOnUse" x="0" y="0" width="1921" height="376">
<rect width="1921" height="376" fill="#4BAF47"/>
</mask>
<g mask="url(#mask0_186_272)">
<mask id="mask1_186_272" style="mask-type:luminance" maskUnits="userSpaceOnUse" x="-1" y="0" width="1921" height="1397">
<path d="M1920 0H-1V1397H1920V0Z" fill="white"/>
</mask>
<g mask="url(#mask1_186_272)">
<path d="M1275.3 641.262C1129.29 641.262 1013.83 572.867 901.773 506.413C790.685 440.443 676.201 372.533 532.126 372.533C388.051 372.533 273.082 440.443 162.479 506.413C102.811 541.823 41.6886 578.203 -23.8001 603.911L-26.2256 597.121C38.778 571.412 99.9007 535.517 159.083 500.107C270.656 433.652 386.595 365.257 532.611 365.257C678.626 365.257 794.08 433.652 906.139 500.107C1017.23 566.076 1131.71 633.986 1275.79 633.986C1419.86 633.986 1534.83 566.076 1645.43 500.107C1757.01 433.652 1872.94 365.257 2018.96 365.257V372.533C1874.89 372.533 1759.92 440.443 1649.31 506.413C1536.77 572.867 1421.32 641.262 1275.3 641.262Z" fill="#D4D4D4"/>
</g>
<mask id="mask2_186_272" style="mask-type:luminance" maskUnits="userSpaceOnUse" x="-1" y="0" width="1921" height="1397">
<path d="M1920 0H-1V1397H1920V0Z" fill="white"/>
</mask>
<g mask="url(#mask2_186_272)">
<path d="M1275.3 592.27C1129.29 592.27 1013.83 523.875 901.773 457.42C790.685 391.451 676.201 323.541 532.126 323.541C388.051 323.541 273.567 391.451 162.479 457.42C102.811 492.83 41.6886 529.211 -23.8001 554.919L-26.2256 548.128C38.778 522.42 99.9007 486.525 159.083 451.114C270.656 384.66 386.595 316.265 532.611 316.265C678.626 316.265 794.08 384.66 906.139 451.114C1017.23 517.084 1131.71 584.994 1275.79 584.994C1419.86 584.994 1534.83 517.084 1645.43 451.114C1757.01 384.66 1872.94 316.265 2018.96 316.265V323.541C1874.89 323.541 1759.92 391.451 1649.31 457.42C1536.77 523.875 1421.32 592.27 1275.3 592.27Z" fill="#D4D4D4"/>
</g>
<mask id="mask3_186_272" style="mask-type:luminance" maskUnits="userSpaceOnUse" x="-1" y="0" width="1921" height="1397">
<path d="M1920 0H-1V1397H1920V0Z" fill="white"/>
</mask>
<g mask="url(#mask3_186_272)">
<path d="M1275.3 543.278C1129.29 543.278 1013.83 474.883 901.773 408.429C790.685 342.459 676.201 274.549 532.126 274.549C388.051 274.549 273.082 342.459 162.479 408.429C102.812 443.839 41.2042 480.219 -24.2845 505.928L-26.71 499.137C38.2936 473.428 99.4163 437.533 158.599 402.123C270.172 335.668 386.111 267.273 532.126 267.273C678.142 267.273 793.596 335.668 905.654 402.123C1016.74 468.092 1131.23 536.002 1275.3 536.002C1419.38 536.002 1534.34 468.092 1644.95 402.123C1756.52 335.668 1872.46 267.273 2018.48 267.273V274.549C1874.4 274.549 1759.43 342.459 1648.83 408.429C1536.77 474.883 1421.32 543.278 1275.3 543.278Z" fill="#D4D4D4"/>
</g>
<mask id="mask4_186_272" style="mask-type:luminance" maskUnits="userSpaceOnUse" x="-1" y="0" width="1921" height="1397">
<path d="M1920 0H-1V1397H1920V0Z" fill="white"/>
</mask>
<g mask="url(#mask4_186_272)">
<path d="M1275.3 494.771C1129.29 494.771 1013.83 426.376 901.773 359.921C790.685 293.952 676.201 226.042 532.126 226.042C388.051 226.042 273.568 293.952 162.479 359.921C102.812 395.331 41.2042 431.712 -24.2845 457.42L-26.71 450.629C38.2936 424.921 99.4163 389.025 158.599 353.615C270.172 287.161 386.111 218.766 532.126 218.766C678.142 218.766 793.596 287.161 905.654 353.615C1016.74 419.585 1131.23 487.495 1275.3 487.495C1419.38 487.495 1534.34 419.585 1644.95 353.615C1756.52 287.161 1872.46 218.766 2018.48 218.766V226.042C1874.4 226.042 1759.43 293.952 1648.83 359.921C1536.77 426.376 1421.32 494.771 1275.3 494.771Z" fill="#D4D4D4"/>
</g>
<mask id="mask5_186_272" style="mask-type:luminance" maskUnits="userSpaceOnUse" x="-1" y="0" width="1921" height="1397">
<path d="M1920 0H-1V1397H1920V0Z" fill="white"/>
</mask>
<g mask="url(#mask5_186_272)">
<path d="M1275.3 445.779C1129.29 445.779 1013.83 377.384 901.773 310.93C790.685 244.96 676.201 177.05 532.126 177.05C388.051 177.05 273.568 244.96 162.479 310.93C102.812 346.34 41.2042 382.72 -24.2845 408.429L-26.71 401.638C38.2936 375.929 99.4163 340.034 158.599 304.624C270.172 238.169 386.111 169.774 532.126 169.774C678.142 169.774 793.596 238.169 905.654 304.624C1016.74 370.593 1131.23 438.503 1275.3 438.503C1419.38 438.503 1534.34 370.593 1644.95 304.624C1756.52 238.169 1872.46 169.774 2018.48 169.774V177.05C1874.4 177.05 1759.43 244.96 1648.83 310.93C1536.77 377.384 1421.32 445.779 1275.3 445.779Z" fill="#D4D4D4"/>
</g>
<mask id="mask6_186_272" style="mask-type:luminance" maskUnits="userSpaceOnUse" x="-1" y="0" width="1921" height="1397">
<path d="M1920 0H-1V1397H1920V0Z" fill="white"/>
</mask>
<g mask="url(#mask6_186_272)">
<path d="M1275.3 397.272C1129.29 397.272 1013.83 328.877 901.773 262.423C790.685 196.453 676.201 128.544 532.126 128.544C388.051 128.544 273.568 196.453 162.479 262.423C102.812 297.833 41.2042 334.213 -24.2845 359.922L-26.71 353.131C38.2936 327.422 99.4163 291.527 158.599 256.117C270.172 189.662 386.111 121.268 532.126 121.268C678.142 121.268 793.596 189.662 905.654 256.117C1016.74 322.086 1131.23 389.996 1275.3 389.996C1419.38 389.996 1534.34 322.086 1644.95 256.117C1756.52 189.662 1872.46 121.268 2018.48 121.268V128.544C1874.4 128.544 1759.43 196.453 1648.83 262.423C1536.77 328.392 1421.32 397.272 1275.3 397.272Z" fill="#D4D4D4"/>
</g>
<mask id="mask7_186_272" style="mask-type:luminance" maskUnits="userSpaceOnUse" x="-1" y="0" width="1921" height="1397">
<path d="M1920 0H-1V1397H1920V0Z" fill="white"/>
</mask>
<g mask="url(#mask7_186_272)">
<path d="M1275.3 348.28C1129.29 348.28 1013.83 279.885 901.773 213.431C790.685 147.461 676.201 79.5514 532.126 79.5514C388.051 79.5514 273.082 147.461 162.479 213.431C102.812 248.841 41.2042 285.221 -24.2845 310.93L-26.71 304.139C38.2936 278.43 99.4163 242.535 158.599 207.125C270.172 140.67 386.111 72.2754 532.126 72.2754C678.142 72.2754 793.596 140.67 905.654 207.125C1016.74 273.094 1131.23 341.004 1275.3 341.004C1419.38 341.004 1534.34 273.094 1644.95 207.125C1756.52 140.67 1872.46 72.2754 2018.48 72.2754V79.5514C1874.4 79.5514 1759.43 147.461 1648.83 213.431C1536.77 279.885 1421.32 348.28 1275.3 348.28Z" fill="#D4D4D4"/>
</g>
<mask id="mask8_186_272" style="mask-type:luminance" maskUnits="userSpaceOnUse" x="-1" y="0" width="1921" height="1397">
<path d="M1920 0H-1V1397H1920V0Z" fill="white"/>
</mask>
<g mask="url(#mask8_186_272)">
<path d="M1275.3 299.288C1129.29 299.288 1013.83 230.893 901.773 164.438C790.685 98.469 676.201 30.5592 532.126 30.5592C388.051 30.5592 273.568 98.469 162.479 164.438C102.812 199.848 41.2042 236.229 -24.2845 261.937L-26.71 255.146C38.2936 229.438 99.4163 193.543 158.599 158.132C270.172 91.678 386.111 23.2832 532.126 23.2832C678.142 23.2832 793.596 91.678 905.654 158.132C1016.74 224.102 1131.23 292.012 1275.3 292.012C1419.38 292.012 1534.34 224.102 1644.95 158.132C1756.52 91.678 1872.46 23.2832 2018.48 23.2832V30.5592C1874.4 30.5592 1759.43 98.469 1648.83 164.438C1536.77 230.893 1421.32 299.288 1275.3 299.288Z" fill="#D4D4D4"/>
</g>
<mask id="mask9_186_272" style="mask-type:luminance" maskUnits="userSpaceOnUse" x="-1" y="0" width="1921" height="1397">
<path d="M1920 0H-1V1397H1920V0Z" fill="white"/>
</mask>
<g mask="url(#mask9_186_272)">
<path d="M1275.3 250.781C1129.29 250.781 1013.83 182.386 901.773 115.932C790.685 49.9621 676.201 -17.9476 532.126 -17.9476C388.051 -17.9476 273.568 49.9621 162.479 115.932C102.812 151.342 41.2042 187.722 -24.2845 213.431L-26.71 206.64C38.2936 180.931 99.4163 145.036 158.599 109.626C270.172 43.1712 386.111 -25.2236 532.126 -25.2236C678.142 -25.2236 793.596 43.1712 905.654 109.626C1016.74 175.595 1131.23 243.505 1275.3 243.505C1419.38 243.505 1534.34 175.595 1644.95 109.626C1756.52 43.1712 1872.46 -25.2236 2018.48 -25.2236V-17.9476C1874.4 -17.9476 1759.43 49.9621 1648.83 115.932C1536.77 182.386 1421.32 250.781 1275.3 250.781Z" fill="#D4D4D4"/>
</g>
<mask id="mask10_186_272" style="mask-type:luminance" maskUnits="userSpaceOnUse" x="-1" y="0" width="1921" height="1397">
<path d="M1920 0H-1V1397H1920V0Z" fill="white"/>
</mask>
<g mask="url(#mask10_186_272)">
<path d="M1275.3 201.789C1129.29 201.789 1013.83 133.394 901.773 66.9394C790.685 0.96994 676.201 -66.9398 532.126 -66.9398C388.051 -66.9398 273.568 0.96994 162.479 66.9394C102.812 102.349 41.2042 138.73 -24.2845 164.438L-26.71 157.647C38.2936 131.939 99.4163 96.0435 158.599 60.6335C270.172 -5.82104 386.111 -74.2158 532.126 -74.2158C678.142 -74.2158 793.596 -5.82104 905.654 60.6335C1016.74 126.603 1131.23 194.513 1275.3 194.513C1419.38 194.513 1534.34 126.603 1644.95 60.6335C1756.52 -5.82104 1872.46 -74.2158 2018.48 -74.2158V-66.9398C1874.4 -66.9398 1759.43 0.96994 1648.83 66.9394C1536.77 133.394 1421.32 201.789 1275.3 201.789Z" fill="#D4D4D4"/>
</g>
<mask id="mask11_186_272" style="mask-type:luminance" maskUnits="userSpaceOnUse" x="-1" y="0" width="1921" height="1397">
<path d="M1920 0H-1V1397H1920V0Z" fill="white"/>
</mask>
<g mask="url(#mask11_186_272)">
<path d="M1275.3 153.282C1129.29 153.282 1013.83 84.887 901.773 18.4325C842.105 -16.9776 780.497 -53.3578 715.009 -79.0664L717.434 -85.8574C783.408 -60.1487 845.016 -23.2835 905.168 12.1266C1016.26 78.0961 1130.74 146.006 1274.82 146.006C1418.89 146.006 1533.86 78.0961 1644.46 12.1266C1704.13 -23.2835 1766.22 -60.1487 1832.2 -85.8574L1834.62 -79.0664C1769.62 -53.3578 1708.01 -16.9776 1648.34 18.4325C1536.77 84.402 1421.32 153.282 1275.3 153.282Z" fill="#D4D4D4"/>
</g>
<mask id="mask12_186_272" style="mask-type:luminance" maskUnits="userSpaceOnUse" x="-1" y="0" width="1921" height="1397">
<path d="M1920 0H-1V1397H1920V0Z" fill="white"/>
</mask>
<g mask="url(#mask12_186_272)">
<path d="M-24.2845 115.931L-26.71 109.14C38.2936 83.4318 99.4163 47.5367 158.599 12.1266C218.266 -23.2835 280.359 -60.1487 346.333 -85.8574L348.758 -79.0664C283.27 -53.3578 221.662 -16.9776 162.479 18.4325C102.812 53.3575 41.2042 90.2228 -24.2845 115.931Z" fill="#D4D4D4"/>
</g>
<mask id="mask13_186_272" style="mask-type:luminance" maskUnits="userSpaceOnUse" x="-1" y="0" width="1921" height="1397">
<path d="M1920 0H-1V1397H1920V0Z" fill="white"/>
</mask>
<g mask="url(#mask13_186_272)">
<path d="M1275.3 104.29C1129.29 104.29 1013.83 35.895 901.773 -30.5595C874.122 -47.0519 845.986 -63.5442 817.365 -79.0664L820.761 -85.3724C849.382 -69.8501 878.003 -52.8727 905.654 -36.3803C1016.26 29.104 1131.23 97.0137 1275.3 97.0137C1419.38 97.0137 1534.34 29.104 1644.95 -36.8654C1672.6 -53.3578 1701.22 -70.3352 1729.84 -85.8574L1733.24 -79.5515C1704.61 -64.0293 1676.48 -47.0519 1648.83 -31.0446C1536.77 35.895 1421.32 104.29 1275.3 104.29Z" fill="#D4D4D4"/>
</g>
<mask id="mask14_186_272" style="mask-type:luminance" maskUnits="userSpaceOnUse" x="-1" y="0" width="1921" height="1397">
<path d="M1920 0H-1V1397H1920V0Z" fill="white"/>
</mask>
<g mask="url(#mask14_186_272)">
<path d="M-24.2845 66.9395L-26.71 60.1485C38.2936 34.4398 99.4163 -1.45533 158.599 -36.8654C186.249 -53.3578 214.87 -70.3352 243.491 -85.8574L246.887 -79.5515C218.266 -64.0293 190.13 -47.0519 162.479 -30.5595C102.812 4.85057 41.2042 41.2308 -24.2845 66.9395Z" fill="#D4D4D4"/>
</g>
<mask id="mask15_186_272" style="mask-type:luminance" maskUnits="userSpaceOnUse" x="-1" y="0" width="1921" height="1397">
<path d="M1920 0H-1V1397H1920V0Z" fill="white"/>
</mask>
<g mask="url(#mask15_186_272)">
<path d="M1275.3 55.2978C1129.29 55.2978 1013.83 -13.097 901.773 -79.5515L905.654 -85.8574C1016.74 -19.888 1131.23 48.0218 1275.3 48.0218C1419.38 48.0218 1533.86 -19.888 1644.95 -85.8574L1648.83 -79.5515C1536.77 -13.097 1421.32 55.2978 1275.3 55.2978Z" fill="#D4D4D4"/>
</g>
<mask id="mask16_186_272" style="mask-type:luminance" maskUnits="userSpaceOnUse" x="-1" y="0" width="1921" height="1397">
<path d="M1920 0H-1V1397H1920V0Z" fill="white"/>
</mask>
<g mask="url(#mask16_186_272)">
<path d="M-24.2845 17.9474L-26.71 11.1565C38.2936 -14.5522 99.4163 -50.4473 158.599 -85.8574L162.479 -79.5515C102.812 -44.1414 41.2042 -7.76123 -24.2845 17.9474Z" fill="#D4D4D4"/>
</g>
<mask id="mask17_186_272" style="mask-type:luminance" maskUnits="userSpaceOnUse" x="-1" y="0" width="1921" height="1397">
<path d="M1920 0H-1V1397H1920V0Z" fill="white"/>
</mask>
<g mask="url(#mask17_186_272)">
<path d="M1275.3 6.79112C1159.36 6.79112 1064.28 -36.3801 986.666 -79.0662L990.062 -85.3721C1066.71 -43.6561 1160.82 -0.484924 1275.3 -0.484924C1389.78 -0.484924 1483.89 -43.6561 1560.54 -85.3721L1563.94 -79.0662C1486.32 -36.8651 1391.24 6.79112 1275.3 6.79112Z" fill="#D4D4D4"/>
</g>
</g>
</g>
</svg>
