<svg width="50" height="50" viewBox="0 0 50 50" fill="none" xmlns="http://www.w3.org/2000/svg">
<g clip-path="url(#clip0_477_136)">
<path d="M28.4609 0C27.9215 0 27.4844 0.437164 27.4844 0.976561C27.4844 1.51596 27.9215 1.95312 28.4609 1.95312C39.2607 1.95312 48.0467 10.7395 48.0467 21.5389C48.0467 22.0783 48.4843 22.5155 49.0233 22.5155C49.5627 22.5155 49.9998 22.0783 49.9998 21.5389C49.9998 9.66261 40.3376 0 28.4609 0Z" fill="white"/>
<path d="M43.1486 22.5158C43.688 22.5158 44.1252 22.0783 44.1252 21.5393C44.1252 12.9017 37.0982 5.87463 28.4609 5.87463C27.9215 5.87463 27.4844 6.31218 27.4844 6.85119C27.4844 7.39059 27.9215 7.82776 28.4609 7.82776C36.0213 7.82776 42.1721 13.9786 42.1721 21.5393C42.1721 22.0783 42.6092 22.5158 43.1486 22.5158Z" fill="white"/>
<path d="M36.2963 21.5394C36.2963 22.0784 36.7335 22.5159 37.2729 22.5159C37.8123 22.5159 38.2494 22.0784 38.2494 21.5394C38.2494 16.1419 33.8583 11.7509 28.4609 11.7509C27.9215 11.7509 27.4844 12.188 27.4844 12.727C27.4844 13.2664 27.9215 13.7036 28.4609 13.7036C32.7815 13.7036 36.2963 17.2185 36.2963 21.5394Z" fill="white"/>
<path d="M27.4844 18.602C27.4844 19.1411 27.9215 19.5782 28.4609 19.5782C29.542 19.5782 30.4217 20.4579 30.4217 21.5394C30.4217 22.0784 30.8589 22.5159 31.3982 22.5159C31.9373 22.5159 32.3748 22.0784 32.3748 21.5394C32.3748 19.381 30.6189 17.6255 28.4609 17.6255C27.9215 17.6255 27.4844 18.0627 27.4844 18.602Z" fill="white"/>
<path d="M18.3047 31.707C18.3047 32.2464 17.8675 32.6836 17.3281 32.6836C16.7887 32.6836 16.3516 32.2464 16.3516 31.707C16.3516 31.168 16.7887 30.7305 17.3281 30.7305C17.8675 30.7305 18.3047 31.168 18.3047 31.707Z" fill="white"/>
<path d="M26.7609 48.8144C31.2077 50.9937 36.5574 50.087 40.0738 46.5706L42.0929 44.5515C43.1893 43.4563 43.1897 41.682 42.0933 40.5861L34.2915 32.785C33.1971 31.6891 31.4225 31.6875 30.3269 32.7847L27.0119 36.1C26.3627 36.7493 25.3606 36.8816 24.6297 36.4151C23.438 35.6533 22.2787 34.8133 21.1842 33.9184C20.7665 33.577 20.1516 33.6388 19.8102 34.0561C19.4688 34.4738 19.5306 35.0891 19.9479 35.4301C21.1011 36.3731 22.3222 37.2581 23.5783 38.0608C25.0756 39.0171 27.1004 38.7733 28.3929 37.4809L31.7086 34.1652C32.0401 33.8333 32.5772 33.8326 32.9102 34.1656L40.7124 41.967C41.0447 42.2996 41.0454 42.8375 40.7124 43.1698L38.6929 45.1897C35.7636 48.119 31.3142 48.8708 27.6204 47.0608C14.0885 40.4251 6.72617 29.9034 2.93284 22.245C1.11819 18.5826 1.8716 14.1499 4.80776 11.2145L6.78301 9.23961C7.11413 8.90773 7.65162 8.90659 7.98426 9.23999L15.7872 17.0426C16.1176 17.3725 16.121 17.9104 15.7864 18.2442L12.4715 21.5595C11.1791 22.852 10.9353 24.8768 11.8916 26.3744C12.4551 27.256 13.0624 28.1258 13.6971 28.9593C14.0237 29.3884 14.6363 29.4712 15.0655 29.1447C15.4946 28.8181 15.5778 28.2055 15.2509 27.776C14.6489 26.9852 14.0721 26.1597 13.5373 25.3231C13.0708 24.5918 13.2031 23.5897 13.8524 22.9405L17.167 19.6259C18.2629 18.5314 18.2641 16.7565 17.1677 15.6613L9.36556 7.85946C8.2715 6.76349 6.49653 6.76197 5.40133 7.85907L3.42685 9.83356C-0.102507 13.3618 -1.0043 18.6981 1.18266 23.1121C5.11065 31.0417 12.7362 41.9372 26.7609 48.8144Z" fill="white"/>
</g>
<defs>
<clipPath id="clip0_477_136">
<rect width="50" height="50" fill="white"/>
</clipPath>
</defs>
</svg>
