<svg width="40" height="40" viewBox="0 0 40 40" fill="none" xmlns="http://www.w3.org/2000/svg">
<g clip-path="url(#clip0_543_1036)">
<path d="M-0.00129122 38.0515C0.916331 35.7489 1.84438 33.4462 2.762 31.1435C2.88713 30.8309 3.01226 30.5079 3.15825 30.2162C3.49193 29.5389 4.05502 29.1742 4.8058 29.1534C5.55658 29.1325 6.31779 29.143 7.06857 29.1534C7.47525 29.1534 7.72551 29.4035 7.73593 29.7681C7.73593 30.1328 7.48567 30.3933 7.079 30.4037C6.38036 30.4141 5.67128 30.4141 4.97264 30.4037C4.57639 30.3933 4.34699 30.56 4.201 30.9247C3.28338 33.1857 2.3449 35.4467 1.41685 37.7077C1.12488 38.4162 1.37514 38.7705 2.14678 38.7809C7.99662 38.7809 13.8465 38.7809 19.7067 38.7809C25.6921 38.7809 31.6671 38.7809 37.6525 38.7809C37.7672 38.7809 37.8923 38.7809 38.007 38.7809C38.6223 38.7601 38.883 38.385 38.6536 37.8223C38.2365 36.7804 37.8089 35.7489 37.3814 34.7173C36.8704 33.467 36.3386 32.2167 35.8485 30.9664C35.6921 30.5704 35.4419 30.4037 35.0143 30.4141C34.347 30.435 33.6901 30.4246 33.0227 30.4141C32.543 30.4141 32.2928 30.1849 32.2823 29.789C32.2823 29.393 32.5326 29.1638 33.0123 29.1638C33.7318 29.1638 34.4513 29.1534 35.1603 29.1638C35.9841 29.1742 36.5993 29.5597 36.9122 30.3099C37.9132 32.696 38.9038 35.0924 39.8631 37.4889C40.2594 38.4892 39.738 39.5519 38.7161 39.927C38.6327 39.9583 38.5493 39.9895 38.4659 40.0312C26.1614 40.0312 13.8569 40.0312 1.55241 40.0312C0.666071 39.7499 0.134267 39.156 -0.0117188 38.2287C-0.00129122 38.1557 -0.00129122 38.1036 -0.00129122 38.0515Z" fill="#191919"/>
<path d="M10.6589 36.1552C11.9206 36.1552 13.1198 36.1552 14.3711 36.1552C14.3711 35.9885 14.3711 35.8426 14.3711 35.6863C14.3711 33.4983 14.4024 31.3102 14.3606 29.1221C14.3294 27.7468 15.4451 27.007 16.467 27.0174C18.8341 27.0487 21.2115 27.0278 23.5786 27.0278C24.8507 27.0278 25.6537 27.8301 25.6537 29.1013C25.6537 31.2998 25.6537 33.4983 25.6537 35.7072C25.6537 35.8426 25.6537 35.9885 25.6537 36.1448C26.8945 36.1448 28.1041 36.1448 29.3763 36.1448C29.3763 35.9885 29.3763 35.8218 29.3763 35.6551C29.3763 31.1539 29.3763 26.6423 29.3763 22.1411C29.3763 21.4951 29.5744 21.2034 29.9915 21.2034C30.419 21.2034 30.6172 21.5055 30.6172 22.1411C30.6172 26.9236 30.6172 31.6957 30.6172 36.4782C30.6172 37.2284 30.4399 37.4159 29.6995 37.4159C23.2345 37.4159 16.7694 37.4159 10.3043 37.4159C9.56399 37.4159 9.38672 37.2388 9.38672 36.4886C9.38672 27.5696 9.38672 18.6506 9.38672 9.72123C9.38672 8.32503 10.1688 7.54358 11.5661 7.54358C14.7048 7.54358 17.8434 7.54358 20.9926 7.54358C21.0968 7.54358 21.2011 7.54358 21.3054 7.554C21.6391 7.59568 21.8268 7.80406 21.8476 8.11664C21.8685 8.41881 21.7225 8.64803 21.4305 8.74181C21.2741 8.7939 21.0968 8.7939 20.93 8.7939C17.8434 8.7939 14.7569 8.7939 11.6599 8.7939C10.8153 8.7939 10.638 8.97103 10.638 9.82542C10.638 18.4318 10.638 27.0382 10.638 35.6551C10.6589 35.8218 10.6589 35.9781 10.6589 36.1552ZM15.6432 36.1448C16.9154 36.1448 18.1458 36.1448 19.3763 36.1448C19.3763 33.5087 19.3763 30.9038 19.3763 28.2781C18.3961 28.2781 17.4576 28.2781 16.5087 28.2781C15.8726 28.2781 15.6328 28.5178 15.6328 29.143C15.6328 31.3519 15.6328 33.5608 15.6328 35.7801C15.6224 35.8947 15.6328 36.0093 15.6432 36.1448ZM20.6693 28.2781C20.6693 30.9351 20.6693 33.5399 20.6693 36.1448C21.9206 36.1448 23.1511 36.1448 24.3815 36.1448C24.4024 36.1031 24.4128 36.0718 24.4128 36.051C24.4128 33.6858 24.4232 31.3206 24.4128 28.9554C24.4128 28.549 24.1417 28.299 23.7037 28.2886C22.7027 28.2677 21.7016 28.2781 20.6693 28.2781Z" fill="#191919"/>
<path d="M36.776 6.75175C36.776 7.99165 36.4632 9.13779 35.8271 10.211C34.1066 13.118 32.3861 16.0354 30.6655 18.9424C30.238 19.6614 29.7583 19.6509 29.3308 18.932C27.6102 16.025 25.8584 13.1284 24.1796 10.1901C22.8553 7.87704 22.8553 5.50142 24.2526 3.23C25.6499 0.948153 27.7771 -0.125044 30.4465 0.0104084C33.9919 0.187538 36.776 3.19874 36.776 6.75175ZM29.9877 17.5775C30.0399 17.515 30.0816 17.4837 30.1024 17.442C31.6874 14.7538 33.335 12.0969 34.847 9.36701C35.9627 7.33523 35.7854 5.2722 34.3777 3.42797C32.97 1.59415 31.0409 0.896056 28.7677 1.39619C25.1389 2.18806 23.3558 6.32455 25.2328 9.54414C26.6196 11.9302 28.0378 14.2954 29.4455 16.671C29.6228 16.9627 29.8 17.2545 29.9877 17.5775Z" fill="#191919"/>
<path d="M24.1624 18.6506C24.7984 18.6506 25.4345 18.6506 26.081 18.6506C26.592 18.6506 26.8214 18.8694 26.8214 19.3904C26.8318 20.5782 26.8318 21.7556 26.8214 22.9434C26.8214 23.454 26.592 23.6728 26.0706 23.6728C24.7984 23.6728 23.5159 23.6728 22.2437 23.6728C21.7015 23.6728 21.4929 23.4644 21.4929 22.9122C21.4929 21.7452 21.4825 20.5678 21.4929 19.4008C21.4929 18.859 21.7015 18.6506 22.2541 18.6506C22.8902 18.6506 23.5263 18.6506 24.1624 18.6506ZM22.7546 19.9218C22.7546 20.7762 22.7546 21.5889 22.7546 22.4225C23.7036 22.4225 24.6107 22.4225 25.5388 22.4225C25.5388 21.5785 25.5388 20.7553 25.5388 19.9218C24.6003 19.9218 23.6931 19.9218 22.7546 19.9218Z" fill="#191919"/>
<path d="M15.9038 18.6507C16.5503 18.6507 17.2073 18.6403 17.8538 18.6507C18.3334 18.6612 18.542 18.8696 18.5524 19.3488C18.5628 20.5575 18.5628 21.7661 18.5524 22.9852C18.5524 23.4645 18.3334 23.6833 17.8642 23.6833C16.5503 23.6937 15.2365 23.6937 13.9122 23.6833C13.4638 23.6833 13.2344 23.4541 13.2344 23.0061C13.224 21.787 13.224 20.5575 13.2344 19.3384C13.2344 18.8904 13.4638 18.6716 13.9122 18.6612C14.5795 18.6507 15.2469 18.6507 15.9038 18.6507ZM17.2803 22.4226C17.2803 21.5682 17.2803 20.7555 17.2803 19.9323C16.3418 19.9323 15.4242 19.9323 14.5065 19.9323C14.5065 20.7763 14.5065 21.5994 14.5065 22.4226C15.445 22.4226 16.3522 22.4226 17.2803 22.4226Z" fill="#191919"/>
<path d="M15.9025 16.1188C15.2665 16.1188 14.6304 16.1292 13.9839 16.1188C13.4416 16.1084 13.2331 15.9 13.2227 15.3582C13.2227 14.1912 13.2227 13.0138 13.2227 11.8469C13.2227 11.3155 13.4521 11.0967 13.9943 11.0967C15.256 11.0967 16.5178 11.0967 17.7899 11.0967C18.3426 11.0967 18.5511 11.3051 18.5616 11.8469C18.572 13.0347 18.572 14.2121 18.5616 15.3999C18.5616 15.9209 18.353 16.1292 17.8212 16.1397C17.1747 16.1292 16.5386 16.1188 15.9025 16.1188ZM14.4948 12.347C14.4948 13.2014 14.4948 14.0141 14.4948 14.8581C15.4333 14.8581 16.3509 14.8581 17.279 14.8581C17.279 14.0141 17.279 13.191 17.279 12.347C16.3405 12.347 15.4333 12.347 14.4948 12.347Z" fill="#191919"/>
<path d="M22.7226 14.8788C23.1815 14.8788 23.5881 14.8788 24.0052 14.8788C24.4745 14.8893 24.756 15.1081 24.7664 15.4832C24.7769 15.8687 24.4953 16.1083 24.0052 16.1187C23.4109 16.1292 22.8061 16.1292 22.2117 16.1187C21.7112 16.1083 21.4922 15.8999 21.4922 15.4102C21.4818 14.212 21.4818 13.0138 21.4922 11.8155C21.4922 11.3467 21.732 11.0862 22.1178 11.0862C22.4932 11.0862 22.7331 11.3571 22.7331 11.8364C22.7435 12.6908 22.7331 13.5556 22.7331 14.41C22.7226 14.5558 22.7226 14.6913 22.7226 14.8788Z" fill="#191919"/>
<path d="M26.4025 6.72053C26.4338 4.73043 28.071 3.11543 30.0418 3.14669C32.0543 3.17794 33.6601 4.82421 33.6288 6.81431C33.5975 8.79399 31.9291 10.3986 29.9583 10.3673C27.9562 10.3361 26.3817 8.71064 26.4025 6.72053ZM27.6539 6.75179C27.6539 8.05421 28.707 9.11699 30.0105 9.11699C31.3035 9.11699 32.3775 8.0438 32.3775 6.76221C32.3775 5.47021 31.3139 4.39701 30.0209 4.39701C28.707 4.39701 27.6539 5.44937 27.6539 6.75179Z" fill="#191919"/>
</g>
<defs>
<clipPath id="clip0_543_1036">
<rect width="40" height="40" fill="white"/>
</clipPath>
</defs>
</svg>
