<svg width="50" height="43" viewBox="0 0 50 43" fill="none" xmlns="http://www.w3.org/2000/svg">
<g clip-path="url(#clip0_391_149)">
<path d="M40.5836 5.86479C39.2384 6.21373 37.9605 6.54925 36.6826 6.88477C32.7547 7.91816 28.8402 8.96498 24.9123 9.99837C24.6433 10.0655 24.3339 10.0789 24.0783 10.0118C18.4824 8.53551 12.8865 7.05924 7.2906 5.56953C6.96776 5.48901 6.63147 5.40849 6.64492 4.99244C6.64492 4.5764 7.00812 4.52272 7.31751 4.44219C12.8327 2.97933 18.3479 1.51648 23.8631 0.0804581C24.2398 -0.013487 24.6971 -0.0269077 25.0738 0.0804581C30.5621 1.51648 36.0369 2.97933 41.5252 4.42877C42.2919 4.63008 42.2919 4.63008 42.2112 5.40849C42.1978 5.50243 42.2112 5.6098 42.2112 5.70374C42.2112 8.41473 42.2112 11.1391 42.1978 13.8501C42.1978 14.1856 42.2785 14.4004 42.5879 14.5077C43.4488 14.803 43.6775 15.4069 43.6371 16.3061C43.5564 17.7153 43.6237 19.1245 43.5968 20.5336C43.5968 20.7886 43.4891 21.1644 43.3008 21.2584C43.1259 21.3523 42.7628 21.2047 42.561 21.057C41.1889 20.0773 41.579 20.0908 40.1935 21.0705C39.9917 21.2181 39.642 21.3255 39.4402 21.2449C39.2788 21.1778 39.1846 20.8021 39.1846 20.5739C39.1577 18.95 39.1846 17.3261 39.1712 15.6888C39.1712 15.2727 39.2788 14.9506 39.6823 14.8164C40.4491 14.548 40.6239 14.0246 40.6105 13.2462C40.5567 10.9781 40.5836 8.7234 40.5836 6.4553C40.5836 6.28083 40.5836 6.10636 40.5836 5.86479Z" fill="white"/>
<path d="M11.2593 8.29395C12.3085 8.57578 13.3174 8.83077 14.3128 9.09919C17.474 9.93127 20.6351 10.7902 23.8097 11.5954C24.2133 11.7028 24.6975 11.7028 25.1011 11.5954C29.15 10.5486 33.1856 9.47497 37.2211 8.41473C37.3287 8.38789 37.4498 8.36105 37.6112 8.33421C37.6246 8.50868 37.6515 8.64288 37.6515 8.79051C37.6515 11.3405 37.6515 13.8904 37.665 16.4403C37.665 16.9101 37.5305 17.1785 37.0193 17.2724C33.4815 17.8898 29.9572 18.5608 26.4059 19.1647C24.4554 19.5003 22.5184 19.2453 20.5948 18.8963C17.7699 18.3729 14.945 17.8361 12.1336 17.3127C11.3131 17.165 11.2727 17.1114 11.2727 16.2659C11.2727 13.8233 11.2727 11.3673 11.2727 8.92472C11.2593 8.72341 11.2593 8.54894 11.2593 8.29395Z" fill="white"/>
<path d="M29.5533 40.1549C29.4995 40.4635 29.4726 40.7454 29.4054 41.0138C29.1094 42.1277 28.0871 42.9598 26.8899 42.9732C25.6254 43.0001 24.361 43.0001 23.11 42.9732C21.7379 42.933 20.6617 41.913 20.5407 40.5441C20.5138 40.1951 20.3793 40.1012 20.0564 40.0609C13.6669 39.0946 7.2773 38.1149 0.874283 37.1352C0.443829 37.0681 0.0268257 36.9205 0.013374 36.4507C-7.77086e-05 36.1689 0.188246 35.8065 0.416925 35.6187C0.591797 35.471 0.968445 35.5113 1.23748 35.5515C3.05346 35.82 4.85599 36.1018 6.67197 36.3836C10.9765 37.0413 15.2676 37.6989 19.5722 38.3565C20.164 38.4504 20.7694 38.5444 21.3612 38.6383C21.8993 38.7323 22.1145 38.9873 22.1414 39.5241C22.1549 39.7925 22.1414 40.0609 22.1549 40.3293C22.1952 40.9333 22.5853 41.3359 23.1907 41.3493C24.4148 41.3761 25.6523 41.3761 26.8764 41.3493C27.4683 41.3359 27.8584 40.9198 27.9122 40.3159C27.9257 40.1549 27.9122 39.9804 27.9257 39.8193C27.9257 39.1215 28.2889 38.692 28.9749 38.5846C33.9117 37.8331 38.835 37.0815 43.7718 36.3165C45.3456 36.075 46.9195 35.8334 48.5068 35.5784C48.6682 35.5516 48.8431 35.5247 49.0045 35.5113C49.5829 35.4576 49.9461 35.6992 50.0268 36.1555C50.1075 36.6252 49.7847 37.001 49.2063 37.0949C48.2916 37.2426 47.3768 37.3768 46.4621 37.5244C42.8436 38.0746 39.2251 38.6383 35.6066 39.1886C33.7368 39.4704 31.8536 39.7657 29.9838 40.0475C29.8089 40.0878 29.6744 40.128 29.5533 40.1549Z" fill="white"/>
<path d="M48.655 24.8149C48.3053 25.8618 47.9824 26.8281 47.6327 27.7809C47.5923 27.8749 47.404 27.9688 47.2829 27.9822C42.2923 28.2775 37.7591 30.0088 33.4008 32.2903C30.4683 33.8202 27.7376 35.6455 25.249 37.833C25.7333 35.3502 30.7911 30.2638 35.015 28.0628C39.2522 25.8483 43.7989 24.8686 48.655 24.8149Z" fill="white"/>
<path d="M24.7241 37.6586C22.9081 36.3836 21.0652 34.9744 19.1147 33.7532C14.9313 31.1495 10.4518 29.1767 5.56888 28.2507C4.62726 28.0762 3.67219 28.0091 2.71712 27.8883C2.56915 27.8615 2.32702 27.7809 2.28666 27.6601C1.95037 26.761 1.64098 25.8349 1.30469 24.8284C5.71685 24.8552 9.85997 25.6873 13.8013 27.4991C18.5901 29.7001 22.2894 33.0821 24.7241 37.6586Z" fill="white"/>
<path d="M2.98633 29.4854C9.68528 30.2638 15.483 33.1089 20.8771 36.9204C20.2314 36.6789 19.5857 36.4373 18.9401 36.2091C15.3619 34.961 11.6627 34.3571 7.8962 34.1289C6.87387 34.0618 5.85154 34.0618 4.82921 34.0081C4.68124 33.9947 4.43911 33.8739 4.39876 33.7397C3.9145 32.4245 3.47059 31.0824 3.01323 29.7538C2.98633 29.7001 2.98633 29.633 2.98633 29.4854Z" fill="white"/>
<path d="M29.0693 36.9339C34.4769 33.1224 40.2612 30.2906 47.0274 29.5659C46.5162 31.0422 46.0588 32.4245 45.5611 33.7934C45.5208 33.9142 45.2248 34.0082 45.05 34.0216C42.7901 34.1961 40.5167 34.2766 38.2703 34.5316C35.1899 34.8805 32.2036 35.6589 29.3384 36.84C29.2442 36.8802 29.15 36.9071 29.0693 36.9339Z" fill="white"/>
</g>
<defs>
<clipPath id="clip0_391_149">
<rect width="50" height="43" fill="white"/>
</clipPath>
</defs>
</svg>
