<svg width="50" height="50" viewBox="0 0 50 50" fill="none" xmlns="http://www.w3.org/2000/svg">
<g clip-path="url(#clip0_391_135)">
<path d="M18.6162 28.165C16.7617 28.165 14.8359 28.165 12.9814 28.165C12.6248 28.165 12.4821 28.0939 12.2681 27.8094C11.8402 27.0982 11.3409 26.3869 10.7703 25.7468C8.13118 22.6174 7.41791 19.0612 8.84444 15.2205C10.271 11.3798 13.1954 9.10384 17.261 8.53485C21.5406 7.89474 25.7489 10.0996 27.8173 13.9403C29.8858 17.7098 29.3152 22.404 26.5335 25.6757C25.9628 26.3869 25.4636 27.0982 24.9643 27.8805C24.8216 28.165 24.6076 28.2361 24.3223 28.2361C22.3965 28.165 20.542 28.165 18.6162 28.165ZM17.047 24.5377C17.1183 24.6088 17.1897 24.7511 17.261 24.7511C17.4036 24.6799 17.6176 24.6088 17.689 24.5377C19.2581 22.6885 20.756 20.7681 22.2539 18.9189C22.5392 18.5633 22.4678 18.3499 22.0399 18.2788C21.3266 18.1366 20.6133 18.0654 19.9714 17.9943C19.6148 17.9232 19.4008 17.7809 19.5434 17.3542C19.7574 16.4296 19.9001 15.5761 20.0427 14.6515C20.0427 14.5092 19.9714 14.367 19.9001 14.1536C19.7574 14.2248 19.6148 14.2959 19.4721 14.367C19.2581 14.5804 19.1155 14.7937 18.9728 14.936C17.689 16.5007 16.4051 18.0654 15.1212 19.6302C14.7646 20.0569 14.8359 20.1991 15.4065 20.3414C15.8345 20.4125 16.1911 20.4125 16.6191 20.4836C17.9029 20.697 17.9029 20.697 17.6176 21.9772C17.4036 22.9019 17.1897 23.6842 17.047 24.5377Z" fill="white"/>
<path d="M17.7603 41.8207C18.3309 41.8207 18.8302 41.8207 19.3294 41.8207C19.4008 42.6742 19.4721 43.5277 19.6147 44.3811C19.6861 44.879 19.9001 45.448 20.0427 45.9459C20.6846 47.5817 21.9685 48.4352 23.6804 48.5063C26.1768 48.6486 28.0313 47.5106 29.4578 45.5902C30.5277 44.0966 31.1697 42.3897 31.8116 40.6827C32.5249 38.6912 33.2381 36.6998 34.308 34.8505C36.2339 31.7211 38.9443 29.374 42.154 27.5248C42.7246 27.1692 43.2952 26.8847 43.9371 26.5291C44.3651 26.3157 44.5078 25.8178 44.2225 25.4622C44.0085 25.1066 43.5805 24.9643 43.1525 25.1777C39.8002 26.9558 36.6618 29.0895 34.2367 32.1478C32.9528 33.7837 32.0256 35.704 31.3123 37.6244C31.241 37.7666 31.1697 37.9089 31.0983 38.0511C31.0983 37.4821 31.0983 36.842 31.0983 36.273C31.1697 34.5661 31.5263 33.0013 32.0969 31.4366C32.9528 29.2318 34.4507 27.5959 36.4478 26.2446C38.9443 24.6087 41.5834 23.3996 44.2938 22.1905C45.221 21.7638 46.1483 21.2659 47.0755 20.768C48.0028 20.1991 48.716 19.4878 49.0727 18.421C49.144 18.2787 49.2153 18.2076 49.358 17.9231C49.5006 18.3498 49.6433 18.6343 49.7146 18.8477C50.0712 20.6969 49.9999 22.5461 49.9286 24.3954C49.7859 26.6713 49.4293 28.9473 48.7874 31.1521C47.9314 34.4238 45.9343 36.6998 42.7246 37.8377C40.8701 38.549 38.9443 39.0469 37.0898 39.7581C35.9486 40.1848 34.8073 40.7538 33.7374 41.2517C33.3808 41.3939 33.1668 41.7496 33.0242 42.1052C32.3109 44.0255 31.455 45.8036 30.0998 47.2972C28.0313 49.5732 25.5349 50.4978 22.5391 49.9288C21.2553 49.7154 20.2567 49.0753 19.4721 48.0796C18.0456 46.1592 17.8316 44.0255 17.7603 41.8207Z" fill="white"/>
<path d="M13.124 29.8008C16.833 29.8008 20.4707 29.8008 23.9657 29.8008C23.823 31.0099 23.7517 32.219 23.609 33.4992C23.4664 33.4992 23.3237 33.4992 23.1811 33.4992C21.9685 33.4992 20.6847 33.4992 19.4721 33.4992C18.8302 33.4992 18.4735 33.7837 18.4735 34.3527C18.4735 34.8506 18.8302 35.1351 19.4721 35.1351C20.6847 35.1351 21.8972 35.1351 23.1811 35.1351C23.3237 35.1351 23.5377 35.1351 23.7517 35.1351C23.7517 35.9174 23.823 36.6287 23.7517 37.3399C23.7517 37.6244 23.5377 37.98 23.3237 38.1934C21.9685 39.4025 20.3993 40.256 18.5449 40.1848C16.7617 40.1137 15.3352 39.3314 14.0513 38.1223C13.766 37.8378 13.6946 37.3399 13.6233 36.9132C13.552 36.0597 13.6233 35.2773 13.6233 34.4238C13.552 32.9302 13.6233 31.3655 13.124 29.8008Z" fill="white"/>
<path d="M9.12978 8.17933C8.9158 8.3927 8.77314 8.6772 8.48784 8.81945C8.1312 8.96169 7.77457 8.81945 7.56059 8.53495C7.0613 7.82371 6.63334 7.11248 6.13406 6.40124C5.84875 5.9745 5.49212 5.54775 5.20681 5.04989C4.9215 4.62315 4.99283 4.1964 5.34946 3.91191C5.7061 3.62741 6.20538 3.69854 6.49069 4.12528C7.27528 5.26326 8.05988 6.40124 8.84447 7.53922C8.98712 7.75259 8.98712 7.89484 9.12978 8.17933Z" fill="white"/>
<path d="M32.3111 4.40971C32.1684 4.69421 32.1684 4.83645 32.0971 4.9787C31.3125 6.11668 30.5279 7.32578 29.7433 8.46376C29.458 8.89051 28.9587 8.96163 28.6021 8.67714C28.2454 8.39264 28.1028 7.9659 28.3881 7.53916C29.1727 6.40118 29.9573 5.2632 30.7419 4.12522C30.9559 3.7696 31.3125 3.62735 31.6691 3.7696C31.9544 3.91185 32.0971 4.26746 32.3111 4.40971Z" fill="white"/>
<path d="M34.5932 16.7852C35.1638 16.7852 35.8058 16.7852 36.3764 16.7852C36.8757 16.7852 37.2323 17.1408 37.2323 17.5675C37.2323 17.9943 36.8757 18.3499 36.3764 18.3499C35.1638 18.3499 33.9513 18.3499 32.7387 18.3499C32.2394 18.3499 31.8828 17.9943 31.8828 17.5675C31.8828 17.0697 32.2394 16.7852 32.7387 16.7852C33.3807 16.7852 33.9513 16.7852 34.5932 16.7852Z" fill="white"/>
<path d="M2.71045 16.7852C3.28106 16.7852 3.92301 16.7852 4.49362 16.7852C4.99291 16.7852 5.34954 17.1408 5.34954 17.5675C5.34954 17.9943 4.99291 18.3499 4.49362 18.3499C3.28106 18.3499 2.06851 18.3499 0.784631 18.3499C0.285344 18.3499 -0.0712891 17.9943 -0.0712891 17.5675C-0.0712891 17.1408 0.285344 16.7852 0.784631 16.7852C1.4979 16.7852 2.06851 16.7852 2.71045 16.7852Z" fill="white"/>
<path d="M17.8315 2.63158C17.8315 2.06259 17.8315 1.42248 17.8315 0.853485C17.8315 0.284495 18.1882 0 18.6161 0C19.0441 0 19.4007 0.355619 19.4007 0.853485C19.4007 2.06259 19.4007 3.27169 19.4007 4.55192C19.4007 5.04979 19.0441 5.40541 18.6161 5.40541C18.1168 5.33428 17.8315 4.97866 17.8315 4.4808C17.8315 3.91181 17.8315 3.27169 17.8315 2.63158Z" fill="white"/>
</g>
<defs>
<clipPath id="clip0_391_135">
<rect width="50" height="50" fill="white"/>
</clipPath>
</defs>
</svg>
