<svg width="50" height="50" viewBox="0 0 50 50" fill="none" xmlns="http://www.w3.org/2000/svg">
<g clip-path="url(#clip0_391_157)">
<path d="M40.6182 16.3257C40.6182 21.3179 40.6182 26.3257 40.6182 31.3179C40.6182 32.6047 40.1545 32.9148 38.9489 32.4497C32.3492 29.8761 25.7495 27.3179 19.1498 24.7598C18.748 24.6047 18.6089 24.4032 18.6089 23.9691C18.6243 19.1629 18.6243 14.3567 18.6089 9.55048C18.6089 9.14738 18.7325 8.94583 19.1189 8.79079C25.7804 5.92258 32.442 3.05436 39.1035 0.170638C40.0772 -0.247966 40.6182 0.108623 40.6182 1.2094C40.6182 6.24816 40.6182 11.2869 40.6182 16.3257Z" fill="white"/>
<path d="M20.5875 31.7986C21.5148 31.7986 22.334 31.7986 23.2459 31.7986C23.2459 30.9613 23.2459 30.1396 23.2459 29.2249C24.436 29.69 25.5334 30.1086 26.6153 30.5582C26.7235 30.6048 26.7698 30.9148 26.7698 31.1009C26.7853 34.9613 26.7698 38.8063 26.7698 42.6668C26.7698 43.752 26.7698 44.8373 26.7698 45.9226C26.7698 46.9458 26.2598 47.4575 25.2397 47.473C23.9723 47.4885 22.6895 47.473 21.4221 47.473C21.2211 47.473 21.0048 47.473 20.7266 47.473C20.7266 47.8606 20.742 48.1861 20.7266 48.5117C20.6956 49.4575 20.1856 49.9846 19.2273 49.9846C17.0789 50.0001 14.946 50.0001 12.7977 49.9846C11.8394 49.9846 11.3448 49.473 11.3448 48.4962C11.3293 47.0699 11.3293 45.628 11.3448 44.2017C11.3448 43.8141 11.2675 43.628 10.8347 43.566C9.49008 43.3489 8.14541 43.0854 6.75438 42.8218C6.73892 42.6048 6.72346 42.3877 6.72346 42.1862C6.72346 38.2017 6.72346 34.2017 6.70801 30.2172C6.70801 29.8296 6.80074 29.5815 7.12532 29.3489C8.12995 28.6048 9.11914 27.8141 10.1238 27.0699C10.3402 26.9148 10.6493 26.8063 10.912 26.8063C12.7822 26.7908 14.6524 26.7908 16.538 26.8063C16.8162 26.8063 17.1099 26.8683 17.3726 26.9613C18.3 27.3024 19.1964 27.69 20.1238 28.0156C20.4638 28.1396 20.6029 28.3102 20.5875 28.6823C20.572 29.69 20.5875 30.7133 20.5875 31.7986ZM17.0944 41.504C17.0944 40.2947 17.0944 39.1629 17.0944 37.9846C18.6245 37.9846 20.1083 37.9846 21.5921 37.9846C22.674 37.9846 23.2304 37.504 23.2304 36.6203C23.2304 35.752 22.6895 35.3024 21.6385 35.3024C20.3247 35.3024 19.0109 35.3024 17.6972 35.3024C17.4963 35.3024 17.2953 35.2869 17.0326 35.2714C17.0326 33.3179 17.0326 31.442 17.0326 29.4575C16.2443 30.2017 15.5488 30.8838 14.8378 31.5195C14.5287 31.7986 14.3896 32.0776 14.3896 32.5117C14.4051 37.2094 14.4051 41.9226 14.4051 46.6203C14.4051 46.8218 14.4051 47.0389 14.4051 47.2559C15.3324 47.2559 16.1825 47.2559 17.0944 47.2559C17.0944 46.2172 17.0944 45.2249 17.0944 44.1706C17.3572 44.1706 17.5581 44.1706 17.7745 44.1706C19.15 44.1706 20.5102 44.1861 21.8858 44.1706C22.8595 44.1551 23.4159 43.442 23.215 42.5117C23.0759 41.8606 22.5967 41.504 21.793 41.504C20.232 41.4885 18.6864 41.504 17.0944 41.504Z" fill="white"/>
<path d="M15.9044 24.1085C15.317 24.1085 14.7606 24.1085 14.2042 24.1085C12.9677 24.1085 11.7312 24.124 10.4948 24.1085C9.38194 24.093 8.91826 23.6278 8.9028 22.5116C8.9028 22.2015 8.9028 21.9069 8.9028 21.5193C7.83634 21.5193 6.81625 21.5193 5.79616 21.5193C4.45149 21.5193 4.03418 21.1007 4.03418 19.7519C4.03418 17.4263 4.03418 15.1007 4.03418 12.7751C4.03418 11.6433 4.52877 11.1627 5.65705 11.1627C6.70806 11.1627 7.77452 11.1627 8.9028 11.1627C8.9028 10.6821 8.88735 10.2635 8.9028 9.84489C8.93372 9.17823 9.41285 8.62009 10.062 8.60458C11.994 8.57358 13.926 8.58908 15.8889 8.58908C15.9044 13.7519 15.9044 18.8992 15.9044 24.1085Z" fill="white"/>
<path d="M3.98751 42.5427C3.01378 42.5427 2.07097 42.5737 1.12816 42.5272C0.494464 42.4962 -0.000126787 41.9381 -0.000126787 41.2559C-0.0155827 38.1706 -0.0155827 35.1008 -0.000126787 32.0156C-0.000126787 31.2559 0.556287 30.7132 1.32908 30.6822C2.19462 30.6512 3.06015 30.6822 3.98751 30.6822C3.98751 34.6357 3.98751 38.5582 3.98751 42.5427Z" fill="white"/>
<path d="M50.0001 25.1164C49.9073 26.2637 48.8254 26.9614 47.929 26.4187C46.3834 25.473 44.8687 24.4652 43.3695 23.442C42.7667 23.0234 42.6739 22.3102 43.0603 21.69C43.4467 21.0544 44.1732 20.8373 44.8069 21.2404C46.337 22.2017 47.8671 23.1939 49.3664 24.2172C49.6446 24.4187 49.7837 24.8218 50.0001 25.1164Z" fill="white"/>
<path d="M50 7.53494C49.7681 7.86052 49.5981 8.29463 49.289 8.51169C47.8207 9.51944 46.3369 10.4807 44.8377 11.4264C44.1885 11.8295 43.4775 11.6435 43.0757 11.0078C42.6584 10.3877 42.7666 9.64347 43.4003 9.22486C44.884 8.21711 46.3833 7.22486 47.9134 6.27913C48.7944 5.70548 49.8763 6.37215 50 7.53494Z" fill="white"/>
<path d="M46.2749 17.6744C45.5485 17.6744 44.8066 17.6899 44.0802 17.6744C43.2456 17.6589 42.72 17.1318 42.7046 16.3566C42.7046 15.5814 43.2301 15.0232 44.0647 15.0077C45.5485 14.9922 47.0323 14.9922 48.516 15.0077C49.3816 15.0232 49.8916 15.5659 49.8762 16.4031C49.8607 17.1938 49.3507 17.6744 48.4697 17.6744C47.7278 17.6744 47.0013 17.6744 46.2749 17.6744Z" fill="white"/>
</g>
<defs>
<clipPath id="clip0_391_157">
<rect width="50" height="50" fill="white"/>
</clipPath>
</defs>
</svg>
