<svg width="50" height="50" viewBox="0 0 50 50" fill="none" xmlns="http://www.w3.org/2000/svg">
<g clip-path="url(#clip0_391_165)">
<path d="M0 12.8906C0.664062 11.7968 0.963542 11.6796 2.4349 12.0051C8.17708 13.3072 13.3333 15.7682 17.6693 19.7916C19.4141 21.4192 21.0807 23.151 22.7734 24.8307C22.8125 24.8697 22.8516 24.9348 22.8776 24.9609C22.8776 24.9999 22.8776 25.026 22.8646 25.039C20.2214 27.6562 17.7474 30.4557 14.6875 32.6301C11.224 35.1041 7.40885 36.7447 3.29427 37.7734C2.96875 37.8515 2.63021 37.9426 2.30469 38.0208C1.02865 38.3463 0.638021 38.177 0 37.1093C0 36.8489 0 36.5885 0 36.3281C0.3125 35.6249 0.885417 35.3255 1.61458 35.1692C3.8151 34.6874 5.9375 33.9843 7.95573 32.9947C9.9349 32.0312 11.8099 30.8854 13.2161 29.1275C15.2604 26.5755 15.2604 23.4374 13.2161 20.8854C12.2266 19.6484 10.9896 18.7109 9.63542 17.9166C7.1224 16.4453 4.42708 15.4687 1.61458 14.8437C0.885417 14.6874 0.3125 14.3749 0 13.6718C0 13.4114 0 13.151 0 12.8906Z" fill="white"/>
<path d="M12.8907 50.0001C11.823 49.3621 11.6797 48.9584 11.9922 47.7084C12.7214 44.7006 13.6329 41.7579 15.0912 39.0105C16.5886 36.185 18.4506 33.6459 20.7032 31.3803C22.0443 30.0261 23.3985 28.685 24.7396 27.3438C24.8178 27.2657 24.9089 27.2006 24.961 27.1355C25.0131 27.1355 25.0391 27.1355 25.0391 27.1485C27.8777 30.0001 30.8985 32.6954 33.1641 36.0808C35.4428 39.4923 36.9532 43.2162 37.8777 47.1876C37.9167 47.3569 37.9558 47.5391 38.0079 47.7084C38.3334 48.9584 38.1771 49.349 37.1094 50.0001C36.849 50.0001 36.5886 50.0001 36.3282 50.0001C35.612 49.6746 35.3126 49.0886 35.1563 48.3464C34.6615 46.1068 33.9323 43.9324 32.9037 41.8751C31.9402 39.922 30.7943 38.099 29.0495 36.7319C26.6277 34.8308 23.698 34.7657 21.198 36.5626C19.8959 37.5001 18.9193 38.7371 18.099 40.0912C16.5365 42.6563 15.5209 45.4428 14.8568 48.3595C14.6876 49.1016 14.4011 49.7006 13.6849 50.0131C13.4115 50.0001 13.1511 50.0001 12.8907 50.0001Z" fill="white"/>
<path d="M27.0703 24.9999C27.7214 24.3619 28.3203 23.763 28.9193 23.164C30.7943 21.302 32.6172 19.3749 34.7656 17.7864C38.1901 15.2473 41.9922 13.5026 46.0937 12.3958C46.7708 12.2135 47.4479 12.0312 48.125 11.8749C49.0104 11.6666 49.7656 12.1223 49.974 12.9427C50.1693 13.7109 49.6875 14.4531 48.8281 14.7135C47.1354 15.2343 45.4297 15.6901 43.776 16.3151C41.5365 17.1484 39.4531 18.2682 37.6953 19.9348C36.2109 21.3411 35.2344 22.9947 35.2734 25.1171C35.3125 27.1354 36.276 28.7109 37.6953 30.0651C39.4531 31.7187 41.5365 32.8515 43.776 33.6848C45.4167 34.2968 47.1094 34.7526 48.7891 35.2734C49.6094 35.5208 50.0781 36.1197 50.013 36.8619C49.9349 37.7343 49.1146 38.3463 48.2292 38.164C41.6797 36.7708 35.9115 33.9062 31.1719 29.1015C29.8177 27.7343 28.4635 26.4062 27.0703 24.9999Z" fill="white"/>
<path d="M25.0002 22.9166C23.5288 21.4453 22.0835 20.013 20.6512 18.5807C16.3804 14.2838 13.646 9.14059 12.2007 3.28121C12.0835 2.81246 11.9663 2.33069 11.8621 1.86194C11.6799 0.989545 12.1616 0.221316 12.9819 0.0390244C13.7632 -0.130246 14.4793 0.377566 14.7267 1.22392C15.2345 2.92965 15.7033 4.66142 16.3153 6.34111C17.0705 8.3984 18.1121 10.3125 19.5705 11.9661C20.7944 13.3593 22.2267 14.401 24.1148 14.6875C25.9637 14.9609 27.5913 14.414 29.0366 13.2942C30.7814 11.927 31.9273 10.1041 32.8908 8.151C33.9845 5.95048 34.7007 3.6458 35.2606 1.28902C35.4819 0.338503 36.2632 -0.169309 37.0835 0.065066C37.8517 0.28642 38.3075 1.01559 38.1382 1.79684C36.784 8.17704 34.0366 13.8281 29.4142 18.5026C27.9689 19.9609 26.5106 21.4192 25.0002 22.9166Z" fill="white"/>
<path d="M24.9742 11.8228C22.5523 11.8098 20.5862 9.81761 20.5992 7.38271C20.6122 4.97386 22.6044 3.02074 25.0132 3.03376C27.4351 3.04678 29.4013 5.03896 29.3882 7.47386C29.3752 9.88272 27.3961 11.8228 24.9742 11.8228Z" fill="white"/>
<path d="M38.19 24.9741C38.203 22.5522 40.1952 20.586 42.6301 20.6121C45.039 20.6381 46.9791 22.6173 46.9661 25.0261C46.953 27.448 44.9608 29.4142 42.5259 29.3881C40.1171 29.3751 38.177 27.3829 38.19 24.9741Z" fill="white"/>
<path d="M7.4348 29.4011C4.9999 29.4011 3.02073 27.422 3.03376 24.9871C3.04678 22.5782 5.01292 20.6121 7.42178 20.6121C9.85667 20.6121 11.8358 22.5912 11.8228 25.0261C11.8098 27.435 9.84365 29.3881 7.4348 29.4011Z" fill="white"/>
<path d="M25.0129 38.1902C27.4478 38.1902 29.414 40.1824 29.4009 42.6173C29.3879 45.0261 27.4088 46.9792 24.9999 46.9792C22.578 46.9792 20.5989 44.9871 20.6119 42.5522C20.6249 40.1433 22.591 38.1902 25.0129 38.1902Z" fill="white"/>
</g>
<defs>
<clipPath id="clip0_391_165">
<rect width="50" height="50" fill="white"/>
</clipPath>
</defs>
</svg>
