<svg width="65" height="64" viewBox="0 0 65 64" fill="none" xmlns="http://www.w3.org/2000/svg">
<g clip-path="url(#clip0_434_447)">
<path d="M0 40.5785C1.98202 40.5785 3.98097 40.5785 5.96299 40.5618C6.40344 40.5618 6.50508 40.7288 6.48814 41.1131C6.4712 41.8314 6.48814 42.5665 6.48814 43.4853C7.14881 43.3349 7.72478 43.3015 8.19911 43.0676C11.6041 41.3135 15.1955 40.3279 19.0579 40.6119C22.5984 40.8792 25.6307 42.1154 27.6127 45.2227C27.7482 45.4232 28.1209 45.5568 28.392 45.5568C30.7975 45.5902 33.22 45.657 35.6255 45.5568C38.5392 45.4399 40.3857 46.6761 41.165 49.3156C41.3683 49.2154 41.5715 49.1319 41.7748 49.0316C44.8749 47.3944 47.958 45.7573 51.0581 44.1201C55.1068 41.9818 59.3758 42.8505 62.2387 46.3921C62.2726 46.4422 62.3065 46.4923 62.3573 46.5759C60.46 47.7286 58.5796 48.8813 56.6992 50.034C49.2624 54.5612 41.8426 59.0885 34.4058 63.6325C34.2364 63.7327 34.0839 63.8831 33.9315 64.0167C33.8468 64.0167 33.7621 64.0167 33.6773 64.0167C33.4402 63.9332 33.22 63.833 32.9828 63.7829C26.4777 62.3462 19.9557 60.9262 13.4506 59.5062C11.4008 59.0551 9.368 58.4537 7.19963 58.6208C6.6406 58.6542 6.45426 58.8212 6.48814 59.3558C6.52202 59.9238 6.50508 60.5085 6.50508 61.1433C4.2859 61.1433 2.15142 61.1433 0.0169403 61.1433C0.0169403 60.5586 0.0169403 59.9739 0.0169403 59.3892C1.35523 59.3892 2.67657 59.3558 4.01486 59.3892C4.52306 59.4059 4.72635 59.2723 4.70941 58.721C4.69247 53.4754 4.69247 48.2464 4.70941 43.0008C4.70941 42.4662 4.52306 42.3326 4.01486 42.3326C2.67657 42.366 1.35523 42.3326 0.0169403 42.3326C0 41.7479 0 41.1632 0 40.5785ZM6.53896 45.1058C6.50508 45.3897 6.48814 45.5067 6.48814 45.6236C6.48814 49.1653 6.48814 52.7236 6.4712 56.2652C6.4712 56.7163 6.6406 56.8332 7.06411 56.8332C8.16523 56.8499 9.28329 56.7664 10.3505 56.9836C17.872 58.5706 25.3766 60.2412 32.8812 61.8951C33.3385 61.9953 33.6773 61.9118 34.067 61.6779C42.3169 56.6328 50.5838 51.6043 58.8337 46.5592C59.0201 46.4422 59.2064 46.3086 59.5113 46.1248C59.3589 46.0413 59.2911 46.0079 59.2064 45.9577C59.0878 45.8742 58.9692 45.7907 58.8337 45.7072C56.6823 44.4542 54.4631 44.354 52.2439 45.5067C48.6018 47.4112 44.9765 49.349 41.3513 51.2869C41.148 51.4038 40.9447 51.5876 40.8431 51.8048C39.9453 53.6758 38.4715 54.6114 36.3709 54.6114C32.4576 54.5947 28.5444 54.6114 24.6143 54.6114C24.3941 54.6114 24.1569 54.5947 23.9197 54.578C23.9197 53.9932 23.9197 53.4587 23.9197 52.874C24.1738 52.8573 24.411 52.8405 24.6312 52.8405C26.0542 52.8405 27.4603 52.8405 28.8832 52.8405C31.3735 52.8405 33.8806 52.8572 36.3709 52.8405C38.3698 52.8238 39.6742 51.2535 39.2507 49.4493C38.9458 48.1796 37.8277 47.361 36.3031 47.361C33.491 47.3443 30.6789 47.3276 27.8499 47.3777C26.9859 47.3944 26.3591 47.3443 26.0542 46.3587C25.8679 45.774 25.3597 45.2728 24.9023 44.8217C23.7842 43.7025 22.3951 43.0509 20.8535 42.7168C17.025 41.8815 13.4167 42.6333 9.94397 44.2538C8.89367 44.7215 7.91113 45.49 6.53896 45.1058Z" fill="#191919"/>
<path d="M65 2.72304C65 3.35787 65 3.87575 65 4.49386C64.1191 4.49386 63.2382 4.49386 62.3573 4.49386C61.3748 4.49386 61.3748 4.49386 61.3748 5.47951C61.3748 10.0569 61.3748 14.6176 61.3748 19.195C61.3748 20.3477 61.2393 20.2474 62.4251 20.2474C63.2721 20.2474 64.1022 20.2474 64.9831 20.2474C64.9831 20.8489 64.9831 21.3834 64.9831 21.9682C63.2213 21.9682 61.4595 21.9682 59.5791 21.9682C59.5791 21.5171 59.5622 21.066 59.5791 20.6317C59.5961 20.2809 59.4436 20.0971 59.1048 20.1472C58.5119 20.2307 57.8851 20.2642 57.326 20.4813C55.7337 21.0994 54.226 21.918 52.4981 22.1519C48.0597 22.7533 44.3667 21.3834 41.4699 18.0089C41.165 17.658 40.877 17.491 40.4027 17.491C39.0644 17.5244 37.743 17.5077 36.3031 17.5077C36.3878 17.7416 36.4217 17.9086 36.4895 18.0757C39.5218 25.3427 35.3036 33.2112 27.528 34.8316C20.7858 36.2349 13.908 31.4905 12.9594 24.7747C11.9938 17.9922 16.3474 12.0783 23.1744 10.8421C23.3946 10.8087 23.6656 10.5247 23.7503 10.3075C24.2416 8.93761 24.699 7.55103 25.1394 6.14774C25.258 5.7635 25.4613 5.57974 25.834 5.44609C31.0177 3.64186 36.1845 1.82093 41.3683 0.0334074C41.6563 -0.0668275 42.0289 -0.0501217 42.3169 0.0501132C46.1793 1.40328 50.0248 2.80657 53.8872 4.15975C54.5817 4.41033 55.361 4.49386 56.1063 4.54398C57.0719 4.6108 58.0545 4.54398 59.0201 4.56068C59.4266 4.56068 59.5622 4.42704 59.5791 4.00939C59.613 2.67293 59.6299 2.67293 61.0021 2.67293C62.3234 2.72304 63.6278 2.72304 65 2.72304ZM45.705 10.2574C45.4001 10.2574 45.146 10.2574 44.8919 10.2574C41.436 10.2574 37.9971 10.2574 34.5413 10.2574C34.1686 10.2574 33.779 10.2741 33.4063 10.3576C32.0172 10.6416 31.0855 12.0449 31.3227 13.4148C31.5768 14.8348 32.6779 15.7202 34.2533 15.7369C36.5742 15.7536 38.9119 15.7536 41.2327 15.7202C41.7918 15.7202 42.1306 15.8872 42.4694 16.3383C44.7563 19.362 47.8225 20.7486 51.668 20.4145C53.1926 20.2809 54.5648 19.6962 55.92 19.0613C56.9025 18.6103 57.8851 18.1926 59.0031 18.343C59.4266 18.4098 59.5452 18.1926 59.5452 17.7917C59.5283 14.1665 59.5283 10.5247 59.5452 6.8995C59.5452 6.44844 59.3758 6.3315 58.9523 6.3315C57.7834 6.34821 56.6146 6.36491 55.4626 6.3315C54.8697 6.3148 54.2429 6.23127 53.6839 6.0308C49.9062 4.71104 46.1454 3.34116 42.3677 2.00469C42.0798 1.90446 41.6901 1.83764 41.4191 1.93787C36.6758 3.57504 31.9325 5.24562 27.2062 6.8995C27.0368 6.96632 26.7996 7.04985 26.7488 7.1835C26.3422 8.31949 25.9695 9.45549 25.6138 10.5748C27.0198 10.8588 28.3412 11.1428 29.6964 11.4268C30.645 9.23831 32.3899 8.38632 34.7954 8.43644C38.1835 8.50326 41.5716 8.45314 44.9596 8.45314C45.1968 8.45314 45.4509 8.46985 45.705 8.48655C45.705 9.12137 45.705 9.62255 45.705 10.2574ZM35.6763 22.8369C35.6424 21.1162 35.2528 19.4957 34.3889 17.9922C34.2703 17.775 33.9653 17.5578 33.7451 17.5411C31.5598 17.3072 30.0691 16.0209 29.51 13.8992C29.4423 13.6487 29.2051 13.3647 28.968 13.2644C27.4094 12.6463 25.8001 12.4458 24.123 12.5962C18.2278 13.0974 13.8064 18.6938 14.755 24.474C15.6529 29.9535 20.5147 33.6956 26.1389 33.2279C31.4921 32.7768 35.778 28.1326 35.6763 22.8369Z" fill="#191919"/>
<path d="M46.9417 41.4639C46.4165 40.9293 45.9252 40.3947 45.4001 39.8768C43.7399 38.223 42.0629 36.6192 40.4366 34.9486C38.7087 33.1778 38.6748 30.4882 40.2841 28.7006C41.9104 26.8964 44.587 26.6291 46.6029 28.0825C46.9078 28.2997 47.0772 28.3331 47.416 28.0992C49.4658 26.6291 52.1762 26.9131 53.7686 28.734C55.3779 30.555 55.2932 33.2613 53.5145 35.0321C51.38 37.1705 49.1947 39.2587 46.9417 41.4639ZM47.0433 38.7909C48.7543 37.1204 50.4991 35.4498 52.1932 33.7458C53.362 32.5931 53.3451 30.8557 52.227 29.7531C51.092 28.6171 49.3472 28.6505 48.1444 29.8032C47.7717 30.1707 47.416 30.555 46.9417 31.0395C46.4673 30.5216 46.0946 30.0371 45.6542 29.6362C44.5361 28.6338 42.876 28.6839 41.8087 29.703C40.7415 30.722 40.5721 32.426 41.6055 33.4952C43.3673 35.3161 45.2138 37.0201 47.0433 38.7909Z" fill="#191919"/>
<path d="M7.3011 17.5411C6.84371 17.0733 6.40327 16.6055 5.92894 16.1378C4.62453 14.8347 3.28625 13.5484 1.98184 12.2286C0.457214 10.675 0.321692 8.43639 1.64304 6.84933C2.96438 5.26228 5.18356 4.96157 7.01312 6.13098C7.3011 6.31475 7.45357 6.29804 7.72461 6.11428C9.53722 4.94487 11.7733 5.26228 13.0947 6.84933C14.3822 8.40297 14.2975 10.6583 12.8067 12.1451C11.028 13.9326 9.19842 15.6867 7.3011 17.5411ZM7.31804 9.15474C6.92842 8.65356 6.67431 8.25262 6.33551 7.91851C5.38685 6.99968 4.08244 6.98298 3.21849 7.85168C2.33759 8.72038 2.35453 9.99003 3.28625 10.9256C4.26879 11.9279 5.2852 12.9135 6.28468 13.8992C6.64043 14.25 6.9623 14.6175 7.25028 14.9182C8.79185 13.4481 10.2995 12.095 11.7056 10.6416C12.4848 9.83967 12.3154 8.57003 11.5192 7.81827C10.7061 7.0498 9.4864 6.99968 8.63939 7.73474C8.19894 8.08556 7.87707 8.53662 7.31804 9.15474Z" fill="#191919"/>
<path d="M24.2585 16.2046C24.8853 16.2046 25.4274 16.2046 26.0542 16.2046C26.0542 16.4886 26.0542 16.7559 26.0542 17.0065C26.0542 18.0923 25.9526 17.9921 27.0876 18.0088C27.4603 18.0088 27.8329 18.0088 28.2565 18.0088C28.2565 18.6102 28.2565 19.1448 28.2565 19.7462C28.0362 19.7629 27.816 19.7796 27.5958 19.7796C26.4608 19.7796 25.3088 19.7629 24.1738 19.7963C23.3946 19.813 22.9033 20.2808 22.9033 20.9156C22.9033 21.5505 23.4115 22.0015 24.1908 22.0182C24.9531 22.0349 25.7154 22.0015 26.4777 22.0349C28.0023 22.1017 29.1882 23.2879 29.239 24.7747C29.2898 26.3617 28.2056 27.6314 26.6302 27.7817C26.1897 27.8151 26.0373 27.9655 26.0542 28.3998C26.0881 28.7841 26.0542 29.185 26.0542 29.6194C25.4613 29.6194 24.9192 29.6194 24.2585 29.6194C24.2585 29.2017 24.2416 28.7674 24.2585 28.3497C24.2755 27.9321 24.1061 27.7984 23.6995 27.8151C23.1574 27.8318 22.6153 27.8151 22.0394 27.8151C22.0394 27.197 22.0394 26.6624 22.0394 26.0443C23.0219 26.0443 23.9875 26.0443 24.9531 26.0443C25.3766 26.0443 25.8001 26.061 26.2236 26.0276C26.9182 25.9942 27.3925 25.5598 27.4094 24.9584C27.4264 24.3403 26.952 23.8559 26.2236 23.8224C25.5291 23.789 24.8345 23.8224 24.123 23.8057C22.429 23.789 21.1585 22.6864 21.0738 21.1662C20.9721 19.4789 22.0055 18.2594 23.7503 18.0589C24.14 18.0088 24.2416 17.8418 24.2247 17.4909C24.2416 17.0566 24.2585 16.6389 24.2585 16.2046Z" fill="#191919"/>
</g>
<defs>
<clipPath id="clip0_434_447">
<rect width="65" height="64" fill="white"/>
</clipPath>
</defs>
</svg>
