<svg width="80" height="84" viewBox="0 0 80 84" fill="none" xmlns="http://www.w3.org/2000/svg">
<g clip-path="url(#clip0_889_1551)">
<path d="M30.111 28.9997C32.1332 26.4515 34.511 24.8054 37.4443 24.0837C38.3332 23.8582 39.2443 23.7455 40.1554 23.6778C41.4443 23.5876 41.9332 24.1063 41.8888 25.4142C41.6888 31.8636 36.9777 37.208 30.6443 38.1777C30.4888 38.2003 30.311 38.2228 30.111 38.2679C30.111 39.2827 30.111 40.2974 30.111 41.3348C34.9332 41.3348 39.711 41.3348 44.5999 41.3348C44.5999 40.9514 44.5999 40.5906 44.5999 40.2298C44.5999 30.7812 44.5999 21.3552 44.5999 11.9066C44.5999 10.1927 44.911 9.89959 46.5999 9.92214C61.7554 10.1476 75.111 21.6032 77.6443 36.8021C79.7332 49.2274 75.911 59.6231 66.5554 67.899C66.111 68.305 65.9554 68.6658 65.9554 69.2521C65.9777 72.7925 65.9999 76.3554 65.9554 79.8958C65.9332 82.6695 63.4888 84.5637 60.9777 83.797C59.3332 83.3009 58.2221 81.7224 58.1777 79.8056C58.1554 78.2496 58.1777 76.7162 58.1777 75.1603C58.1777 74.1455 57.7332 73.6268 56.911 73.6268C56.0888 73.6268 55.6221 74.168 55.6221 75.1377C55.6221 75.9044 55.6443 76.6711 55.6221 77.4153C55.5554 79.738 53.911 81.4293 51.7554 81.4293C49.6221 81.4293 47.9332 79.7154 47.8443 77.4153C47.8221 76.7839 47.8443 76.1299 47.8443 75.3407C46.3777 75.3407 44.9777 75.4534 43.6221 75.3181C31.3554 74.1455 22.4443 67.9216 16.8221 56.8494C14.6443 52.5423 13.6665 47.9195 13.6221 43.0711C13.5999 41.7632 14.0221 41.3348 15.2665 41.3122C15.8888 41.3122 16.5332 41.3122 17.3777 41.3122C16.8443 40.9063 16.4665 40.6357 16.111 40.3425C14.4665 39.0572 13.0665 37.5463 11.9777 35.7648C11.7332 35.3589 11.4888 35.2011 10.9999 35.2011C5.19988 35.2462 0.599881 30.9842 0.0443257 25.0985C-0.466785 19.709 3.35544 14.6352 8.77766 13.5076C15.5777 12.087 22.0888 17.905 21.5999 24.9181C21.5777 25.1887 21.6443 25.5946 21.8221 25.7074C24.0665 27.1731 25.911 29.0674 27.4443 31.5028C27.4443 27.8271 27.4443 24.3318 27.4443 20.7463C25.6888 20.4531 23.9999 19.8217 22.5554 18.6717C19.9777 16.6196 18.5777 13.9586 18.4888 10.6212C18.4443 9.51623 18.9554 8.99757 20.0443 9.02012C21.711 9.06522 23.2665 9.51623 24.7554 10.328C24.911 9.24563 24.9777 8.18576 25.1999 7.171C25.5777 5.38952 26.4221 3.8561 27.6443 2.52563C28.4888 1.60106 29.1777 1.62361 30.0221 2.57073C31.9554 4.75811 32.8443 7.3063 32.711 10.1702C33.9999 9.80939 35.2888 9.44858 36.5777 9.11033C36.8221 9.04268 37.0665 9.04267 37.311 9.02012C38.6888 8.95247 39.1999 9.51623 39.0888 10.8918C38.7332 15.8303 35.4665 19.5962 30.6888 20.6335C30.511 20.6786 30.311 20.7237 30.0888 20.7688C30.111 23.4974 30.111 26.1358 30.111 28.9997ZM47.2443 72.8601C47.7777 72.815 48.2221 72.7925 48.6443 72.7474C49.8665 72.6121 50.4443 73.1082 50.4443 74.3259C50.4665 75.3407 50.4221 76.3554 50.4665 77.3702C50.4888 78.2722 51.0221 78.836 51.7554 78.8134C52.511 78.7909 52.9777 78.2496 52.9999 77.3251C53.0221 76.4456 52.9777 75.5662 53.0221 74.7092C53.1332 72.7474 54.5777 71.259 56.511 71.011C58.2443 70.808 59.9999 71.913 60.5332 73.6268C60.711 74.168 60.7554 74.7769 60.7777 75.3632C60.8221 76.9192 60.7777 78.4526 60.8221 80.0086C60.8443 80.7978 61.3777 81.3165 62.0665 81.3165C62.7999 81.3165 63.311 80.7978 63.3332 79.9635C63.3332 79.738 63.3332 79.5125 63.3332 79.287C63.3332 75.6338 63.3554 71.9581 63.311 68.305C63.311 67.5382 63.5332 66.9519 64.1554 66.5009C64.6665 66.095 65.1554 65.644 65.6888 65.193C60.7332 59.4878 54.6888 56.3533 47.2221 55.8797C47.2443 61.6075 47.2443 67.1774 47.2443 72.8601ZM67.6888 63.2762C72.5332 57.8867 75.2221 51.5275 75.5999 44.0859C71.2443 44.0859 67.0221 44.0859 62.7332 44.0859C62.711 44.334 62.711 44.5595 62.6665 44.785C62.2443 48.3479 61.9554 51.956 61.311 55.4738C61.0221 57.0523 61.0888 58.0897 62.6221 58.7211C62.7777 58.7887 62.8888 58.9015 63.0221 59.0142C64.5554 60.4349 66.0888 61.8556 67.6888 63.2762ZM75.5777 41.3573C75.1777 33.9157 72.4888 27.5339 67.5332 22.0542C65.6443 24.2416 63.5999 26.0682 61.311 27.6242C61.1332 27.7369 61.0443 28.1879 61.0888 28.4585C61.4888 31.0744 61.9999 33.6676 62.3554 36.2835C62.5777 37.9522 62.6221 39.6435 62.7554 41.3573C66.9999 41.3573 71.2221 41.3573 75.5777 41.3573ZM16.1777 44.0859C16.5999 51.5275 19.2888 57.9093 24.2665 63.389C26.1332 61.1791 28.2221 59.3299 30.5332 57.7514C30.6888 57.6386 30.7332 57.2327 30.6888 56.9847C30.2443 53.9178 29.7332 50.8736 29.311 47.8293C29.1332 46.6115 29.1554 45.3713 29.0665 44.0859C24.7777 44.0859 20.511 44.0859 16.1777 44.0859ZM27.2443 41.3348C27.7999 31.2999 18.6888 24.873 11.9332 25.9329C11.4443 34.7726 18.9777 41.9211 27.2443 41.3348ZM10.3554 32.5401C9.37766 29.9919 9.2221 27.331 9.31099 24.6475C9.33321 23.7004 9.77766 23.1141 10.6221 23.1592C12.711 23.2719 14.8221 23.4523 16.911 23.7004C17.5999 23.768 18.2665 24.0837 18.9554 24.3093C19.1332 19.8894 15.311 16.0333 10.8443 16.0107C6.19988 15.9882 2.44433 19.8894 2.59988 24.5573C2.75544 29.9017 7.44433 32.7431 10.3554 32.5401ZM60.0888 41.3348C59.9999 37.208 59.5332 33.2166 58.5332 29.2027C54.911 31.0067 51.1554 31.9538 47.2221 32.1793C47.2221 35.2913 47.2221 38.2905 47.2221 41.3348C51.511 41.3348 55.7332 41.3348 60.0888 41.3348ZM31.6888 44.0633C31.8221 48.2126 32.2665 52.1815 33.2665 56.1954C36.8888 54.3914 40.6443 53.4668 44.5777 53.2188C44.5777 50.1068 44.5777 47.1076 44.5777 44.0633C40.2665 44.0633 36.0221 44.0633 31.6888 44.0633ZM47.2221 53.2413C51.1777 53.4443 54.9332 54.414 58.5554 56.218C59.511 52.1589 60.0221 48.1675 60.0443 44.1084C55.711 44.1084 51.4665 44.1084 47.2221 44.1084C47.2221 47.1527 47.2221 50.1519 47.2221 53.2413ZM44.5554 55.9023C40.7777 56.0601 37.2888 57.0749 33.9332 58.8338C34.2443 59.7584 34.511 60.6153 34.8443 61.4497C36.1554 64.7871 37.7554 67.9667 40.3999 70.4472C41.5777 71.5296 42.8888 72.3866 44.5554 72.7248C44.5554 67.0872 44.5554 61.5399 44.5554 55.9023ZM57.8443 26.6094C56.711 23.0239 55.2888 19.6639 52.9999 16.7323C51.8888 15.3117 50.5999 14.0714 48.9554 13.2821C48.4221 13.0341 47.8443 12.8762 47.2665 12.6507C47.2665 18.3785 47.2665 23.9259 47.2665 29.5409C51.0221 29.3154 54.5332 28.3683 57.8443 26.6094ZM31.5554 60.029C29.6221 61.8105 27.8443 63.4341 26.0221 65.1028C29.5777 68.2824 33.3999 70.4247 37.7777 71.6424C34.8221 68.3501 33.0443 64.4488 31.5554 60.029ZM54.0443 13.7782C57.0221 17.0706 58.7777 21.0169 60.2665 25.3691C62.1999 23.6102 63.9777 21.964 65.7777 20.2953C62.2443 17.1382 58.4221 14.9734 54.0443 13.7782ZM39.1332 26.4741C34.7999 26.7672 30.311 31.345 30.2665 35.4942C34.4221 35.3364 39.0888 30.6459 39.1332 26.4741ZM21.1999 11.9742C21.8221 15.1538 24.7554 18.0403 27.2443 18.0177C26.8665 15.0636 23.9777 12.1546 21.1999 11.9742ZM36.3332 11.9968C34.0221 12.0419 30.5554 14.9058 30.3332 18.0177C32.911 17.9275 35.7999 15.0411 36.3332 11.9968ZM28.7777 5.38952C26.9777 7.84751 26.9999 11.9066 28.7777 14.0488C30.5554 11.7713 30.5777 7.91516 28.7777 5.38952Z" fill="white"/>
<path d="M77.5778 0C78 0.338255 78.4889 0.541208 78.6667 0.924564C78.8222 1.28537 78.8 1.91678 78.6 2.25503C77.4222 4.21691 77.4222 4.73557 78.8222 6.51705C80.4445 8.52403 80.3778 11.4556 78.7111 13.3498C78.1111 14.0489 77.3111 14.1616 76.7333 13.6204C76.1778 13.1243 76.1778 12.3801 76.7333 11.6585C77.6889 10.3957 77.6445 9.13289 76.6 7.91517C74.7556 5.77289 74.6667 2.84134 76.4445 0.856913C76.7333 0.518658 77.1333 0.338255 77.5778 0Z" fill="white"/>
<path d="M71.0444 14.1166C70.6222 13.7332 70.111 13.5077 69.9777 13.1469C69.8444 12.741 69.9111 12.1096 70.1555 11.7713C70.7555 10.937 71.1333 10.1026 70.7777 9.11039C70.6222 8.61428 70.2888 8.16327 69.9555 7.77992C68.2444 5.70529 68.2222 2.86395 69.8888 0.879516C70.5555 0.112805 71.2888 -0.0224974 71.9111 0.518711C72.4888 1.01482 72.4666 1.75898 71.8888 2.52569C70.9333 3.78851 71.0222 4.96113 72.1777 6.31415C73.8888 8.34368 73.9555 11.2076 72.2888 13.192C72.0222 13.5303 71.5555 13.7558 71.0444 14.1166Z" fill="white"/>
<path d="M64.6444 14.0939C64.2 13.7557 63.7111 13.5302 63.5555 13.1694C63.4 12.8086 63.4222 12.1997 63.6444 11.8389C64.8222 9.87703 64.8222 9.33582 63.4222 7.57689C61.7777 5.52481 61.8666 2.52562 63.6222 0.69904C64.2444 0.0450802 64.9555 -0.0225707 65.5333 0.496087C66.0666 0.992194 66.0888 1.69125 65.5777 2.39032C64.5111 3.81099 64.5555 4.8483 65.7333 6.24642C67.4888 8.3436 67.5555 11.23 65.8666 13.1919C65.5333 13.5302 65.1111 13.7557 64.6444 14.0939Z" fill="white"/>
</g>
<defs>
<clipPath id="clip0_889_1551">
<rect width="80" height="84" fill="white"/>
</clipPath>
</defs>
</svg>
