<svg width="84" height="84" viewBox="0 0 84 84" fill="none" xmlns="http://www.w3.org/2000/svg">
<g clip-path="url(#clip0_891_1640)">
<path d="M4.24741 48.9416C3.29851 49.0545 2.46258 49.19 1.60406 49.2577C0.609972 49.3254 0.0451526 48.8062 0.0225598 47.8129C-3.29637e-05 46.0972 -3.29637e-05 44.3816 0.0225598 42.6659C0.0225598 41.8081 0.27108 41.5146 1.37813 41.0631C1.37813 40.2504 1.42331 39.4152 1.37813 38.5799C1.33294 37.6995 1.51368 36.9545 2.43999 36.5031C1.76221 35.4872 1.12961 34.5391 0.497008 33.5684C-0.248554 32.4396 -0.112997 31.8075 1.01664 31.1303C3.07259 29.8887 5.12853 28.6471 7.18448 27.4281C8.22374 26.8186 8.81116 26.954 9.46635 27.9247C10.1215 28.8728 10.7541 29.8436 11.4093 30.8368C11.703 30.6788 11.9741 30.5659 12.1775 30.3853C13.149 29.5501 14.0753 29.7307 15.092 30.3853C17.9386 32.259 19.6557 34.8325 20.1979 38.1961C20.2205 38.3316 20.2431 38.467 20.2883 38.7154C21.8924 38.5122 23.4739 38.3316 25.0554 38.1284C26.6143 37.9252 28.1958 37.7221 29.8451 37.5189C29.8451 37.1803 29.8451 36.8868 29.8451 36.5934C29.8451 32.6202 29.8451 28.6471 29.8451 24.6514C29.8451 20.43 32.7369 17.5404 36.9844 17.5404C38.2044 17.5404 39.4244 17.4953 40.6218 17.6984C43.7396 18.2176 46.0215 20.9492 46.1119 24.1096C46.1345 25.0352 46.1119 25.9607 46.1119 27.0217C46.4282 27.0217 46.6993 27.0217 46.9704 27.0217C48.8908 27.0217 50.8112 27.0217 52.7315 27.0217C53.7256 27.0217 54.2227 27.5409 54.2453 28.5342C54.2679 29.3243 54.2679 30.1144 54.2453 30.9046C54.2227 32.6428 53.1156 33.7715 51.376 33.7715C49.6815 33.7941 47.9871 33.7941 46.2926 33.7941C46.27 33.7941 46.2474 33.8167 46.157 33.8618C46.157 34.3585 46.157 34.8777 46.157 35.4872C47.7611 35.284 49.3426 35.1034 50.9241 34.9003C55.9849 34.2682 61.0683 33.6135 66.1291 32.9814C67.1232 32.8685 67.7784 33.4329 67.7784 34.4488C67.8009 36.1644 67.8009 37.8801 67.7784 39.6183C67.7784 40.4988 67.3491 40.9502 66.468 41.0857C65.7224 41.1986 64.9543 41.3566 64.2087 41.3792C63.5761 41.4017 63.3502 41.6952 63.1242 42.2144C62.1753 44.4719 61.362 46.8196 60.1646 48.9416C56.866 54.8788 51.7149 58.0618 44.937 58.1295C32.3077 58.2649 19.7009 58.1746 7.07151 58.1746C5.98706 58.1746 5.55779 57.7909 5.39964 56.6847C5.06075 54.337 4.72186 51.9892 4.38297 49.664C4.38297 49.4834 4.31519 49.2351 4.24741 48.9416ZM6.98114 48.603C7.32003 50.9734 7.63633 53.2308 7.97522 55.4883C8.15596 55.5108 8.26893 55.5334 8.38189 55.5334C20.7176 55.5334 33.0532 55.5334 45.4115 55.5108C47.5804 55.5108 49.6363 54.8788 51.5793 53.9081C56.5271 51.4474 58.5831 46.8874 60.3001 41.9661C42.497 44.1784 24.7843 46.3907 6.98114 48.603ZM65.0446 35.9387C44.2593 38.5348 23.4965 41.1308 2.77888 43.7269C2.77888 44.675 2.77888 45.5103 2.77888 46.4133C23.5643 43.8172 44.327 41.2211 65.0446 38.6251C65.0446 37.6769 65.0446 36.8417 65.0446 35.9387ZM43.4007 27.0669C43.4007 26.0962 43.4233 25.2158 43.4007 24.3128C43.3329 22.1005 41.6159 20.3622 39.4018 20.3171C38.5885 20.2945 37.7751 20.3171 36.9392 20.3171C34.2506 20.3171 32.5788 22.0102 32.5562 24.7191C32.5562 28.602 32.5562 32.5074 32.5562 36.3902C32.5562 36.6611 32.5562 36.932 32.5562 37.248C36.2388 36.7965 39.8085 36.345 43.3329 35.8935C43.3329 35.1486 43.3329 34.5165 43.3329 33.8393C41.4803 33.8393 39.7181 33.8618 37.9333 33.8393C35.6966 33.7941 33.9569 32.0784 33.9118 29.8661C33.8666 27.6312 33.8892 25.4189 33.9118 23.1841C33.9118 22.1908 34.4314 21.6941 35.4255 21.6716C36.5777 21.649 37.7299 21.6716 38.9048 21.6716C40.2377 21.6716 40.667 22.123 40.6896 23.4549C40.6896 24.6514 40.6896 25.8479 40.6896 27.0669C41.6385 27.0669 42.4518 27.0669 43.4007 27.0669ZM4.08926 40.8148C8.63041 40.2504 13.0812 39.6861 17.5772 39.1217C17.2835 36.5031 16.1086 34.4939 14.0527 33.0266C13.8493 32.8911 13.3975 32.8685 13.1716 33.004C10.2571 34.7874 7.38781 36.5934 4.49593 38.3993C4.31519 38.5122 4.11186 38.7605 4.08926 38.9411C4.04408 39.5506 4.08926 40.1376 4.08926 40.8148ZM47.4222 29.7984C47.1059 29.7984 46.8348 29.7984 46.5637 29.7984C44.2818 29.7984 42 29.7984 39.7181 29.7984C38.4529 29.7984 38.001 29.3243 38.001 28.0602C38.001 26.8637 38.001 25.6447 38.001 24.4482C37.504 24.4482 37.0973 24.4482 36.7133 24.4482C36.6907 24.5611 36.6681 24.6062 36.6681 24.6514C36.6681 26.2542 36.6455 27.857 36.6681 29.4824C36.6681 30.6788 37.1425 31.1529 38.3625 31.1529C41.1866 31.1529 44.0107 31.1529 46.8348 31.1529C47.0608 31.1529 47.2641 31.1077 47.4674 31.1077C47.4222 30.6562 47.4222 30.2725 47.4222 29.7984ZM4.72186 35.0809C6.19039 34.1553 7.63633 33.2523 9.12746 32.3268C8.63041 31.5818 8.20115 30.9497 7.74929 30.2725C6.25817 31.1755 4.81223 32.0333 3.32111 32.9363C3.77296 33.6361 4.20223 34.2907 4.72186 35.0809ZM51.5115 29.8436C51.0371 29.8436 50.653 29.8436 50.2237 29.8436C50.2237 30.295 50.2237 30.7014 50.2237 31.1077C50.6756 31.1077 51.0823 31.1077 51.5341 31.1077C51.5341 30.7917 51.5341 30.5434 51.5341 30.295C51.5341 30.1596 51.5115 30.0241 51.5115 29.8436Z" fill="white"/>
<path d="M77.7645 60.2741C79.2556 61.9446 80.679 63.5474 82.1023 65.1502C82.5542 65.6694 82.9157 66.1886 82.5994 66.8884C82.2831 67.5883 81.6956 67.7237 80.9953 67.7237C77.6289 67.7011 74.2852 67.7011 70.9189 67.7237C70.2185 67.7237 69.6311 67.5883 69.3148 66.8884C68.9985 66.1661 69.3374 65.6468 69.8118 65.1502C71.2352 63.5474 72.6585 61.9446 74.1497 60.2741C73.3589 59.3937 72.5907 58.5133 71.8226 57.6329C70.0829 55.6689 69.1792 53.3888 69.2018 50.7702C69.247 48.3773 70.0378 46.2327 71.6644 44.4493C72.7037 43.298 73.8108 42.2144 74.9404 41.1309C75.6182 40.4536 76.3412 40.4536 77.0415 41.1309C78.1712 42.237 79.3234 43.3206 80.3627 44.517C83.5257 48.129 83.5934 53.4791 80.5434 57.1814C79.6171 58.2198 78.6908 59.2131 77.7645 60.2741ZM71.913 50.4993C71.6193 53.9532 73.8785 55.9849 75.9119 58.1521C79.0749 55.1271 80.4079 52.531 79.843 50.4993C76.1604 51.7861 76.1604 51.7861 71.913 50.4993ZM79.2556 47.4517C78.1486 46.2327 77.0641 45.0588 75.9571 43.8624C74.7823 45.1717 73.4267 46.0973 72.7715 47.6098C74.7371 49.1448 77.1997 49.1448 79.2556 47.4517ZM73.5171 65.0148C74.4434 65.0148 75.1663 65.0148 75.9119 65.0148C76.6575 65.0148 77.403 65.0148 78.3293 65.0148C77.4482 64.0215 76.7252 63.2088 75.9345 62.3284C75.1437 63.2088 74.3982 64.0215 73.5171 65.0148Z" fill="white"/>
<path d="M23.1125 65.0374C20.0625 68.559 15.3406 68.6493 12.2228 65.06C9.94094 67.5658 7.20721 68.4913 4.02163 67.0691C1.46864 65.9404 0.22604 63.841 0.0227051 60.9966C0.926417 60.9966 1.78494 60.9966 2.71125 60.9966C2.82421 62.3059 3.29866 63.5475 4.49608 64.2022C5.26423 64.6311 6.23572 64.9471 7.11684 64.9245C9.15019 64.9245 10.5735 63.3443 10.935 60.9514C11.7935 60.9514 12.6521 60.9514 13.5106 60.9514C14.0754 63.5926 15.4988 64.9697 17.6451 64.9697C19.814 64.9697 21.2599 63.5701 21.8022 60.9514C22.6381 60.9514 23.474 60.9514 24.4003 60.9514C24.5359 62.2833 24.9877 63.5249 26.1852 64.2022C26.9533 64.6311 27.9248 64.9471 28.8059 64.9471C30.8393 64.9471 32.2626 63.3669 32.6241 60.974C33.4826 60.974 34.3412 60.974 35.1997 60.974C35.8097 63.6604 37.2556 65.0148 39.4245 64.9923C41.5483 64.9697 42.9942 63.5249 43.4912 60.974C44.3498 60.974 45.2083 60.974 46.0668 60.974C46.225 63.4346 44.5531 66.0081 42.1357 67.0917C39.9893 68.0624 36.7586 68.1979 33.9345 65.0148C32.5337 66.6854 30.7489 67.7012 28.5348 67.7012C26.2981 67.7238 24.5359 66.7757 23.1125 65.0374Z" fill="white"/>
<path d="M81.4245 70.4778C82.283 70.4778 83.1415 70.4778 84 70.4778C84.1808 72.9158 82.5089 75.4893 80.0689 76.5955C77.8322 77.6113 74.5789 77.6339 71.8677 74.5186C70.467 76.1891 68.7047 77.205 66.468 77.205C64.2765 77.205 62.4917 76.2569 61.0458 74.4961C59.6224 76.1666 57.8602 77.1824 55.6461 77.205C53.4094 77.205 51.6472 76.2343 50.2012 74.5186C47.7838 77.1599 44.9597 78.0177 41.6612 76.4375C39.3567 75.3313 37.843 72.7352 38.0689 70.4778C38.9048 70.4778 39.7408 70.4778 40.6445 70.4778C40.7574 71.8097 41.2319 73.0513 42.4293 73.7059C43.1975 74.1349 44.169 74.4509 45.0501 74.4509C47.0834 74.4509 48.5068 72.8707 48.8683 70.4778C49.7268 70.4778 50.5853 70.4778 51.4438 70.4778C52.0312 73.1642 53.4998 74.5186 55.6687 74.4961C57.7924 74.4735 59.2383 73.0513 59.7354 70.4778C60.5713 70.4778 61.4073 70.4778 62.3336 70.4778C62.4691 71.8323 62.9436 73.0964 64.1862 73.7737C64.9317 74.18 65.8806 74.4735 66.7392 74.4735C68.7725 74.4509 70.2184 72.8933 70.5573 70.5004C71.4159 70.5004 72.2744 70.5004 73.1329 70.5004C73.7655 73.2319 75.234 74.5864 77.4481 74.5186C79.5267 74.4283 80.95 72.9836 81.4245 70.4778Z" fill="white"/>
<path d="M46.1344 8.12689C45.9762 10.9261 44.8918 13.161 42.6551 14.7412C38.8595 17.4276 33.5728 16.3666 31.1102 12.4386C28.6024 8.46551 29.9805 3.25078 34.115 0.993325C38.1591 -1.21898 43.2651 0.383811 45.2759 4.56011C45.5922 5.21477 45.9085 5.48567 46.654 5.44052C47.8062 5.35022 48.9585 5.41794 50.1559 5.41794C50.1559 6.3435 50.1559 7.17876 50.1559 8.12689C48.7777 8.12689 47.4674 8.12689 46.1344 8.12689ZM34.2958 12.0323C36.0354 13.6351 38.3399 13.9737 40.3506 12.9804C42.2258 12.0549 43.4684 10.0683 43.3329 8.10432C43.0166 8.10432 42.6777 8.10432 42.3388 8.10432C40.6669 8.10432 39.0177 8.08174 37.3458 8.14947C37.0973 8.14947 36.668 8.55581 36.668 8.80413C36.5099 10.3392 35.7417 11.3776 34.2958 12.0323ZM42.4969 5.41794C41.4577 3.16048 38.4076 2.09948 35.945 3.09276C33.4146 4.13119 31.9687 6.99816 32.8272 9.43622C33.4372 9.52652 33.8213 9.36849 33.9343 8.66868C34.228 6.47895 35.4706 5.41794 37.7073 5.41794C39.2888 5.41794 40.8703 5.41794 42.4969 5.41794Z" fill="white"/>
<path d="M13.533 77.2502C13.8719 79.7109 15.4308 81.2234 17.5319 81.2685C19.746 81.3137 21.2372 79.8915 21.7568 77.2502C22.5927 77.2502 23.4287 77.2502 24.3324 77.2502C24.4905 78.6047 24.965 79.8689 26.185 80.5461C26.9305 80.9525 27.8794 81.2459 28.738 81.2459C30.7713 81.2234 32.2173 79.6657 32.5561 77.2728C33.4147 77.2728 34.2732 77.2728 35.1317 77.2728C35.4028 79.44 33.8439 82.0586 31.5621 83.2325C28.7154 84.7224 26.1398 84.1581 23.022 81.3814C19.7912 85.0385 15.0919 84.745 12.1774 81.3588C9.78261 83.9549 6.95851 84.8127 3.65996 83.2325C1.35549 82.1264 -0.158223 79.5303 0.0451119 77.2728C0.881045 77.2728 1.71698 77.2728 2.62069 77.2728C2.73365 78.6047 3.2081 79.8463 4.40552 80.501C5.17368 80.9299 6.14517 81.2459 7.02629 81.2459C9.05964 81.2459 10.483 79.6657 10.8445 77.2728C11.7708 77.2502 12.6293 77.2502 13.533 77.2502Z" fill="white"/>
<path d="M54.0645 26.3671C53.2737 25.9382 52.5281 25.5318 51.8052 25.1481C53.9289 17.1115 67.0553 8.60089 75.8665 9.54902C75.8665 10.3843 75.8665 11.2195 75.8665 12.1225C65.8579 12.574 58.6056 17.3598 54.0645 26.3671Z" fill="white"/>
<path d="M74.6465 14.9218C75.5276 14.9218 76.3635 14.9218 77.2447 14.9218C77.2447 15.8022 77.2447 16.66 77.2447 17.563C76.3861 17.563 75.5502 17.563 74.6465 17.563C74.6465 16.7277 74.6465 15.8699 74.6465 14.9218Z" fill="white"/>
<path d="M77.2447 23.0035C76.3409 23.0035 75.5276 23.0035 74.6465 23.0035C74.6465 22.1457 74.6465 21.2879 74.6465 20.3623C75.4824 20.3623 76.3409 20.3623 77.2447 20.3623C77.2447 21.2201 77.2447 22.078 77.2447 23.0035Z" fill="white"/>
<path d="M74.6013 28.3988C74.6013 27.5184 74.6013 26.7057 74.6013 25.8027C75.4598 25.8027 76.3184 25.8027 77.2447 25.8027C77.2447 26.6154 77.2447 27.4733 77.2447 28.3988C76.3861 28.3988 75.5276 28.3988 74.6013 28.3988Z" fill="white"/>
<path d="M77.2448 33.8168C76.3637 33.8168 75.5277 33.8168 74.624 33.8168C74.624 32.9589 74.624 32.1011 74.624 31.1981C75.4825 31.1981 76.3411 31.1981 77.2448 31.1981C77.2448 32.056 77.2448 32.8912 77.2448 33.8168Z" fill="white"/>
<path d="M77.2447 36.6385C77.2447 37.519 77.2447 38.3542 77.2447 39.2346C76.3636 39.2346 75.505 39.2346 74.6013 39.2346C74.6013 38.3768 74.6013 37.5415 74.6013 36.6385C75.4598 36.6385 76.3184 36.6385 77.2447 36.6385Z" fill="white"/>
<path d="M51.5117 29.8436C51.5343 30.0242 51.5343 30.1597 51.5343 30.2951C51.5343 30.5434 51.5343 30.7918 51.5343 31.1078C51.0824 31.1078 50.6757 31.1078 50.2239 31.1078C50.2239 30.7015 50.2239 30.2951 50.2239 29.8436C50.6305 29.8436 51.0146 29.8436 51.5117 29.8436Z" fill="white"/>
</g>
<defs>
<clipPath id="clip0_891_1640">
<rect width="84" height="84" fill="white"/>
</clipPath>
</defs>
</svg>
