<svg width="80" height="84" viewBox="0 0 80 84" fill="none" xmlns="http://www.w3.org/2000/svg">
<g clip-path="url(#clip0_897_1674)">
<path d="M29.2575 58.1741C30.0966 59.4039 30.8473 60.524 31.5981 61.622C34.3141 65.5969 37.0521 69.5498 39.7019 73.5467C42.2633 77.3679 40.6293 82.1553 36.3455 83.6267C33.4529 84.6149 30.3174 83.473 28.4184 80.7279C24.6867 75.2816 20.977 69.8353 17.2674 64.389C17.0908 64.1255 16.892 63.862 16.6933 63.5545C14.993 64.6087 13.2266 65.2236 11.2834 65.2675C5.03445 65.4651 -0.15462 60.3702 -5.1663e-05 54.1553C0.0882729 50.5538 1.7002 47.7428 4.65907 45.7004C6.82302 44.2071 9.05322 42.7577 11.2172 41.2424C11.703 40.891 12.1667 40.4079 12.4316 39.8808C16.6712 31.4259 20.8666 22.9271 25.0621 14.4502C26.0778 12.4079 27.8001 11.3318 30.0082 11.0683C32.8125 10.7389 35.3519 11.6612 37.7587 12.9569C42.1529 15.3067 45.7079 18.6667 48.8434 22.4659C53.4363 28.044 57.0135 34.171 58.8904 41.1765C59.6853 44.1412 60.1048 47.1498 59.4645 50.2024C59.1333 51.7616 58.515 53.189 57.3668 54.331C56.2406 55.473 54.8716 56.0659 53.2597 56.1977C45.4871 56.7906 37.6925 57.4275 29.9199 58.0424C29.7653 58.0643 29.5666 58.1302 29.2575 58.1741ZM26.8727 20.6871C27.0935 21.9608 27.2481 23.5859 27.6897 25.1232C30.4499 34.8079 35.8818 42.7796 43.6544 49.1483C45.8183 50.9271 48.2031 52.3106 51.0074 52.9255C52.4868 53.2549 53.6792 52.7718 54.695 51.8055C55.534 50.993 55.9757 49.9608 56.1965 48.8408C56.6381 46.491 56.4394 44.1632 55.7548 41.9232C52.8181 32.0628 47.1874 23.9812 39.0394 17.6345C37.1404 16.1632 35.0427 15.0212 32.658 14.4502C29.6991 13.7475 27.6014 15.131 27.0935 18.1177C26.9831 18.8643 26.961 19.611 26.8727 20.6871ZM44.2285 53.6941C33.8283 46.1616 27.1156 36.3232 23.958 24.0251C23.8918 24.1569 23.8255 24.2447 23.7593 24.3326C20.9991 29.9326 18.239 35.5545 15.4568 41.1545C15.2359 41.6157 15.3463 41.9012 15.5892 42.2745C18.3715 46.3373 21.1537 50.3781 23.8918 54.4628C24.3334 55.0996 24.7529 55.2753 25.5037 55.2094C28.8379 54.902 32.1501 54.6604 35.4844 54.3969C38.377 54.1553 41.2475 53.9357 44.2285 53.6941ZM12.8953 44.0534C10.7093 45.5247 8.54535 46.9522 6.44764 48.4236C2.9809 50.8832 2.27431 55.1875 4.72531 58.7232C7.15424 62.2369 11.4159 63.1153 14.9489 60.8314C16.9141 59.5577 18.8352 58.2181 20.7562 56.9004C20.955 56.7687 21.1537 56.6149 21.3524 56.4612C18.526 52.3326 15.7438 48.2259 12.8953 44.0534ZM19.4093 61.7757C20.3808 63.2032 21.2862 64.5208 22.2136 65.8604C25.2166 70.2526 28.2197 74.6667 31.2227 79.0589C32.1722 80.4424 33.5633 81.0134 34.9765 80.662C37.4496 80.0471 38.3991 77.3898 36.8975 75.1718C33.2542 69.8134 29.5887 64.4549 25.9453 59.0965C25.4595 58.3718 24.7308 58.1741 24.0022 58.6573C22.4786 59.6675 20.9991 60.6996 19.4093 61.7757Z" fill="white"/>
<path d="M62.7326 22.8172C61.6948 22.8172 61.1648 22.4439 60.8778 21.7411C60.6128 21.0384 60.8778 20.2917 61.6064 19.8305C63.2184 18.7764 64.8303 17.7223 66.4422 16.6682C68.4958 15.3286 70.5272 13.989 72.5808 12.6494C73.5965 11.9905 74.5681 12.0784 75.1201 12.9129C75.7163 13.7474 75.4292 14.7137 74.3914 15.4164C70.8364 17.7443 67.2592 20.0721 63.6821 22.4C63.3288 22.6196 62.9092 22.7513 62.7326 22.8172Z" fill="white"/>
<path d="M65.4263 30.3497C67.6124 30.745 69.953 31.1623 72.2936 31.5796C74.325 31.9529 76.3565 32.3043 78.388 32.6556C79.4479 32.8313 80.1103 33.578 79.9999 34.4784C79.8674 35.4666 78.9621 36.0596 77.8359 35.8619C73.8392 35.1592 69.8646 34.4345 65.8679 33.7097C65.4926 33.6439 65.0951 33.578 64.7418 33.4901C63.8806 33.2486 63.3728 32.5019 63.5053 31.7113C63.6598 30.8548 64.3664 30.3058 65.4263 30.3497Z" fill="white"/>
<path d="M57.124 1.71296C56.7928 4.98512 56.4395 8.25728 56.1083 11.5075C56.02 12.2981 55.9537 13.0886 55.8433 13.8792C55.7108 14.8894 54.9822 15.4604 54.0327 15.3726C53.1494 15.2847 52.5312 14.56 52.6195 13.5718C53.0169 9.50904 53.4365 5.4463 53.856 1.40551C53.9664 0.461197 54.7393 -0.109783 55.6667 2.08244e-05C56.5499 0.109825 57.1461 0.81257 57.124 1.71296Z" fill="white"/>
<path d="M38.7082 26.88C42.5945 26.88 45.9508 29.2298 47.1874 32.8094C48.4019 36.3231 47.2536 40.2541 44.2948 42.56C43.9856 42.8016 43.6765 43.0212 43.3011 43.1529C42.5504 43.3945 41.7554 43.0431 41.4021 42.3624C41.0268 41.6596 41.1813 40.8471 41.8879 40.32C43.2128 39.3318 44.074 38.102 44.2948 36.4549C44.5597 34.2369 43.809 32.4361 41.9762 31.1624C40.1656 29.8886 38.2004 29.8008 36.191 30.7671C35.9481 30.8769 35.7273 31.0526 35.4623 31.1624C34.6453 31.5577 33.74 31.3161 33.2984 30.5694C32.8567 29.8447 33.0555 28.9224 33.7841 28.3953C35.0428 27.4949 36.9859 26.88 38.7082 26.88Z" fill="white"/>
</g>
<defs>
<clipPath id="clip0_897_1674">
<rect width="80" height="84" fill="white"/>
</clipPath>
</defs>
</svg>
